G04*
G04 #@! TF.GenerationSoftware,Altium Limited,Altium Designer,24.4.1 (13)*
G04*
G04 Layer_Physical_Order=1*
G04 Layer_Color=255*
%FSLAX44Y44*%
%MOMM*%
G71*
G04*
G04 #@! TF.SameCoordinates,45E14481-76E1-4DB2-85C8-7C621F4D321E*
G04*
G04*
G04 #@! TF.FilePolarity,Positive*
G04*
G01*
G75*
%ADD17C,0.2540*%
%ADD21C,0.5000*%
%ADD22C,0.1500*%
%ADD23C,0.7000*%
%ADD25R,1.5000X1.5000*%
%ADD26R,0.5000X1.6000*%
%ADD27R,1.7000X0.9000*%
G04:AMPARAMS|DCode=28|XSize=1.1mm|YSize=0.6mm|CornerRadius=0.051mm|HoleSize=0mm|Usage=FLASHONLY|Rotation=180.000|XOffset=0mm|YOffset=0mm|HoleType=Round|Shape=RoundedRectangle|*
%AMROUNDEDRECTD28*
21,1,1.1000,0.4980,0,0,180.0*
21,1,0.9980,0.6000,0,0,180.0*
1,1,0.1020,-0.4990,0.2490*
1,1,0.1020,0.4990,0.2490*
1,1,0.1020,0.4990,-0.2490*
1,1,0.1020,-0.4990,-0.2490*
%
%ADD28ROUNDEDRECTD28*%
%ADD29O,1.9000X0.6000*%
%ADD30R,0.5000X0.4000*%
%ADD31R,0.9121X0.9096*%
%ADD32R,1.1500X1.1500*%
%ADD33R,1.0000X0.9000*%
%ADD34R,0.7620X0.4064*%
%ADD35R,1.2700X1.5240*%
%ADD36R,0.9000X1.0000*%
%ADD37R,0.8000X0.8000*%
%ADD38R,1.1500X1.4500*%
%ADD39R,1.4500X0.9500*%
%ADD40R,0.6000X1.1000*%
%ADD41R,1.3500X0.4000*%
%ADD42R,1.9000X2.9000*%
%ADD43R,0.8128X1.0160*%
%ADD44O,0.3000X2.1000*%
%ADD45O,2.1000X0.3000*%
%ADD46R,0.4000X0.5000*%
%ADD47R,1.0500X0.8000*%
%ADD48R,2.0500X1.1000*%
%ADD49R,0.9000X0.7500*%
%ADD50R,0.9096X0.9121*%
%ADD51R,1.4500X1.1500*%
%ADD52R,0.9000X1.7000*%
%ADD53R,0.9000X0.8000*%
%ADD54R,0.7500X0.9000*%
%ADD55R,0.4500X1.4750*%
%ADD56R,0.8000X0.9000*%
%ADD57R,0.6500X1.5250*%
%ADD58R,1.4000X1.2000*%
%ADD60R,0.8250X0.2500*%
%ADD61R,0.2500X0.8250*%
%ADD62C,2.4658*%
%ADD63R,0.4000X0.6000*%
%ADD64R,0.6000X0.4000*%
%ADD65R,0.7400X2.7900*%
%ADD66R,5.5000X1.4300*%
%ADD67R,1.0750X0.4000*%
%ADD68R,0.2500X0.6750*%
%ADD69R,0.3500X2.9750*%
%ADD70R,0.6000X0.6000*%
%ADD100C,1.5700*%
%ADD101R,1.5700X1.5700*%
%ADD109R,1.5700X1.5700*%
%ADD111C,10.2064*%
%ADD121R,1.9812X0.5588*%
%ADD122R,0.2500X0.2500*%
%ADD123C,0.1104*%
%ADD124C,0.4540*%
%ADD125C,0.5540*%
%ADD126R,1.5500X1.5500*%
%ADD127C,1.5500*%
%ADD128R,1.5500X1.5500*%
%ADD129R,1.9000X1.4000*%
%ADD130O,1.2500X1.0500*%
%ADD131C,2.4000*%
%ADD132C,3.2500*%
%ADD133C,1.4000*%
G04:AMPARAMS|DCode=134|XSize=1.4mm|YSize=1.4mm|CornerRadius=0.35mm|HoleSize=0mm|Usage=FLASHONLY|Rotation=90.000|XOffset=0mm|YOffset=0mm|HoleType=Round|Shape=RoundedRectangle|*
%AMROUNDEDRECTD134*
21,1,1.4000,0.7000,0,0,90.0*
21,1,0.7000,1.4000,0,0,90.0*
1,1,0.7000,0.3500,0.3500*
1,1,0.7000,0.3500,-0.3500*
1,1,0.7000,-0.3500,-0.3500*
1,1,0.7000,-0.3500,0.3500*
%
%ADD134ROUNDEDRECTD134*%
G04:AMPARAMS|DCode=135|XSize=1.4mm|YSize=1.4mm|CornerRadius=0.35mm|HoleSize=0mm|Usage=FLASHONLY|Rotation=0.000|XOffset=0mm|YOffset=0mm|HoleType=Round|Shape=RoundedRectangle|*
%AMROUNDEDRECTD135*
21,1,1.4000,0.7000,0,0,0.0*
21,1,0.7000,1.4000,0,0,0.0*
1,1,0.7000,0.3500,-0.3500*
1,1,0.7000,-0.3500,-0.3500*
1,1,0.7000,-0.3500,0.3500*
1,1,0.7000,0.3500,0.3500*
%
%ADD135ROUNDEDRECTD135*%
%ADD136C,1.5000*%
%ADD137R,1.5000X1.5000*%
%ADD138C,0.5100*%
%ADD139C,0.5000*%
%ADD140C,0.8000*%
%ADD141C,0.4000*%
%ADD142C,1.0000*%
%ADD143C,0.9000*%
%ADD144C,0.6000*%
%ADD145C,5.0000*%
G36*
X988060Y1716720D02*
Y1142451D01*
X987552Y1142034D01*
X968756D01*
X967765Y1141837D01*
X966925Y1141275D01*
X966363Y1140435D01*
X966166Y1139444D01*
Y1130554D01*
X966363Y1129563D01*
X966925Y1128723D01*
X967765Y1128161D01*
X968756Y1127964D01*
X987806D01*
X988060Y1127756D01*
Y1094953D01*
X987552Y1094536D01*
X968502D01*
X967511Y1094339D01*
X966671Y1093777D01*
X966109Y1092937D01*
X965912Y1091946D01*
Y1083564D01*
X966109Y1082573D01*
X966671Y1081733D01*
X966925Y1081479D01*
X967765Y1080917D01*
X968756Y1080720D01*
X987552D01*
X988060Y1080303D01*
Y726440D01*
X1318260D01*
X1319627Y727807D01*
X1320800Y727321D01*
Y0D01*
X0D01*
Y1724340D01*
X988060D01*
Y1716720D01*
D02*
G37*
%LPC*%
G36*
X875611Y1634230D02*
X871909D01*
X868279Y1633508D01*
X864860Y1632092D01*
X861782Y1630035D01*
X859165Y1627418D01*
X857109Y1624340D01*
X855692Y1620921D01*
X854970Y1617291D01*
Y1613589D01*
X855692Y1609959D01*
X857109Y1606540D01*
X859165Y1603462D01*
X861782Y1600845D01*
X864860Y1598788D01*
X868279Y1597372D01*
X871909Y1596650D01*
X875611D01*
X879241Y1597372D01*
X882660Y1598788D01*
X885738Y1600845D01*
X888355Y1603462D01*
X890412Y1606540D01*
X891828Y1609959D01*
X892550Y1613589D01*
Y1617291D01*
X891828Y1620921D01*
X890412Y1624340D01*
X888355Y1627418D01*
X885738Y1630035D01*
X882660Y1632092D01*
X879241Y1633508D01*
X875611Y1634230D01*
D02*
G37*
G36*
X761311D02*
X757609D01*
X753979Y1633508D01*
X750560Y1632092D01*
X747482Y1630035D01*
X744865Y1627418D01*
X742809Y1624340D01*
X741392Y1620921D01*
X740670Y1617291D01*
Y1613589D01*
X741392Y1609959D01*
X742809Y1606540D01*
X744865Y1603462D01*
X747482Y1600845D01*
X750560Y1598788D01*
X753979Y1597372D01*
X757609Y1596650D01*
X761311D01*
X764941Y1597372D01*
X768360Y1598788D01*
X771438Y1600845D01*
X774055Y1603462D01*
X776112Y1606540D01*
X777528Y1609959D01*
X778250Y1613589D01*
Y1617291D01*
X777528Y1620921D01*
X776112Y1624340D01*
X774055Y1627418D01*
X771438Y1630035D01*
X768360Y1632092D01*
X764941Y1633508D01*
X761311Y1634230D01*
D02*
G37*
G36*
X190668Y1691372D02*
X183192D01*
X175780Y1690396D01*
X168558Y1688461D01*
X161651Y1685600D01*
X155177Y1681862D01*
X149246Y1677311D01*
X143959Y1672025D01*
X139408Y1666093D01*
X135670Y1659619D01*
X132809Y1652712D01*
X130874Y1645490D01*
X129898Y1638078D01*
Y1630602D01*
X130874Y1623190D01*
X132809Y1615968D01*
X135670Y1609061D01*
X139408Y1602587D01*
X143959Y1596655D01*
X149246Y1591369D01*
X155177Y1586818D01*
X161651Y1583080D01*
X168558Y1580219D01*
X175780Y1578284D01*
X183192Y1577308D01*
X190668D01*
X198080Y1578284D01*
X205302Y1580219D01*
X212209Y1583080D01*
X218683Y1586818D01*
X224615Y1591369D01*
X229901Y1596655D01*
X234452Y1602587D01*
X238190Y1609061D01*
X241051Y1615968D01*
X242986Y1623190D01*
X243962Y1630602D01*
Y1638078D01*
X242986Y1645490D01*
X241051Y1652712D01*
X238190Y1659619D01*
X234452Y1666093D01*
X229901Y1672025D01*
X224615Y1677311D01*
X218683Y1681862D01*
X212209Y1685600D01*
X205302Y1688461D01*
X198080Y1690396D01*
X190668Y1691372D01*
D02*
G37*
G36*
X298931Y1545140D02*
X297125D01*
X295457Y1544449D01*
X294179Y1543172D01*
X293488Y1541503D01*
Y1539697D01*
X293649Y1539310D01*
X293156Y1538572D01*
X293156D01*
Y1529492D01*
Y1521492D01*
X294227D01*
Y1517856D01*
X281988D01*
Y1516201D01*
X277082D01*
Y1517856D01*
X275665D01*
Y1520294D01*
X277320D01*
Y1529294D01*
Y1538374D01*
X277094D01*
X276388Y1539430D01*
X276405Y1539471D01*
Y1541277D01*
X275714Y1542946D01*
X274437Y1544223D01*
X272768Y1544914D01*
X270962D01*
X269293Y1544223D01*
X268016Y1542946D01*
X267325Y1541277D01*
Y1539471D01*
X267342Y1539430D01*
X266636Y1538374D01*
X266240D01*
Y1529294D01*
Y1520294D01*
X267895D01*
Y1515534D01*
X267927Y1515373D01*
Y1513046D01*
X268002Y1512671D01*
Y1511520D01*
X265575Y1509093D01*
X264848Y1508005D01*
X264593Y1506721D01*
Y1481015D01*
X263390D01*
Y1469185D01*
X270895D01*
Y1459565D01*
X266470D01*
Y1461755D01*
X257890D01*
X256925Y1462491D01*
Y1466470D01*
X248659D01*
X248030Y1466553D01*
X246800D01*
X246171Y1466470D01*
X239797D01*
Y1470930D01*
X240217Y1471213D01*
X241068Y1471420D01*
X241349Y1471139D01*
X242189Y1470577D01*
X243180Y1470380D01*
X253180D01*
X253390Y1470208D01*
Y1469185D01*
X260970D01*
Y1474624D01*
X261065Y1475100D01*
X261045Y1475201D01*
Y1480406D01*
X260970Y1480781D01*
Y1481015D01*
X260924D01*
X260749Y1481893D01*
X259907Y1483153D01*
X253729Y1489331D01*
X252469Y1490173D01*
X250982Y1490469D01*
X250396D01*
Y1491854D01*
X239316D01*
Y1482774D01*
X245211D01*
X245586Y1482699D01*
X248658D01*
X248927Y1482330D01*
X248281Y1481060D01*
X246680D01*
X245689Y1480863D01*
X244849Y1480301D01*
X244349Y1479801D01*
X244217Y1479605D01*
X238413D01*
X230330Y1487688D01*
Y1500274D01*
X229986D01*
X229137Y1501544D01*
X229199Y1501692D01*
Y1503499D01*
X228508Y1505167D01*
X227231Y1506444D01*
X225562Y1507135D01*
X223756D01*
X222087Y1506444D01*
X220810Y1505167D01*
X220119Y1503499D01*
Y1501692D01*
X220269Y1501330D01*
X219564Y1500274D01*
X219250D01*
Y1491194D01*
Y1482194D01*
X218119Y1481857D01*
X172720D01*
X170379Y1481392D01*
X168394Y1480066D01*
X163314Y1474986D01*
X161988Y1473001D01*
X161523Y1470660D01*
Y1445260D01*
X161988Y1442919D01*
X163314Y1440934D01*
X170934Y1433314D01*
X172919Y1431988D01*
X175260Y1431523D01*
X231140D01*
X232344Y1431762D01*
X237576D01*
Y1435424D01*
X238006Y1435854D01*
X239332Y1437839D01*
X239787Y1440129D01*
X242839D01*
X243180Y1440470D01*
X250347D01*
X250347Y1440470D01*
X257890D01*
Y1432368D01*
X221631Y1393691D01*
X221385Y1393297D01*
X221127Y1392911D01*
X221119Y1392870D01*
X221097Y1392833D01*
X221021Y1392375D01*
X220930Y1391920D01*
Y1371600D01*
X221127Y1370609D01*
X221689Y1369769D01*
X224229Y1367229D01*
X225069Y1366667D01*
X226060Y1366470D01*
X289560D01*
X290551Y1366667D01*
X291391Y1367229D01*
X296471Y1372309D01*
X297033Y1373149D01*
X297230Y1374140D01*
Y1397000D01*
X297140Y1397450D01*
X297068Y1397902D01*
X297042Y1397943D01*
X297033Y1397991D01*
X296778Y1398372D01*
X296538Y1398762D01*
X266470Y1431143D01*
Y1440470D01*
X273631D01*
X273631Y1440470D01*
X281180D01*
X281680Y1439970D01*
Y1439859D01*
X287950D01*
Y1437542D01*
X308950D01*
Y1438951D01*
X313923D01*
Y1437640D01*
X314388Y1435299D01*
X315714Y1433314D01*
X323334Y1425694D01*
X325319Y1424368D01*
X327660Y1423902D01*
X365760D01*
X368101Y1424368D01*
X370086Y1425694D01*
X377706Y1433314D01*
X379032Y1435299D01*
X379497Y1437640D01*
Y1465580D01*
X379032Y1467921D01*
X377706Y1469906D01*
X372626Y1474986D01*
X370641Y1476312D01*
X368300Y1476777D01*
X325120D01*
X322779Y1476312D01*
X320794Y1474986D01*
X315714Y1469906D01*
X314388Y1467921D01*
X313923Y1465580D01*
Y1455633D01*
X308950D01*
Y1457042D01*
X301458D01*
Y1463960D01*
Y1473040D01*
X301458Y1473040D01*
X301458D01*
X301458Y1473040D01*
X301865Y1474141D01*
X305468D01*
X306437Y1473740D01*
X308243D01*
X309912Y1474431D01*
X311189Y1475708D01*
X311880Y1477377D01*
Y1479183D01*
X311189Y1480852D01*
X309912Y1482129D01*
X308243Y1482820D01*
X306437D01*
X304768Y1482129D01*
X304550Y1481911D01*
X300950D01*
Y1482312D01*
X290870D01*
Y1478726D01*
X285491Y1473346D01*
X285473Y1473348D01*
X284270Y1473801D01*
Y1474470D01*
X284073Y1475461D01*
X283511Y1476301D01*
X283011Y1476801D01*
X282171Y1477363D01*
X281180Y1477560D01*
X280770D01*
Y1477970D01*
X280573Y1478961D01*
X280011Y1479801D01*
X279511Y1480301D01*
X278671Y1480863D01*
X278205Y1480955D01*
Y1485425D01*
X280379D01*
Y1499505D01*
X271302D01*
Y1505332D01*
X272746Y1506776D01*
X277082D01*
Y1508431D01*
X281988D01*
Y1506776D01*
X303568D01*
Y1517856D01*
X301997D01*
Y1521492D01*
X303236D01*
Y1529492D01*
Y1538572D01*
X303236D01*
X302536Y1539619D01*
X302568Y1539697D01*
Y1541503D01*
X301877Y1543172D01*
X300600Y1544449D01*
X298931Y1545140D01*
D02*
G37*
G36*
X811516Y1561480D02*
X809004D01*
X806578Y1560830D01*
X804402Y1559574D01*
X802626Y1557798D01*
X801370Y1555622D01*
X800720Y1553196D01*
Y1550684D01*
X801370Y1548258D01*
X802626Y1546082D01*
X804402Y1544306D01*
X805356Y1543756D01*
Y1515845D01*
X805729Y1513968D01*
X806792Y1512377D01*
X815516Y1503654D01*
Y1476960D01*
X809380D01*
Y1462880D01*
X808117Y1462864D01*
X805391D01*
X798440Y1469816D01*
Y1476960D01*
X776360D01*
Y1462880D01*
X791504D01*
X799892Y1454492D01*
X801483Y1453429D01*
X803360Y1453056D01*
X833000D01*
X834877Y1453429D01*
X836468Y1454492D01*
X839128Y1457152D01*
X840191Y1458743D01*
X840564Y1460620D01*
Y1513840D01*
X840191Y1515717D01*
X839128Y1517308D01*
X832215Y1524221D01*
X832500Y1525284D01*
Y1527796D01*
X831850Y1530222D01*
X830594Y1532398D01*
X828818Y1534174D01*
X826642Y1535430D01*
X824216Y1536080D01*
X821704D01*
X819278Y1535430D01*
X817102Y1534174D01*
X816434Y1533506D01*
X815164Y1534032D01*
Y1543756D01*
X816118Y1544306D01*
X817894Y1546082D01*
X819150Y1548258D01*
X819800Y1550684D01*
Y1553196D01*
X819150Y1555622D01*
X817894Y1557798D01*
X816118Y1559574D01*
X813942Y1560830D01*
X811516Y1561480D01*
D02*
G37*
G36*
X831460Y1447960D02*
X809380D01*
Y1433880D01*
X814776D01*
Y1428360D01*
X812640D01*
Y1415564D01*
X812546Y1415090D01*
Y1409815D01*
X808393Y1405663D01*
X807330Y1404072D01*
X806957Y1402195D01*
Y1401756D01*
X805740Y1401265D01*
X804620D01*
X804470Y1401265D01*
X803099D01*
Y1401890D01*
X802725Y1403767D01*
X801662Y1405358D01*
X797814Y1409206D01*
Y1415090D01*
X797720Y1415564D01*
Y1428360D01*
X792304D01*
Y1433880D01*
X798440D01*
Y1447960D01*
X776360D01*
Y1433880D01*
X782496D01*
Y1424600D01*
X782869Y1422723D01*
X783640Y1421569D01*
Y1406280D01*
X788184D01*
X788379Y1405298D01*
X789442Y1403707D01*
X790711Y1402438D01*
X790225Y1401265D01*
X780340D01*
Y1396824D01*
X775620D01*
Y1396960D01*
X766540D01*
Y1393751D01*
X766176Y1391920D01*
X766540Y1390089D01*
Y1386880D01*
X775620D01*
Y1387016D01*
X780340D01*
Y1380935D01*
X782095D01*
X782183Y1379665D01*
X781621Y1379102D01*
X780777Y1377066D01*
Y1374862D01*
X781621Y1372826D01*
X783179Y1371268D01*
X785215Y1370424D01*
X787419D01*
X789455Y1371268D01*
X791014Y1372826D01*
X791857Y1374862D01*
Y1377066D01*
X791014Y1379102D01*
X790747Y1379369D01*
X791131Y1380653D01*
X791920Y1380935D01*
X793040D01*
Y1380935D01*
X804470D01*
X804620Y1380935D01*
X805740D01*
X805890Y1380935D01*
X817320D01*
Y1400718D01*
X820918Y1404316D01*
X821981Y1405907D01*
X822055Y1406280D01*
X826720D01*
Y1428360D01*
X824584D01*
Y1433880D01*
X831460D01*
Y1447960D01*
D02*
G37*
G36*
X320040Y1353870D02*
X220980D01*
X219989Y1353673D01*
X219149Y1353111D01*
X218587Y1352271D01*
X218390Y1351280D01*
Y1340584D01*
X209466D01*
Y1342220D01*
X193886D01*
Y1341219D01*
X183050D01*
Y1343490D01*
X167470D01*
Y1330410D01*
X183050D01*
Y1331411D01*
X193886D01*
Y1329140D01*
X209466D01*
Y1330776D01*
X218390D01*
Y1325880D01*
X218587Y1324889D01*
X219149Y1324049D01*
X224229Y1318969D01*
X225069Y1318407D01*
X226060Y1318210D01*
X297180D01*
X298171Y1318407D01*
X299011Y1318969D01*
X308413Y1328370D01*
X325120D01*
X326111Y1328567D01*
X326951Y1329129D01*
X329491Y1331669D01*
X330053Y1332509D01*
X330250Y1333500D01*
Y1343660D01*
X330053Y1344651D01*
X329491Y1345491D01*
X321871Y1353111D01*
X321031Y1353673D01*
X320040Y1353870D01*
D02*
G37*
G36*
X814185Y1355165D02*
X795020D01*
X793533Y1354869D01*
X792273Y1354027D01*
X789903Y1351657D01*
X789061Y1350397D01*
X788766Y1348910D01*
Y1347025D01*
X780340D01*
Y1334390D01*
X611806D01*
X610320Y1334094D01*
X609059Y1333252D01*
X495633Y1219825D01*
X494791Y1218565D01*
X494495Y1217078D01*
Y1216634D01*
X493907Y1216390D01*
X492348Y1214831D01*
X491505Y1212795D01*
Y1210591D01*
X492019Y1209351D01*
X491170Y1208081D01*
X221903D01*
X220417Y1207785D01*
X219156Y1206943D01*
X187897Y1175683D01*
X187055Y1174423D01*
X186759Y1172936D01*
Y1170919D01*
X184404D01*
Y1170919D01*
X184184D01*
Y1170919D01*
X171704D01*
Y1137939D01*
X176394D01*
X177078Y1136669D01*
X176654Y1135085D01*
Y1133073D01*
X177078Y1131489D01*
X176394Y1130219D01*
X171704D01*
Y1097239D01*
X184184D01*
Y1097239D01*
X184404D01*
Y1097239D01*
X188136D01*
Y1083833D01*
X185939D01*
Y1070078D01*
X185939Y1068808D01*
X185939Y1068387D01*
Y1054632D01*
X188129D01*
X188133Y1053362D01*
X187807Y1053036D01*
X186946Y1051544D01*
X186500Y1049881D01*
Y1048159D01*
X186946Y1046496D01*
X187807Y1045004D01*
X189024Y1043787D01*
X190516Y1042926D01*
X192179Y1042480D01*
X193901D01*
X195564Y1042926D01*
X197056Y1043787D01*
X198273Y1045004D01*
X199134Y1046496D01*
X199580Y1048159D01*
Y1049881D01*
X199134Y1051544D01*
X198273Y1053036D01*
X197947Y1053362D01*
X197951Y1054632D01*
X200141D01*
Y1068387D01*
X200141Y1069657D01*
X200141Y1070078D01*
Y1083833D01*
X197944D01*
Y1101083D01*
X197571Y1102960D01*
X196884Y1103988D01*
Y1130219D01*
X192193D01*
X191509Y1131489D01*
X191934Y1133073D01*
Y1135085D01*
X191509Y1136669D01*
X192193Y1137939D01*
X196884D01*
Y1137939D01*
X197104D01*
Y1137939D01*
X208534D01*
X209583Y1137939D01*
Y1137939D01*
X209804D01*
Y1137939D01*
X222283D01*
Y1137939D01*
X222504D01*
Y1137939D01*
X233934D01*
X234984Y1137939D01*
Y1137939D01*
X235204D01*
Y1137939D01*
X236539D01*
Y1135179D01*
X232727Y1131366D01*
X231960Y1130219D01*
X222504D01*
Y1097239D01*
X231589D01*
Y1074088D01*
X231647Y1073795D01*
X230842Y1072813D01*
X229824D01*
X227787Y1071970D01*
X226229Y1070411D01*
X225386Y1068375D01*
Y1067227D01*
X111553Y953394D01*
X110711Y952134D01*
X110415Y950648D01*
Y882300D01*
X109260D01*
Y873220D01*
X113846D01*
X113873Y873193D01*
X115133Y872351D01*
X116620Y872055D01*
X130180D01*
Y865900D01*
X150260D01*
Y885980D01*
X130180D01*
Y879825D01*
X119340D01*
Y882300D01*
X118185D01*
Y949038D01*
X230879Y1061733D01*
X232028D01*
X232371Y1061875D01*
X233329Y1060898D01*
Y1059280D01*
X232667Y1058290D01*
X232372Y1056803D01*
Y923655D01*
X161583Y852866D01*
X160741Y851605D01*
X160445Y850119D01*
Y837830D01*
X151334Y828718D01*
X150195Y829376D01*
X150260Y829618D01*
Y832262D01*
X149576Y834815D01*
X148254Y837105D01*
X146385Y838974D01*
X144095Y840296D01*
X141542Y840980D01*
X138898D01*
X136345Y840296D01*
X134055Y838974D01*
X132186Y837105D01*
X130864Y834815D01*
X130180Y832262D01*
Y829618D01*
X130864Y827065D01*
X132186Y824775D01*
X134055Y822906D01*
X136345Y821584D01*
X138898Y820900D01*
X141542D01*
X141784Y820965D01*
X142442Y819826D01*
X112663Y790048D01*
X111821Y788788D01*
X111525Y787301D01*
Y787240D01*
X109260D01*
Y778160D01*
X116414D01*
X116840Y778075D01*
X130180D01*
Y771920D01*
X150260D01*
Y792000D01*
X130180D01*
Y785845D01*
X121107D01*
X120621Y787018D01*
X167076Y833474D01*
X167918Y834734D01*
X168214Y836221D01*
Y848510D01*
X193962Y874257D01*
X195378Y873878D01*
X195864Y872065D01*
X197186Y869775D01*
X199055Y867906D01*
X201345Y866584D01*
X203898Y865900D01*
X206542D01*
X209095Y866584D01*
X211385Y867906D01*
X213254Y869775D01*
X214576Y872065D01*
X215260Y874618D01*
Y877262D01*
X214576Y879815D01*
X213254Y882105D01*
X211385Y883974D01*
X209095Y885296D01*
X207282Y885782D01*
X206903Y887198D01*
X239003Y919299D01*
X239845Y920559D01*
X240141Y922046D01*
Y1054552D01*
X242007Y1055325D01*
X243566Y1056883D01*
X244100Y1058172D01*
X245582Y1058485D01*
X247331Y1056737D01*
X247033Y1055239D01*
X245958Y1054794D01*
X244399Y1053235D01*
X243556Y1051199D01*
Y1048995D01*
X244399Y1046959D01*
X245211Y1046147D01*
Y1035547D01*
X243899Y1034235D01*
X243057Y1032975D01*
X242761Y1031488D01*
Y842615D01*
X175053Y774907D01*
X174211Y773647D01*
X173915Y772160D01*
Y762332D01*
X151075Y739491D01*
X149848Y739820D01*
X149576Y740835D01*
X148254Y743125D01*
X146385Y744994D01*
X144095Y746316D01*
X141542Y747000D01*
X138898D01*
X136345Y746316D01*
X134055Y744994D01*
X132186Y743125D01*
X130864Y740835D01*
X130180Y738282D01*
Y735638D01*
X130864Y733085D01*
X132186Y730795D01*
X134055Y728926D01*
X136345Y727604D01*
X137360Y727332D01*
X137689Y726105D01*
X111553Y699970D01*
X110711Y698710D01*
X110415Y697223D01*
Y694340D01*
X109260D01*
Y685260D01*
X119340D01*
Y685915D01*
X130180D01*
Y677940D01*
X150260D01*
Y698020D01*
X130180D01*
Y693685D01*
X119340D01*
Y694340D01*
X118185D01*
Y695614D01*
X180547Y757976D01*
X181389Y759237D01*
X181685Y760723D01*
Y770551D01*
X193910Y782776D01*
X195180Y782250D01*
Y780638D01*
X195864Y778085D01*
X197186Y775795D01*
X199055Y773926D01*
X201345Y772604D01*
X203898Y771920D01*
X206542D01*
X209095Y772604D01*
X211385Y773926D01*
X213254Y775795D01*
X214576Y778085D01*
X215260Y780638D01*
Y783282D01*
X214576Y785835D01*
X213254Y788125D01*
X211385Y789994D01*
X209095Y791316D01*
X206542Y792000D01*
X204930D01*
X204404Y793270D01*
X249393Y838259D01*
X250235Y839519D01*
X250530Y841006D01*
Y917425D01*
X251800Y918158D01*
X253245Y917324D01*
X255798Y916640D01*
X258442D01*
X260995Y917324D01*
X263285Y918646D01*
X265154Y920515D01*
X266476Y922805D01*
X267160Y925358D01*
Y928002D01*
X266476Y930555D01*
X265154Y932845D01*
X263285Y934714D01*
X260995Y936036D01*
X258442Y936720D01*
X255798D01*
X253245Y936036D01*
X251800Y935202D01*
X250530Y935935D01*
Y981640D01*
X267160D01*
Y987795D01*
X271569D01*
Y984727D01*
X281649D01*
Y985382D01*
X290672D01*
X291336Y984112D01*
X290686Y982543D01*
Y980339D01*
X291529Y978303D01*
X293088Y976745D01*
X295124Y975901D01*
X296272D01*
X306503Y965670D01*
Y869057D01*
X303287D01*
Y855302D01*
X303287Y854032D01*
X303287Y853610D01*
Y839855D01*
X306503D01*
Y825246D01*
X306799Y823759D01*
X307641Y822499D01*
X312235Y817905D01*
Y810150D01*
X311080D01*
Y789070D01*
X339160D01*
Y810150D01*
X338403D01*
Y813223D01*
X360379Y835199D01*
X361221Y836459D01*
X361517Y837946D01*
Y839093D01*
X364733D01*
Y852848D01*
X364733Y854118D01*
X364733Y854540D01*
Y868295D01*
X361231D01*
Y938562D01*
X360935Y940049D01*
X360093Y941309D01*
X324886Y976515D01*
X325412Y977785D01*
X372011D01*
X373498Y978081D01*
X374758Y978923D01*
X390436Y994601D01*
X416550D01*
X417355Y993620D01*
X417329Y993486D01*
X417642Y991910D01*
X418260Y990986D01*
X417642Y990062D01*
X417329Y988486D01*
X417642Y986910D01*
X418260Y985986D01*
X417642Y985062D01*
X417329Y983486D01*
X417642Y981910D01*
X418260Y980986D01*
X417642Y980062D01*
X417329Y978486D01*
X417355Y978352D01*
X416550Y977371D01*
X413980D01*
Y979900D01*
X403900D01*
Y979245D01*
X401944D01*
X400277Y979935D01*
X398470D01*
X396802Y979244D01*
X395525Y977967D01*
X394833Y976298D01*
Y974492D01*
X395525Y972823D01*
X396802Y971546D01*
X398470Y970855D01*
X400277D01*
X401774Y971475D01*
X403900D01*
Y970820D01*
X408486D01*
X408567Y970739D01*
X409827Y969897D01*
X411314Y969601D01*
X420269D01*
X421448Y969367D01*
X439448D01*
X441024Y969680D01*
X442361Y970573D01*
X443254Y971910D01*
X443567Y973486D01*
X443254Y975062D01*
X442636Y975986D01*
X443254Y976910D01*
X443567Y978486D01*
X443254Y980062D01*
X442636Y980986D01*
X443254Y981910D01*
X443567Y983486D01*
X443254Y985062D01*
X442636Y985986D01*
X443254Y986910D01*
X443567Y988486D01*
X443254Y990062D01*
X442636Y990986D01*
X443254Y991910D01*
X443567Y993486D01*
X443254Y995062D01*
X442636Y995986D01*
X443254Y996910D01*
X443567Y998486D01*
X443254Y1000062D01*
X442636Y1000986D01*
X443254Y1001910D01*
X443567Y1003486D01*
X443254Y1005062D01*
X442636Y1005986D01*
X443254Y1006910D01*
X443567Y1008486D01*
X443254Y1010062D01*
X442636Y1010986D01*
X443254Y1011910D01*
X443567Y1013486D01*
X443254Y1015062D01*
X442636Y1015986D01*
X443254Y1016910D01*
X443567Y1018486D01*
X443254Y1020062D01*
X442636Y1020986D01*
X443254Y1021910D01*
X443567Y1023486D01*
X443254Y1025062D01*
X442636Y1025986D01*
X443254Y1026910D01*
X443567Y1028486D01*
X443254Y1030062D01*
X442636Y1030986D01*
X443254Y1031910D01*
X443567Y1033486D01*
X443254Y1035062D01*
X442636Y1035986D01*
X443254Y1036910D01*
X443567Y1038486D01*
X443254Y1040062D01*
X442361Y1041399D01*
X441024Y1042292D01*
X439448Y1042605D01*
X421448D01*
X420269Y1042371D01*
X405446D01*
X403959Y1042075D01*
X403758Y1041940D01*
X398820D01*
Y1041285D01*
X396928D01*
X396785Y1041427D01*
X395117Y1042118D01*
X393311D01*
X391642Y1041427D01*
X390365Y1040150D01*
X389674Y1038481D01*
Y1036675D01*
X390365Y1035006D01*
X391642Y1033729D01*
X393311Y1033038D01*
X395117D01*
X396269Y1033515D01*
X398820D01*
Y1032860D01*
X408900D01*
Y1034601D01*
X416550D01*
X417355Y1033620D01*
X417329Y1033486D01*
X417642Y1031910D01*
X418260Y1030986D01*
X417642Y1030062D01*
X417329Y1028486D01*
X417642Y1026910D01*
X418260Y1025986D01*
X417642Y1025062D01*
X417329Y1023486D01*
X417642Y1021910D01*
X418260Y1020986D01*
X417642Y1020062D01*
X417329Y1018486D01*
X417642Y1016910D01*
X418260Y1015986D01*
X417642Y1015062D01*
X417329Y1013486D01*
X417355Y1013352D01*
X416550Y1012371D01*
X411953D01*
X397957Y1026367D01*
X396696Y1027209D01*
X395210Y1027505D01*
X388040D01*
Y1030160D01*
X373960D01*
Y1028385D01*
X371060D01*
Y1033040D01*
X351980D01*
Y1015960D01*
X371060D01*
Y1020615D01*
X373960D01*
Y1017080D01*
X388040D01*
Y1019735D01*
X393601D01*
X404792Y1008544D01*
X404306Y1007371D01*
X388821D01*
X387334Y1007075D01*
X386074Y1006233D01*
X371666Y991825D01*
X347400D01*
Y994480D01*
X343405D01*
Y998960D01*
X349060D01*
Y1016040D01*
X329980D01*
Y998960D01*
X335635D01*
Y994480D01*
X333320D01*
Y985555D01*
X326334D01*
X320520Y991369D01*
X320415Y993060D01*
X320558Y993202D01*
X321401Y995238D01*
Y997442D01*
X320558Y999479D01*
X319746Y1000291D01*
Y1022671D01*
X351675Y1054601D01*
X416550D01*
X417355Y1053620D01*
X417329Y1053486D01*
X417642Y1051910D01*
X418260Y1050986D01*
X417642Y1050062D01*
X417329Y1048486D01*
X417642Y1046910D01*
X418535Y1045573D01*
X419872Y1044680D01*
X421448Y1044367D01*
X439448D01*
X441024Y1044680D01*
X442361Y1045573D01*
X443254Y1046910D01*
X443567Y1048486D01*
X443254Y1050062D01*
X442636Y1050986D01*
X443254Y1051910D01*
X443567Y1053486D01*
X443254Y1055062D01*
X442636Y1055986D01*
X443254Y1056910D01*
X443567Y1058486D01*
X443254Y1060062D01*
X442636Y1060986D01*
X443254Y1061910D01*
X443567Y1063486D01*
X443254Y1065062D01*
X442636Y1065986D01*
X443254Y1066910D01*
X443567Y1068486D01*
X443254Y1070062D01*
X442636Y1070986D01*
X443254Y1071910D01*
X443567Y1073486D01*
X443254Y1075062D01*
X442636Y1075986D01*
X443254Y1076910D01*
X443567Y1078486D01*
X443254Y1080062D01*
X442636Y1080986D01*
X443254Y1081910D01*
X443567Y1083486D01*
X443254Y1085062D01*
X442636Y1085986D01*
X443254Y1086910D01*
X443567Y1088486D01*
X443254Y1090062D01*
X442636Y1090986D01*
X443254Y1091910D01*
X443567Y1093486D01*
X443254Y1095062D01*
X442636Y1095986D01*
X443254Y1096910D01*
X443567Y1098486D01*
X443254Y1100062D01*
X442636Y1100986D01*
X443254Y1101910D01*
X443567Y1103486D01*
X443254Y1105062D01*
X442636Y1105986D01*
X443254Y1106910D01*
X443567Y1108486D01*
X443254Y1110062D01*
X442827Y1110700D01*
X442953Y1110929D01*
X444185Y1111236D01*
X444462Y1111055D01*
Y1110826D01*
X444907Y1109163D01*
X445768Y1107672D01*
X446986Y1106454D01*
X448477Y1105593D01*
X450140Y1105147D01*
X451862D01*
X452009Y1105186D01*
X610063Y947132D01*
Y940355D01*
X608890Y939869D01*
X466512Y1082247D01*
X465252Y1083089D01*
X463766Y1083385D01*
X457429D01*
X457353Y1083516D01*
X456136Y1084733D01*
X454644Y1085594D01*
X452981Y1086040D01*
X451259D01*
X449596Y1085594D01*
X448104Y1084733D01*
X446887Y1083516D01*
X446026Y1082024D01*
X445580Y1080361D01*
Y1078639D01*
X446026Y1076976D01*
X446887Y1075484D01*
X448104Y1074267D01*
X449596Y1073406D01*
X451259Y1072960D01*
X452981D01*
X454644Y1073406D01*
X456136Y1074267D01*
X457353Y1075484D01*
X457429Y1075615D01*
X462156D01*
X598467Y939304D01*
X598049Y937926D01*
X597372Y937792D01*
X596448Y937174D01*
X595524Y937792D01*
X593948Y938105D01*
X592372Y937792D01*
X591448Y937174D01*
X590524Y937792D01*
X588948Y938105D01*
X587372Y937792D01*
X586448Y937174D01*
X585524Y937792D01*
X583948Y938105D01*
X582372Y937792D01*
X581448Y937174D01*
X580524Y937792D01*
X578948Y938105D01*
X577372Y937792D01*
X576448Y937174D01*
X575524Y937792D01*
X573948Y938105D01*
X572372Y937792D01*
X571035Y936899D01*
X570142Y935562D01*
X569829Y933986D01*
Y915986D01*
X570109Y914576D01*
Y906740D01*
X569500D01*
Y896660D01*
X570155D01*
Y893490D01*
X570079Y893307D01*
Y891500D01*
X570771Y889832D01*
X572048Y888555D01*
X573717Y887863D01*
X575523D01*
X577191Y888555D01*
X578468Y889832D01*
X579160Y891500D01*
Y893307D01*
X578468Y894975D01*
X578054Y895390D01*
X578236Y896660D01*
X578580D01*
Y906740D01*
X577879D01*
Y911079D01*
X578860Y911884D01*
X578948Y911867D01*
X580524Y912180D01*
X581448Y912798D01*
X582372Y912180D01*
X583948Y911867D01*
X585524Y912180D01*
X586448Y912798D01*
X587372Y912180D01*
X588948Y911867D01*
X590524Y912180D01*
X591448Y912798D01*
X592372Y912180D01*
X593948Y911867D01*
X595524Y912180D01*
X596448Y912798D01*
X597372Y912180D01*
X598948Y911867D01*
X600524Y912180D01*
X601448Y912798D01*
X602372Y912180D01*
X603948Y911867D01*
X605524Y912180D01*
X606448Y912798D01*
X607372Y912180D01*
X608948Y911867D01*
X610343Y912144D01*
X610715Y912060D01*
X610822Y911992D01*
X611003Y910377D01*
X606853Y906227D01*
X606011Y904967D01*
X605715Y903480D01*
Y902210D01*
X602560D01*
Y889630D01*
X616640D01*
Y902210D01*
X615483D01*
X614997Y903383D01*
X620765Y909152D01*
X622035Y908626D01*
Y906740D01*
X621380D01*
Y896660D01*
X622035D01*
Y893087D01*
X621699Y892275D01*
Y890469D01*
X622390Y888800D01*
X623667Y887523D01*
X625336Y886832D01*
X627142D01*
X628811Y887523D01*
X630088Y888800D01*
X630779Y890469D01*
Y892275D01*
X630088Y893943D01*
X629805Y894227D01*
Y896660D01*
X630460D01*
Y906740D01*
X629805D01*
Y913889D01*
X629509Y915376D01*
X628667Y916636D01*
X628067Y917236D01*
Y931709D01*
X629240Y932195D01*
X637253Y924182D01*
Y828262D01*
X572154Y763163D01*
X570981Y763649D01*
Y771521D01*
X568784D01*
Y772895D01*
X569113Y773224D01*
X569974Y774716D01*
X570420Y776379D01*
Y778101D01*
X569974Y779764D01*
X569113Y781256D01*
X567896Y782473D01*
X566404Y783334D01*
X564741Y783780D01*
X563019D01*
X561356Y783334D01*
X559864Y782473D01*
X558647Y781256D01*
X557786Y779764D01*
X557340Y778101D01*
Y776379D01*
X557786Y774716D01*
X558647Y773224D01*
X558976Y772895D01*
Y771521D01*
X556779D01*
Y757344D01*
X556779Y757344D01*
Y756496D01*
X556779D01*
X556779Y756074D01*
Y742319D01*
X557455D01*
Y731650D01*
X551050D01*
Y711070D01*
X571630D01*
Y716375D01*
X597300D01*
Y710345D01*
X606880D01*
Y730175D01*
X597300D01*
Y724145D01*
X571630D01*
Y731650D01*
X565225D01*
Y742319D01*
X570981D01*
Y751002D01*
X643885Y823906D01*
X644727Y825166D01*
X645022Y826653D01*
Y925791D01*
X644727Y927278D01*
X643885Y928538D01*
X634326Y938097D01*
X634852Y939367D01*
X651448D01*
X652083Y939493D01*
X655845D01*
Y904911D01*
X656141Y903424D01*
X656983Y902164D01*
X672111Y887035D01*
X671731Y885619D01*
X670950Y885410D01*
X669459Y884549D01*
X668241Y883331D01*
X667380Y881840D01*
X666935Y880176D01*
Y878454D01*
X667380Y876791D01*
X668241Y875300D01*
X669459Y874082D01*
X669590Y874006D01*
Y777794D01*
X640053Y748257D01*
X638880Y748743D01*
Y753800D01*
X637304D01*
Y760040D01*
X639000D01*
Y774120D01*
X637364D01*
Y776398D01*
X638351Y777384D01*
X639212Y778876D01*
X639657Y780539D01*
Y782261D01*
X639212Y783924D01*
X638351Y785416D01*
X637133Y786633D01*
X635642Y787494D01*
X633979Y787940D01*
X632256D01*
X630593Y787494D01*
X629102Y786633D01*
X627884Y785416D01*
X627023Y783924D01*
X626577Y782261D01*
Y780539D01*
X627023Y778876D01*
X627556Y777953D01*
Y774120D01*
X625920D01*
Y760040D01*
X627496D01*
Y753800D01*
X625800D01*
Y746656D01*
X624622Y745478D01*
X623559Y743887D01*
X623186Y742010D01*
Y720260D01*
X623300Y719686D01*
Y710345D01*
X652380D01*
Y730175D01*
X651475D01*
Y731787D01*
X682117Y762430D01*
X682263Y762391D01*
X683986D01*
X685649Y762836D01*
X687140Y763697D01*
X688358Y764915D01*
X689219Y766406D01*
X689665Y768070D01*
Y769792D01*
X689219Y771455D01*
X688358Y772946D01*
X687140Y774164D01*
X685649Y775025D01*
X684830Y775244D01*
X684451Y776661D01*
X713907Y806116D01*
X714749Y807377D01*
X715045Y808863D01*
Y871260D01*
X714749Y872747D01*
X713907Y874007D01*
X710657Y877257D01*
X710722Y877370D01*
X711430Y880012D01*
Y882748D01*
X710722Y885390D01*
X709354Y887760D01*
X707420Y889694D01*
X705050Y891062D01*
X702408Y891770D01*
X699672D01*
X697030Y891062D01*
X696917Y890997D01*
X679525Y908389D01*
Y928558D01*
X680698Y929044D01*
X693763Y915979D01*
Y914197D01*
X692726Y913160D01*
X691358Y910790D01*
X690650Y908148D01*
Y905412D01*
X691358Y902770D01*
X692726Y900400D01*
X694660Y898466D01*
X697030Y897098D01*
X699672Y896390D01*
X702408D01*
X705050Y897098D01*
X707420Y898466D01*
X709354Y900400D01*
X710722Y902770D01*
X711430Y905412D01*
Y908148D01*
X710722Y910790D01*
X709354Y913160D01*
X707420Y915094D01*
X705050Y916462D01*
X702408Y917170D01*
X702316D01*
X702111Y918200D01*
X701269Y919460D01*
X659505Y961224D01*
X658245Y962066D01*
X656758Y962362D01*
X656345D01*
X655539Y963344D01*
X655567Y963486D01*
X655254Y965062D01*
X654636Y965986D01*
X655254Y966910D01*
X655567Y968486D01*
X655254Y970062D01*
X654636Y970986D01*
X655254Y971910D01*
X655567Y973486D01*
X655254Y975062D01*
X654636Y975986D01*
X655254Y976910D01*
X655567Y978486D01*
X655254Y980062D01*
X654636Y980986D01*
X655254Y981910D01*
X655567Y983486D01*
X655254Y985062D01*
X654636Y985986D01*
X655254Y986910D01*
X655567Y988486D01*
X655254Y990062D01*
X654361Y991399D01*
X653024Y992292D01*
X651448Y992605D01*
X633448D01*
X631872Y992292D01*
X630535Y991399D01*
X629642Y990062D01*
X629329Y988486D01*
X629642Y986910D01*
X630260Y985986D01*
X629642Y985062D01*
X629329Y983486D01*
X629642Y981910D01*
X630260Y980986D01*
X629642Y980062D01*
X629329Y978486D01*
X628303Y977135D01*
X628001Y977075D01*
X626741Y976233D01*
X623949Y973441D01*
X623107Y972181D01*
X622811Y970695D01*
Y940233D01*
X623107Y938746D01*
X623025Y938547D01*
X622265Y937720D01*
X621448Y937174D01*
X620524Y937792D01*
X618948Y938105D01*
X618814Y938079D01*
X617833Y938884D01*
Y948741D01*
X617537Y950227D01*
X616695Y951488D01*
X457502Y1110680D01*
X457542Y1110826D01*
Y1112548D01*
X457156Y1113985D01*
X457774Y1115255D01*
X610434D01*
X611920Y1115551D01*
X613180Y1116393D01*
X621530Y1124743D01*
X622372Y1124180D01*
X623948Y1123867D01*
X624926Y1123064D01*
Y1107056D01*
X625222Y1105569D01*
X626064Y1104309D01*
X628788Y1101585D01*
X629412Y1101168D01*
X629753Y1100827D01*
X629845Y1100365D01*
X629642Y1100062D01*
X629329Y1098486D01*
X629642Y1096910D01*
X630260Y1095986D01*
X629642Y1095062D01*
X629329Y1093486D01*
X629642Y1091910D01*
X630260Y1090986D01*
X629642Y1090062D01*
X629329Y1088486D01*
X629642Y1086910D01*
X630260Y1085986D01*
X629642Y1085062D01*
X629329Y1083486D01*
X629642Y1081910D01*
X630260Y1080986D01*
X629642Y1080062D01*
X629329Y1078486D01*
X629642Y1076910D01*
X630260Y1075986D01*
X629642Y1075062D01*
X629329Y1073486D01*
X629642Y1071910D01*
X630260Y1070986D01*
X629642Y1070062D01*
X629329Y1068486D01*
X629642Y1066910D01*
X630260Y1065986D01*
X629642Y1065062D01*
X629329Y1063486D01*
X629642Y1061910D01*
X630260Y1060986D01*
X629642Y1060062D01*
X629329Y1058486D01*
X629642Y1056910D01*
X630260Y1055986D01*
X629642Y1055062D01*
X629329Y1053486D01*
X629642Y1051910D01*
X630535Y1050573D01*
X631872Y1049680D01*
X633448Y1049367D01*
X651448D01*
X652627Y1049601D01*
X657324D01*
X658811Y1049897D01*
X660071Y1050739D01*
X660873Y1051541D01*
X662060Y1051740D01*
Y1051740D01*
X672140D01*
Y1052395D01*
X682060D01*
Y1051740D01*
X692140D01*
Y1052575D01*
X693909D01*
X695057Y1052100D01*
X696863D01*
X698532Y1052791D01*
X699809Y1054068D01*
X700334Y1055336D01*
X701673Y1055793D01*
X719203Y1038263D01*
X720463Y1037421D01*
X721950Y1037125D01*
X733580D01*
Y1022740D01*
X732562Y1022132D01*
X715433D01*
X696332Y1041233D01*
X695071Y1042075D01*
X693585Y1042371D01*
X656346D01*
X655541Y1043352D01*
X655567Y1043486D01*
X655254Y1045062D01*
X654361Y1046399D01*
X653024Y1047292D01*
X651448Y1047605D01*
X633448D01*
X631872Y1047292D01*
X630535Y1046399D01*
X629642Y1045062D01*
X629329Y1043486D01*
X629642Y1041910D01*
X630260Y1040986D01*
X629642Y1040062D01*
X629329Y1038486D01*
X629642Y1036910D01*
X630260Y1035986D01*
X629642Y1035062D01*
X629329Y1033486D01*
X629642Y1031910D01*
X630260Y1030986D01*
X629642Y1030062D01*
X629329Y1028486D01*
X629642Y1026910D01*
X630260Y1025986D01*
X629642Y1025062D01*
X629329Y1023486D01*
X629642Y1021910D01*
X630260Y1020986D01*
X629642Y1020062D01*
X629329Y1018486D01*
X629642Y1016910D01*
X630260Y1015986D01*
X629642Y1015062D01*
X629329Y1013486D01*
X629642Y1011910D01*
X630260Y1010986D01*
X629642Y1010062D01*
X629329Y1008486D01*
X629642Y1006910D01*
X630260Y1005986D01*
X629642Y1005062D01*
X629329Y1003486D01*
X629642Y1001910D01*
X630260Y1000986D01*
X629642Y1000062D01*
X629329Y998486D01*
X629642Y996910D01*
X630535Y995573D01*
X631872Y994680D01*
X633448Y994367D01*
X651448D01*
X652627Y994601D01*
X664866D01*
X666353Y994897D01*
X667613Y995739D01*
X668474Y996600D01*
X673060D01*
Y996875D01*
X675695D01*
X677277Y996220D01*
X679083D01*
X680752Y996911D01*
X682029Y998188D01*
X682720Y999857D01*
Y1001663D01*
X682029Y1003332D01*
X680752Y1004609D01*
X679083Y1005300D01*
X677277D01*
X675695Y1004645D01*
X673060D01*
Y1005680D01*
X662980D01*
Y1002371D01*
X656346D01*
X655541Y1003352D01*
X655567Y1003486D01*
X655254Y1005062D01*
X654636Y1005986D01*
X655254Y1006910D01*
X655567Y1008486D01*
X655254Y1010062D01*
X654636Y1010986D01*
X655254Y1011910D01*
X655567Y1013486D01*
X655254Y1015062D01*
X654636Y1015986D01*
X655254Y1016910D01*
X655567Y1018486D01*
X655254Y1020062D01*
X654636Y1020986D01*
X655254Y1021910D01*
X655567Y1023486D01*
X655254Y1025062D01*
X654636Y1025986D01*
X655254Y1026910D01*
X655567Y1028486D01*
X655541Y1028620D01*
X656346Y1029601D01*
X684220D01*
X703469Y1010353D01*
X704729Y1009511D01*
X706216Y1009215D01*
X758842D01*
X760329Y1009511D01*
X761589Y1010353D01*
X763077Y1011841D01*
X763919Y1013101D01*
X764215Y1014587D01*
Y1022740D01*
X776660D01*
Y1026187D01*
X777833Y1026673D01*
X806375Y998131D01*
Y988060D01*
X806671Y986573D01*
X807513Y985313D01*
X834401Y958425D01*
X835661Y957583D01*
X837148Y957287D01*
X850932D01*
X852419Y957583D01*
X853679Y958425D01*
X863134Y967880D01*
X879720D01*
Y976466D01*
X891747Y988493D01*
X892589Y989753D01*
X892885Y991240D01*
Y1024980D01*
X892589Y1026467D01*
X891747Y1027727D01*
X885444Y1034030D01*
Y1042760D01*
X876550D01*
X876300Y1042810D01*
X873760D01*
X873510Y1042760D01*
X872236D01*
X872236Y1042760D01*
X871220Y1042810D01*
X870987Y1042810D01*
X867485D01*
Y1051615D01*
X868140Y1053197D01*
Y1055003D01*
X867449Y1056672D01*
X866855Y1057265D01*
X867381Y1058535D01*
X891740D01*
Y1054380D01*
X893395D01*
Y1044768D01*
X893691Y1043281D01*
X894533Y1042021D01*
X897901Y1038653D01*
X899161Y1037811D01*
X900648Y1037515D01*
X914400D01*
X915887Y1037811D01*
X917147Y1038653D01*
X932387Y1053893D01*
X933229Y1055153D01*
X933525Y1056640D01*
Y1064315D01*
X934180Y1065897D01*
Y1067703D01*
X933721Y1068810D01*
X934440Y1070080D01*
X940940D01*
X942147Y1070320D01*
X943169Y1071004D01*
X959726Y1087561D01*
X960410Y1088584D01*
X960650Y1089790D01*
Y1113739D01*
X960410Y1114946D01*
X959726Y1115969D01*
X957689Y1118006D01*
X956666Y1118690D01*
X955460Y1118930D01*
X955360D01*
Y1128880D01*
X936780D01*
Y1128225D01*
X927801D01*
X926315Y1127929D01*
X925054Y1127087D01*
X918399Y1120432D01*
X917226Y1120918D01*
Y1126892D01*
X897946D01*
Y1130787D01*
X897946Y1131812D01*
X898866Y1131812D01*
X917226D01*
Y1146392D01*
X912340D01*
Y1148622D01*
X913976D01*
Y1161702D01*
X900896D01*
Y1148622D01*
X902532D01*
Y1146392D01*
X897646D01*
Y1132958D01*
X897646Y1131932D01*
X896726Y1131932D01*
X881716D01*
X881366Y1131932D01*
X880446D01*
X880096Y1131932D01*
X863866D01*
Y1120047D01*
X863432D01*
X861946Y1119751D01*
X860686Y1118909D01*
X858423Y1116647D01*
X857250Y1117133D01*
Y1121652D01*
X844550D01*
Y1118002D01*
X843073Y1116525D01*
X842231Y1115265D01*
X841935Y1113778D01*
Y1107440D01*
X836930D01*
Y1087120D01*
X854710D01*
Y1101946D01*
X865041Y1112278D01*
X867676D01*
X868051Y1112352D01*
X880096D01*
X880446Y1112352D01*
X881366D01*
X881716Y1112352D01*
X897571D01*
Y1107083D01*
X894533Y1104045D01*
X893691Y1102785D01*
X893395Y1101298D01*
Y1094460D01*
X891740D01*
Y1090305D01*
X870520D01*
X869033Y1090009D01*
X867773Y1089167D01*
X862610Y1084004D01*
X861028Y1083349D01*
X859751Y1082072D01*
X859060Y1080403D01*
Y1078760D01*
X798629D01*
X798629Y1078760D01*
X770953D01*
X770467Y1079933D01*
X777447Y1086913D01*
X778289Y1088173D01*
X778585Y1089660D01*
Y1112121D01*
X788086Y1121622D01*
X810335D01*
X810861Y1120352D01*
X810023Y1119513D01*
X809332Y1117845D01*
Y1116039D01*
X810023Y1114370D01*
X811300Y1113093D01*
X812968Y1112402D01*
X814774D01*
X816280Y1113025D01*
X817550Y1112541D01*
Y1112508D01*
X830250D01*
Y1121622D01*
X833407D01*
X834893Y1121918D01*
X836154Y1122760D01*
X844902Y1131508D01*
X849230D01*
X850900Y1131176D01*
X852570Y1131508D01*
X857250D01*
Y1140652D01*
X855804D01*
Y1154640D01*
X860940D01*
Y1174720D01*
X852952D01*
Y1182704D01*
X852579Y1184581D01*
X851516Y1186172D01*
X845586Y1192102D01*
X843995Y1193165D01*
X842118Y1193538D01*
X841196D01*
Y1198262D01*
X827116D01*
Y1183182D01*
X840634D01*
X843143Y1180673D01*
Y1174720D01*
X840860D01*
Y1154640D01*
X845996D01*
Y1140652D01*
X844550D01*
Y1139965D01*
X843980D01*
X842493Y1139669D01*
X841233Y1138827D01*
X831798Y1129392D01*
X807640D01*
Y1130695D01*
X820622D01*
X822109Y1130991D01*
X822882Y1131508D01*
X830250D01*
Y1140652D01*
X817550D01*
Y1138465D01*
X807640D01*
Y1141620D01*
X792560D01*
Y1136785D01*
X779507D01*
X778020Y1136489D01*
X776760Y1135647D01*
X756713Y1115600D01*
X755871Y1114340D01*
X755575Y1112853D01*
Y1087065D01*
X754920Y1085483D01*
Y1084449D01*
X753656Y1083662D01*
X752743Y1084040D01*
X750937D01*
X749268Y1083349D01*
X747991Y1082072D01*
X747300Y1080403D01*
Y1078760D01*
X678454D01*
X657811Y1099402D01*
X656789Y1100086D01*
X655706Y1100301D01*
X655425Y1100682D01*
X655031Y1101577D01*
X655254Y1101910D01*
X655567Y1103486D01*
X655541Y1103620D01*
X656346Y1104601D01*
X662774D01*
X665222Y1102153D01*
X666483Y1101311D01*
X667969Y1101015D01*
X678590D01*
Y1095320D01*
X691170D01*
Y1109400D01*
X678590D01*
Y1108785D01*
X669578D01*
X667130Y1111233D01*
X665870Y1112075D01*
X664383Y1112371D01*
X652627D01*
X651448Y1112605D01*
X633448D01*
X633318Y1112712D01*
Y1113151D01*
X634544Y1114367D01*
X651448D01*
X652627Y1114601D01*
X664406D01*
X665893Y1114897D01*
X667153Y1115739D01*
X668474Y1117060D01*
X673060D01*
Y1126140D01*
X673060D01*
X672390Y1127142D01*
X672636Y1127735D01*
Y1129541D01*
X671945Y1131210D01*
X670668Y1132487D01*
X668999Y1133178D01*
X667193D01*
X665524Y1132487D01*
X664247Y1131210D01*
X663556Y1129541D01*
Y1127735D01*
X663691Y1127410D01*
X662980Y1126140D01*
X662980D01*
Y1122554D01*
X662797Y1122371D01*
X652627D01*
X651448Y1122605D01*
X633448D01*
X632696Y1123223D01*
Y1187525D01*
X632400Y1189012D01*
X631558Y1190272D01*
X614887Y1206943D01*
X613627Y1207785D01*
X612140Y1208081D01*
X539322D01*
X538473Y1209351D01*
X538940Y1210478D01*
Y1211626D01*
X628989Y1301675D01*
X800133D01*
X801619Y1301971D01*
X802879Y1302813D01*
X814277Y1314211D01*
X815119Y1315471D01*
X815415Y1316958D01*
Y1326695D01*
X817320D01*
X817320Y1326695D01*
X818440D01*
Y1326695D01*
X818590Y1326695D01*
X830020D01*
Y1347025D01*
X823934D01*
X816932Y1354027D01*
X815672Y1354869D01*
X814185Y1355165D01*
D02*
G37*
G36*
X294132Y1301038D02*
X246888D01*
X245897Y1300841D01*
X245057Y1300279D01*
X236929Y1292151D01*
X236367Y1291311D01*
X236170Y1290320D01*
Y1277620D01*
X236367Y1276629D01*
X236929Y1275789D01*
X239469Y1273249D01*
X239986Y1272903D01*
X239601Y1271633D01*
X235386D01*
Y1272796D01*
X221306D01*
Y1260216D01*
Y1248216D01*
X235386D01*
Y1249602D01*
X244952D01*
X246829Y1249975D01*
X248420Y1251038D01*
X249234Y1251852D01*
X255388D01*
X256578Y1252089D01*
X257587Y1252763D01*
X258261Y1253772D01*
X258498Y1254962D01*
Y1259942D01*
X258261Y1261132D01*
X257587Y1262141D01*
Y1262263D01*
X258261Y1263272D01*
X258498Y1264462D01*
Y1269442D01*
X258332Y1270278D01*
X259060Y1271548D01*
X269531D01*
X270218Y1271089D01*
X271408Y1270852D01*
X281388D01*
X282578Y1271089D01*
X283265Y1271548D01*
X288708D01*
X290585Y1271921D01*
X291437Y1272490D01*
X294640D01*
X295631Y1272687D01*
X296471Y1273249D01*
X296559Y1273337D01*
X297041Y1274057D01*
X297761Y1274539D01*
X300553Y1277330D01*
X307268D01*
Y1289910D01*
X304850D01*
Y1290320D01*
X304653Y1291311D01*
X304091Y1292151D01*
X295963Y1300279D01*
X295123Y1300841D01*
X294132Y1301038D01*
D02*
G37*
G36*
X470640Y1251719D02*
X468918D01*
X467255Y1251273D01*
X465764Y1250412D01*
X464546Y1249195D01*
X463685Y1247703D01*
X463240Y1246040D01*
Y1244318D01*
X463685Y1242655D01*
X464546Y1241163D01*
X465764Y1239946D01*
X467255Y1239085D01*
X468918Y1238639D01*
X470640D01*
X472304Y1239085D01*
X473362Y1239696D01*
X475390D01*
Y1237560D01*
X487970D01*
Y1251640D01*
X475390D01*
Y1250614D01*
X474120Y1250088D01*
X473795Y1250412D01*
X472304Y1251273D01*
X470640Y1251719D01*
D02*
G37*
G36*
X449580Y1315770D02*
X342900D01*
X341909Y1315573D01*
X341069Y1315011D01*
X335989Y1309931D01*
X335427Y1309091D01*
X335230Y1308100D01*
Y1249680D01*
X335427Y1248689D01*
X335989Y1247849D01*
X346149Y1237689D01*
X346989Y1237127D01*
X347980Y1236930D01*
X449580D01*
X450571Y1237127D01*
X451411Y1237689D01*
X459031Y1245309D01*
X459593Y1246149D01*
X459790Y1247140D01*
Y1305560D01*
X459593Y1306551D01*
X459031Y1307391D01*
X451411Y1315011D01*
X450571Y1315573D01*
X449580Y1315770D01*
D02*
G37*
G36*
X281388Y1263052D02*
X271408D01*
X270218Y1262815D01*
X269209Y1262141D01*
X268535Y1261132D01*
X268298Y1259942D01*
Y1254962D01*
X268535Y1253772D01*
X269209Y1252763D01*
X270218Y1252089D01*
X271408Y1251852D01*
X276955D01*
X277128Y1251818D01*
X277597D01*
X293362Y1236052D01*
X294953Y1234989D01*
X295102Y1234960D01*
X295447Y1234125D01*
X296865Y1232707D01*
X298717Y1231940D01*
X300723D01*
X302575Y1232707D01*
X303530Y1233662D01*
X304485Y1232707D01*
X306338Y1231940D01*
X308342D01*
X310195Y1232707D01*
X311613Y1234125D01*
X312380Y1235977D01*
Y1237982D01*
X312156Y1238523D01*
Y1238580D01*
X311783Y1240457D01*
X310720Y1242048D01*
X308538Y1244230D01*
Y1249874D01*
X294458D01*
Y1249874D01*
X293718Y1249567D01*
X284498Y1258788D01*
Y1259942D01*
X284261Y1261132D01*
X283587Y1262141D01*
X282578Y1262815D01*
X281388Y1263052D01*
D02*
G37*
G36*
X825196Y1198262D02*
X811116D01*
Y1195145D01*
X805125D01*
X803543Y1195800D01*
X801737D01*
X800068Y1195109D01*
X798791Y1193832D01*
X798660Y1193516D01*
X797182Y1193267D01*
X796496Y1193953D01*
X795004Y1194814D01*
X793341Y1195260D01*
X791619D01*
X789956Y1194814D01*
X788464Y1193953D01*
X787247Y1192736D01*
X786386Y1191244D01*
X785940Y1189581D01*
Y1187859D01*
X786386Y1186196D01*
X787247Y1184704D01*
X787399Y1184552D01*
X786873Y1183282D01*
X785596D01*
Y1169202D01*
X800676D01*
Y1183282D01*
X797712D01*
Y1184703D01*
X797713Y1184704D01*
X798574Y1186196D01*
X798767Y1186916D01*
X799943Y1187364D01*
X800200Y1187356D01*
X801737Y1186720D01*
X803543D01*
X805125Y1187375D01*
X811116D01*
Y1183182D01*
X825196D01*
Y1198262D01*
D02*
G37*
G36*
X828940Y1174720D02*
X808860D01*
Y1165146D01*
X800676D01*
Y1167282D01*
X785596D01*
Y1153202D01*
X800676D01*
Y1155338D01*
X808860D01*
Y1154640D01*
X828940D01*
Y1174720D01*
D02*
G37*
G36*
X213442Y1001720D02*
X210798D01*
X208245Y1001036D01*
X205955Y999714D01*
X204086Y997845D01*
X202764Y995555D01*
X202080Y993002D01*
Y990358D01*
X202764Y987805D01*
X204086Y985515D01*
X205955Y983646D01*
X208245Y982324D01*
X210798Y981640D01*
X213442D01*
X215995Y982324D01*
X218285Y983646D01*
X220154Y985515D01*
X221476Y987805D01*
X222160Y990358D01*
Y993002D01*
X221476Y995555D01*
X220154Y997845D01*
X218285Y999714D01*
X215995Y1001036D01*
X213442Y1001720D01*
D02*
G37*
G36*
X361290Y971178D02*
X359483D01*
X357815Y970487D01*
X356538Y969210D01*
X355846Y967541D01*
Y965735D01*
X356538Y964067D01*
X357815Y962789D01*
X359483Y962098D01*
X361290D01*
X362007Y962395D01*
X365800D01*
Y961740D01*
X375880D01*
Y962395D01*
X383580D01*
Y961740D01*
X388166D01*
X389056Y960850D01*
X388999Y960385D01*
X388616Y959580D01*
X383580D01*
Y958925D01*
X380945D01*
X379363Y959580D01*
X377557D01*
X375888Y958889D01*
X374611Y957612D01*
X373920Y955943D01*
Y954137D01*
X374611Y952468D01*
X375888Y951191D01*
X377557Y950500D01*
X379363D01*
X380945Y951155D01*
X383580D01*
Y950500D01*
X393660D01*
Y951345D01*
X401360D01*
Y950880D01*
X411440D01*
Y951711D01*
X412710D01*
X414197Y952006D01*
X415457Y952848D01*
X416126Y953518D01*
X416185Y953516D01*
X417422Y953018D01*
X417642Y951910D01*
X418260Y950986D01*
X417642Y950062D01*
X417329Y948486D01*
X417642Y946910D01*
X418260Y945986D01*
X417642Y945062D01*
X417329Y943486D01*
X417642Y941910D01*
X418535Y940573D01*
X419872Y939680D01*
X421448Y939367D01*
X439448D01*
X441024Y939680D01*
X442361Y940573D01*
X443254Y941910D01*
X443567Y943486D01*
X443254Y945062D01*
X442636Y945986D01*
X443254Y946910D01*
X443567Y948486D01*
X443254Y950062D01*
X442636Y950986D01*
X443254Y951910D01*
X443567Y953486D01*
X443254Y955062D01*
X442636Y955986D01*
X443254Y956910D01*
X443567Y958486D01*
X443254Y960062D01*
X442636Y960986D01*
X443254Y961910D01*
X443567Y963486D01*
X443254Y965062D01*
X442361Y966399D01*
X441024Y967292D01*
X439448Y967605D01*
X421448D01*
X420269Y967371D01*
X393660D01*
Y970820D01*
X383580D01*
Y970165D01*
X375880D01*
Y970820D01*
X365800D01*
Y970165D01*
X363281D01*
X362958Y970487D01*
X361290Y971178D01*
D02*
G37*
G36*
X563948Y938105D02*
X562372Y937792D01*
X561448Y937174D01*
X560524Y937792D01*
X558948Y938105D01*
X557372Y937792D01*
X556448Y937174D01*
X555524Y937792D01*
X553948Y938105D01*
X552372Y937792D01*
X551448Y937174D01*
X550524Y937792D01*
X548948Y938105D01*
X547372Y937792D01*
X546448Y937174D01*
X545524Y937792D01*
X543948Y938105D01*
X542372Y937792D01*
X541448Y937174D01*
X540524Y937792D01*
X538948Y938105D01*
X537372Y937792D01*
X536448Y937174D01*
X535524Y937792D01*
X533948Y938105D01*
X532372Y937792D01*
X531448Y937174D01*
X530524Y937792D01*
X528948Y938105D01*
X527372Y937792D01*
X526448Y937174D01*
X525524Y937792D01*
X523948Y938105D01*
X522372Y937792D01*
X521035Y936899D01*
X520142Y935562D01*
X519829Y933986D01*
Y915986D01*
X520063Y914807D01*
Y909232D01*
X520359Y907745D01*
X521201Y906485D01*
X522216Y905470D01*
X522132Y904200D01*
X521620D01*
Y894120D01*
X522275D01*
Y890648D01*
X521895Y889731D01*
Y887925D01*
X522587Y886256D01*
X523864Y884979D01*
X525532Y884288D01*
X527338D01*
X529007Y884979D01*
X530284Y886256D01*
X530975Y887925D01*
Y889731D01*
X530284Y891400D01*
X530045Y891639D01*
Y894120D01*
X530700D01*
Y904200D01*
X530045D01*
Y907020D01*
X529749Y908506D01*
X528907Y909767D01*
X528556Y910118D01*
X528582Y910669D01*
X528948Y911867D01*
X530524Y912180D01*
X531448Y912798D01*
X532372Y912180D01*
X533948Y911867D01*
X535524Y912180D01*
X536448Y912798D01*
X537372Y912180D01*
X538948Y911867D01*
X540524Y912180D01*
X541448Y912798D01*
X542372Y912180D01*
X543948Y911867D01*
X545524Y912180D01*
X546448Y912798D01*
X547372Y912180D01*
X548948Y911867D01*
X550524Y912180D01*
X551448Y912798D01*
X552372Y912180D01*
X553948Y911867D01*
X555524Y912180D01*
X556448Y912798D01*
X557372Y912180D01*
X558948Y911867D01*
X560524Y912180D01*
X561448Y912798D01*
X562372Y912180D01*
X563948Y911867D01*
X565524Y912180D01*
X566861Y913073D01*
X567754Y914410D01*
X568067Y915986D01*
Y933986D01*
X567754Y935562D01*
X566861Y936899D01*
X565524Y937792D01*
X563948Y938105D01*
D02*
G37*
G36*
X513948D02*
X512372Y937792D01*
X511448Y937174D01*
X510524Y937792D01*
X508948Y938105D01*
X507372Y937792D01*
X506448Y937174D01*
X505524Y937792D01*
X503948Y938105D01*
X502372Y937792D01*
X501448Y937174D01*
X500524Y937792D01*
X498948Y938105D01*
X497372Y937792D01*
X496448Y937174D01*
X495524Y937792D01*
X493948Y938105D01*
X492372Y937792D01*
X491448Y937174D01*
X490524Y937792D01*
X488948Y938105D01*
X487372Y937792D01*
X486448Y937174D01*
X485524Y937792D01*
X483948Y938105D01*
X482372Y937792D01*
X481448Y937174D01*
X480524Y937792D01*
X478948Y938105D01*
X477372Y937792D01*
X476448Y937174D01*
X475524Y937792D01*
X473948Y938105D01*
X472372Y937792D01*
X471448Y937174D01*
X470524Y937792D01*
X468948Y938105D01*
X467372Y937792D01*
X466448Y937174D01*
X465524Y937792D01*
X463948Y938105D01*
X462372Y937792D01*
X461448Y937174D01*
X460524Y937792D01*
X458948Y938105D01*
X457372Y937792D01*
X456035Y936899D01*
X455142Y935562D01*
X454829Y933986D01*
Y915986D01*
X455063Y914807D01*
Y910609D01*
X454453Y909999D01*
X453611Y908738D01*
X453315Y907252D01*
Y904200D01*
X452660D01*
Y894120D01*
X453315D01*
Y891313D01*
X452659Y889728D01*
Y887922D01*
X453350Y886253D01*
X454261Y885342D01*
X434133Y865214D01*
X433291Y863954D01*
X432995Y862467D01*
Y843510D01*
X426490D01*
Y822730D01*
X447270D01*
Y843510D01*
X440765D01*
Y860858D01*
X463890Y883984D01*
X465063Y883497D01*
Y881214D01*
X459533Y875684D01*
X458691Y874424D01*
X458395Y872937D01*
Y842836D01*
X458270Y842802D01*
X455900Y841434D01*
X453966Y839500D01*
X452598Y837130D01*
X451890Y834488D01*
Y831752D01*
X452598Y829110D01*
X453966Y826740D01*
X455900Y824806D01*
X458270Y823438D01*
X460912Y822730D01*
X463648D01*
X466290Y823438D01*
X468660Y824806D01*
X470594Y826740D01*
X471962Y829110D01*
X472670Y831752D01*
Y834488D01*
X471962Y837130D01*
X470594Y839500D01*
X468660Y841434D01*
X466290Y842802D01*
X466165Y842836D01*
Y871328D01*
X471695Y876858D01*
X472537Y878119D01*
X472833Y879605D01*
Y911088D01*
X473814Y911893D01*
X473948Y911867D01*
X474082Y911893D01*
X475063Y911088D01*
Y880637D01*
X475359Y879151D01*
X476201Y877890D01*
X483795Y870296D01*
Y842836D01*
X483670Y842802D01*
X481300Y841434D01*
X479366Y839500D01*
X477998Y837130D01*
X477290Y834488D01*
Y831752D01*
X477998Y829110D01*
X479366Y826740D01*
X481300Y824806D01*
X483670Y823438D01*
X486312Y822730D01*
X489048D01*
X491690Y823438D01*
X494060Y824806D01*
X495994Y826740D01*
X497362Y829110D01*
X498070Y831752D01*
Y834488D01*
X497362Y837130D01*
X495994Y839500D01*
X494060Y841434D01*
X491690Y842802D01*
X491565Y842836D01*
Y871905D01*
X491269Y873392D01*
X490427Y874652D01*
X482833Y882246D01*
Y884800D01*
X484006Y885286D01*
X509195Y860096D01*
Y842836D01*
X509070Y842802D01*
X506700Y841434D01*
X504766Y839500D01*
X503398Y837130D01*
X502690Y834488D01*
Y831752D01*
X503398Y829110D01*
X504766Y826740D01*
X506700Y824806D01*
X509070Y823438D01*
X511712Y822730D01*
X514448D01*
X517090Y823438D01*
X519460Y824806D01*
X521394Y826740D01*
X522762Y829110D01*
X523470Y831752D01*
Y834488D01*
X522762Y837130D01*
X521394Y839500D01*
X519460Y841434D01*
X517090Y842802D01*
X516965Y842836D01*
Y861705D01*
X516669Y863192D01*
X515827Y864452D01*
X487833Y892446D01*
Y911088D01*
X488814Y911893D01*
X488948Y911867D01*
X490524Y912180D01*
X491448Y912798D01*
X492372Y912180D01*
X493948Y911867D01*
X495524Y912180D01*
X496448Y912798D01*
X497372Y912180D01*
X498948Y911867D01*
X500524Y912180D01*
X501448Y912798D01*
X502372Y912180D01*
X503948Y911867D01*
X505524Y912180D01*
X506448Y912798D01*
X507372Y912180D01*
X508948Y911867D01*
X510524Y912180D01*
X511448Y912798D01*
X512372Y912180D01*
X513948Y911867D01*
X515524Y912180D01*
X516861Y913073D01*
X517754Y914410D01*
X518067Y915986D01*
Y933986D01*
X517754Y935562D01*
X516861Y936899D01*
X515524Y937792D01*
X513948Y938105D01*
D02*
G37*
G36*
X448948D02*
X447372Y937792D01*
X446035Y936899D01*
X445142Y935562D01*
X444829Y933986D01*
Y915986D01*
X445142Y914410D01*
X446035Y913073D01*
X447372Y912180D01*
X448948Y911867D01*
X450524Y912180D01*
X451861Y913073D01*
X452754Y914410D01*
X453067Y915986D01*
Y933986D01*
X452754Y935562D01*
X451861Y936899D01*
X450524Y937792D01*
X448948Y938105D01*
D02*
G37*
G36*
X885861Y835236D02*
X871659D01*
Y832045D01*
X865480D01*
Y834700D01*
X851400D01*
Y831925D01*
X847870D01*
Y835080D01*
X823290D01*
Y821000D01*
X825695D01*
Y811180D01*
X825939Y809953D01*
Y801053D01*
X825939Y799783D01*
X825939Y799362D01*
Y793825D01*
X814760D01*
Y796480D01*
X800680D01*
Y793717D01*
X791961D01*
Y796921D01*
X777759D01*
Y783166D01*
X777759Y781896D01*
X777759Y781474D01*
Y767719D01*
X780975D01*
Y764768D01*
X781271Y763281D01*
X782113Y762021D01*
X785607Y758527D01*
Y749819D01*
X794289D01*
X798756Y745353D01*
X798270Y744180D01*
X795940D01*
Y734100D01*
X795940D01*
X796024Y732830D01*
X788995Y725801D01*
X780299D01*
Y722597D01*
X774168D01*
Y723381D01*
X759992D01*
Y709179D01*
X774168D01*
Y714828D01*
X779401D01*
X780299Y713930D01*
X780299Y710776D01*
X780299Y710354D01*
Y696599D01*
X783515D01*
Y694090D01*
X777610D01*
Y677860D01*
X777610Y677510D01*
Y676590D01*
X777610Y676240D01*
Y665504D01*
X773990Y661884D01*
X773148Y660623D01*
X772906Y659407D01*
X771676Y658697D01*
X770459Y657479D01*
X769598Y655988D01*
X769152Y654325D01*
Y652603D01*
X769598Y650939D01*
X769673Y650809D01*
X769038Y649709D01*
X653724D01*
X652909Y650525D01*
X652380Y651585D01*
X652380D01*
X652380Y651585D01*
Y671415D01*
X636300D01*
Y651585D01*
X638185D01*
Y650864D01*
X638481Y649377D01*
X639323Y648117D01*
X708268Y579172D01*
X708210Y579033D01*
X707645Y577999D01*
X706136Y577594D01*
X704644Y576733D01*
X703427Y575516D01*
X702566Y574024D01*
X702120Y572361D01*
Y570639D01*
X702237Y570201D01*
X695176Y563140D01*
X681090D01*
Y559731D01*
X660531D01*
X625803Y594460D01*
X625968Y595719D01*
X626432Y595987D01*
X627649Y597205D01*
X628510Y598696D01*
X628956Y600359D01*
Y602081D01*
X628510Y603745D01*
X627649Y605236D01*
X626432Y606454D01*
X626305Y606527D01*
Y610180D01*
X628960D01*
Y624260D01*
X626305D01*
Y630500D01*
X628960D01*
Y644580D01*
X625475D01*
Y651585D01*
X626380D01*
Y671415D01*
X597300D01*
Y657079D01*
X595595Y655373D01*
X568819D01*
X567333Y655078D01*
X566073Y654236D01*
X482142Y570305D01*
X476567D01*
X476081Y571478D01*
X481891Y577289D01*
X482453Y578129D01*
X482650Y579120D01*
Y586740D01*
X482453Y587731D01*
X481891Y588571D01*
X476811Y593651D01*
X475971Y594213D01*
X475860Y594235D01*
Y594520D01*
X453780D01*
Y593410D01*
X448761Y591737D01*
X448680Y591691D01*
X448589Y591673D01*
X448244Y591442D01*
X447883Y591236D01*
X447826Y591163D01*
X447749Y591111D01*
X447518Y590766D01*
X447264Y590438D01*
X447239Y590348D01*
X447187Y590271D01*
X447106Y589864D01*
X446997Y589464D01*
X447008Y589371D01*
X446990Y589280D01*
Y579120D01*
X447187Y578129D01*
X447749Y577289D01*
X453559Y571478D01*
X453074Y570305D01*
X278360D01*
X276873Y570009D01*
X275613Y569167D01*
X265916Y559470D01*
X251830D01*
Y547045D01*
X178052D01*
X170040Y555057D01*
X168779Y555899D01*
X167293Y556195D01*
X167270D01*
Y560600D01*
X147690D01*
Y544370D01*
X147690Y544020D01*
Y543100D01*
X147690Y542750D01*
Y526520D01*
X153595D01*
Y520061D01*
X150379D01*
Y506306D01*
X150379Y505036D01*
X150379Y504614D01*
Y490859D01*
X164581D01*
Y493955D01*
X175779D01*
Y490752D01*
X189981D01*
Y494075D01*
X198700D01*
Y491420D01*
X212780D01*
Y492685D01*
X224536D01*
Y491236D01*
X244307D01*
X244793Y490063D01*
X243934Y489204D01*
X224536D01*
Y478536D01*
X249428D01*
Y483710D01*
X254372Y488655D01*
X255789Y488275D01*
X255956Y487651D01*
X256817Y486160D01*
X258035Y484942D01*
X258166Y484866D01*
Y451481D01*
X254519D01*
Y437726D01*
X254519Y436456D01*
X253460Y435526D01*
X188067D01*
X185711Y435057D01*
X183713Y433722D01*
X176941Y426950D01*
X164870D01*
Y413437D01*
X128296Y376863D01*
X127182Y375196D01*
X126791Y373229D01*
Y309291D01*
X127182Y307324D01*
X128296Y305657D01*
X136280Y297673D01*
Y286860D01*
X151093D01*
X163909Y274044D01*
X165576Y272930D01*
X167542Y272539D01*
X175898D01*
X176920Y271940D01*
X176920Y271269D01*
Y257860D01*
X182836D01*
Y185820D01*
X182132Y185414D01*
X180356Y183638D01*
X179100Y181462D01*
X178450Y179036D01*
Y176524D01*
X179100Y174098D01*
X180356Y171922D01*
X182132Y170146D01*
X184308Y168890D01*
X186734Y168240D01*
X189246D01*
X191672Y168890D01*
X193848Y170146D01*
X195624Y171922D01*
X196880Y174098D01*
X197530Y176524D01*
Y179036D01*
X196880Y181462D01*
X195624Y183638D01*
X193848Y185414D01*
X193114Y185838D01*
Y257860D01*
X199000D01*
Y271269D01*
X199000Y271940D01*
X200022Y272539D01*
X220100D01*
Y258600D01*
X224756D01*
Y212699D01*
X222408Y212070D01*
X220232Y210814D01*
X218456Y209038D01*
X217200Y206862D01*
X216550Y204436D01*
Y201924D01*
X217200Y199498D01*
X218456Y197322D01*
X220232Y195546D01*
X222408Y194290D01*
X224834Y193640D01*
X227346D01*
X229772Y194290D01*
X231948Y195546D01*
X233724Y197322D01*
X234980Y199498D01*
X235630Y201924D01*
Y204436D01*
X234980Y206862D01*
X234640Y207451D01*
X234642Y207453D01*
X235033Y209420D01*
Y258600D01*
X242180D01*
Y272539D01*
X314589D01*
X316556Y272930D01*
X318223Y274044D01*
X330940Y286761D01*
X335820D01*
X336316Y286860D01*
X341593D01*
X355754Y272699D01*
X357421Y271585D01*
X359387Y271194D01*
X367420D01*
Y257860D01*
X373321D01*
Y185849D01*
X372602Y185434D01*
X370826Y183658D01*
X369570Y181482D01*
X368920Y179056D01*
Y176544D01*
X369570Y174118D01*
X370826Y171942D01*
X372602Y170166D01*
X374778Y168910D01*
X377204Y168260D01*
X379716D01*
X382142Y168910D01*
X384318Y170166D01*
X386094Y171942D01*
X387350Y174118D01*
X388000Y176544D01*
Y179056D01*
X387350Y181482D01*
X386094Y183658D01*
X384318Y185434D01*
X383599Y185849D01*
Y257860D01*
X389500D01*
Y271194D01*
X405520D01*
Y257860D01*
X411421D01*
Y211249D01*
X410702Y210834D01*
X408926Y209058D01*
X407670Y206882D01*
X407020Y204456D01*
Y201944D01*
X407670Y199518D01*
X408926Y197342D01*
X410702Y195566D01*
X412878Y194310D01*
X415304Y193660D01*
X417816D01*
X420242Y194310D01*
X422418Y195566D01*
X424194Y197342D01*
X425450Y199518D01*
X426100Y201944D01*
Y204456D01*
X425450Y206882D01*
X424194Y209058D01*
X422418Y210834D01*
X421699Y211249D01*
Y257860D01*
X427600D01*
Y271194D01*
X509293D01*
X511259Y271585D01*
X512926Y272699D01*
X527087Y286860D01*
X534633D01*
X549562Y271931D01*
X551229Y270817D01*
X553196Y270426D01*
X557920D01*
Y257120D01*
X566958D01*
Y186156D01*
X565672Y185414D01*
X563896Y183638D01*
X562640Y181462D01*
X561990Y179036D01*
Y176524D01*
X562640Y174098D01*
X563896Y171922D01*
X565672Y170146D01*
X567848Y168890D01*
X570274Y168240D01*
X572786D01*
X575212Y168890D01*
X577388Y170146D01*
X579164Y171922D01*
X580420Y174098D01*
X581070Y176524D01*
Y179036D01*
X580420Y181462D01*
X579164Y183638D01*
X577388Y185414D01*
X577236Y185502D01*
Y257120D01*
X580000D01*
Y270426D01*
X598560D01*
Y257860D01*
X604491D01*
Y211229D01*
X603772Y210814D01*
X601996Y209038D01*
X600740Y206862D01*
X600090Y204436D01*
Y201924D01*
X600740Y199498D01*
X601996Y197322D01*
X603772Y195546D01*
X605948Y194290D01*
X608374Y193640D01*
X610886D01*
X613312Y194290D01*
X615488Y195546D01*
X617264Y197322D01*
X618520Y199498D01*
X619170Y201924D01*
Y204436D01*
X618520Y206862D01*
X617264Y209038D01*
X615488Y210814D01*
X614769Y211229D01*
Y257860D01*
X620640D01*
Y270426D01*
X681920D01*
X683887Y270817D01*
X685554Y271931D01*
X703124Y289501D01*
X712860D01*
Y287600D01*
X727673D01*
X743150Y272123D01*
X744817Y271009D01*
X746784Y270618D01*
X750960D01*
Y257860D01*
X759589D01*
Y185957D01*
X758682Y185434D01*
X756906Y183658D01*
X755650Y181482D01*
X755000Y179056D01*
Y176544D01*
X755650Y174118D01*
X756906Y171942D01*
X758682Y170166D01*
X760858Y168910D01*
X763284Y168260D01*
X765796D01*
X768222Y168910D01*
X770398Y170166D01*
X772174Y171942D01*
X773430Y174118D01*
X774080Y176544D01*
Y179056D01*
X773430Y181482D01*
X772174Y183658D01*
X770398Y185434D01*
X769866Y185741D01*
Y257860D01*
X773040D01*
Y270618D01*
X791600D01*
Y257860D01*
X797501D01*
Y211249D01*
X796782Y210834D01*
X795006Y209058D01*
X793750Y206882D01*
X793100Y204456D01*
Y201944D01*
X793750Y199518D01*
X795006Y197342D01*
X796782Y195566D01*
X798958Y194310D01*
X801384Y193660D01*
X803896D01*
X806322Y194310D01*
X808498Y195566D01*
X810274Y197342D01*
X811530Y199518D01*
X812180Y201944D01*
Y204456D01*
X811530Y206882D01*
X810274Y209058D01*
X808498Y210834D01*
X807779Y211249D01*
Y257860D01*
X813680D01*
Y270618D01*
X872309D01*
X874276Y271009D01*
X875943Y272123D01*
X892581Y288761D01*
X905900D01*
Y286860D01*
X918008D01*
X918192Y285933D01*
X919306Y284266D01*
X933179Y270394D01*
X934846Y269280D01*
X936813Y268889D01*
X946540D01*
Y257860D01*
X951742D01*
Y185403D01*
X949976Y183638D01*
X948720Y181462D01*
X948070Y179036D01*
Y176524D01*
X948720Y174098D01*
X949976Y171922D01*
X951752Y170146D01*
X953928Y168890D01*
X956354Y168240D01*
X958866D01*
X961292Y168890D01*
X963468Y170146D01*
X965244Y171922D01*
X966500Y174098D01*
X967150Y176524D01*
Y179036D01*
X966500Y181462D01*
X965244Y183638D01*
X963468Y185414D01*
X962019Y186250D01*
Y257860D01*
X968620D01*
Y268889D01*
X992260D01*
Y263396D01*
X992161Y262900D01*
Y212106D01*
X992028Y212070D01*
X989852Y210814D01*
X988076Y209038D01*
X986820Y206862D01*
X986170Y204436D01*
Y201924D01*
X986820Y199498D01*
X988076Y197322D01*
X989852Y195546D01*
X992028Y194290D01*
X994454Y193640D01*
X996966D01*
X999392Y194290D01*
X1001568Y195546D01*
X1003344Y197322D01*
X1004600Y199498D01*
X1005250Y201924D01*
Y204436D01*
X1004600Y206862D01*
X1003344Y209038D01*
X1002439Y209943D01*
Y257860D01*
X1014340D01*
Y268889D01*
X1083567D01*
X1085534Y269280D01*
X1087201Y270394D01*
X1103667Y286860D01*
X1118480D01*
Y300940D01*
X1096400D01*
Y294127D01*
X1081439Y279166D01*
X1058462D01*
X1058064Y280213D01*
X1058051Y280436D01*
X1084896Y307281D01*
X1123431D01*
X1137040Y293673D01*
Y286860D01*
X1159120D01*
Y300940D01*
X1144307D01*
X1131519Y313728D01*
X1132005Y314901D01*
X1160452D01*
X1177680Y297673D01*
Y286860D01*
X1199760D01*
Y300940D01*
X1188947D01*
X1166214Y323674D01*
X1164547Y324788D01*
X1162580Y325179D01*
X1029440D01*
X1027474Y324788D01*
X1025806Y323674D01*
X1005666Y303534D01*
X1004552Y301866D01*
X1004368Y300940D01*
X1002232D01*
X1002048Y301866D01*
X1000934Y303534D01*
X988119Y316348D01*
Y330463D01*
X988613Y330957D01*
X989540Y332563D01*
X990020Y334353D01*
Y336207D01*
X989540Y337997D01*
X988613Y339603D01*
X987303Y340913D01*
X985697Y341840D01*
X983907Y342320D01*
X982053D01*
X980263Y341840D01*
X978657Y340913D01*
X977429Y339685D01*
X977062Y339718D01*
X976159Y340085D01*
Y385200D01*
X978060D01*
Y400013D01*
X990857Y412810D01*
X991971Y414477D01*
X992363Y416444D01*
Y422286D01*
X992980Y423300D01*
X993633Y423300D01*
X1007060D01*
Y429201D01*
X1073991D01*
X1074406Y428482D01*
X1076182Y426706D01*
X1078358Y425450D01*
X1080784Y424800D01*
X1083296D01*
X1085722Y425450D01*
X1087898Y426706D01*
X1089674Y428482D01*
X1090930Y430658D01*
X1091580Y433084D01*
Y435596D01*
X1090930Y438022D01*
X1089674Y440198D01*
X1087898Y441974D01*
X1085722Y443230D01*
X1083296Y443880D01*
X1080784D01*
X1078358Y443230D01*
X1076182Y441974D01*
X1074406Y440198D01*
X1073991Y439479D01*
X1007060D01*
Y445380D01*
X993633D01*
X992980Y445380D01*
X992363Y446394D01*
Y457846D01*
X992980Y458860D01*
X993633Y458860D01*
X1007060D01*
Y467301D01*
X1048591D01*
X1049006Y466582D01*
X1050782Y464806D01*
X1052958Y463550D01*
X1055384Y462900D01*
X1057896D01*
X1060322Y463550D01*
X1062498Y464806D01*
X1064274Y466582D01*
X1065530Y468758D01*
X1066180Y471184D01*
Y473696D01*
X1065530Y476122D01*
X1064274Y478298D01*
X1062498Y480074D01*
X1060322Y481330D01*
X1057896Y481980D01*
X1055384D01*
X1052958Y481330D01*
X1050782Y480074D01*
X1049006Y478298D01*
X1048591Y477579D01*
X1007060D01*
Y480940D01*
X993633D01*
X992980Y480940D01*
X992363Y481954D01*
Y574437D01*
X992306Y574718D01*
X993112Y575700D01*
X1005260D01*
Y581571D01*
X1048611D01*
X1049026Y580852D01*
X1050802Y579076D01*
X1052978Y577820D01*
X1055404Y577170D01*
X1057916D01*
X1060342Y577820D01*
X1062518Y579076D01*
X1064294Y580852D01*
X1065550Y583028D01*
X1066200Y585454D01*
Y587966D01*
X1065550Y590392D01*
X1064294Y592568D01*
X1062518Y594344D01*
X1060342Y595600D01*
X1057916Y596250D01*
X1055404D01*
X1052978Y595600D01*
X1050802Y594344D01*
X1049026Y592568D01*
X1048611Y591849D01*
X1005260D01*
Y597780D01*
X991180D01*
Y579544D01*
X989910Y579018D01*
X981925Y587003D01*
X980258Y588117D01*
X978291Y588508D01*
X976260D01*
Y597780D01*
X966359D01*
Y611013D01*
X969447Y614102D01*
X976260D01*
Y636182D01*
X962180D01*
Y621369D01*
X957586Y616775D01*
X956472Y615108D01*
X956081Y613142D01*
Y537220D01*
X956472Y535253D01*
X957586Y533586D01*
X973881Y517291D01*
Y480940D01*
X967247D01*
X949107Y499081D01*
Y634839D01*
X968707Y654440D01*
X975520D01*
Y676520D01*
X961440D01*
Y661707D01*
X940334Y640602D01*
X939220Y638935D01*
X938829Y636968D01*
Y496952D01*
X939220Y494986D01*
X940334Y493318D01*
X963980Y469673D01*
Y466127D01*
X943786Y445934D01*
X942672Y444267D01*
X942281Y442300D01*
Y354124D01*
X935507Y347350D01*
X902070D01*
X900104Y346958D01*
X898437Y345844D01*
X851631Y299039D01*
X813680D01*
Y300940D01*
X804528D01*
Y302971D01*
X804137Y304937D01*
X803023Y306605D01*
X791034Y318594D01*
X789367Y319708D01*
X787400Y320099D01*
X634660D01*
X632693Y319708D01*
X631026Y318594D01*
X615179Y302747D01*
X613958Y303321D01*
X613637Y304937D01*
X612523Y306605D01*
X600534Y318594D01*
X598867Y319708D01*
X596900Y320099D01*
X441620D01*
X439654Y319708D01*
X437986Y318594D01*
X420333Y300940D01*
X417075D01*
Y304343D01*
X416684Y306310D01*
X415570Y307977D01*
X402641Y320906D01*
X400974Y322020D01*
X399008Y322411D01*
X257772D01*
X255806Y322020D01*
X254139Y320906D01*
X234913Y301680D01*
X227367D01*
X215534Y313514D01*
X213867Y314628D01*
X211900Y315019D01*
X179928D01*
X169049Y325899D01*
Y352281D01*
X172508Y355741D01*
X173892Y355370D01*
X176628D01*
X179270Y356078D01*
X181640Y357446D01*
X183574Y359380D01*
X183702Y359602D01*
X459865D01*
X462222Y360070D01*
X464220Y361405D01*
X501532Y398717D01*
X755288D01*
X757645Y399186D01*
X759642Y400521D01*
X791561Y432439D01*
X797041D01*
Y446194D01*
X797041Y447464D01*
X797041Y447886D01*
Y461641D01*
X794626D01*
Y478986D01*
X794757Y479062D01*
X795975Y480279D01*
X796836Y481771D01*
X797282Y483434D01*
Y485156D01*
X796836Y486819D01*
X795975Y488311D01*
X794757Y489528D01*
X793266Y490389D01*
X791603Y490835D01*
X791318D01*
X790792Y492105D01*
X792687Y494000D01*
X793529Y495260D01*
X793825Y496747D01*
Y525390D01*
X799730D01*
Y541620D01*
X799730Y541970D01*
Y542890D01*
X799730Y543240D01*
Y559470D01*
X780150D01*
Y555065D01*
X743363D01*
X721910Y576517D01*
X722491Y577732D01*
X723884Y578106D01*
X725376Y578967D01*
X726593Y580184D01*
X727454Y581676D01*
X727900Y583339D01*
Y585061D01*
X727861Y585207D01*
X774300Y631646D01*
X774507Y631590D01*
X776229D01*
X777893Y632036D01*
X779384Y632897D01*
X780601Y634115D01*
X781462Y635606D01*
X781908Y637269D01*
Y638991D01*
X781462Y640655D01*
X781355Y640840D01*
X781990Y641940D01*
X819585D01*
X821071Y642236D01*
X822332Y643078D01*
X838984Y659730D01*
X853070D01*
Y675960D01*
X853070Y676310D01*
Y677230D01*
X853070Y677580D01*
Y693810D01*
X847149D01*
Y699019D01*
X852801D01*
Y709066D01*
X856560D01*
Y702000D01*
X868856D01*
Y558291D01*
X866954Y556390D01*
X853310D01*
Y535810D01*
X873890D01*
Y549454D01*
X877228Y552792D01*
X878291Y554383D01*
X878664Y556260D01*
Y711505D01*
X878291Y713381D01*
X877228Y714972D01*
X875741Y716460D01*
Y738099D01*
X882892D01*
X883158Y738046D01*
X883424Y738099D01*
X896458D01*
Y738221D01*
X902280D01*
Y737010D01*
X916360D01*
Y737639D01*
X927619D01*
Y734699D01*
X941821D01*
Y736883D01*
X955492D01*
X957369Y737257D01*
X958960Y738320D01*
X981539Y760899D01*
X982602Y762490D01*
X982976Y764367D01*
Y794849D01*
X982602Y796725D01*
X981539Y798316D01*
X961946Y817910D01*
X960355Y818973D01*
X958478Y819346D01*
X945935D01*
X937470Y827811D01*
Y835080D01*
X924890D01*
Y831925D01*
X921301D01*
Y835141D01*
X907546D01*
X906276Y835141D01*
X905854Y835141D01*
X892099D01*
Y832032D01*
X885861D01*
Y835236D01*
D02*
G37*
G36*
X206542Y698020D02*
X203898D01*
X201345Y697336D01*
X199055Y696014D01*
X197186Y694145D01*
X195864Y691855D01*
X195180Y689302D01*
Y686658D01*
X195864Y684105D01*
X197186Y681815D01*
X199055Y679946D01*
X201345Y678624D01*
X203898Y677940D01*
X206542D01*
X209095Y678624D01*
X211385Y679946D01*
X213254Y681815D01*
X214576Y684105D01*
X215260Y686658D01*
Y689302D01*
X214576Y691855D01*
X213254Y694145D01*
X211385Y696014D01*
X209095Y697336D01*
X206542Y698020D01*
D02*
G37*
G36*
X349301Y678737D02*
X347579D01*
X345916Y678292D01*
X344425Y677431D01*
X343207Y676213D01*
X342346Y674722D01*
X341900Y673058D01*
Y671337D01*
X342346Y669673D01*
X343207Y668182D01*
X344425Y666964D01*
X345916Y666103D01*
X347579Y665658D01*
X349301D01*
X350965Y666103D01*
X352386Y666924D01*
X359727D01*
X360906Y666690D01*
X373906D01*
X376068Y667119D01*
X377900Y668344D01*
X379124Y670176D01*
X379554Y672338D01*
X379124Y674500D01*
X377900Y676332D01*
X376068Y677557D01*
X373906Y677987D01*
X360906D01*
X359727Y677752D01*
X351900D01*
X350965Y678292D01*
X349301Y678737D01*
D02*
G37*
G36*
X451840Y701710D02*
X435260D01*
Y685130D01*
X437694D01*
Y666404D01*
X431572D01*
Y663523D01*
X424973D01*
X424900Y663632D01*
X423068Y664857D01*
X420906Y665286D01*
X407906D01*
X405744Y664857D01*
X403912Y663632D01*
X402687Y661800D01*
X402257Y659638D01*
X402687Y657476D01*
X403912Y655644D01*
X405744Y654419D01*
X407906Y653989D01*
X420906D01*
X423068Y654419D01*
X424900Y655644D01*
X424973Y655753D01*
X431572D01*
Y649824D01*
X448152D01*
Y666404D01*
X445463D01*
Y685130D01*
X451840D01*
Y701710D01*
D02*
G37*
G36*
X1147411Y694400D02*
X1143709D01*
X1140079Y693678D01*
X1136660Y692262D01*
X1133582Y690205D01*
X1130965Y687588D01*
X1128908Y684510D01*
X1127492Y681091D01*
X1126770Y677461D01*
Y673759D01*
X1127492Y670129D01*
X1128908Y666710D01*
X1130965Y663632D01*
X1133582Y661015D01*
X1136660Y658959D01*
X1140079Y657542D01*
X1143709Y656820D01*
X1147411D01*
X1151041Y657542D01*
X1154460Y658959D01*
X1157538Y661015D01*
X1160155Y663632D01*
X1162212Y666710D01*
X1163628Y670129D01*
X1164350Y673759D01*
Y677461D01*
X1163628Y681091D01*
X1162212Y684510D01*
X1160155Y687588D01*
X1157538Y690205D01*
X1154460Y692262D01*
X1151041Y693678D01*
X1147411Y694400D01*
D02*
G37*
G36*
X1004520Y676520D02*
X990440D01*
Y654440D01*
X1004520D01*
Y657771D01*
X1048611D01*
X1049026Y657052D01*
X1050802Y655276D01*
X1052978Y654020D01*
X1055404Y653370D01*
X1057916D01*
X1060342Y654020D01*
X1062518Y655276D01*
X1064294Y657052D01*
X1065550Y659228D01*
X1066200Y661654D01*
Y664166D01*
X1065550Y666592D01*
X1064294Y668768D01*
X1062518Y670544D01*
X1060342Y671800D01*
X1057916Y672450D01*
X1055404D01*
X1052978Y671800D01*
X1050802Y670544D01*
X1049026Y668768D01*
X1048611Y668049D01*
X1004520D01*
Y676520D01*
D02*
G37*
G36*
X373906Y652587D02*
X360906D01*
X358744Y652157D01*
X356912Y650932D01*
X355687Y649100D01*
X355257Y646938D01*
X355687Y644776D01*
X356246Y643940D01*
X355568Y642670D01*
X348924D01*
Y644846D01*
X334844D01*
Y632266D01*
X335230D01*
Y626110D01*
X335427Y625119D01*
X335989Y624279D01*
X341323Y618945D01*
X342163Y618383D01*
X343154Y618186D01*
X370840Y618186D01*
X371831Y618383D01*
X372671Y618945D01*
X377751Y624025D01*
X378313Y624865D01*
X378510Y625856D01*
X378510Y631156D01*
X379124Y632076D01*
X379554Y634238D01*
X379124Y636400D01*
X378510Y637320D01*
Y637540D01*
X378313Y638531D01*
X377751Y639371D01*
X376511Y640611D01*
X376746Y642173D01*
X377900Y642944D01*
X379124Y644776D01*
X379554Y646938D01*
X379124Y649100D01*
X377900Y650932D01*
X376068Y652157D01*
X373906Y652587D01*
D02*
G37*
G36*
X141542Y653020D02*
X138898D01*
X136345Y652336D01*
X134055Y651014D01*
X132186Y649145D01*
X130864Y646855D01*
X130180Y644302D01*
Y641658D01*
X130864Y639105D01*
X132186Y636815D01*
X134055Y634946D01*
X136345Y633624D01*
X138898Y632940D01*
X141542D01*
X144095Y633624D01*
X146385Y634946D01*
X148254Y636815D01*
X149576Y639105D01*
X150260Y641658D01*
Y644302D01*
X149576Y646855D01*
X148254Y649145D01*
X146385Y651014D01*
X144095Y652336D01*
X141542Y653020D01*
D02*
G37*
G36*
X471652Y666404D02*
X455072D01*
Y649824D01*
X471652D01*
Y654229D01*
X475657D01*
X482845Y647041D01*
Y640750D01*
X478440D01*
Y624170D01*
X495020D01*
Y640750D01*
X490615D01*
Y648650D01*
X490319Y650137D01*
X489477Y651397D01*
X480013Y660861D01*
X478753Y661703D01*
X477266Y661999D01*
X471652D01*
Y666404D01*
D02*
G37*
G36*
X1005260Y636182D02*
X991180D01*
Y614102D01*
X1005260D01*
Y619120D01*
X1074329D01*
X1074426Y618952D01*
X1076202Y617176D01*
X1078378Y615920D01*
X1080804Y615270D01*
X1083316D01*
X1085742Y615920D01*
X1087918Y617176D01*
X1089694Y618952D01*
X1090950Y621128D01*
X1091600Y623554D01*
Y626066D01*
X1090950Y628492D01*
X1089694Y630668D01*
X1087918Y632444D01*
X1085742Y633700D01*
X1083316Y634350D01*
X1080804D01*
X1078378Y633700D01*
X1076202Y632444D01*
X1074426Y630668D01*
X1073693Y629397D01*
X1005260D01*
Y636182D01*
D02*
G37*
G36*
X420906Y652587D02*
X407906D01*
X405744Y652157D01*
X403912Y650932D01*
X402687Y649100D01*
X402257Y646938D01*
X402687Y644776D01*
X403912Y642944D01*
X405744Y641719D01*
X407906Y641290D01*
X417848D01*
X417937Y641156D01*
X417258Y639887D01*
X407906D01*
X405744Y639457D01*
X403912Y638232D01*
X402687Y636400D01*
X402257Y634238D01*
X402687Y632076D01*
X403912Y630244D01*
X405744Y629019D01*
X407906Y628590D01*
X420906D01*
X423068Y629019D01*
X424900Y630244D01*
X426124Y632076D01*
X426162Y632266D01*
X426457Y632465D01*
X427553Y632748D01*
X428968Y631802D01*
X431040Y631390D01*
X431040Y631390D01*
X432380D01*
Y629534D01*
X446460D01*
Y629998D01*
X454940D01*
Y624170D01*
X453939Y623520D01*
X453780D01*
Y609440D01*
X475860D01*
Y623520D01*
X472521D01*
X471520Y624170D01*
Y640750D01*
X463200D01*
X462818Y640826D01*
X462818Y640826D01*
X446460D01*
Y642114D01*
X438963D01*
X438440Y642218D01*
X438440Y642218D01*
X433283D01*
X425568Y649933D01*
X424900Y650932D01*
X423068Y652157D01*
X420906Y652587D01*
D02*
G37*
G36*
X1147411Y580100D02*
X1143709D01*
X1140079Y579378D01*
X1136660Y577962D01*
X1133582Y575905D01*
X1130965Y573288D01*
X1128908Y570210D01*
X1127492Y566791D01*
X1126770Y563161D01*
Y559459D01*
X1127492Y555829D01*
X1128908Y552410D01*
X1130965Y549332D01*
X1133582Y546715D01*
X1136660Y544659D01*
X1140079Y543242D01*
X1143709Y542520D01*
X1147411D01*
X1151041Y543242D01*
X1154460Y544659D01*
X1157538Y546715D01*
X1160155Y549332D01*
X1162212Y552410D01*
X1163628Y555829D01*
X1164350Y559459D01*
Y563161D01*
X1163628Y566791D01*
X1162212Y570210D01*
X1160155Y573288D01*
X1157538Y575905D01*
X1154460Y577962D01*
X1151041Y579378D01*
X1147411Y580100D01*
D02*
G37*
G36*
X864955Y530990D02*
X862245D01*
X859628Y530289D01*
X857282Y528934D01*
X855366Y527018D01*
X854011Y524672D01*
X853310Y522055D01*
Y520311D01*
X850983Y517984D01*
X826262D01*
Y518414D01*
X801370D01*
Y507746D01*
X826262D01*
Y508176D01*
X853014D01*
X854891Y508549D01*
X856482Y509612D01*
X858584Y511714D01*
X859628Y511111D01*
X862245Y510410D01*
X864955D01*
X867572Y511111D01*
X869918Y512466D01*
X871834Y514382D01*
X873189Y516728D01*
X873890Y519345D01*
Y522055D01*
X873189Y524672D01*
X871834Y527018D01*
X869918Y528934D01*
X867572Y530289D01*
X864955Y530990D01*
D02*
G37*
G36*
X826262Y505714D02*
X801370D01*
Y495046D01*
X826262D01*
Y505714D01*
D02*
G37*
G36*
X1193154Y520030D02*
X1189326D01*
X1185628Y519039D01*
X1182312Y517125D01*
X1179605Y514418D01*
X1177691Y511102D01*
X1176700Y507404D01*
Y503576D01*
X1177691Y499878D01*
X1179605Y496562D01*
X1182312Y493855D01*
X1185628Y491941D01*
X1189326Y490950D01*
X1193154D01*
X1196852Y491941D01*
X1200168Y493855D01*
X1202875Y496562D01*
X1204789Y499878D01*
X1205780Y503576D01*
Y507404D01*
X1204789Y511102D01*
X1202875Y514418D01*
X1200168Y517125D01*
X1196852Y519039D01*
X1193154Y520030D01*
D02*
G37*
G36*
X826262Y493014D02*
X801370D01*
Y482346D01*
X826262D01*
Y493014D01*
D02*
G37*
G36*
Y480314D02*
X801370D01*
Y469646D01*
X826262D01*
Y480314D01*
D02*
G37*
G36*
X1147391Y503930D02*
X1143689D01*
X1140059Y503208D01*
X1136640Y501791D01*
X1133562Y499735D01*
X1130945Y497118D01*
X1128888Y494040D01*
X1127472Y490621D01*
X1126750Y486991D01*
Y483289D01*
X1127472Y479659D01*
X1128888Y476240D01*
X1130945Y473162D01*
X1133562Y470545D01*
X1136640Y468489D01*
X1140059Y467072D01*
X1143689Y466350D01*
X1147391D01*
X1151021Y467072D01*
X1154440Y468489D01*
X1157518Y470545D01*
X1160135Y473162D01*
X1162191Y476240D01*
X1163608Y479659D01*
X1164330Y483289D01*
Y486991D01*
X1163608Y490621D01*
X1162191Y494040D01*
X1160135Y497118D01*
X1157518Y499735D01*
X1154440Y501791D01*
X1151021Y503208D01*
X1147391Y503930D01*
D02*
G37*
G36*
X190630Y480190D02*
X170050D01*
Y459610D01*
X190630D01*
Y464996D01*
X228600D01*
X230477Y465369D01*
X231176Y465836D01*
X249428D01*
Y476504D01*
X224536D01*
Y474804D01*
X190630D01*
Y480190D01*
D02*
G37*
G36*
X156295D02*
X153585D01*
X150968Y479489D01*
X148622Y478134D01*
X146706Y476218D01*
X145351Y473872D01*
X144650Y471255D01*
Y468545D01*
X145351Y465928D01*
X146706Y463582D01*
X148622Y461666D01*
X150968Y460311D01*
X153585Y459610D01*
X156295D01*
X158912Y460311D01*
X161258Y461666D01*
X163174Y463582D01*
X164529Y465928D01*
X165230Y468545D01*
Y471255D01*
X164529Y473872D01*
X163174Y476218D01*
X161258Y478134D01*
X158912Y479489D01*
X156295Y480190D01*
D02*
G37*
G36*
X1007060Y407280D02*
X992980D01*
Y385200D01*
X1007060D01*
Y391101D01*
X1048591D01*
X1049006Y390382D01*
X1050782Y388606D01*
X1052958Y387350D01*
X1055384Y386700D01*
X1057896D01*
X1060322Y387350D01*
X1062498Y388606D01*
X1064274Y390382D01*
X1065530Y392558D01*
X1066180Y394984D01*
Y397496D01*
X1065530Y399922D01*
X1064274Y402098D01*
X1062498Y403874D01*
X1060322Y405130D01*
X1057896Y405780D01*
X1055384D01*
X1052958Y405130D01*
X1050782Y403874D01*
X1049006Y402098D01*
X1048591Y401379D01*
X1007060D01*
Y407280D01*
D02*
G37*
G36*
X1147391Y389630D02*
X1143689D01*
X1140059Y388908D01*
X1136640Y387491D01*
X1133562Y385435D01*
X1130945Y382818D01*
X1128888Y379740D01*
X1127472Y376321D01*
X1126750Y372691D01*
Y368989D01*
X1127472Y365359D01*
X1128888Y361940D01*
X1130945Y358862D01*
X1133562Y356245D01*
X1136640Y354188D01*
X1140059Y352772D01*
X1143689Y352050D01*
X1147391D01*
X1151021Y352772D01*
X1154440Y354188D01*
X1157518Y356245D01*
X1160135Y358862D01*
X1162191Y361940D01*
X1163608Y365359D01*
X1164330Y368989D01*
Y372691D01*
X1163608Y376321D01*
X1162191Y379740D01*
X1160135Y382818D01*
X1157518Y385435D01*
X1154440Y387491D01*
X1151021Y388908D01*
X1147391Y389630D01*
D02*
G37*
G36*
X1193154Y365030D02*
X1189326D01*
X1185628Y364039D01*
X1182312Y362125D01*
X1179605Y359418D01*
X1177691Y356102D01*
X1176700Y352404D01*
Y348576D01*
X1177691Y344878D01*
X1179605Y341562D01*
X1182312Y338855D01*
X1185628Y336941D01*
X1189326Y335950D01*
X1193154D01*
X1196852Y336941D01*
X1200168Y338855D01*
X1202875Y341562D01*
X1204789Y344878D01*
X1205780Y348576D01*
Y352404D01*
X1204789Y356102D01*
X1202875Y359418D01*
X1200168Y362125D01*
X1196852Y364039D01*
X1193154Y365030D01*
D02*
G37*
G36*
X734940Y272680D02*
X712860D01*
Y258600D01*
X721301D01*
Y211249D01*
X720582Y210834D01*
X718806Y209058D01*
X717550Y206882D01*
X716900Y204456D01*
Y201944D01*
X717550Y199518D01*
X718806Y197342D01*
X720582Y195566D01*
X722758Y194310D01*
X725184Y193660D01*
X727696D01*
X730122Y194310D01*
X732298Y195566D01*
X734074Y197342D01*
X735330Y199518D01*
X735980Y201944D01*
Y204456D01*
X735330Y206882D01*
X734074Y209058D01*
X732298Y210834D01*
X731579Y211249D01*
Y258600D01*
X734940D01*
Y272680D01*
D02*
G37*
G36*
X348860Y271940D02*
X326780D01*
Y257860D01*
X335221D01*
Y211249D01*
X334502Y210834D01*
X332726Y209058D01*
X331470Y206882D01*
X330820Y204456D01*
Y201944D01*
X331470Y199518D01*
X332726Y197342D01*
X334502Y195566D01*
X336678Y194310D01*
X339104Y193660D01*
X341616D01*
X344042Y194310D01*
X346218Y195566D01*
X347994Y197342D01*
X349250Y199518D01*
X349900Y201944D01*
Y204456D01*
X349250Y206882D01*
X347994Y209058D01*
X346218Y210834D01*
X345499Y211249D01*
Y257860D01*
X348860D01*
Y271940D01*
D02*
G37*
G36*
X1199760D02*
X1177680D01*
Y257860D01*
X1181071D01*
Y211229D01*
X1180352Y210814D01*
X1178576Y209038D01*
X1177320Y206862D01*
X1176670Y204436D01*
Y201924D01*
X1177320Y199498D01*
X1178576Y197322D01*
X1180352Y195546D01*
X1182528Y194290D01*
X1184954Y193640D01*
X1187466D01*
X1189892Y194290D01*
X1192068Y195546D01*
X1193844Y197322D01*
X1195100Y199498D01*
X1195750Y201924D01*
Y204436D01*
X1195100Y206862D01*
X1193844Y209038D01*
X1192068Y210814D01*
X1191349Y211229D01*
Y257860D01*
X1199760D01*
Y271940D01*
D02*
G37*
G36*
X1118480D02*
X1096400D01*
Y257860D01*
X1104871D01*
Y211229D01*
X1104152Y210814D01*
X1102376Y209038D01*
X1101120Y206862D01*
X1100470Y204436D01*
Y201924D01*
X1101120Y199498D01*
X1102376Y197322D01*
X1104152Y195546D01*
X1106328Y194290D01*
X1108754Y193640D01*
X1111266D01*
X1113692Y194290D01*
X1115868Y195546D01*
X1117644Y197322D01*
X1118900Y199498D01*
X1119550Y201924D01*
Y204436D01*
X1118900Y206862D01*
X1117644Y209038D01*
X1115868Y210814D01*
X1115149Y211229D01*
Y257860D01*
X1118480D01*
Y271940D01*
D02*
G37*
G36*
X927980D02*
X905900D01*
Y257860D01*
X914371D01*
Y211229D01*
X913652Y210814D01*
X911876Y209038D01*
X910620Y206862D01*
X909970Y204436D01*
Y201924D01*
X910620Y199498D01*
X911876Y197322D01*
X913652Y195546D01*
X915828Y194290D01*
X918254Y193640D01*
X920766D01*
X923192Y194290D01*
X925368Y195546D01*
X927144Y197322D01*
X928400Y199498D01*
X929050Y201924D01*
Y204436D01*
X928400Y206862D01*
X927144Y209038D01*
X925368Y210814D01*
X924649Y211229D01*
Y257860D01*
X927980D01*
Y271940D01*
D02*
G37*
G36*
X541900D02*
X519820D01*
Y257860D01*
X526505D01*
Y209746D01*
X525796Y209038D01*
X524540Y206862D01*
X523890Y204436D01*
Y201924D01*
X524540Y199498D01*
X525796Y197322D01*
X527572Y195546D01*
X529748Y194290D01*
X532174Y193640D01*
X534686D01*
X537112Y194290D01*
X539288Y195546D01*
X541064Y197322D01*
X542320Y199498D01*
X542970Y201924D01*
Y204436D01*
X542320Y206862D01*
X541064Y209038D01*
X539288Y210814D01*
X537112Y212070D01*
X536782Y212158D01*
Y257860D01*
X541900D01*
Y271940D01*
D02*
G37*
G36*
X158360D02*
X136280D01*
Y257860D01*
X144751D01*
Y211229D01*
X144032Y210814D01*
X142256Y209038D01*
X141000Y206862D01*
X140350Y204436D01*
Y201924D01*
X141000Y199498D01*
X142256Y197322D01*
X144032Y195546D01*
X146208Y194290D01*
X148634Y193640D01*
X151146D01*
X153572Y194290D01*
X155748Y195546D01*
X157524Y197322D01*
X158780Y199498D01*
X159430Y201924D01*
Y204436D01*
X158780Y206862D01*
X157524Y209038D01*
X155748Y210814D01*
X155029Y211229D01*
Y257860D01*
X158360D01*
Y271940D01*
D02*
G37*
G36*
X1159120D02*
X1137040D01*
Y257860D01*
X1142971D01*
Y185829D01*
X1142252Y185414D01*
X1140476Y183638D01*
X1139220Y181462D01*
X1138570Y179036D01*
Y176524D01*
X1139220Y174098D01*
X1140476Y171922D01*
X1142252Y170146D01*
X1144428Y168890D01*
X1146854Y168240D01*
X1149366D01*
X1151792Y168890D01*
X1153968Y170146D01*
X1155744Y171922D01*
X1157000Y174098D01*
X1157650Y176524D01*
Y179036D01*
X1157000Y181462D01*
X1155744Y183638D01*
X1153968Y185414D01*
X1153249Y185829D01*
Y257860D01*
X1159120D01*
Y271940D01*
D02*
G37*
G36*
X817191Y133090D02*
X813489D01*
X809859Y132368D01*
X806440Y130951D01*
X803362Y128895D01*
X800745Y126278D01*
X798689Y123200D01*
X797272Y119781D01*
X796550Y116151D01*
Y112449D01*
X797272Y108819D01*
X798689Y105400D01*
X800745Y102322D01*
X803362Y99705D01*
X806440Y97648D01*
X809859Y96232D01*
X813489Y95510D01*
X817191D01*
X820821Y96232D01*
X824240Y97648D01*
X827318Y99705D01*
X829935Y102322D01*
X831992Y105400D01*
X833408Y108819D01*
X834130Y112449D01*
Y116151D01*
X833408Y119781D01*
X831992Y123200D01*
X829935Y126278D01*
X827318Y128895D01*
X824240Y130951D01*
X820821Y132368D01*
X817191Y133090D01*
D02*
G37*
G36*
X702891D02*
X699189D01*
X695559Y132368D01*
X692140Y130951D01*
X689062Y128895D01*
X686445Y126278D01*
X684389Y123200D01*
X682972Y119781D01*
X682250Y116151D01*
Y112449D01*
X682972Y108819D01*
X684389Y105400D01*
X686445Y102322D01*
X689062Y99705D01*
X692140Y97648D01*
X695559Y96232D01*
X699189Y95510D01*
X702891D01*
X706521Y96232D01*
X709940Y97648D01*
X713018Y99705D01*
X715635Y102322D01*
X717691Y105400D01*
X719108Y108819D01*
X719830Y112449D01*
Y116151D01*
X719108Y119781D01*
X717691Y123200D01*
X715635Y126278D01*
X713018Y128895D01*
X709940Y130951D01*
X706521Y132368D01*
X702891Y133090D01*
D02*
G37*
G36*
X431111D02*
X427409D01*
X423779Y132368D01*
X420360Y130951D01*
X417282Y128895D01*
X414665Y126278D01*
X412608Y123200D01*
X411192Y119781D01*
X410470Y116151D01*
Y112449D01*
X411192Y108819D01*
X412608Y105400D01*
X414665Y102322D01*
X417282Y99705D01*
X420360Y97648D01*
X423779Y96232D01*
X427409Y95510D01*
X431111D01*
X434741Y96232D01*
X438160Y97648D01*
X441238Y99705D01*
X443855Y102322D01*
X445911Y105400D01*
X447328Y108819D01*
X448050Y112449D01*
Y116151D01*
X447328Y119781D01*
X445911Y123200D01*
X443855Y126278D01*
X441238Y128895D01*
X438160Y130951D01*
X434741Y132368D01*
X431111Y133090D01*
D02*
G37*
G36*
X316811D02*
X313109D01*
X309479Y132368D01*
X306060Y130951D01*
X302982Y128895D01*
X300365Y126278D01*
X298309Y123200D01*
X296892Y119781D01*
X296170Y116151D01*
Y112449D01*
X296892Y108819D01*
X298309Y105400D01*
X300365Y102322D01*
X302982Y99705D01*
X306060Y97648D01*
X309479Y96232D01*
X313109Y95510D01*
X316811D01*
X320441Y96232D01*
X323860Y97648D01*
X326938Y99705D01*
X329555Y102322D01*
X331612Y105400D01*
X333028Y108819D01*
X333750Y112449D01*
Y116151D01*
X333028Y119781D01*
X331612Y123200D01*
X329555Y126278D01*
X326938Y128895D01*
X323860Y130951D01*
X320441Y132368D01*
X316811Y133090D01*
D02*
G37*
G36*
X1200761Y133070D02*
X1197059D01*
X1193429Y132348D01*
X1190010Y130932D01*
X1186932Y128875D01*
X1184315Y126258D01*
X1182259Y123180D01*
X1180842Y119761D01*
X1180120Y116131D01*
Y112429D01*
X1180842Y108799D01*
X1182259Y105380D01*
X1184315Y102302D01*
X1186932Y99685D01*
X1190010Y97628D01*
X1193429Y96212D01*
X1197059Y95490D01*
X1200761D01*
X1204391Y96212D01*
X1207810Y97628D01*
X1210888Y99685D01*
X1213505Y102302D01*
X1215562Y105380D01*
X1216978Y108799D01*
X1217700Y112429D01*
Y116131D01*
X1216978Y119761D01*
X1215562Y123180D01*
X1213505Y126258D01*
X1210888Y128875D01*
X1207810Y130932D01*
X1204391Y132348D01*
X1200761Y133070D01*
D02*
G37*
G36*
X1086461D02*
X1082759D01*
X1079129Y132348D01*
X1075710Y130932D01*
X1072632Y128875D01*
X1070015Y126258D01*
X1067959Y123180D01*
X1066542Y119761D01*
X1065820Y116131D01*
Y112429D01*
X1066542Y108799D01*
X1067959Y105380D01*
X1070015Y102302D01*
X1072632Y99685D01*
X1075710Y97628D01*
X1079129Y96212D01*
X1082759Y95490D01*
X1086461D01*
X1090091Y96212D01*
X1093510Y97628D01*
X1096588Y99685D01*
X1099205Y102302D01*
X1101262Y105380D01*
X1102678Y108799D01*
X1103400Y112429D01*
Y116131D01*
X1102678Y119761D01*
X1101262Y123180D01*
X1099205Y126258D01*
X1096588Y128875D01*
X1093510Y130932D01*
X1090091Y132348D01*
X1086461Y133070D01*
D02*
G37*
G36*
X1010261D02*
X1006559D01*
X1002929Y132348D01*
X999510Y130932D01*
X996432Y128875D01*
X993815Y126258D01*
X991758Y123180D01*
X990342Y119761D01*
X989620Y116131D01*
Y112429D01*
X990342Y108799D01*
X991758Y105380D01*
X993815Y102302D01*
X996432Y99685D01*
X999510Y97628D01*
X1002929Y96212D01*
X1006559Y95490D01*
X1010261D01*
X1013891Y96212D01*
X1017310Y97628D01*
X1020388Y99685D01*
X1023005Y102302D01*
X1025061Y105380D01*
X1026478Y108799D01*
X1027200Y112429D01*
Y116131D01*
X1026478Y119761D01*
X1025061Y123180D01*
X1023005Y126258D01*
X1020388Y128875D01*
X1017310Y130932D01*
X1013891Y132348D01*
X1010261Y133070D01*
D02*
G37*
G36*
X895961D02*
X892259D01*
X888629Y132348D01*
X885210Y130932D01*
X882132Y128875D01*
X879515Y126258D01*
X877458Y123180D01*
X876042Y119761D01*
X875320Y116131D01*
Y112429D01*
X876042Y108799D01*
X877458Y105380D01*
X879515Y102302D01*
X882132Y99685D01*
X885210Y97628D01*
X888629Y96212D01*
X892259Y95490D01*
X895961D01*
X899591Y96212D01*
X903010Y97628D01*
X906088Y99685D01*
X908705Y102302D01*
X910761Y105380D01*
X912178Y108799D01*
X912900Y112429D01*
Y116131D01*
X912178Y119761D01*
X910761Y123180D01*
X908705Y126258D01*
X906088Y128875D01*
X903010Y130932D01*
X899591Y132348D01*
X895961Y133070D01*
D02*
G37*
G36*
X624181D02*
X620479D01*
X616849Y132348D01*
X613430Y130932D01*
X610352Y128875D01*
X607735Y126258D01*
X605678Y123180D01*
X604262Y119761D01*
X603540Y116131D01*
Y112429D01*
X604262Y108799D01*
X605678Y105380D01*
X607735Y102302D01*
X610352Y99685D01*
X613430Y97628D01*
X616849Y96212D01*
X620479Y95490D01*
X624181D01*
X627811Y96212D01*
X631230Y97628D01*
X634308Y99685D01*
X636925Y102302D01*
X638982Y105380D01*
X640398Y108799D01*
X641120Y112429D01*
Y116131D01*
X640398Y119761D01*
X638982Y123180D01*
X636925Y126258D01*
X634308Y128875D01*
X631230Y130932D01*
X627811Y132348D01*
X624181Y133070D01*
D02*
G37*
G36*
X509881D02*
X506179D01*
X502549Y132348D01*
X499130Y130932D01*
X496052Y128875D01*
X493435Y126258D01*
X491379Y123180D01*
X489962Y119761D01*
X489240Y116131D01*
Y112429D01*
X489962Y108799D01*
X491379Y105380D01*
X493435Y102302D01*
X496052Y99685D01*
X499130Y97628D01*
X502549Y96212D01*
X506179Y95490D01*
X509881D01*
X513511Y96212D01*
X516930Y97628D01*
X520008Y99685D01*
X522625Y102302D01*
X524682Y105380D01*
X526098Y108799D01*
X526820Y112429D01*
Y116131D01*
X526098Y119761D01*
X524682Y123180D01*
X522625Y126258D01*
X520008Y128875D01*
X516930Y130932D01*
X513511Y132348D01*
X509881Y133070D01*
D02*
G37*
G36*
X240641D02*
X236939D01*
X233309Y132348D01*
X229890Y130932D01*
X226812Y128875D01*
X224195Y126258D01*
X222139Y123180D01*
X220722Y119761D01*
X220000Y116131D01*
Y112429D01*
X220722Y108799D01*
X222139Y105380D01*
X224195Y102302D01*
X226812Y99685D01*
X229890Y97628D01*
X233309Y96212D01*
X236939Y95490D01*
X240641D01*
X244271Y96212D01*
X247690Y97628D01*
X250768Y99685D01*
X253385Y102302D01*
X255441Y105380D01*
X256858Y108799D01*
X257580Y112429D01*
Y116131D01*
X256858Y119761D01*
X255441Y123180D01*
X253385Y126258D01*
X250768Y128875D01*
X247690Y130932D01*
X244271Y132348D01*
X240641Y133070D01*
D02*
G37*
G36*
X126341D02*
X122639D01*
X119009Y132348D01*
X115590Y130932D01*
X112512Y128875D01*
X109895Y126258D01*
X107838Y123180D01*
X106422Y119761D01*
X105700Y116131D01*
Y112429D01*
X106422Y108799D01*
X107838Y105380D01*
X109895Y102302D01*
X112512Y99685D01*
X115590Y97628D01*
X119009Y96212D01*
X122639Y95490D01*
X126341D01*
X129971Y96212D01*
X133390Y97628D01*
X136468Y99685D01*
X139085Y102302D01*
X141142Y105380D01*
X142558Y108799D01*
X143280Y112429D01*
Y116131D01*
X142558Y119761D01*
X141142Y123180D01*
X139085Y126258D01*
X136468Y128875D01*
X133390Y130932D01*
X129971Y132348D01*
X126341Y133070D01*
D02*
G37*
%LPD*%
G36*
X278180Y1477970D02*
Y1475470D01*
X278680Y1474970D01*
X281180D01*
X281680Y1474470D01*
Y1473470D01*
X281180Y1472970D01*
X271180D01*
X270680Y1473470D01*
Y1477970D01*
X271180Y1478470D01*
X277680D01*
X278180Y1477970D01*
D02*
G37*
G36*
X253680D02*
Y1473470D01*
X253180Y1472970D01*
X243180D01*
X242680Y1473470D01*
Y1474470D01*
X243180Y1474970D01*
X245680D01*
X246180Y1475470D01*
Y1477970D01*
X246680Y1478470D01*
X253180D01*
X253680Y1477970D01*
D02*
G37*
G36*
X233680Y1473200D02*
Y1440180D01*
X231140Y1437640D01*
X175260D01*
X167640Y1445260D01*
Y1470660D01*
X172720Y1475740D01*
X231140D01*
X233680Y1473200D01*
D02*
G37*
G36*
X373380Y1465580D02*
Y1437640D01*
X365760Y1430020D01*
X327660D01*
X320040Y1437640D01*
Y1444379D01*
X318867Y1443893D01*
X314960Y1447800D01*
X318770Y1451610D01*
X320040D01*
Y1465580D01*
X325120Y1470660D01*
X368300D01*
X373380Y1465580D01*
D02*
G37*
G36*
X262253Y1431878D02*
X294640Y1397000D01*
Y1374140D01*
X289560Y1369060D01*
X226060D01*
X223520Y1371600D01*
Y1391920D01*
X260983Y1431881D01*
X262253Y1431878D01*
D02*
G37*
G36*
X327660Y1343660D02*
Y1333500D01*
X325120Y1330960D01*
X307340D01*
X297180Y1320800D01*
X226060D01*
X220980Y1325880D01*
Y1351280D01*
X320040D01*
X327660Y1343660D01*
D02*
G37*
G36*
X613467Y1151304D02*
X613049Y1149926D01*
X612372Y1149792D01*
X611448Y1149174D01*
X610524Y1149792D01*
X608948Y1150105D01*
X607372Y1149792D01*
X606448Y1149174D01*
X605524Y1149792D01*
X603948Y1150105D01*
X602372Y1149792D01*
X601448Y1149174D01*
X600524Y1149792D01*
X598948Y1150105D01*
X597372Y1149792D01*
X596448Y1149174D01*
X595524Y1149792D01*
X593948Y1150105D01*
X592372Y1149792D01*
X591448Y1149174D01*
X590524Y1149792D01*
X588948Y1150105D01*
X587372Y1149792D01*
X586448Y1149174D01*
X585524Y1149792D01*
X583948Y1150105D01*
X582372Y1149792D01*
X581448Y1149174D01*
X580524Y1149792D01*
X578948Y1150105D01*
X577372Y1149792D01*
X576448Y1149174D01*
X575524Y1149792D01*
X573948Y1150105D01*
X572372Y1149792D01*
X571035Y1148899D01*
X570142Y1147562D01*
X569829Y1145986D01*
Y1127986D01*
X570142Y1126410D01*
X571035Y1125073D01*
X572201Y1124295D01*
X572183Y1123610D01*
X571990Y1123025D01*
X565907D01*
X565713Y1123610D01*
X565695Y1124295D01*
X566861Y1125073D01*
X567754Y1126410D01*
X568067Y1127986D01*
Y1145986D01*
X567833Y1147165D01*
Y1158752D01*
X567537Y1160239D01*
X566960Y1161102D01*
Y1165820D01*
X566305D01*
Y1168387D01*
X566899Y1169821D01*
Y1171628D01*
X566208Y1173296D01*
X564930Y1174573D01*
X563262Y1175265D01*
X561456D01*
X559787Y1174573D01*
X558510Y1173296D01*
X557819Y1171628D01*
Y1169821D01*
X558510Y1168153D01*
X558535Y1168128D01*
Y1165820D01*
X557880D01*
Y1155740D01*
X560063D01*
Y1150884D01*
X559082Y1150079D01*
X558948Y1150105D01*
X557372Y1149792D01*
X556448Y1149174D01*
X555524Y1149792D01*
X553948Y1150105D01*
X552372Y1149792D01*
X551448Y1149174D01*
X550524Y1149792D01*
X548948Y1150105D01*
X547372Y1149792D01*
X546448Y1149174D01*
X545524Y1149792D01*
X543948Y1150105D01*
X542372Y1149792D01*
X541448Y1149174D01*
X540524Y1149792D01*
X538948Y1150105D01*
X537372Y1149792D01*
X536448Y1149174D01*
X535524Y1149792D01*
X533948Y1150105D01*
X532372Y1149792D01*
X531448Y1149174D01*
X530524Y1149792D01*
X528948Y1150105D01*
X527372Y1149792D01*
X526448Y1149174D01*
X525524Y1149792D01*
X523948Y1150105D01*
X522372Y1149792D01*
X521035Y1148899D01*
X520142Y1147562D01*
X519829Y1145986D01*
Y1127986D01*
X520142Y1126410D01*
X521035Y1125073D01*
X522201Y1124295D01*
X522183Y1123610D01*
X521990Y1123025D01*
X515907D01*
X515713Y1123610D01*
X515695Y1124295D01*
X516861Y1125073D01*
X517754Y1126410D01*
X518067Y1127986D01*
Y1145986D01*
X517921Y1146722D01*
Y1153200D01*
X518700D01*
Y1163280D01*
X518045D01*
Y1166925D01*
X517749Y1168411D01*
X517620Y1168605D01*
Y1169303D01*
X516929Y1170972D01*
X515652Y1172249D01*
X515484Y1172318D01*
X515236Y1173564D01*
X529333Y1187661D01*
X531038D01*
X533074Y1188505D01*
X534633Y1190063D01*
X535476Y1192099D01*
Y1194303D01*
X534980Y1195501D01*
X535829Y1196771D01*
X568000D01*
X613467Y1151304D01*
D02*
G37*
G36*
X493194Y1195501D02*
X492807Y1194568D01*
Y1193420D01*
X481201Y1181814D01*
X480359Y1180554D01*
X480063Y1179067D01*
Y1175538D01*
X468679D01*
Y1161361D01*
X473631D01*
Y1150042D01*
X472372Y1149792D01*
X471448Y1149174D01*
X470524Y1149792D01*
X468948Y1150105D01*
X467372Y1149792D01*
X466448Y1149174D01*
X465524Y1149792D01*
X463948Y1150105D01*
X462372Y1149792D01*
X461448Y1149174D01*
X460524Y1149792D01*
X458948Y1150105D01*
X458814Y1150079D01*
X457833Y1150884D01*
Y1152998D01*
X458180Y1153345D01*
X458871Y1155014D01*
Y1156820D01*
X458180Y1158488D01*
X456902Y1159766D01*
X455234Y1160457D01*
X453428D01*
X452850Y1160218D01*
X451580Y1161066D01*
Y1163280D01*
X450925D01*
Y1165725D01*
X451110Y1165911D01*
X451801Y1167579D01*
Y1169385D01*
X451110Y1171054D01*
X449833Y1172331D01*
X448164Y1173022D01*
X446358D01*
X444689Y1172331D01*
X443412Y1171054D01*
X442721Y1169385D01*
Y1167579D01*
X443155Y1166531D01*
Y1163280D01*
X442500D01*
Y1153200D01*
X445063D01*
Y1147165D01*
X444829Y1145986D01*
Y1132044D01*
X443656Y1131558D01*
X391367Y1183847D01*
X390107Y1184689D01*
X388620Y1184985D01*
X223563D01*
X223077Y1186158D01*
X233690Y1196771D01*
X492345D01*
X493194Y1195501D01*
D02*
G37*
G36*
X243102Y1127966D02*
X244845Y1126960D01*
X246788Y1126439D01*
X247904D01*
Y1097239D01*
X260384D01*
Y1108139D01*
X406612D01*
X407464Y1107287D01*
X407537Y1107245D01*
X406940Y1105803D01*
Y1105105D01*
X406811Y1104911D01*
X406515Y1103425D01*
Y1099780D01*
X405860D01*
Y1092371D01*
X254698D01*
X253211Y1092075D01*
X251951Y1091233D01*
X244025Y1083307D01*
X242877D01*
X240841Y1082464D01*
X240532Y1082154D01*
X239358Y1082641D01*
Y1127010D01*
X241708Y1129360D01*
X243102Y1127966D01*
D02*
G37*
G36*
X951970Y1092079D02*
X938651Y1078760D01*
X934780D01*
X934266Y1079529D01*
Y1081336D01*
X933575Y1083004D01*
X933525Y1083054D01*
Y1098211D01*
X935540Y1100227D01*
X936780Y1100300D01*
Y1100300D01*
X951970D01*
Y1092079D01*
D02*
G37*
G36*
X936780Y1108725D02*
X934660D01*
X933173Y1108429D01*
X931913Y1107587D01*
X926893Y1102567D01*
X926051Y1101307D01*
X925755Y1099820D01*
Y1082710D01*
X925186Y1081336D01*
Y1079529D01*
X924672Y1078760D01*
X921880D01*
Y1083972D01*
X921820Y1084277D01*
Y1094460D01*
X910740D01*
Y1084277D01*
X910679Y1083972D01*
Y1078760D01*
X902820D01*
Y1087775D01*
X902895Y1088150D01*
Y1093940D01*
X929410Y1120455D01*
X936780D01*
Y1108725D01*
D02*
G37*
G36*
X910679Y1064868D02*
X910740Y1064564D01*
Y1054380D01*
X920090D01*
X920616Y1053110D01*
X912791Y1045285D01*
X902257D01*
X901165Y1046377D01*
Y1054380D01*
X902820D01*
Y1070080D01*
X910679D01*
Y1064868D01*
D02*
G37*
G36*
X774023Y1059673D02*
X775284Y1058831D01*
X776770Y1058535D01*
X859819D01*
X860345Y1057265D01*
X859751Y1056672D01*
X859060Y1055003D01*
Y1053197D01*
X859715Y1051615D01*
Y1042760D01*
X855091D01*
Y1039025D01*
X848280D01*
Y1040400D01*
X833200D01*
Y1026320D01*
X848280D01*
Y1031255D01*
X855091D01*
Y1027520D01*
X863350D01*
X863600Y1027470D01*
X870987D01*
X871220Y1027470D01*
X872236Y1027520D01*
X872236Y1027520D01*
X873510D01*
X873760Y1027470D01*
X876300D01*
X876550Y1027520D01*
X880966D01*
X885115Y1023371D01*
Y992849D01*
X874226Y981960D01*
X857640D01*
Y973374D01*
X849323Y965057D01*
X838757D01*
X814145Y989669D01*
Y999740D01*
X813849Y1001227D01*
X813007Y1002487D01*
X779189Y1036305D01*
X777929Y1037147D01*
X776660Y1037399D01*
Y1044820D01*
X764215D01*
Y1061000D01*
X764870Y1062582D01*
Y1064388D01*
X764510Y1065256D01*
X765359Y1066526D01*
X767170D01*
X774023Y1059673D01*
D02*
G37*
G36*
X876300Y1030060D02*
X873760D01*
X868680Y1035140D01*
X873760Y1040220D01*
X876300D01*
Y1030060D01*
D02*
G37*
G36*
X866140Y1035140D02*
X871220Y1030060D01*
X863600D01*
Y1035140D01*
Y1040220D01*
X871220D01*
X866140Y1035140D01*
D02*
G37*
%LPC*%
G36*
X848280Y1024400D02*
X833200D01*
Y1010320D01*
X836855D01*
Y1007000D01*
X833200D01*
Y992920D01*
X848280D01*
Y996075D01*
X860720D01*
X862207Y996371D01*
X862968Y996880D01*
X879720D01*
Y1010960D01*
X857640D01*
Y1003845D01*
X848280D01*
Y1007000D01*
X844625D01*
Y1010320D01*
X848280D01*
Y1024400D01*
D02*
G37*
%LPD*%
G36*
X302260Y1290320D02*
Y1282700D01*
X295930Y1276370D01*
X294728D01*
Y1275168D01*
X294640Y1275080D01*
X241300D01*
X238760Y1277620D01*
Y1290320D01*
X246888Y1298448D01*
X294132D01*
X302260Y1290320D01*
D02*
G37*
G36*
X457200Y1305560D02*
Y1247140D01*
X449580Y1239520D01*
X347980D01*
X337820Y1249680D01*
Y1308100D01*
X342900Y1313180D01*
X449580D01*
X457200Y1305560D01*
D02*
G37*
G36*
X871659Y821059D02*
X885861D01*
Y824263D01*
X892099D01*
Y820939D01*
X905854D01*
X907124Y820939D01*
X907546Y820939D01*
X921301D01*
Y824155D01*
X924890D01*
Y821000D01*
X930410D01*
X940436Y810974D01*
X942027Y809911D01*
X943904Y809538D01*
X956447D01*
X973167Y792817D01*
Y769461D01*
X971897Y769121D01*
X970894Y770858D01*
X968978Y772774D01*
X966632Y774129D01*
X964015Y774830D01*
X961305D01*
X958688Y774129D01*
X956342Y772774D01*
X954426Y770858D01*
X953071Y768512D01*
X952370Y765895D01*
Y764151D01*
X949935Y761717D01*
X941821D01*
Y763901D01*
X927619D01*
Y761717D01*
X922006D01*
X920129Y761343D01*
X918629Y760341D01*
X916360D01*
Y761590D01*
X902280D01*
Y760379D01*
X896458D01*
Y761467D01*
X875741D01*
Y763404D01*
X883488D01*
X883854Y763477D01*
X884012Y763446D01*
X900930D01*
X902807Y763819D01*
X904398Y764882D01*
X906636Y767120D01*
X908780D01*
Y769829D01*
X909144Y771660D01*
Y772160D01*
X908780Y773991D01*
Y777200D01*
X899700D01*
Y774056D01*
X898899Y773254D01*
X896458D01*
Y774167D01*
X871566D01*
Y772804D01*
X870028Y771777D01*
X867368Y769117D01*
X866305Y767526D01*
X865932Y765649D01*
Y715080D01*
X862054D01*
X861436Y715697D01*
X860176Y716540D01*
X858689Y716835D01*
X839115D01*
X837221Y718729D01*
X835961Y719571D01*
X834474Y719867D01*
X833400D01*
X830683Y722584D01*
Y722787D01*
X830149Y724076D01*
X830760Y725346D01*
X833882D01*
X834148Y725399D01*
X847182D01*
Y736067D01*
X827136D01*
X826743Y737236D01*
X827493Y738099D01*
X847182D01*
Y748767D01*
X822290D01*
Y744069D01*
X812270D01*
Y745393D01*
X811578Y747061D01*
X810301Y748338D01*
X809792Y748549D01*
X810045Y749819D01*
X814808D01*
Y751765D01*
X822290D01*
Y750799D01*
X847182D01*
Y761467D01*
X822290D01*
Y759535D01*
X814808D01*
Y764021D01*
X811605D01*
Y768400D01*
X814760D01*
Y781480D01*
X800680D01*
Y768400D01*
X803835D01*
Y764021D01*
X800632D01*
X800632Y764021D01*
X799783D01*
Y764021D01*
X799362Y764021D01*
X791101D01*
X788745Y766377D01*
Y767719D01*
X791961D01*
Y781474D01*
X791961Y782744D01*
X791961Y783166D01*
Y785948D01*
X800680D01*
Y783400D01*
X814760D01*
Y786055D01*
X825939D01*
Y785607D01*
X829997D01*
Y774167D01*
X822290D01*
Y763499D01*
X847182D01*
Y774167D01*
X837767D01*
Y785607D01*
X840141D01*
Y799362D01*
X840141Y800632D01*
X840141Y801053D01*
Y814808D01*
X833465D01*
Y821000D01*
X847870D01*
Y824155D01*
X851400D01*
Y821620D01*
X865480D01*
Y824275D01*
X871659D01*
Y821059D01*
D02*
G37*
G36*
X815605Y735030D02*
X814353Y734781D01*
X812762Y733718D01*
X811773Y732729D01*
X811029Y732581D01*
X809438Y731518D01*
X809280Y731360D01*
X807760D01*
Y729840D01*
X802062Y724142D01*
X800999Y722551D01*
X800626Y720674D01*
Y689333D01*
X800999Y687457D01*
X802062Y685866D01*
X809465Y678463D01*
Y676866D01*
X809979Y674948D01*
X810972Y673229D01*
X812375Y671825D01*
X814095Y670832D01*
X816012Y670318D01*
X817998D01*
X819915Y670832D01*
X821635Y671825D01*
X823039Y673229D01*
X824031Y674948D01*
X824545Y676866D01*
Y678851D01*
X824031Y680769D01*
X823039Y682488D01*
X821635Y683892D01*
X819915Y684884D01*
X817998Y685398D01*
X816401D01*
X810434Y691365D01*
Y718643D01*
X814071Y722280D01*
X817840D01*
Y724924D01*
X818261Y725346D01*
X821525D01*
X822137Y724076D01*
X821603Y722787D01*
Y720981D01*
X822294Y719312D01*
X823571Y718035D01*
X824720Y717559D01*
X827788Y714491D01*
X827262Y713221D01*
X823599D01*
Y699019D01*
X837354D01*
X837776Y699019D01*
Y699019D01*
X838109D01*
X839379Y698062D01*
Y693810D01*
X833490D01*
Y677580D01*
X833490Y677230D01*
Y676310D01*
X833490Y675960D01*
Y665224D01*
X817976Y649709D01*
X782346D01*
X781711Y650809D01*
X781786Y650939D01*
X782232Y652603D01*
Y654325D01*
X781786Y655988D01*
X780925Y657479D01*
X780749Y657655D01*
X783104Y660010D01*
X797190D01*
Y676240D01*
X797190Y676590D01*
Y677510D01*
X797190Y677860D01*
Y694090D01*
X791285D01*
Y696599D01*
X794501D01*
Y710354D01*
X794501Y711624D01*
X794501Y712046D01*
Y720319D01*
X802847Y728666D01*
X803689Y729926D01*
X803985Y731413D01*
Y734100D01*
X805020D01*
Y736300D01*
X815480D01*
X815605Y735030D01*
D02*
G37*
G36*
X607060Y616373D02*
Y609600D01*
X609600Y607060D01*
X607060Y604520D01*
X601980D01*
X599440Y607060D01*
Y612140D01*
X601980Y614680D01*
X605959Y617005D01*
X607060Y616373D01*
D02*
G37*
G36*
X480060Y586740D02*
Y579120D01*
X472440Y571500D01*
X457200D01*
X449580Y579120D01*
Y589280D01*
X457200Y591820D01*
X474980D01*
X480060Y586740D01*
D02*
G37*
G36*
X600520Y630500D02*
X603175D01*
Y619258D01*
X601059Y617141D01*
X600673Y616916D01*
X600425Y616696D01*
X600149Y616511D01*
X597609Y613971D01*
X597047Y613131D01*
X597047Y613129D01*
X557513Y573595D01*
X556672Y572337D01*
X526700Y542365D01*
X517790D01*
Y555520D01*
X512665D01*
Y578017D01*
X576097Y641450D01*
X600520D01*
Y630500D01*
D02*
G37*
G36*
X600149Y602689D02*
X600989Y602127D01*
X601980Y601930D01*
X607060D01*
X607298Y601978D01*
X656176Y553100D01*
X657436Y552258D01*
X658922Y551962D01*
X681090D01*
Y546910D01*
X681090Y546560D01*
Y545640D01*
X681090Y545290D01*
Y529060D01*
X686995D01*
Y522601D01*
X683779D01*
Y508846D01*
X683779Y507576D01*
X683779Y507154D01*
Y493399D01*
X697981D01*
Y496603D01*
X706639D01*
Y493399D01*
X720841D01*
Y496495D01*
X729560D01*
Y493840D01*
X743640D01*
Y496495D01*
X752094D01*
Y495046D01*
X776986D01*
X776986Y495046D01*
Y495046D01*
X778236Y494998D01*
X778404Y494830D01*
X779895Y493969D01*
X780067Y493923D01*
X780395Y492696D01*
X779264Y491565D01*
X776986D01*
Y493014D01*
X752094D01*
Y482346D01*
X776986D01*
Y483795D01*
X780873D01*
X782360Y484091D01*
X782932Y484473D01*
X784202Y483794D01*
Y483434D01*
X784647Y481771D01*
X785508Y480279D01*
X786726Y479062D01*
X786857Y478986D01*
Y461641D01*
X782839D01*
Y447886D01*
X782839Y446616D01*
X782839Y446194D01*
Y441136D01*
X752737Y411034D01*
X498981D01*
X496624Y410565D01*
X494626Y409230D01*
X457314Y371918D01*
X183702D01*
X183574Y372140D01*
X181640Y374074D01*
X179270Y375442D01*
X176628Y376150D01*
X173892D01*
X171250Y375442D01*
X168880Y374074D01*
X166946Y372140D01*
X165578Y369770D01*
X164870Y367128D01*
Y364392D01*
X165241Y363008D01*
X160276Y358044D01*
X159162Y356376D01*
X158771Y354410D01*
Y323770D01*
X159162Y321804D01*
X160276Y320136D01*
X174166Y306246D01*
X175833Y305132D01*
X177800Y304741D01*
X209771D01*
X220100Y294413D01*
Y290693D01*
X202434D01*
X199000Y294127D01*
Y300940D01*
X176920D01*
Y300655D01*
X175650Y300129D01*
X149674Y326105D01*
Y358307D01*
X172508Y381141D01*
X173892Y380770D01*
X176628D01*
X179270Y381478D01*
X181640Y382846D01*
X183574Y384780D01*
X183702Y385002D01*
X322661D01*
X325018Y385471D01*
X327016Y386805D01*
X363420Y423209D01*
X500899D01*
Y422279D01*
X515101D01*
Y436034D01*
X515101Y437304D01*
X515101Y437726D01*
Y451481D01*
X510402D01*
Y473115D01*
X510533Y473190D01*
X511751Y474408D01*
X512612Y475899D01*
X513058Y477563D01*
Y479285D01*
X512612Y480948D01*
X511751Y482439D01*
X510533Y483657D01*
X509042Y484518D01*
X508077Y484777D01*
X507692Y486189D01*
X510747Y489243D01*
X511589Y490503D01*
X511885Y491990D01*
Y521440D01*
X517790D01*
Y534595D01*
X528309D01*
X529796Y534891D01*
X531056Y535733D01*
X563007Y567684D01*
X563848Y568943D01*
X598871Y603966D01*
X600149Y602689D01*
D02*
G37*
G36*
X297198Y534282D02*
X298458Y533440D01*
X299945Y533145D01*
X336935D01*
X337276Y531875D01*
X336582Y531474D01*
X334666Y529558D01*
X333311Y527212D01*
X332610Y524595D01*
Y521885D01*
X333033Y520308D01*
X327669Y514944D01*
X313023D01*
X312420Y515064D01*
X310589Y514700D01*
X307380D01*
Y514549D01*
X298704D01*
Y514604D01*
X273812D01*
Y503936D01*
X298704D01*
Y504741D01*
X311945D01*
X313822Y505114D01*
X313854Y505136D01*
X329700D01*
X331577Y505509D01*
X333168Y506572D01*
X339968Y513373D01*
X341545Y512950D01*
X344255D01*
X346872Y513651D01*
X349218Y515006D01*
X351134Y516922D01*
X352489Y519268D01*
X353190Y521885D01*
Y524595D01*
X352489Y527212D01*
X351134Y529558D01*
X349218Y531474D01*
X348524Y531875D01*
X348865Y533145D01*
X394070D01*
Y518900D01*
X399975D01*
Y514873D01*
X396759D01*
Y501118D01*
X396759Y499848D01*
X396759Y499427D01*
Y485672D01*
X410961D01*
Y488875D01*
X422159D01*
Y485779D01*
X436361D01*
Y488875D01*
X447620D01*
Y486220D01*
X461700D01*
Y488875D01*
X469138D01*
Y487426D01*
X494030D01*
Y495759D01*
X494664Y496102D01*
X495300Y496211D01*
X496364Y495147D01*
X497856Y494286D01*
X499519Y493840D01*
X501241D01*
X502845Y494270D01*
X503082Y494312D01*
X503473Y492956D01*
X495300Y484784D01*
X494030Y485309D01*
Y485394D01*
X469138D01*
Y474726D01*
X494030D01*
Y476175D01*
X496070D01*
X497557Y476471D01*
X498817Y477313D01*
X500165Y476865D01*
X500423Y475899D01*
X501284Y474408D01*
X502502Y473190D01*
X502633Y473115D01*
Y451481D01*
X500899D01*
Y437726D01*
X500899Y436456D01*
X499840Y435526D01*
X360869D01*
X358512Y435057D01*
X356514Y433722D01*
X320111Y397318D01*
X183702D01*
X183574Y397540D01*
X181640Y399474D01*
X179270Y400842D01*
X176628Y401550D01*
X173892D01*
X171250Y400842D01*
X168880Y399474D01*
X166946Y397540D01*
X165578Y395170D01*
X164870Y392528D01*
Y389792D01*
X165241Y388408D01*
X140901Y364069D01*
X139787Y362402D01*
X139396Y360435D01*
Y323976D01*
X139787Y322010D01*
X140901Y320343D01*
X170978Y290266D01*
X172645Y289152D01*
X174611Y288761D01*
X176920D01*
Y286860D01*
X191733D01*
X194603Y283990D01*
X194117Y282816D01*
X169671D01*
X158360Y294127D01*
Y300940D01*
X147547D01*
X137068Y311419D01*
Y371101D01*
X172137Y406170D01*
X185650D01*
Y418241D01*
X190618Y423209D01*
X254519D01*
Y422279D01*
X268721D01*
Y436034D01*
X268721Y437304D01*
X268721Y437726D01*
Y451481D01*
X265935D01*
Y484866D01*
X266066Y484942D01*
X267284Y486160D01*
X268145Y487651D01*
X268590Y489314D01*
Y491036D01*
X268145Y492700D01*
X267284Y494191D01*
X266066Y495409D01*
X264575Y496270D01*
X263951Y496437D01*
X263571Y497853D01*
X264367Y498649D01*
X265209Y499909D01*
X265505Y501396D01*
Y525390D01*
X271410D01*
Y539275D01*
X292205D01*
X297198Y534282D01*
D02*
G37*
G36*
X955040Y342900D02*
Y337820D01*
X949960Y332740D01*
X939800D01*
X934720Y342900D01*
X944880Y353060D01*
X955040Y342900D01*
D02*
G37*
%LPC*%
G36*
X591950Y548770D02*
X571370D01*
Y528190D01*
X591950D01*
Y548770D01*
D02*
G37*
G36*
X583015Y523370D02*
X580305D01*
X577688Y522669D01*
X575342Y521314D01*
X573426Y519398D01*
X572071Y517052D01*
X571370Y514435D01*
Y512691D01*
X570123Y511444D01*
X544410D01*
X542533Y511071D01*
X542260Y510888D01*
X531384D01*
X530910Y510794D01*
X518414D01*
Y500126D01*
X543306D01*
Y501080D01*
X543854D01*
X545731Y501453D01*
X546004Y501636D01*
X572154D01*
X574031Y502009D01*
X575622Y503072D01*
X576644Y504094D01*
X577688Y503491D01*
X580305Y502790D01*
X583015D01*
X585632Y503491D01*
X587978Y504846D01*
X589894Y506762D01*
X591249Y509108D01*
X591950Y511725D01*
Y514435D01*
X591249Y517052D01*
X589894Y519398D01*
X587978Y521314D01*
X585632Y522669D01*
X583015Y523370D01*
D02*
G37*
G36*
X543306Y498094D02*
X518414D01*
Y487426D01*
X543306D01*
Y498094D01*
D02*
G37*
G36*
Y485394D02*
X518414D01*
Y474726D01*
X543306D01*
Y485394D01*
D02*
G37*
G36*
X776986Y480314D02*
X752094D01*
Y479638D01*
X741434D01*
X739557Y479265D01*
X737966Y478202D01*
X736744Y476980D01*
X734100D01*
Y474336D01*
X732029Y472264D01*
X713870D01*
Y477650D01*
X693290D01*
Y457070D01*
X713870D01*
Y462456D01*
X734060D01*
X735937Y462829D01*
X737528Y463892D01*
X741536Y467900D01*
X744180D01*
Y469830D01*
X752094D01*
Y469646D01*
X776986D01*
Y480314D01*
D02*
G37*
G36*
X543306Y472694D02*
X518414D01*
Y462026D01*
X543306D01*
Y472694D01*
D02*
G37*
G36*
X679535Y477650D02*
X676825D01*
X674208Y476949D01*
X671862Y475594D01*
X669946Y473678D01*
X668591Y471332D01*
X667890Y468715D01*
Y466005D01*
X668591Y463388D01*
X669946Y461042D01*
X671862Y459126D01*
X674208Y457771D01*
X676825Y457070D01*
X679535D01*
X682152Y457771D01*
X684498Y459126D01*
X686414Y461042D01*
X687769Y463388D01*
X688470Y466005D01*
Y468715D01*
X687769Y471332D01*
X686414Y473678D01*
X684498Y475594D01*
X682152Y476949D01*
X679535Y477650D01*
D02*
G37*
G36*
X298704Y501904D02*
X273812D01*
Y491236D01*
X298704D01*
Y501904D01*
D02*
G37*
G36*
Y489204D02*
X273812D01*
Y478536D01*
X298704D01*
Y489204D01*
D02*
G37*
G36*
Y476504D02*
X273812D01*
Y465836D01*
X298704D01*
Y476504D01*
D02*
G37*
G36*
X431930Y475110D02*
X411350D01*
Y454530D01*
X431930D01*
Y459916D01*
X454660D01*
X456017Y460186D01*
X456602D01*
X457075Y460280D01*
X459700D01*
Y460933D01*
X471288D01*
X473165Y461306D01*
X474102Y461932D01*
X481060D01*
X481534Y462026D01*
X494030D01*
Y472694D01*
X469138D01*
Y470741D01*
X457348D01*
X455472Y470368D01*
X454913Y469994D01*
X454890D01*
X453533Y469724D01*
X431930D01*
Y475110D01*
D02*
G37*
G36*
X397595D02*
X394885D01*
X392268Y474409D01*
X389922Y473054D01*
X388006Y471138D01*
X386651Y468792D01*
X385950Y466175D01*
Y463465D01*
X386651Y460848D01*
X388006Y458502D01*
X389922Y456586D01*
X392268Y455231D01*
X394885Y454530D01*
X397595D01*
X400212Y455231D01*
X402558Y456586D01*
X404474Y458502D01*
X405829Y460848D01*
X406530Y463465D01*
Y466175D01*
X405829Y468792D01*
X404474Y471138D01*
X402558Y473054D01*
X400212Y474409D01*
X397595Y475110D01*
D02*
G37*
%LPD*%
G36*
X375920Y637540D02*
X375920Y625856D01*
X370840Y620776D01*
X343154Y620776D01*
X337820Y626110D01*
Y640080D01*
X373380D01*
X375920Y637540D01*
D02*
G37*
D17*
X306123Y980415D02*
Y981150D01*
X333806Y862573D02*
Y952731D01*
X306123Y980415D02*
X333806Y952731D01*
X310388Y861969D02*
Y967279D01*
X296226Y981441D02*
X310388Y967279D01*
X333806Y862573D02*
X334518Y861861D01*
X310388Y825246D02*
X316120Y819514D01*
Y799610D02*
Y819514D01*
X310388Y825246D02*
Y846944D01*
X325120Y831088D02*
X332740Y838708D01*
X325120Y799610D02*
Y831088D01*
X332740Y838708D02*
Y845058D01*
X334518Y846836D01*
Y800008D02*
Y814832D01*
X334120Y799610D02*
X334518Y800008D01*
Y814832D02*
X357632Y837946D01*
Y846181D01*
X357346Y861492D02*
Y938562D01*
Y861492D02*
X357632Y861207D01*
X315861Y982112D02*
X316523Y981450D01*
Y979385D02*
Y981450D01*
Y979385D02*
X357346Y938562D01*
X972820Y1111340D02*
Y1116340D01*
X960120Y1129040D02*
X972820Y1116340D01*
X961608Y1145610D02*
X965090D01*
X960120Y1129040D02*
Y1144122D01*
X961608Y1145610D01*
X965090D02*
X972820Y1153340D01*
X239711Y1464220D02*
X246800D01*
X239628Y1464303D02*
X239711Y1464220D01*
X929640Y1080518D02*
Y1099820D01*
Y1080518D02*
X929726Y1080433D01*
X929640Y1056640D02*
Y1066800D01*
X863600Y1079500D02*
X870520Y1086420D01*
X897280D01*
X276735Y972945D02*
Y981141D01*
X276609Y981267D02*
X276735Y981141D01*
Y972945D02*
X276860Y972820D01*
X652115Y645825D02*
X819585D01*
X841780Y668020D01*
X647590Y650350D02*
X652115Y645825D01*
X789940Y496747D02*
Y533680D01*
X780873Y487680D02*
X789940Y496747D01*
X441579Y691449D02*
X443550Y693420D01*
X441579Y659831D02*
Y691449D01*
X439862Y658114D02*
X441579Y659831D01*
X438338Y659638D02*
X439862Y658114D01*
X483751Y566420D02*
X568819Y651489D01*
X278360Y566420D02*
X483751D01*
X263120Y551180D02*
X278360Y566420D01*
X786477Y1125507D02*
X833407D01*
X843980Y1136080D01*
X774700Y1113730D02*
X786477Y1125507D01*
X713824Y1018247D02*
X748224D01*
X749712Y1019735D01*
Y1063976D01*
X759460Y1084580D02*
Y1112853D01*
X779507Y1132900D01*
X764540Y1079500D02*
X774700Y1089660D01*
X751840Y1079500D02*
X764540D01*
X674996Y1070411D02*
X768779D01*
X776770Y1062420D01*
X656921Y1088486D02*
X674996Y1070411D01*
X779507Y1132900D02*
X797920D01*
X774700Y1089660D02*
Y1113730D01*
X693585Y1038486D02*
X713824Y1018247D01*
X706216Y1013100D02*
X758842D01*
X685829Y1033486D02*
X706216Y1013100D01*
X642448Y1033486D02*
X685829D01*
X642448Y1038486D02*
X693585D01*
X843980Y1136080D02*
X850900D01*
X797920Y1132900D02*
X799600Y1134580D01*
X760330Y1014587D02*
Y1063485D01*
X758842Y1013100D02*
X760330Y1014587D01*
X799600Y1134580D02*
X820622D01*
X631742Y1104332D02*
X632499Y1103574D01*
X642360D02*
X642448Y1103486D01*
X628811Y1107056D02*
Y1187525D01*
Y1107056D02*
X631535Y1104332D01*
X631742D01*
X632499Y1103574D02*
X642360D01*
X802640Y1191260D02*
X817618D01*
X818156Y1190722D01*
X224659Y1502596D02*
X224790Y1502464D01*
Y1495734D02*
Y1502464D01*
X295910Y1477772D02*
X296164Y1478026D01*
X307086D01*
X307340Y1478280D01*
X786130Y1376151D02*
X786317Y1375964D01*
X786130Y1376151D02*
Y1391100D01*
X792650Y1348910D02*
X795020Y1351280D01*
X787379Y1323604D02*
X792650Y1328875D01*
Y1348910D01*
X617820Y1323604D02*
X787379D01*
X508334Y1214118D02*
X617820Y1323604D01*
X533400Y1211580D02*
X627380Y1305560D01*
X800133D01*
X529380Y1193201D02*
X529936D01*
X498948Y1136986D02*
Y1162770D01*
X529380Y1193201D01*
X493609Y1146449D02*
X493948Y1146111D01*
X493609Y1166260D02*
X516387Y1189038D01*
X493609Y1146449D02*
Y1166260D01*
X493948Y1136986D02*
Y1146111D01*
X516387Y1193545D02*
X516409Y1193567D01*
X516387Y1189038D02*
Y1193545D01*
X506803Y1212035D02*
X508334Y1213567D01*
Y1214118D01*
X506803Y1211099D02*
Y1212035D01*
X569609Y1200656D02*
X623860Y1146406D01*
X205722Y1174297D02*
X232081Y1200656D01*
X612140Y1204196D02*
X628811Y1187525D01*
X232081Y1200656D02*
X569609D01*
X221903Y1204196D02*
X612140D01*
X190644Y1172936D02*
X221903Y1204196D01*
X506613Y1193053D02*
X507026Y1193466D01*
X488655Y1167427D02*
X506613Y1185386D01*
Y1193053D01*
X498380Y1217078D02*
X611806Y1330505D01*
X784150D01*
X498380Y1213964D02*
Y1217078D01*
X497045Y1212630D02*
X498380Y1213964D01*
X497045Y1211693D02*
Y1212630D01*
X483948Y1136986D02*
Y1179067D01*
X498347Y1193466D01*
X488655Y1146404D02*
Y1167427D01*
X488948Y1136986D02*
Y1146111D01*
X488655Y1146404D02*
X488948Y1146111D01*
X477516Y1147750D02*
X477718Y1147548D01*
X475780Y1168450D02*
X477516Y1166714D01*
Y1147750D02*
Y1166714D01*
X477718Y1147340D02*
Y1147548D01*
Y1147340D02*
X478948Y1146111D01*
Y1136986D02*
Y1146111D01*
X824230Y1336860D02*
Y1341235D01*
X795020Y1351280D02*
X814185D01*
X824230Y1341235D01*
X619566Y1313540D02*
X788740D01*
X518237Y1212212D02*
X619566Y1313540D01*
X788740D02*
X798830Y1323631D01*
X784150Y1330505D02*
X786130Y1332485D01*
X205722Y1156808D02*
Y1174297D01*
X217532Y1181100D02*
X388620D01*
X216044Y1179612D02*
X217532Y1181100D01*
X190644Y1154429D02*
Y1172936D01*
X216044Y1154429D02*
Y1179612D01*
X203344Y1154429D02*
X205722Y1156808D01*
X798830Y1323631D02*
Y1336860D01*
X800133Y1305560D02*
X811530Y1316958D01*
Y1336860D01*
X786130Y1332485D02*
Y1336860D01*
X453650Y480521D02*
X454660Y479511D01*
Y472820D02*
Y479511D01*
X212842Y478418D02*
Y485084D01*
Y478418D02*
X213360Y477900D01*
X115410Y787301D02*
X164329Y836221D01*
Y850119D01*
X236256Y922046D02*
Y1056803D01*
X164329Y850119D02*
X236256Y922046D01*
X114300Y782320D02*
X115410D01*
X116480D01*
X115410Y783430D02*
Y787301D01*
X114300Y782320D02*
X115410Y783430D01*
X116840Y781960D02*
X140220D01*
X246646Y841006D02*
Y1031488D01*
X177800Y772160D02*
X246646Y841006D01*
Y1031488D02*
X249096Y1033938D01*
X236256Y1056803D02*
X238869Y1059416D01*
Y1060021D01*
X279888Y1078486D02*
X430448D01*
X262232Y1060830D02*
X279888Y1078486D01*
X235473Y1074088D02*
X257120Y1052441D01*
X235473Y1074088D02*
Y1128619D01*
X257120Y991680D02*
Y1052441D01*
X249096Y1033938D02*
Y1050097D01*
X177800Y760723D02*
Y772160D01*
X114300Y697223D02*
X177800Y760723D01*
X114300Y689800D02*
Y697223D01*
Y689800D02*
X138400D01*
X254698Y1088486D02*
X430448D01*
X243979Y1077767D02*
X254698Y1088486D01*
X114300Y950648D02*
X230926Y1067273D01*
X114300Y877760D02*
Y950648D01*
X103891Y869840D02*
X103971Y869760D01*
X114300D01*
X114800Y877760D02*
X116620Y875940D01*
X140220D01*
X114300Y877760D02*
X114800D01*
X251460Y1069340D02*
X265606Y1083486D01*
X430448D01*
X116480Y782320D02*
X116840Y781960D01*
X100188Y774581D02*
X114181D01*
X114300Y774700D01*
X340911Y1068486D02*
X430448D01*
X296226Y1023801D02*
X340911Y1068486D01*
X345839Y1063486D02*
X430448D01*
X315861Y1024280D02*
X350066Y1058486D01*
X305249Y1022896D02*
X345839Y1063486D01*
X350066Y1058486D02*
X430448D01*
X103171Y680919D02*
X104051Y681800D01*
X114300D01*
X138400Y689800D02*
X140220Y687980D01*
X305249Y996578D02*
Y1022896D01*
X315861Y996340D02*
Y1024280D01*
X296226Y995996D02*
Y1023801D01*
X826143Y721630D02*
Y721883D01*
Y721630D02*
X831790Y715982D01*
X834474D01*
X837825Y712632D01*
X800480Y739455D02*
X801210Y740184D01*
X837187Y712632D02*
X837825D01*
X826770Y742950D02*
X833882D01*
X800480Y739140D02*
Y739455D01*
X801210Y740184D02*
X824005D01*
X826770Y742950D01*
X792695Y756908D02*
Y756920D01*
X804834Y744769D02*
X807450D01*
X792695Y756920D02*
Y756933D01*
Y756908D02*
X804834Y744769D01*
X830687Y706133D02*
X837187Y712632D01*
X830687Y706120D02*
Y706133D01*
X807450Y744769D02*
X807730Y744490D01*
X787400Y718712D02*
X787412D01*
X769512D02*
X787400D01*
X800100Y731413D02*
Y738760D01*
X800480Y739140D01*
X790691Y722003D02*
X800100Y731413D01*
X790691Y721991D02*
Y722003D01*
X787412Y718712D02*
X790691Y721991D01*
X863600Y683514D02*
X863740Y683375D01*
X863600Y683514D02*
Y693540D01*
X837506Y712951D02*
X858689D01*
X863100Y708540D01*
X863600D01*
X843264Y685504D02*
Y703672D01*
X845713Y706120D01*
X843264Y685504D02*
X843280Y685520D01*
X921055Y772160D02*
X921313Y771902D01*
X912240Y772160D02*
X921055D01*
X952685Y828040D02*
X952968Y827758D01*
X943180Y828040D02*
X952685D01*
X914212D02*
X931180D01*
X878840Y843252D02*
Y853440D01*
X878760Y843173D02*
X878840Y843252D01*
X858440Y843160D02*
X858520Y843240D01*
Y853440D01*
X899080Y828148D02*
X899187Y828040D01*
X878760Y828148D02*
X899080D01*
X878747Y828160D02*
X878760Y828148D01*
X858440Y828160D02*
X878747D01*
X858320Y828040D02*
X858440Y828160D01*
X841580Y828040D02*
X858320D01*
X833027Y807720D02*
X833040D01*
X829749Y810998D02*
X833027Y807720D01*
X829749Y810998D02*
Y811011D01*
X829580Y811180D02*
X829749Y811011D01*
X829580Y811180D02*
Y828040D01*
X807720Y756920D02*
Y774940D01*
X833882Y768350D02*
Y791853D01*
X833040Y792695D02*
X833882Y791853D01*
X830285Y789940D02*
X833040Y792695D01*
X807720Y789940D02*
X830285D01*
X784860Y789833D02*
X807613D01*
X807720Y789940D01*
X784860Y764768D02*
X792695Y756933D01*
X784860Y764768D02*
Y774808D01*
X808990Y755650D02*
X833882D01*
X807720Y756920D02*
X808990Y755650D01*
X739140Y716280D02*
X752055D01*
X782320Y739140D02*
X792480D01*
X767080Y716280D02*
X769512Y718712D01*
X787400Y685800D02*
Y703688D01*
X776737Y659137D02*
X785900Y668300D01*
X775692Y653464D02*
X776737Y654508D01*
X785900Y668300D02*
X787400D01*
X776737Y654508D02*
Y659137D01*
X775290Y638130D02*
X775368D01*
X721360Y584200D02*
X775290Y638130D01*
X690880Y554850D02*
X692380D01*
X708660Y571130D01*
Y571500D01*
X642070Y650864D02*
X741754Y551180D01*
X553720Y514540D02*
Y523240D01*
X312420Y518160D02*
Y525780D01*
X262050Y444823D02*
Y490175D01*
X261620Y444393D02*
X262050Y444823D01*
X248758Y509270D02*
X254017Y504011D01*
X236982Y509270D02*
X248758D01*
X261620Y501396D02*
Y533680D01*
X244094Y483870D02*
X261620Y501396D01*
X236982Y483870D02*
X244094D01*
X205740Y512960D02*
X206656Y512044D01*
X227096D01*
X229870Y509270D01*
X236982D01*
X182975Y512960D02*
X205740D01*
X182880Y512865D02*
X182975Y512960D01*
X157480Y512972D02*
Y534810D01*
X157587Y497840D02*
X182880D01*
X157480Y497948D02*
X157587Y497840D01*
X182880D02*
X183000Y497960D01*
X205740D01*
X207130Y496570D01*
X236982D01*
X506518Y445875D02*
Y478424D01*
Y445875D02*
X508000Y444393D01*
X495300Y505460D02*
X500380Y500380D01*
X481584Y505460D02*
X495300D01*
X508000Y491990D02*
Y529730D01*
X496070Y480060D02*
X508000Y491990D01*
X481584Y480060D02*
X496070D01*
X403860Y507785D02*
Y527190D01*
X429152Y492760D02*
X429260Y492868D01*
X403860Y492760D02*
X429152D01*
X454660D02*
X481584D01*
X429367D02*
X454660D01*
X429260Y492868D02*
X429367Y492760D01*
X429260Y507892D02*
X429393Y507760D01*
X454660D01*
X456960Y505460D01*
X481584D01*
X789940Y454552D02*
X790742Y455354D01*
Y484295D01*
X782420Y500063D02*
Y507900D01*
X777240Y513080D02*
X782420Y507900D01*
X764540Y513080D02*
X777240D01*
X764540Y487680D02*
X780873D01*
X713848Y500380D02*
X736600D01*
X764540D01*
X736600Y515380D02*
X738900Y513080D01*
X764540D01*
X713740Y515513D02*
X736468D01*
X736600Y515380D01*
X713740Y500488D02*
X713848Y500380D01*
X690880Y500488D02*
X713740D01*
X690880Y515513D02*
Y537350D01*
X689883Y555847D02*
X690880Y554850D01*
X658922Y555847D02*
X689883D01*
X607060Y607709D02*
X658922Y555847D01*
X607060Y607709D02*
Y617648D01*
X157480Y552310D02*
X167293D01*
X176443Y543160D02*
X293814D01*
X167293Y552310D02*
X176443Y543160D01*
X299945Y537029D02*
X394699D01*
X293814Y543160D02*
X299945Y537029D01*
X394699D02*
X402360Y544690D01*
X405360D01*
X560260Y570431D02*
Y570849D01*
X607060Y617648D02*
Y637540D01*
X560260Y570849D02*
X607060Y617648D01*
X528309Y538480D02*
X560260Y570431D01*
X411570Y538480D02*
X528309D01*
X405360Y544690D02*
X411570Y538480D01*
X607060Y637540D02*
X609790Y640270D01*
X574488Y645334D02*
X601947D01*
X508780Y548010D02*
Y579626D01*
X574488Y645334D01*
X597204Y651489D02*
X602090Y656375D01*
X568819Y651489D02*
X597204D01*
X601947Y645334D02*
X608416Y651803D01*
X602090Y656375D02*
Y661500D01*
X609790Y643235D02*
X614110Y647555D01*
X609790Y640270D02*
Y643235D01*
X614110Y647555D02*
Y660520D01*
X608416Y661326D02*
X608590Y661500D01*
X608416Y651803D02*
Y661326D01*
X261620Y551180D02*
X263120D01*
X508000Y547230D02*
X508780Y548010D01*
X477266Y658114D02*
X486730Y648650D01*
X463362Y658114D02*
X477266D01*
X486730Y635000D02*
Y648650D01*
X741754Y551180D02*
X789940D01*
X642070Y650864D02*
Y660520D01*
X641090Y661500D02*
X642070Y660520D01*
X647590Y650350D02*
Y661500D01*
X841780Y668020D02*
X843280D01*
X637420Y617220D02*
Y637540D01*
Y603416D02*
Y617220D01*
Y637540D02*
Y638040D01*
X407170Y693846D02*
X407597Y693420D01*
X420050D01*
X414406Y659638D02*
X438338D01*
X641138Y826653D02*
Y925791D01*
X563893Y749408D02*
X641138Y826653D01*
X626696Y940233D02*
X641138Y925791D01*
X626696Y970695D02*
X629487Y973486D01*
X626696Y940233D02*
Y970695D01*
X629487Y973486D02*
X642448D01*
X563880Y749408D02*
X563893D01*
X561340Y721360D02*
Y746868D01*
X563880Y749408D01*
X561340Y721360D02*
X562440Y720260D01*
X602090D01*
X647590Y733396D02*
X683124Y768931D01*
X647590Y720260D02*
Y733396D01*
X673475Y776184D02*
Y879315D01*
X634590Y737300D02*
X673475Y776184D01*
X641090Y738793D02*
X711160Y808863D01*
X681595Y790348D02*
X701040Y809794D01*
Y855980D01*
X641090Y720260D02*
Y738793D01*
X711160Y808863D02*
Y871260D01*
X701040Y881380D02*
X711160Y871260D01*
X634590Y720260D02*
Y737300D01*
X698522Y909298D02*
X701040Y906780D01*
X698522Y909298D02*
Y916714D01*
X656758Y958477D02*
X698522Y916714D01*
X642457Y958477D02*
X656758D01*
X642448Y958486D02*
X642457Y958477D01*
X659729Y904911D02*
X698488Y866152D01*
X651861Y943398D02*
X651882Y943378D01*
X658242D01*
X659729Y941890D01*
Y904911D02*
Y941890D01*
X642448Y943486D02*
X642536Y943398D01*
X651861D01*
X616808Y767732D02*
Y780458D01*
Y767732D02*
X617460Y767080D01*
X617340Y766960D02*
X617460Y767080D01*
X617340Y746760D02*
Y766960D01*
Y746260D02*
X621590Y742010D01*
X617340Y746260D02*
Y746760D01*
X621590Y720260D02*
Y742010D01*
X615090Y720260D02*
X621590D01*
X608590D02*
X615090D01*
X661743Y948486D02*
X675640Y934589D01*
Y906780D02*
Y934589D01*
Y906780D02*
X701040Y881380D01*
X698488Y858532D02*
X701040Y855980D01*
X698488Y858532D02*
Y866152D01*
X578115Y637182D02*
X578473Y637540D01*
X592060D01*
X614110Y660520D02*
X615090Y661500D01*
X622416Y601220D02*
X622420Y601224D01*
Y617220D01*
Y637540D01*
X621590Y638370D02*
X622420Y637540D01*
X621590Y638370D02*
Y661500D01*
X637420Y603416D02*
X637635Y603201D01*
X634590Y640870D02*
Y661500D01*
Y640870D02*
X637420Y638040D01*
X628090Y661500D02*
X634590D01*
X642448Y948486D02*
X661743D01*
X463948Y889535D02*
Y924986D01*
X436880Y862467D02*
X463948Y889535D01*
X436880Y833120D02*
Y862467D01*
X457200Y907252D02*
X458948Y909000D01*
Y924986D01*
X457200Y899160D02*
Y907252D01*
X468948Y879605D02*
Y924986D01*
X462280Y833120D02*
Y872937D01*
X468948Y879605D01*
X478948Y880637D02*
X487680Y871905D01*
X478948Y880637D02*
Y924986D01*
X487680Y833120D02*
Y871905D01*
X483948Y890837D02*
X513080Y861705D01*
X483948Y890837D02*
Y924986D01*
X513080Y833120D02*
Y861705D01*
X368739Y1154429D02*
X396240Y1126928D01*
Y1120140D02*
Y1126928D01*
X254144Y1154429D02*
X368739D01*
X255849Y1112024D02*
X410984D01*
X254144Y1113729D02*
X255849Y1112024D01*
X410984D02*
X411480Y1112520D01*
X613948Y924986D02*
Y948741D01*
X451002Y1111687D02*
X613948Y948741D01*
X463766Y1079500D02*
X607718Y935548D01*
X388620Y1181100D02*
X447040Y1122680D01*
X387246Y1176020D02*
X444126Y1119140D01*
X610434D01*
X607718Y935340D02*
Y935548D01*
Y935340D02*
X608948Y934110D01*
X452120Y1079500D02*
X463766D01*
X608948Y924986D02*
Y934110D01*
X447040Y1122680D02*
X500380D01*
X503860Y1136898D02*
X503948Y1136986D01*
X500380Y1122680D02*
X502920Y1125220D01*
X618860Y1136898D02*
X618948Y1136986D01*
X502920Y1125427D02*
X503860Y1126367D01*
X610434Y1119140D02*
X618860Y1127567D01*
X503860Y1126367D02*
Y1136898D01*
X502920Y1125220D02*
Y1125427D01*
X618860Y1127567D02*
Y1136898D01*
X235473Y1128619D02*
X240424Y1133569D01*
Y1153409D01*
X241444Y1154429D01*
X388827Y998486D02*
X430448D01*
X372011Y981670D02*
X388827Y998486D01*
X324725Y981670D02*
X372011D01*
X317129Y989267D02*
X324725Y981670D01*
X276609Y989267D02*
X317129D01*
X340360Y987940D02*
X373275D01*
X339520Y988780D02*
Y1007500D01*
Y988780D02*
X340360Y987940D01*
X276109Y989267D02*
X276609D01*
X257120Y991680D02*
X273696D01*
X276109Y989267D01*
X240084Y1176020D02*
X387246D01*
X228744Y1164679D02*
X240084Y1176020D01*
X228744Y1154429D02*
Y1164679D01*
X623860Y1137074D02*
X623948Y1136986D01*
X623860Y1137074D02*
Y1146406D01*
X241444Y1090328D02*
X241859Y1089913D01*
X241444Y1090328D02*
Y1113729D01*
X214839Y1089591D02*
X216044Y1090795D01*
Y1113729D01*
X203344D02*
X216044D01*
X785997Y1118746D02*
X786162Y1118580D01*
X800100D01*
X822122Y1136080D02*
X823900D01*
X820622Y1134580D02*
X822122Y1136080D01*
X813872Y1116942D02*
X814010Y1117080D01*
X823900D01*
X845820Y1098550D02*
Y1113778D01*
X867676Y1116162D02*
X872156Y1120642D01*
Y1122142D01*
X845820Y1097280D02*
Y1098550D01*
X863432Y1116162D01*
X867676D01*
X797445Y1096096D02*
X798628Y1097280D01*
X817880D01*
X845820Y1113778D02*
X849122Y1117080D01*
X840518Y1126289D02*
X840809Y1126580D01*
X850900D01*
X656914Y1083486D02*
X676140Y1064260D01*
X642448Y1083486D02*
X656914D01*
X721950Y1041010D02*
X737390D01*
X698700Y1064260D02*
X721950Y1041010D01*
X676140Y1064260D02*
X698700D01*
X740620Y1033780D02*
Y1037780D01*
X737390Y1041010D02*
X740620Y1037780D01*
X776442Y1033558D02*
X810260Y999740D01*
X837148Y961172D02*
X850932D01*
X810260Y988060D02*
Y999740D01*
Y988060D02*
X837148Y961172D01*
X769842Y1033558D02*
X776442D01*
X769620Y1033780D02*
X769842Y1033558D01*
X850932Y961172D02*
X864680Y974920D01*
X868680D01*
X878840Y1035140D02*
X889000Y1024980D01*
Y991240D02*
Y1024980D01*
X872680Y974920D02*
X889000Y991240D01*
X868680Y974920D02*
X872680D01*
X840740Y999960D02*
X860720D01*
X864680Y1003920D01*
X868680D01*
X840740Y967740D02*
Y983960D01*
Y999960D02*
Y1017360D01*
Y1033360D02*
X842520Y1035140D01*
X861695D01*
X863600Y1037045D02*
Y1054100D01*
X861695Y1035140D02*
X863600Y1037045D01*
X776770Y1062420D02*
X897280D01*
X642448Y1088486D02*
X656921D01*
X900648Y1041400D02*
X914400D01*
X897280Y1044768D02*
Y1062420D01*
Y1044768D02*
X900648Y1041400D01*
X914400D02*
X929640Y1056640D01*
Y1099820D02*
X934660Y1104840D01*
X946070D01*
X943550Y1098340D02*
X946070D01*
X942820Y1097610D02*
X943550Y1098340D01*
X942820Y1089090D02*
Y1097610D01*
X906780Y1086420D02*
Y1095895D01*
X907234Y1096349D01*
X892196Y1119602D02*
X904936D01*
X901456Y1105474D02*
Y1116122D01*
X904936Y1119602D02*
X907436D01*
X897280Y1086420D02*
Y1101298D01*
X901456Y1105474D01*
Y1116122D02*
X904936Y1119602D01*
X889656Y1122142D02*
X892196Y1119602D01*
X869616D02*
X872156Y1122142D01*
X907436Y1119602D02*
X909634Y1121800D01*
X899010Y1088150D02*
Y1095549D01*
X927801Y1124340D01*
X897280Y1086420D02*
X899010Y1088150D01*
X927801Y1124340D02*
X946070D01*
X906780Y1051332D02*
X907109Y1051002D01*
X906780Y1051332D02*
Y1062420D01*
X664383Y1108486D02*
X667969Y1104900D01*
X642448Y1108486D02*
X664383D01*
X667969Y1104900D02*
X683260D01*
X410400Y1094740D02*
Y1103425D01*
X411480Y1104505D01*
Y1104900D01*
X402400Y1094740D02*
Y1103425D01*
X401320Y1104505D02*
X402400Y1103425D01*
X401320Y1104505D02*
Y1104900D01*
X420070Y1094740D02*
X421324Y1093486D01*
X410400Y1094740D02*
X420070D01*
X421324Y1093486D02*
X430448D01*
X394914Y968486D02*
X430448D01*
X389120Y974280D02*
X394914Y968486D01*
X388620Y974280D02*
X389120D01*
X677990Y1113600D02*
X678278Y1113313D01*
X668020Y1113600D02*
X677990D01*
X668020Y1128562D02*
X668096Y1128638D01*
X668020Y1121600D02*
Y1128562D01*
X668400Y1000760D02*
X678180D01*
X668020Y1001140D02*
X668400Y1000760D01*
X678925Y993140D02*
X679489Y992575D01*
X668020Y993140D02*
X678925D01*
X642536Y993398D02*
X667762D01*
X668020Y993140D01*
X642448Y993486D02*
X642536Y993398D01*
X664866Y998486D02*
X667520Y1001140D01*
X642448Y998486D02*
X664866D01*
X667520Y1001140D02*
X668020D01*
X695723Y1048280D02*
X695969Y1048526D01*
X687100Y1048280D02*
X695723D01*
X687280Y1056460D02*
X695780D01*
X695960Y1056640D01*
X687100Y1056280D02*
X687280Y1056460D01*
X667100Y1056280D02*
X687100D01*
X667100Y1048280D02*
X687100D01*
X642536Y1048398D02*
X666982D01*
X667100Y1048280D01*
X642448Y1048486D02*
X642536Y1048398D01*
X657324Y1053486D02*
X660118Y1056280D01*
X642448Y1053486D02*
X657324D01*
X660118Y1056280D02*
X667100D01*
X708344Y1102360D02*
X709446Y1103462D01*
X696880Y1102360D02*
X708344D01*
X667963Y1113543D02*
X668020Y1113600D01*
X642505Y1113543D02*
X667963D01*
X642448Y1113486D02*
X642505Y1113543D01*
X642448Y1118486D02*
X664406D01*
X667520Y1121600D01*
X668020D01*
X340187Y962965D02*
X340360Y963138D01*
Y972940D01*
X373275Y987940D02*
X388821Y1003486D01*
X430448D01*
X410344Y1008486D02*
X430448D01*
X381000Y1023620D02*
X395210D01*
X410344Y1008486D01*
X361520Y1024500D02*
X380120D01*
X381000Y1023620D01*
X453948Y1155534D02*
X454331Y1155917D01*
X453948Y1136986D02*
Y1155534D01*
X447040Y1168261D02*
X447261Y1168482D01*
X447040Y1158240D02*
Y1168261D01*
X429260Y1158240D02*
X439040D01*
X447040Y1157740D02*
X448948Y1155832D01*
X447040Y1157740D02*
Y1158240D01*
X448948Y1136986D02*
Y1155832D01*
X562359Y1170725D02*
X562420Y1170663D01*
Y1160780D02*
Y1170663D01*
X570420Y1169489D02*
X571036Y1170105D01*
X570420Y1160780D02*
Y1169489D01*
X568948Y1158808D02*
X570420Y1160280D01*
Y1160780D01*
X568948Y1136986D02*
Y1158808D01*
X562420Y1160280D02*
X563948Y1158752D01*
Y1136986D02*
Y1158752D01*
X562420Y1160280D02*
Y1160780D01*
X394214Y1037578D02*
X394392Y1037400D01*
X403860D01*
X403626Y1052688D02*
X403860Y1052454D01*
Y1045400D02*
Y1052454D01*
Y1045400D02*
X404360D01*
X406274Y1043486D02*
X430448D01*
X404360Y1045400D02*
X406274Y1043486D01*
X404360Y1037400D02*
X405446Y1038486D01*
X403860Y1037400D02*
X404360D01*
X405446Y1038486D02*
X430448D01*
X399374Y975395D02*
X399409Y975360D01*
X408940D01*
X360387Y966638D02*
X360745Y966280D01*
X370840D01*
X378460Y955040D02*
X388620D01*
X388430Y947230D02*
X388620Y947040D01*
X378650Y947230D02*
X388430D01*
X378460Y947420D02*
X378650Y947230D01*
X360331Y974065D02*
X360546Y974280D01*
X370840D01*
X388620D01*
X370840Y966280D02*
X388620D01*
X389120D01*
X391914Y963486D02*
X430448D01*
X389120Y966280D02*
X391914Y963486D01*
X408553Y990494D02*
X408940Y990107D01*
Y983360D02*
Y990107D01*
Y975360D02*
X409440D01*
X411314Y973486D02*
X430448D01*
X409440Y975360D02*
X411314Y973486D01*
X388810Y947230D02*
X406210D01*
X388620Y947040D02*
X388810Y947230D01*
X406210D02*
X406400Y947420D01*
X388810Y955230D02*
X406210D01*
X406400Y955420D01*
X388620Y955040D02*
X388810Y955230D01*
X415601Y958486D02*
X430448D01*
X406400Y955420D02*
X406575Y955595D01*
X412710D01*
X415601Y958486D01*
X457199Y888825D02*
X457200Y888826D01*
Y899160D01*
X449200Y888919D02*
X449238Y888881D01*
X449200Y888919D02*
Y899160D01*
X449580Y899540D02*
Y909320D01*
X449200Y899160D02*
X449580Y899540D01*
Y909320D02*
X453860Y913600D01*
Y924898D02*
X453948Y924986D01*
X453860Y913600D02*
Y924898D01*
X518160Y889251D02*
X518279Y889132D01*
X518160Y889251D02*
Y899160D01*
X526160Y889103D02*
X526435Y888828D01*
X526160Y889103D02*
Y899160D01*
X518948Y915862D02*
Y924986D01*
X518160Y899160D02*
Y915073D01*
X518948Y915862D01*
X526160Y899160D02*
Y907020D01*
X523948Y909232D02*
X526160Y907020D01*
X523948Y909232D02*
Y924986D01*
X609600Y874672D02*
X609762Y874511D01*
X609600Y874672D02*
Y883920D01*
Y903480D02*
X618860Y912740D01*
Y924898D01*
X609600Y895920D02*
Y903480D01*
X618860Y924898D02*
X618948Y924986D01*
X574040Y892983D02*
X574619Y892403D01*
X574040Y892983D02*
Y901700D01*
X565699Y892255D02*
X566040Y892596D01*
Y901700D01*
X566420Y902080D02*
Y909320D01*
X566040Y901700D02*
X566420Y902080D01*
Y909320D02*
X568948Y911848D01*
Y924986D01*
X573994Y901746D02*
Y924940D01*
Y901746D02*
X574040Y901700D01*
X573948Y924986D02*
X573994Y924940D01*
X633920Y893015D02*
X635000Y891935D01*
X633920Y893015D02*
Y901700D01*
X635000Y891540D02*
Y891935D01*
X625920Y891691D02*
X626239Y891372D01*
X625920Y891691D02*
Y901700D01*
X623948Y915862D02*
X625920Y913889D01*
Y901700D02*
Y913889D01*
X623948Y915862D02*
Y924986D01*
X475680Y1194033D02*
X475780Y1193933D01*
Y1183475D02*
Y1193933D01*
X514160Y1158240D02*
Y1166925D01*
X513080Y1168005D02*
X514160Y1166925D01*
X513080Y1168005D02*
Y1168400D01*
X522160Y1166925D02*
X523240Y1168005D01*
Y1168400D01*
X522160Y1157740D02*
Y1166925D01*
X518948Y1154528D02*
X522160Y1157740D01*
X518948Y1136986D02*
Y1154528D01*
X514036Y1137074D02*
Y1158116D01*
X514160Y1158240D01*
X513948Y1136986D02*
X514036Y1137074D01*
X240934Y1469220D02*
X246800D01*
X239486Y1470667D02*
X240934Y1469220D01*
X246800Y1459220D02*
X248030D01*
X248050Y1448470D02*
Y1459200D01*
X248030Y1459220D02*
X248050Y1459200D01*
X287425Y1460500D02*
X296418D01*
X282605Y1455680D02*
X287425Y1460500D01*
X262660Y1455680D02*
X282605D01*
X262180Y1455200D02*
X262660Y1455680D01*
X262180Y1444340D02*
Y1455200D01*
X283120Y1464220D02*
X291638D01*
X277560D02*
X283120D01*
X279400Y1460500D02*
X283120Y1464220D01*
X277560Y1459220D02*
X279380D01*
X279400Y1459240D02*
Y1460500D01*
X279380Y1459220D02*
X279400Y1459240D01*
X286862Y1469224D02*
X295410Y1477772D01*
X280415Y1469224D02*
X286862D01*
X295910Y1493062D02*
X295931Y1493083D01*
X295910Y1485772D02*
Y1493062D01*
X291638Y1464220D02*
X295918Y1468500D01*
X296418D01*
X295410Y1477772D02*
X295910D01*
X274089Y1492465D02*
X274320Y1492235D01*
Y1475740D02*
Y1492235D01*
X271865Y1540218D02*
Y1540374D01*
X271780Y1540133D02*
X271865Y1540218D01*
X271780Y1533834D02*
Y1540133D01*
X298028Y1540600D02*
X298196Y1540433D01*
Y1534032D02*
Y1540433D01*
X298112Y1512400D02*
Y1525948D01*
X298196Y1526032D01*
X298028Y1512316D02*
X298112Y1512400D01*
X272542Y1512316D02*
X287528D01*
X271812Y1513046D02*
X272542Y1512316D01*
X271780Y1515534D02*
Y1524834D01*
Y1515534D02*
X271812Y1515502D01*
Y1513046D02*
Y1515502D01*
X262121Y1465685D02*
Y1467560D01*
X262180Y1467619D01*
Y1474350D01*
X255881Y1512335D02*
X255900Y1512316D01*
X263542D01*
X262089Y1492465D02*
Y1509863D01*
X263542Y1511316D01*
X244773Y1503147D02*
X244856Y1503064D01*
Y1496314D02*
Y1503064D01*
X263542Y1511316D02*
Y1512316D01*
X224790Y1486734D02*
X225790D01*
X236804Y1475720D02*
X248180D01*
X225790Y1486734D02*
X236804Y1475720D01*
X245586Y1486584D02*
X250982D01*
X244856Y1487314D02*
X245586Y1486584D01*
X257160Y1475120D02*
Y1480406D01*
Y1475120D02*
X257180Y1475100D01*
X250982Y1486584D02*
X257160Y1480406D01*
D21*
X969220Y585369D02*
X971220Y583369D01*
X978291D02*
X987224Y574437D01*
Y416444D02*
Y574437D01*
X969220Y585369D02*
Y586740D01*
X971220Y583369D02*
X978291D01*
X971020Y400240D02*
X987224Y416444D01*
X979020Y459950D02*
Y519420D01*
X961220Y537220D02*
X979020Y519420D01*
X971020Y451950D02*
X979020Y459950D01*
X971020Y396240D02*
Y400240D01*
Y430340D02*
Y434340D01*
X947420Y349780D02*
Y442300D01*
X971020Y434340D02*
Y451950D01*
X960791Y420111D02*
X971020Y430340D01*
X960791Y331597D02*
Y420111D01*
X1054365Y284018D02*
X1082767Y312420D01*
X963580Y287900D02*
X967462Y284018D01*
X1054365D01*
X961580Y293900D02*
X963580Y291900D01*
Y287900D02*
Y291900D01*
X957580Y293900D02*
X961580D01*
X957580D02*
X958120D01*
X916940D02*
X920940D01*
X922940Y287900D02*
Y291900D01*
X936813Y274027D02*
X1083567D01*
X920940Y293900D02*
X922940Y291900D01*
Y287900D02*
X936813Y274027D01*
X890453Y293900D02*
X916940D01*
X1083567Y274027D02*
X1103440Y293900D01*
X771690Y284210D02*
X859445D01*
X887655Y312420D01*
X768000Y287900D02*
X771690Y284210D01*
X766000Y293900D02*
X768000Y291900D01*
X762000Y293900D02*
X766000D01*
X768000Y287900D02*
Y291900D01*
X872309Y275756D02*
X890453Y293900D01*
X746784Y275756D02*
X872309D01*
X727900Y294640D02*
X746784Y275756D01*
X580289Y283825D02*
X666832D01*
X568960Y293160D02*
X572960D01*
X574960Y291160D01*
Y289155D02*
Y291160D01*
Y289155D02*
X580289Y283825D01*
X666832D02*
X689815Y306809D01*
X534860Y293900D02*
X553196Y275564D01*
X681920D02*
X700996Y294640D01*
X553196Y275564D02*
X681920D01*
X700996Y294640D02*
X723900D01*
X473920Y284594D02*
X497415Y308089D01*
X384460Y291187D02*
X391053Y284594D01*
X473920D01*
X384460Y291187D02*
Y291900D01*
X382460Y293900D02*
X384460Y291900D01*
X374460Y293900D02*
X382460D01*
X509293Y276333D02*
X526860Y293900D01*
X341820D02*
X359387Y276333D01*
X509293D01*
X200306Y285555D02*
X295714D01*
X191960Y293900D02*
X200306Y285555D01*
X295714D02*
X317500Y307340D01*
X167542Y277678D02*
X314589D01*
X328812Y291900D01*
X151320Y293900D02*
X167542Y277678D01*
X187960Y293900D02*
X191960D01*
X335820Y291900D02*
X337820Y293900D01*
X328812Y291900D02*
X335820D01*
X337820Y293900D02*
X341820D01*
X971020Y330512D02*
Y396240D01*
X801389Y293900D02*
X802640D01*
X853759D01*
X902070Y342211D01*
X948272D01*
X956045Y315537D02*
X971020Y330512D01*
X942917Y315537D02*
X956045D01*
X1003300Y293900D02*
X1007300D01*
X947507Y342976D02*
Y349693D01*
Y342976D02*
X948272Y342211D01*
X947420Y349780D02*
X947507Y349693D01*
X997300Y295900D02*
X999300Y293900D01*
X997300Y295900D02*
Y299900D01*
X982980Y314220D02*
X997300Y299900D01*
X982980Y314220D02*
Y335280D01*
X999300Y293900D02*
X1003300D01*
X928875Y301835D02*
Y303655D01*
X920940Y293900D02*
X928875Y301835D01*
Y303655D02*
X929640Y304420D01*
X960120Y295900D02*
Y307340D01*
X958120Y293900D02*
X960120Y295900D01*
X951240D02*
X955580D01*
X957580Y293900D01*
X887655Y312420D02*
X934720D01*
X951240Y295900D01*
X1029440Y320040D02*
X1162580D01*
X1188720Y293900D01*
X1009300Y299900D02*
X1029440Y320040D01*
X1125560Y312420D02*
X1144080Y293900D01*
X1082767Y312420D02*
X1125560D01*
X1103440Y293900D02*
X1107440D01*
X723900Y294640D02*
X727900D01*
X802640Y203200D02*
Y264900D01*
X530860Y293900D02*
X534860D01*
X526860D02*
X530860D01*
X147320D02*
X151320D01*
X961220Y613142D02*
X969220Y621142D01*
X961220Y537220D02*
Y613142D01*
X969220Y621142D02*
Y625142D01*
X1144080Y293900D02*
X1148080D01*
X689815Y306809D02*
X759071D01*
X762000Y303880D01*
Y293900D02*
Y303880D01*
X566031Y308089D02*
X568960Y305160D01*
X497415Y308089D02*
X566031D01*
X568960Y293160D02*
Y305160D01*
X317500Y307340D02*
X361020D01*
X374460Y293900D01*
X943968Y496952D02*
X971020Y469900D01*
X943968Y496952D02*
Y636968D01*
X968480Y661480D01*
X971020Y465900D02*
Y469900D01*
X968480Y661480D02*
Y665480D01*
X947420Y442300D02*
X971020Y465900D01*
X399008Y317272D02*
X411937Y304343D01*
X257772Y317272D02*
X399008D01*
X235140Y294640D02*
X257772Y317272D01*
X411937Y295900D02*
Y304343D01*
X413937Y293900D02*
X416560D01*
X411937Y295900D02*
X413937Y293900D01*
X416560D02*
X420560D01*
X608889Y294611D02*
X609600Y293900D01*
X608889Y294611D02*
Y302971D01*
X596900Y314960D02*
X608889Y302971D01*
X609600Y293900D02*
X613600D01*
X441620Y314960D02*
X596900D01*
X420560Y293900D02*
X441620Y314960D01*
X787400D02*
X799389Y302971D01*
X634660Y314960D02*
X787400D01*
X613600Y293900D02*
X634660Y314960D01*
X799389Y295900D02*
X801389Y293900D01*
X799389Y295900D02*
Y302971D01*
X1007300Y293900D02*
X1009300Y295900D01*
Y299900D01*
X231140Y294640D02*
X235140D01*
X177800Y309880D02*
X211900D01*
X227140Y294640D01*
X163910Y323770D02*
X177800Y309880D01*
X163910Y323770D02*
Y354410D01*
X227140Y294640D02*
X231140D01*
X163910Y354410D02*
X175260Y365760D01*
X144535Y323976D02*
X174611Y293900D01*
X144535Y323976D02*
Y360435D01*
X174611Y293900D02*
X187503D01*
X144535Y360435D02*
X175260Y391160D01*
X131930Y373229D02*
X175260Y416560D01*
X131930Y309291D02*
X147320Y293900D01*
X131930Y309291D02*
Y373229D01*
X1081508Y624258D02*
X1082060Y624810D01*
X1000602Y624258D02*
X1081508D01*
X1000020Y624840D02*
X1000602Y624258D01*
X997480Y664910D02*
X999480Y662910D01*
X997480Y664910D02*
Y665480D01*
X999480Y662910D02*
X1056660D01*
X998220Y586740D02*
X998250Y586710D01*
X1056660D01*
X1000020Y470440D02*
X1002020Y472440D01*
X1000020Y469900D02*
Y470440D01*
X1002020Y472440D02*
X1056640D01*
X1000020Y434340D02*
X1082040D01*
X1000020Y396240D02*
X1056640D01*
X531643Y207402D02*
X533430Y205615D01*
X531643Y207402D02*
Y262160D01*
X529643Y264160D02*
X531643Y262160D01*
X956880Y178510D02*
Y262900D01*
Y178510D02*
X957610Y177780D01*
X958880Y264900D02*
X960120D01*
X956880Y262900D02*
X958880Y264900D01*
X571530Y177780D02*
X572097Y178347D01*
X570097Y264160D02*
X572097Y262160D01*
Y178347D02*
Y262160D01*
X568960Y264160D02*
X570097D01*
X764727Y177987D02*
Y262900D01*
X762727Y264900D02*
X764727Y262900D01*
X762000Y264900D02*
X762727D01*
X1186210Y203180D02*
Y262900D01*
X1188210Y264900D02*
X1188720D01*
X1186210Y262900D02*
X1188210Y264900D01*
X1148110Y177780D02*
Y264870D01*
X1148080Y264900D02*
X1148110Y264870D01*
X1108010Y264900D02*
X1110010Y262900D01*
X1107440Y264900D02*
X1108010D01*
X1110010Y203180D02*
Y262900D01*
X997300D02*
X999300Y264900D01*
X997300Y204770D02*
Y262900D01*
X995710Y203180D02*
X997300Y204770D01*
X999300Y264900D02*
X1003300D01*
X917510D02*
X919510Y262900D01*
Y203180D02*
Y262900D01*
X916940Y264900D02*
X917510D01*
X724440Y265640D02*
X726440Y263640D01*
X723900Y265640D02*
X724440D01*
X726440Y203200D02*
Y263640D01*
X609630Y203180D02*
Y264870D01*
X609600Y264900D02*
X609630Y264870D01*
X533430Y203180D02*
Y205615D01*
X416560Y203200D02*
Y264900D01*
X378460Y177800D02*
Y264900D01*
X338360D02*
X340360Y262900D01*
X337820Y264900D02*
X338360D01*
X340360Y203200D02*
Y262900D01*
X148890Y264900D02*
X149890Y263900D01*
Y203180D02*
Y263900D01*
X147320Y264900D02*
X148890D01*
X229894Y264394D02*
X231140Y265640D01*
X226090Y203180D02*
Y205615D01*
X229894Y209420D02*
Y264394D01*
X226090Y205615D02*
X229894Y209420D01*
X187960Y264900D02*
X187975Y264885D01*
Y177795D02*
Y264885D01*
Y177795D02*
X187990Y177780D01*
D22*
X267947Y1506721D02*
X272542Y1511316D01*
X267680Y1475600D02*
Y1478402D01*
X267947Y1478669D02*
Y1506721D01*
X267680Y1478402D02*
X267947Y1478669D01*
X267180Y1475100D02*
X267680Y1475600D01*
X272542Y1511316D02*
Y1511816D01*
Y1512316D01*
D23*
X755288Y404875D02*
X789940Y439528D01*
X498981Y404875D02*
X755288D01*
X175260Y365760D02*
X459865D01*
X498981Y404875D01*
X175260Y416560D02*
X188067Y429367D01*
X175260Y391160D02*
X322661D01*
X360869Y429367D01*
X508000D01*
X188067D02*
X261620D01*
D25*
X850900Y1164680D02*
D03*
X818900D02*
D03*
X140220Y875940D02*
D03*
Y781960D02*
D03*
Y687980D02*
D03*
D26*
X325120Y770110D02*
D03*
X316120Y799610D02*
D03*
X325120D02*
D03*
X334120D02*
D03*
Y770110D02*
D03*
X316120D02*
D03*
D27*
X464820Y616480D02*
D03*
Y587480D02*
D03*
X916940Y264900D02*
D03*
Y293900D02*
D03*
X957580Y264900D02*
D03*
Y293900D02*
D03*
X530860Y264900D02*
D03*
Y293900D02*
D03*
X868680Y974920D02*
D03*
Y1003920D02*
D03*
X1148080Y293900D02*
D03*
X762000D02*
D03*
X568960Y293160D02*
D03*
X378460Y293900D02*
D03*
X187960D02*
D03*
X1188720D02*
D03*
X1003300D02*
D03*
X802640D02*
D03*
X609600D02*
D03*
X416560D02*
D03*
X231140Y294640D02*
D03*
X1107440Y293900D02*
D03*
X723900Y294640D02*
D03*
X337820Y293900D02*
D03*
X147320D02*
D03*
X820420Y1440920D02*
D03*
Y1469920D02*
D03*
X787400D02*
D03*
Y1440920D02*
D03*
X1107440Y264900D02*
D03*
X1148080D02*
D03*
X1188720D02*
D03*
X1003300D02*
D03*
X723900Y265640D02*
D03*
X762000Y264900D02*
D03*
X802640D02*
D03*
X568960Y264160D02*
D03*
X609600Y264900D02*
D03*
X337820D02*
D03*
X378460D02*
D03*
X416560D02*
D03*
X147320D02*
D03*
X187960D02*
D03*
X231140Y265640D02*
D03*
D28*
X250398Y1257452D02*
D03*
Y1266952D02*
D03*
Y1276452D02*
D03*
X276398D02*
D03*
Y1266952D02*
D03*
Y1257452D02*
D03*
D29*
X367406Y646938D02*
D03*
X414406Y659638D02*
D03*
Y634238D02*
D03*
X367406Y672338D02*
D03*
Y634238D02*
D03*
Y659638D02*
D03*
X414406Y646938D02*
D03*
Y672338D02*
D03*
D30*
X812800Y726820D02*
D03*
Y718820D02*
D03*
X668020Y1113600D02*
D03*
Y1121600D02*
D03*
X406400Y947420D02*
D03*
Y955420D02*
D03*
X388620Y947040D02*
D03*
Y955040D02*
D03*
X312420Y518160D02*
D03*
X213360Y477900D02*
D03*
X739140Y480440D02*
D03*
X835660Y521080D02*
D03*
X454660Y472820D02*
D03*
X553720Y514540D02*
D03*
X835660Y513080D02*
D03*
X454660Y464820D02*
D03*
X739140Y472440D02*
D03*
X553720Y506540D02*
D03*
X312420Y510160D02*
D03*
X213360Y469900D02*
D03*
X114300Y877760D02*
D03*
Y869760D02*
D03*
Y782700D02*
D03*
Y774700D02*
D03*
Y689800D02*
D03*
Y681800D02*
D03*
X276609Y989267D02*
D03*
Y981267D02*
D03*
X408940Y975360D02*
D03*
Y983360D02*
D03*
X403860Y1037400D02*
D03*
Y1045400D02*
D03*
X687100Y1056280D02*
D03*
Y1048280D02*
D03*
X667100Y1056280D02*
D03*
Y1048280D02*
D03*
X388620Y966280D02*
D03*
Y974280D02*
D03*
X370840Y966280D02*
D03*
Y974280D02*
D03*
X668020Y1001140D02*
D03*
Y993140D02*
D03*
X295910Y1485772D02*
D03*
X298196Y1534032D02*
D03*
X295910Y1477772D02*
D03*
X298196Y1526032D02*
D03*
X296418Y1460500D02*
D03*
Y1468500D02*
D03*
D31*
X261620Y429367D02*
D03*
Y444393D02*
D03*
X563880Y764433D02*
D03*
Y749408D02*
D03*
X787400Y718712D02*
D03*
Y703688D02*
D03*
X784860Y789833D02*
D03*
Y774808D02*
D03*
X934720Y756813D02*
D03*
Y741787D02*
D03*
X833040Y807720D02*
D03*
Y792695D02*
D03*
X878760Y828148D02*
D03*
Y843173D02*
D03*
X789940Y439528D02*
D03*
Y454552D02*
D03*
X713740Y515513D02*
D03*
Y500488D02*
D03*
X690880Y515513D02*
D03*
Y500488D02*
D03*
X508000Y429367D02*
D03*
Y444393D02*
D03*
X429260Y507892D02*
D03*
Y492868D02*
D03*
X403860Y507785D02*
D03*
Y492760D02*
D03*
X157480Y497948D02*
D03*
Y512972D02*
D03*
X182880Y497840D02*
D03*
Y512865D02*
D03*
X475780Y1183475D02*
D03*
Y1168450D02*
D03*
X310388Y846944D02*
D03*
Y861969D02*
D03*
X334518Y846836D02*
D03*
Y861861D02*
D03*
X357632Y846181D02*
D03*
Y861207D02*
D03*
X193040Y1076745D02*
D03*
Y1061720D02*
D03*
D32*
X443550Y693420D02*
D03*
X420050D02*
D03*
X486730Y632460D02*
D03*
X463230D02*
D03*
X463362Y658114D02*
D03*
X439862D02*
D03*
D33*
X793136Y1160242D02*
D03*
Y1176242D02*
D03*
X800100Y1118580D02*
D03*
Y1134580D02*
D03*
X840740Y1033360D02*
D03*
Y1017360D02*
D03*
Y999960D02*
D03*
Y983960D02*
D03*
D34*
X850900Y1117080D02*
D03*
Y1136080D02*
D03*
Y1126580D02*
D03*
X823900Y1136080D02*
D03*
Y1117080D02*
D03*
D35*
X817880Y1097280D02*
D03*
X845820D02*
D03*
D36*
X818156Y1190722D02*
D03*
X834156D02*
D03*
D37*
X907436Y1171162D02*
D03*
Y1155162D02*
D03*
D38*
X889656Y1122142D02*
D03*
X872156D02*
D03*
D39*
X907436Y1119602D02*
D03*
Y1139102D02*
D03*
D40*
X897280Y1062420D02*
D03*
X906780D02*
D03*
X916280D02*
D03*
Y1086420D02*
D03*
X906780D02*
D03*
X897280D02*
D03*
D41*
X946070Y1111340D02*
D03*
Y1117840D02*
D03*
Y1098340D02*
D03*
Y1104840D02*
D03*
Y1124340D02*
D03*
D42*
X972820Y1111340D02*
D03*
D43*
X878840Y1035140D02*
D03*
X861695D02*
D03*
D44*
X448948Y1136986D02*
D03*
X453948D02*
D03*
X458948D02*
D03*
X463948D02*
D03*
X468948D02*
D03*
X473948D02*
D03*
X478948D02*
D03*
X483948D02*
D03*
X488948D02*
D03*
X493948D02*
D03*
X498948D02*
D03*
X503948D02*
D03*
X508948D02*
D03*
X513948D02*
D03*
X518948D02*
D03*
X523948D02*
D03*
X528948D02*
D03*
X533948D02*
D03*
X538948D02*
D03*
X543948D02*
D03*
X548948D02*
D03*
X553948D02*
D03*
X558948D02*
D03*
X563948D02*
D03*
X568948D02*
D03*
X573948D02*
D03*
X578948D02*
D03*
X583948D02*
D03*
X588948D02*
D03*
X593948D02*
D03*
X598948D02*
D03*
X603948D02*
D03*
X608948D02*
D03*
X613948D02*
D03*
X618948D02*
D03*
X623948D02*
D03*
Y924986D02*
D03*
X618948D02*
D03*
X613948D02*
D03*
X608948D02*
D03*
X603948D02*
D03*
X598948D02*
D03*
X593948D02*
D03*
X588948D02*
D03*
X583948D02*
D03*
X578948D02*
D03*
X573948D02*
D03*
X568948D02*
D03*
X563948D02*
D03*
X558948D02*
D03*
X553948D02*
D03*
X548948D02*
D03*
X543948D02*
D03*
X538948D02*
D03*
X533948D02*
D03*
X528948D02*
D03*
X523948D02*
D03*
X518948D02*
D03*
X513948D02*
D03*
X508948D02*
D03*
X503948D02*
D03*
X498948D02*
D03*
X493948D02*
D03*
X488948D02*
D03*
X483948D02*
D03*
X478948D02*
D03*
X473948D02*
D03*
X468948D02*
D03*
X463948D02*
D03*
X458948D02*
D03*
X453948D02*
D03*
X448948D02*
D03*
D45*
X642448Y1118486D02*
D03*
Y1113486D02*
D03*
Y1108486D02*
D03*
Y1103486D02*
D03*
Y1098486D02*
D03*
Y1093486D02*
D03*
Y1088486D02*
D03*
Y1083486D02*
D03*
Y1078486D02*
D03*
Y1073486D02*
D03*
Y1068486D02*
D03*
Y1063486D02*
D03*
Y1058486D02*
D03*
Y1053486D02*
D03*
Y1048486D02*
D03*
Y1043486D02*
D03*
Y1038486D02*
D03*
Y1033486D02*
D03*
Y1028486D02*
D03*
Y1023486D02*
D03*
Y1018486D02*
D03*
Y1013486D02*
D03*
Y1008486D02*
D03*
Y1003486D02*
D03*
Y998486D02*
D03*
Y993486D02*
D03*
Y988486D02*
D03*
Y983486D02*
D03*
Y978486D02*
D03*
Y973486D02*
D03*
Y968486D02*
D03*
Y963486D02*
D03*
Y958486D02*
D03*
Y953486D02*
D03*
Y948486D02*
D03*
Y943486D02*
D03*
X430448D02*
D03*
Y948486D02*
D03*
Y953486D02*
D03*
Y958486D02*
D03*
Y963486D02*
D03*
Y968486D02*
D03*
Y973486D02*
D03*
Y978486D02*
D03*
Y983486D02*
D03*
Y988486D02*
D03*
Y993486D02*
D03*
Y998486D02*
D03*
Y1003486D02*
D03*
Y1008486D02*
D03*
Y1013486D02*
D03*
Y1018486D02*
D03*
Y1023486D02*
D03*
Y1028486D02*
D03*
Y1033486D02*
D03*
Y1038486D02*
D03*
Y1043486D02*
D03*
Y1048486D02*
D03*
Y1053486D02*
D03*
Y1058486D02*
D03*
Y1063486D02*
D03*
Y1068486D02*
D03*
Y1073486D02*
D03*
Y1078486D02*
D03*
Y1083486D02*
D03*
Y1088486D02*
D03*
Y1093486D02*
D03*
Y1098486D02*
D03*
Y1103486D02*
D03*
Y1108486D02*
D03*
Y1113486D02*
D03*
Y1118486D02*
D03*
D46*
X570420Y1160780D02*
D03*
X562420D02*
D03*
X522160Y1158240D02*
D03*
X514160D02*
D03*
X771080Y1391920D02*
D03*
X763080D02*
D03*
X792480Y739140D02*
D03*
X800480D02*
D03*
X912240Y772160D02*
D03*
X904240D02*
D03*
X574040Y901700D02*
D03*
X566040D02*
D03*
X410400Y1094740D02*
D03*
X402400D02*
D03*
X447040Y1158240D02*
D03*
X439040D02*
D03*
X457200Y899160D02*
D03*
X449200D02*
D03*
X526160D02*
D03*
X518160D02*
D03*
X625920Y901700D02*
D03*
X633920D02*
D03*
D47*
X175260Y1336950D02*
D03*
Y1355450D02*
D03*
X201676Y1335680D02*
D03*
Y1354180D02*
D03*
X317500Y1359620D02*
D03*
Y1341120D02*
D03*
D48*
X338328Y1445758D02*
D03*
Y1412758D02*
D03*
X197104Y1424432D02*
D03*
Y1457432D02*
D03*
D49*
X439420Y623824D02*
D03*
Y635824D02*
D03*
X341884Y638556D02*
D03*
Y650556D02*
D03*
X909320Y755300D02*
D03*
Y743300D02*
D03*
X301498Y1243584D02*
D03*
X609600Y895920D02*
D03*
Y883920D02*
D03*
X228346Y1266506D02*
D03*
Y1254506D02*
D03*
X301498Y1255584D02*
D03*
X300228Y1283620D02*
D03*
Y1271620D02*
D03*
X298450Y1435292D02*
D03*
X227076Y1429512D02*
D03*
Y1441512D02*
D03*
X298450Y1447292D02*
D03*
D50*
X914212Y828040D02*
D03*
X899187D02*
D03*
X767080Y716280D02*
D03*
X752055D02*
D03*
X830687Y706120D02*
D03*
X845713D02*
D03*
X807720Y756920D02*
D03*
X792695D02*
D03*
D51*
X843280Y668020D02*
D03*
Y685520D02*
D03*
X787400Y668300D02*
D03*
Y685800D02*
D03*
X690880Y554850D02*
D03*
X403860Y544690D02*
D03*
X157480Y552310D02*
D03*
X789940Y551180D02*
D03*
Y533680D02*
D03*
X690880Y537350D02*
D03*
X403860Y527190D02*
D03*
X508000Y547230D02*
D03*
Y529730D02*
D03*
X261620Y533680D02*
D03*
Y551180D02*
D03*
X157480Y534810D02*
D03*
D52*
X998220Y625142D02*
D03*
X969220D02*
D03*
X1000020Y469900D02*
D03*
X971020D02*
D03*
X1000020Y434340D02*
D03*
X971020D02*
D03*
X1000020Y396240D02*
D03*
X971020D02*
D03*
X998220Y586740D02*
D03*
X969220D02*
D03*
X997480Y665480D02*
D03*
X968480D02*
D03*
X740620Y1033780D02*
D03*
X769620D02*
D03*
X819680Y1417320D02*
D03*
X790680D02*
D03*
D53*
X863600Y693540D02*
D03*
Y708540D02*
D03*
X807720Y789940D02*
D03*
Y774940D02*
D03*
X858440Y828160D02*
D03*
Y843160D02*
D03*
X454660Y492760D02*
D03*
Y507760D02*
D03*
X736600Y515380D02*
D03*
Y500380D02*
D03*
X205740Y512960D02*
D03*
Y497960D02*
D03*
X381000Y1023620D02*
D03*
Y1038620D02*
D03*
X340360Y987940D02*
D03*
Y972940D02*
D03*
D54*
X829580Y828040D02*
D03*
X841580D02*
D03*
X943180D02*
D03*
X931180D02*
D03*
X684880Y1102360D02*
D03*
X696880D02*
D03*
X262089Y1492465D02*
D03*
X493680Y1244600D02*
D03*
X481680D02*
D03*
X274089Y1492465D02*
D03*
D55*
X615090Y661500D02*
D03*
X634590D02*
D03*
X628090D02*
D03*
X621590D02*
D03*
X647590D02*
D03*
X608590D02*
D03*
X602090Y720260D02*
D03*
X608590D02*
D03*
X615090D02*
D03*
X621590D02*
D03*
X628090D02*
D03*
X634590D02*
D03*
X641090D02*
D03*
X647590D02*
D03*
X641090Y661500D02*
D03*
X602090D02*
D03*
D56*
X607060Y637540D02*
D03*
X592060D02*
D03*
X637420D02*
D03*
Y617220D02*
D03*
X622420Y637540D02*
D03*
Y617220D02*
D03*
X632460Y767080D02*
D03*
X617460D02*
D03*
X632340Y746760D02*
D03*
X617340D02*
D03*
D57*
X786130Y1336860D02*
D03*
X798830D02*
D03*
X811530D02*
D03*
X824230D02*
D03*
Y1391100D02*
D03*
X811530D02*
D03*
X798830D02*
D03*
X786130D02*
D03*
D58*
X339520Y1007500D02*
D03*
X361520D02*
D03*
Y1024500D02*
D03*
X339520D02*
D03*
D60*
X246800Y1464220D02*
D03*
Y1469220D02*
D03*
X277560D02*
D03*
Y1459220D02*
D03*
Y1464220D02*
D03*
X246800Y1459220D02*
D03*
D61*
X262180Y1474350D02*
D03*
D62*
X392051Y1352333D02*
D03*
Y1277583D02*
D03*
D63*
X263542Y1512316D02*
D03*
X272542D02*
D03*
D64*
X244856Y1496314D02*
D03*
X271780Y1533834D02*
D03*
X224790Y1495734D02*
D03*
Y1486734D02*
D03*
X244856Y1487314D02*
D03*
X271780Y1524834D02*
D03*
D65*
X203344Y1113729D02*
D03*
X216044D02*
D03*
X241444D02*
D03*
X177944D02*
D03*
Y1154429D02*
D03*
X190644Y1113729D02*
D03*
Y1154429D02*
D03*
X203344D02*
D03*
X216044D02*
D03*
X228744Y1113729D02*
D03*
Y1154429D02*
D03*
X241444D02*
D03*
X254144Y1113729D02*
D03*
Y1154429D02*
D03*
D66*
X259588Y1340104D02*
D03*
Y1380504D02*
D03*
D67*
X276310Y1448470D02*
D03*
X248050D02*
D03*
D68*
X267180Y1475100D02*
D03*
X257180D02*
D03*
D69*
X262180Y1444340D02*
D03*
D70*
X298028Y1512316D02*
D03*
X287528D02*
D03*
D100*
X701040Y932180D02*
D03*
Y906780D02*
D03*
Y881380D02*
D03*
X175260Y340360D02*
D03*
Y365760D02*
D03*
Y391160D02*
D03*
X462280Y833120D02*
D03*
X487680D02*
D03*
X513080D02*
D03*
D101*
X701040Y855980D02*
D03*
X175260Y416560D02*
D03*
D109*
X436880Y833120D02*
D03*
D111*
X377430Y1634340D02*
D03*
X186930D02*
D03*
D121*
X884012Y768833D02*
D03*
Y756133D02*
D03*
Y743433D02*
D03*
Y730733D02*
D03*
X834736D02*
D03*
Y743433D02*
D03*
Y756133D02*
D03*
Y768833D02*
D03*
X813816Y513080D02*
D03*
X481584Y505460D02*
D03*
Y492760D02*
D03*
Y480060D02*
D03*
Y467360D02*
D03*
X530860D02*
D03*
Y480060D02*
D03*
Y492760D02*
D03*
Y505460D02*
D03*
X813816Y500380D02*
D03*
Y487680D02*
D03*
Y474980D02*
D03*
X764540D02*
D03*
Y487680D02*
D03*
Y500380D02*
D03*
Y513080D02*
D03*
X286258Y509270D02*
D03*
Y496570D02*
D03*
Y483870D02*
D03*
Y471170D02*
D03*
X236982D02*
D03*
Y483870D02*
D03*
Y496570D02*
D03*
Y509270D02*
D03*
D122*
X248430Y1434970D02*
D03*
X275930D02*
D03*
X276180Y1475720D02*
D03*
X248180D02*
D03*
D123*
X957497Y1089790D02*
Y1113739D01*
X939957Y1075607D02*
X955123Y1090773D01*
Y1112756D01*
X940940Y1073233D02*
X957497Y1089790D01*
X799612Y1073233D02*
X799612Y1073233D01*
X798629Y1075607D02*
X913185D01*
X655582Y1097173D02*
X677148Y1075607D01*
X654599Y1094799D02*
X676165Y1073233D01*
X677148Y1075607D02*
X798629D01*
X798629Y1075607D01*
X676165Y1073233D02*
X799612D01*
X799612Y1073233D02*
X913185D01*
X642448Y1098486D02*
X651730D01*
X653043Y1094799D02*
X654599D01*
X651730Y1098486D02*
X653043Y1097173D01*
X655582D01*
X651730Y1093486D02*
X653043Y1094799D01*
X642448Y1093486D02*
X651730D01*
X919375Y1075607D02*
X939957D01*
X919375Y1073233D02*
X940940D01*
X918728Y1076254D02*
Y1083972D01*
X916280Y1086420D02*
X918728Y1083972D01*
X913832D02*
X916280Y1086420D01*
X913832Y1076254D02*
Y1083972D01*
Y1064868D02*
X916280Y1062420D01*
X913185Y1073233D02*
X913832Y1072586D01*
X913185Y1075607D02*
X913832Y1076254D01*
Y1064868D02*
Y1072586D01*
X946070Y1117840D02*
X950820D01*
X952883Y1115777D01*
X955460D01*
X918728Y1072586D02*
X919375Y1073233D01*
X918728Y1064868D02*
Y1072586D01*
X916280Y1062420D02*
X918728Y1064868D01*
X946070Y1111340D02*
X950820D01*
X955460Y1115777D02*
X957497Y1113739D01*
X950820Y1111340D02*
X952883Y1113403D01*
X954476D02*
X955123Y1112756D01*
X918728Y1076254D02*
X919375Y1075607D01*
X952883Y1113403D02*
X954476D01*
D124*
X958478Y814442D02*
X978071Y794849D01*
X943904Y814442D02*
X958478D01*
X978071Y764367D02*
Y794849D01*
X955492Y741787D02*
X978071Y764367D01*
X932660Y825686D02*
X943904Y814442D01*
X931180Y828040D02*
X932660Y826560D01*
Y825686D02*
Y826560D01*
X934720Y741787D02*
X955492D01*
X324612Y1447292D02*
X327660Y1450340D01*
X298450Y1447292D02*
X324612D01*
X951967Y756813D02*
X959694Y764540D01*
X962660D01*
X934720Y756813D02*
X951967D01*
X805530Y720674D02*
X812906Y728050D01*
X805530Y689333D02*
X817005Y677858D01*
X805530Y689333D02*
Y720674D01*
X812906Y728050D02*
X814030D01*
X853014Y513080D02*
X860634Y520700D01*
X863600D01*
X835660Y513080D02*
X853014D01*
X296830Y1239520D02*
X306224D01*
X302248Y1243584D02*
X307252Y1238580D01*
Y1237068D02*
Y1238580D01*
Y1237068D02*
X307340Y1236980D01*
X279628Y1256722D02*
X296830Y1239520D01*
X301498Y1243584D02*
X302248D01*
X277128Y1256722D02*
X279628D01*
X276398Y1257452D02*
X277128Y1256722D01*
X206910Y1429488D02*
X227052D01*
X201854Y1424432D02*
X206910Y1429488D01*
X873496Y768309D02*
X883488D01*
X870836Y714428D02*
Y765649D01*
X883488Y768309D02*
X884012Y768833D01*
X870836Y765649D02*
X873496Y768309D01*
X870836Y714428D02*
X873760Y711505D01*
Y556260D02*
Y711505D01*
X863600Y546100D02*
X873760Y556260D01*
X884012Y768350D02*
X900930D01*
X836244Y1188634D02*
X842118D01*
X848048Y1167532D02*
Y1182704D01*
X834156Y1190722D02*
X836244Y1188634D01*
X842118D02*
X848048Y1182704D01*
Y1167532D02*
X850900Y1164680D01*
Y1136080D02*
Y1164680D01*
X814030Y728050D02*
X816230Y730250D01*
X833882D01*
X812800Y711200D02*
Y718820D01*
X909457Y755437D02*
X920630D01*
X909320Y755300D02*
X909457Y755437D01*
X920630D02*
X922006Y756813D01*
X934720D01*
X883333Y755475D02*
X909145D01*
X909320Y755300D01*
X883158Y755650D02*
X883333Y755475D01*
X910076Y742544D02*
X933964D01*
X909320Y743300D02*
X910076Y742544D01*
X933964D02*
X934720Y741787D01*
X883333Y743125D02*
X909145D01*
X909320Y743300D01*
X883158Y742950D02*
X883333Y743125D01*
X883158Y730250D02*
X902034D01*
X903304Y728980D01*
X904240D01*
X900930Y768350D02*
X904240Y771660D01*
Y772160D01*
X471288Y465837D02*
X472288Y466836D01*
X454890Y465090D02*
X456602D01*
X457348Y465837D01*
X471288D01*
X472288Y466836D02*
X481060D01*
X481584Y467360D01*
X454660Y464860D02*
X454890Y465090D01*
X329700Y510040D02*
X342900Y523240D01*
X312650Y510040D02*
X329700D01*
X311945Y509645D02*
X312420Y510120D01*
X286258Y509270D02*
X286633Y509645D01*
X311945D01*
X312420Y510120D02*
Y510160D01*
X553720Y506540D02*
X572154D01*
X578694Y513080D01*
X581660D01*
X531384Y505984D02*
X543854D01*
X530860Y505460D02*
X531384Y505984D01*
X543854D02*
X544410Y506540D01*
X553720D01*
X454660Y464820D02*
Y464860D01*
X421640Y464820D02*
X454660D01*
X229870Y471170D02*
X236982D01*
X213360Y469900D02*
X228600D01*
X229870Y471170D01*
X180340Y469900D02*
X213360D01*
X835660Y521080D02*
Y530860D01*
X813816Y513080D02*
X835660D01*
X739140Y480440D02*
Y480480D01*
X727281Y480710D02*
X738910D01*
X739140Y480480D01*
X727006Y480985D02*
X727281Y480710D01*
X741434Y474734D02*
X764294D01*
X734060Y467360D02*
X741434Y474734D01*
X703580Y467360D02*
X734060D01*
X563880Y764433D02*
Y777240D01*
X632460Y780743D02*
X633117Y781400D01*
X632460Y767080D02*
Y780743D01*
X632400Y746820D02*
Y767020D01*
X632340Y746760D02*
X632400Y746820D01*
Y767020D02*
X632460Y767080D01*
X628090Y742010D02*
X632340Y746260D01*
Y746760D01*
X628090Y720260D02*
Y742010D01*
X190644Y1103479D02*
X193040Y1101083D01*
X190644Y1103479D02*
Y1113729D01*
X193040Y1076745D02*
Y1101083D01*
Y1049020D02*
Y1061720D01*
X792808Y1176570D02*
Y1188392D01*
Y1176570D02*
X793136Y1176242D01*
X792480Y1188720D02*
X792808Y1188392D01*
X814462Y1160242D02*
X818900Y1164680D01*
X793136Y1160242D02*
X814462D01*
X907436Y1171162D02*
Y1183102D01*
Y1139102D02*
Y1155162D01*
X380188Y1049631D02*
X381000Y1048819D01*
Y1038620D02*
Y1048819D01*
X339463Y1039015D02*
X339520Y1038959D01*
Y1024500D02*
Y1038959D01*
X361520Y997368D02*
X362238Y996650D01*
X361520Y997368D02*
Y1007500D01*
X824230Y1395475D02*
X832458Y1403703D01*
X824230Y1391100D02*
Y1395475D01*
X832458Y1403703D02*
Y1406498D01*
X833120Y1407160D01*
X753463Y1391406D02*
X753977Y1391920D01*
X763080D01*
X785310D02*
X786130Y1391100D01*
X771080Y1391920D02*
X785310D01*
X811861Y1391431D02*
Y1402195D01*
X817450Y1407784D02*
Y1415090D01*
X811861Y1402195D02*
X817450Y1407784D01*
X811530Y1391100D02*
X811861Y1391431D01*
X817450Y1415090D02*
X819680Y1417320D01*
Y1440180D01*
X792910Y1407175D02*
X798194Y1401890D01*
X792910Y1407175D02*
Y1415090D01*
X798194Y1391736D02*
X798830Y1391100D01*
X790680Y1417320D02*
X792910Y1415090D01*
X798194Y1391736D02*
Y1401890D01*
X790680Y1417320D02*
Y1421320D01*
X819680Y1440180D02*
X820420Y1440920D01*
X787400Y1424600D02*
Y1440920D01*
Y1424600D02*
X790680Y1421320D01*
X822960Y1526540D02*
X835660Y1513840D01*
X833000Y1457960D02*
X835660Y1460620D01*
X803360Y1457960D02*
X833000D01*
X835660Y1460620D02*
Y1513840D01*
X791400Y1469920D02*
X803360Y1457960D01*
X787400Y1469920D02*
X791400D01*
X820420D02*
Y1505685D01*
X810260Y1515845D02*
X820420Y1505685D01*
X810260Y1515845D02*
Y1551940D01*
X469780Y1245179D02*
X470359Y1244600D01*
X481680D01*
X507594D02*
X507981Y1244987D01*
X493680Y1244600D02*
X507594D01*
X300688Y1272080D02*
X314500D01*
X314960Y1272540D01*
X300228Y1271620D02*
X300688Y1272080D01*
X314548Y1255172D02*
X314960Y1254760D01*
X301498Y1255584D02*
X301910Y1255172D01*
X314548D01*
X294810Y1266952D02*
X299478Y1271620D01*
X300228D01*
X300748Y1255584D02*
X301498D01*
X294810Y1261522D02*
X300748Y1255584D01*
X294810Y1261522D02*
Y1266952D01*
X276398D02*
X294810D01*
X228346Y1266506D02*
X228569Y1266729D01*
X250175D01*
X250398Y1266952D01*
X244952Y1254506D02*
X247898Y1257452D01*
X228346Y1254506D02*
X244952D01*
X247898Y1257452D02*
X250398D01*
X288708Y1276452D02*
X294396Y1282140D01*
X298748D02*
X300228Y1283620D01*
X276398Y1276452D02*
X288708D01*
X294396Y1282140D02*
X298748D01*
X250398Y1276452D02*
X276398D01*
X175260Y1355450D02*
Y1363980D01*
X200660D02*
X201676Y1362964D01*
Y1354180D02*
Y1362964D01*
X201041Y1336315D02*
X201676Y1335680D01*
X175895Y1336315D02*
X201041D01*
X175260Y1336950D02*
X175895Y1336315D01*
X255164Y1335680D02*
X259588Y1340104D01*
X201676Y1335680D02*
X255164D01*
X327090Y1351280D02*
X390998D01*
X392051Y1352333D01*
X318750Y1359620D02*
X327090Y1351280D01*
X317500Y1359620D02*
X318750D01*
X299200Y1435292D02*
X310974Y1423518D01*
Y1423052D02*
Y1423518D01*
X298450Y1435292D02*
X299200D01*
X310974Y1423052D02*
X321268Y1412758D01*
X338328D01*
X275930Y1434970D02*
X298128D01*
X298450Y1435292D01*
X276310Y1448470D02*
X276580Y1448200D01*
X297542D01*
X298450Y1447292D01*
X231140Y1447800D02*
X231810Y1448470D01*
X248050D01*
X197104Y1424432D02*
X201854D01*
X227076Y1429512D02*
X242972D01*
X248430Y1434970D01*
D125*
X327660Y650240D02*
X327818Y650398D01*
X464820Y576580D02*
Y587480D01*
X463230Y618070D02*
X464820Y616480D01*
X463230Y618070D02*
Y635000D01*
X439420Y635824D02*
X439832Y635412D01*
X462818D01*
X463230Y635000D01*
X431040Y636804D02*
X438440D01*
X414406Y646938D02*
X420906D01*
X431040Y636804D01*
X438440D02*
X439420Y635824D01*
X438661Y610915D02*
X439420Y611674D01*
Y623824D01*
X430852Y672338D02*
X431697Y673183D01*
X414406Y672338D02*
X430852D01*
X348441Y672197D02*
X348581Y672338D01*
X367406D01*
X327818Y650398D02*
X341726D01*
X341884Y650556D01*
X342634D01*
X351716Y659638D01*
X367406D01*
X346952Y634238D02*
X367406D01*
X342634Y638556D02*
X346952Y634238D01*
X341884Y638556D02*
X342634D01*
D126*
X962660Y789940D02*
D03*
X863600Y546100D02*
D03*
X581660Y538480D02*
D03*
X342900Y548640D02*
D03*
D127*
X962660Y764540D02*
D03*
X535940Y721360D02*
D03*
X154940Y469900D02*
D03*
X678180Y467360D02*
D03*
X396240Y464820D02*
D03*
X863600Y520700D02*
D03*
X581660Y513080D02*
D03*
X342900Y523240D02*
D03*
D128*
X561340Y721360D02*
D03*
X421640Y464820D02*
D03*
X703580Y467360D02*
D03*
X180340Y469900D02*
D03*
D129*
X972820Y1151340D02*
D03*
Y1071340D02*
D03*
D130*
X942820Y1089090D02*
D03*
Y1133590D02*
D03*
D131*
X1191240Y350490D02*
D03*
Y505490D02*
D03*
X1191260Y540960D02*
D03*
Y695960D02*
D03*
X104140Y68580D02*
D03*
X259140D02*
D03*
X1219260D02*
D03*
X1064260D02*
D03*
X1028760D02*
D03*
X873760D02*
D03*
X835690Y68600D02*
D03*
X680690D02*
D03*
X642680Y68580D02*
D03*
X487680D02*
D03*
X449610Y68600D02*
D03*
X294610D02*
D03*
X894110Y1661140D02*
D03*
X739110D02*
D03*
D132*
X1145540Y370840D02*
D03*
Y485140D02*
D03*
X1145560Y561310D02*
D03*
Y675610D02*
D03*
X124490Y114280D02*
D03*
X238790D02*
D03*
X873760Y1615440D02*
D03*
X759460D02*
D03*
X1198910Y114280D02*
D03*
X1084610D02*
D03*
X1008410D02*
D03*
X894110D02*
D03*
X815340Y114300D02*
D03*
X701040D02*
D03*
X622330Y114280D02*
D03*
X508030D02*
D03*
X429260Y114300D02*
D03*
X314960D02*
D03*
D133*
X1082040Y434340D02*
D03*
X1056640Y396240D02*
D03*
Y472440D02*
D03*
Y421640D02*
D03*
Y447040D02*
D03*
X1082040Y408940D02*
D03*
Y459740D02*
D03*
X1082060Y624810D02*
D03*
X1056660Y586710D02*
D03*
Y662910D02*
D03*
Y612110D02*
D03*
Y637510D02*
D03*
X1082060Y599410D02*
D03*
Y650210D02*
D03*
X187990Y177780D02*
D03*
X149890Y203180D02*
D03*
X226090D02*
D03*
X175290D02*
D03*
X200690D02*
D03*
X162590Y177780D02*
D03*
X213390D02*
D03*
X1173510D02*
D03*
X1122710D02*
D03*
X1160810Y203180D02*
D03*
X1135410D02*
D03*
X983010Y177780D02*
D03*
X932210D02*
D03*
X970310Y203180D02*
D03*
X944910D02*
D03*
X789940Y177800D02*
D03*
X739140D02*
D03*
X777240Y203200D02*
D03*
X751840D02*
D03*
X596930Y177780D02*
D03*
X546130D02*
D03*
X584230Y203180D02*
D03*
X558830D02*
D03*
X403860Y177800D02*
D03*
X353060D02*
D03*
X391160Y203200D02*
D03*
X365760D02*
D03*
X810260Y1551940D02*
D03*
X822960Y1526540D02*
D03*
X797560D02*
D03*
X835660Y1551940D02*
D03*
X784860D02*
D03*
X848360Y1526540D02*
D03*
X772160D02*
D03*
X1186210Y203180D02*
D03*
X1110010D02*
D03*
X1148110Y177780D02*
D03*
X995710Y203180D02*
D03*
X919510D02*
D03*
X957610Y177780D02*
D03*
X802640Y203200D02*
D03*
X726440D02*
D03*
X764540Y177800D02*
D03*
X609630Y203180D02*
D03*
X533430D02*
D03*
X571530Y177780D02*
D03*
X416560Y203200D02*
D03*
X340360D02*
D03*
X378460Y177800D02*
D03*
D134*
X1082040Y383540D02*
D03*
X1082060Y574010D02*
D03*
D135*
X137190Y177780D02*
D03*
X1097310D02*
D03*
X906810D02*
D03*
X713740Y177800D02*
D03*
X520730Y177780D02*
D03*
X327660Y177800D02*
D03*
X861060Y1551940D02*
D03*
D136*
X140220Y830940D02*
D03*
X205220D02*
D03*
Y875940D02*
D03*
X140220Y736960D02*
D03*
X205220D02*
D03*
Y781960D02*
D03*
X140220Y642980D02*
D03*
X205220D02*
D03*
Y687980D02*
D03*
X212120Y926680D02*
D03*
X257120D02*
D03*
X212120Y991680D02*
D03*
D137*
X257120D02*
D03*
D138*
X184294Y1134079D02*
D03*
X247794D02*
D03*
D139*
X254000Y1287780D02*
D03*
X292100Y1292860D02*
D03*
X368300Y624840D02*
D03*
X358140D02*
D03*
X1312181Y704341D02*
D03*
X1302181Y684341D02*
D03*
X1292181Y704341D02*
D03*
X1282181Y684341D02*
D03*
X1272181Y704341D02*
D03*
X1262181Y684341D02*
D03*
X1252181Y704341D02*
D03*
X1242181Y684341D02*
D03*
X1232181Y704341D02*
D03*
X1222181Y684341D02*
D03*
X1212181Y704341D02*
D03*
X1202181Y684341D02*
D03*
X1172181Y704341D02*
D03*
X1152181D02*
D03*
X1132181D02*
D03*
X1122181Y684341D02*
D03*
X1112181Y704341D02*
D03*
X1102181Y684341D02*
D03*
X1092181Y704341D02*
D03*
X1082181Y684341D02*
D03*
X1072181Y704341D02*
D03*
X1062181Y684341D02*
D03*
X1052181Y704341D02*
D03*
X1042181Y684341D02*
D03*
X1032181Y704341D02*
D03*
X1022181Y684341D02*
D03*
X1012181Y704341D02*
D03*
X1002181Y684341D02*
D03*
X992181Y704341D02*
D03*
X982181Y684341D02*
D03*
X972181Y704341D02*
D03*
X962181Y684341D02*
D03*
X952181Y704341D02*
D03*
X942181Y684341D02*
D03*
X932181Y704341D02*
D03*
X922181Y684341D02*
D03*
X912181Y704341D02*
D03*
X902181Y684341D02*
D03*
X892181Y704341D02*
D03*
X882181Y684341D02*
D03*
X772181Y704341D02*
D03*
X762181Y684341D02*
D03*
X752181Y704341D02*
D03*
X742181Y684341D02*
D03*
X732181Y704341D02*
D03*
X722181Y684341D02*
D03*
X712181Y704341D02*
D03*
X702181Y684341D02*
D03*
X692181Y704341D02*
D03*
X682181Y684341D02*
D03*
X672180Y704341D02*
D03*
X662180Y684341D02*
D03*
X652180Y704341D02*
D03*
X642180Y684341D02*
D03*
X632180Y704341D02*
D03*
X622180Y684341D02*
D03*
X612180Y704341D02*
D03*
X602180Y684341D02*
D03*
X592180Y704341D02*
D03*
X582180Y684341D02*
D03*
X572180Y704341D02*
D03*
X562180Y684341D02*
D03*
X552180Y704341D02*
D03*
X542180Y684341D02*
D03*
X532180Y704341D02*
D03*
X522180Y684341D02*
D03*
X512180Y704341D02*
D03*
X502180Y684341D02*
D03*
X492180Y704341D02*
D03*
X482180Y684341D02*
D03*
X472180Y704341D02*
D03*
X462180Y684341D02*
D03*
X452180Y704341D02*
D03*
X432180D02*
D03*
X412180D02*
D03*
X402180Y684341D02*
D03*
X392180Y704341D02*
D03*
X382180Y684341D02*
D03*
X372180Y704341D02*
D03*
X362180Y684341D02*
D03*
X352180Y704341D02*
D03*
X342180Y684341D02*
D03*
X332180Y704341D02*
D03*
X322180Y684341D02*
D03*
X312180Y704341D02*
D03*
X302180Y684341D02*
D03*
X292180Y704341D02*
D03*
X282180Y684341D02*
D03*
X272180Y704341D02*
D03*
X262180Y684341D02*
D03*
X252180Y704341D02*
D03*
X242180Y684341D02*
D03*
X232180Y704341D02*
D03*
X222180Y684341D02*
D03*
X212180Y704341D02*
D03*
X192180D02*
D03*
X182180Y684341D02*
D03*
X172180Y704341D02*
D03*
X162180Y684341D02*
D03*
X152180Y704341D02*
D03*
X132180D02*
D03*
X112180D02*
D03*
X92180D02*
D03*
X82180Y684341D02*
D03*
X72180Y704341D02*
D03*
X42180Y684341D02*
D03*
X32180Y704341D02*
D03*
X22180Y684341D02*
D03*
X299720Y1236980D02*
D03*
X307340D02*
D03*
X279400Y1287780D02*
D03*
X288377Y1326038D02*
D03*
X278217D02*
D03*
X265517D02*
D03*
X255357D02*
D03*
X245197D02*
D03*
X232497D02*
D03*
X287020Y1414780D02*
D03*
X279400Y1422400D02*
D03*
X294640Y1407160D02*
D03*
X302260Y1397000D02*
D03*
Y1381760D02*
D03*
X299720Y1369060D02*
D03*
X287020Y1363980D02*
D03*
X274320D02*
D03*
X261620D02*
D03*
X248920D02*
D03*
X236220D02*
D03*
X220980Y1366520D02*
D03*
X215900Y1376680D02*
D03*
Y1386840D02*
D03*
X220980Y1399540D02*
D03*
X228600Y1407160D02*
D03*
X236220Y1414780D02*
D03*
X243840Y1422400D02*
D03*
D140*
X1222180Y594340D02*
D03*
X1287180Y464340D02*
D03*
X1222180Y334340D02*
D03*
X1287180Y204340D02*
D03*
X1157180Y464340D02*
D03*
X1092180Y334340D02*
D03*
Y74340D02*
D03*
X962180Y1634340D02*
D03*
Y1374340D02*
D03*
Y854340D02*
D03*
X1027180Y204340D02*
D03*
X962180Y74340D02*
D03*
X832180Y1634340D02*
D03*
X897180Y1504340D02*
D03*
X832180Y1374340D02*
D03*
X897180Y1244340D02*
D03*
Y984340D02*
D03*
X832180Y854340D02*
D03*
Y594340D02*
D03*
X897180Y464340D02*
D03*
X832180Y334340D02*
D03*
X897180Y204340D02*
D03*
X702180Y1634340D02*
D03*
X767180Y1504340D02*
D03*
X702180Y1374340D02*
D03*
X767180Y1244340D02*
D03*
X702180Y1114340D02*
D03*
X767180Y984340D02*
D03*
Y464340D02*
D03*
X702180Y334340D02*
D03*
Y74340D02*
D03*
X572180Y1634340D02*
D03*
X637180Y1504340D02*
D03*
X572180Y1374340D02*
D03*
X637180Y1244340D02*
D03*
X572180Y854340D02*
D03*
Y594340D02*
D03*
X637180Y464340D02*
D03*
X572180Y334340D02*
D03*
X637180Y204340D02*
D03*
X572180Y74340D02*
D03*
X507180Y1504340D02*
D03*
X442180Y1374340D02*
D03*
X507180Y984340D02*
D03*
Y724340D02*
D03*
X442180Y594340D02*
D03*
Y334340D02*
D03*
X507180Y204340D02*
D03*
X312180Y1374340D02*
D03*
X377180Y724340D02*
D03*
X312180Y594340D02*
D03*
Y334340D02*
D03*
Y74340D02*
D03*
X182180Y1374340D02*
D03*
X247180Y1244340D02*
D03*
X182180Y854340D02*
D03*
X247180Y724340D02*
D03*
X182180Y594340D02*
D03*
X247180Y204340D02*
D03*
X182180Y74340D02*
D03*
X52180Y1634340D02*
D03*
Y1374340D02*
D03*
X117180Y1244340D02*
D03*
X52180Y1114340D02*
D03*
X117180Y984340D02*
D03*
Y724340D02*
D03*
Y464340D02*
D03*
X52180Y334340D02*
D03*
X117180Y204340D02*
D03*
X52180Y74340D02*
D03*
X962181Y884341D02*
D03*
X942181D02*
D03*
X922181D02*
D03*
X902181D02*
D03*
X882181D02*
D03*
X862181D02*
D03*
X842181D02*
D03*
X822181D02*
D03*
X802181D02*
D03*
X782181D02*
D03*
X762181D02*
D03*
X742181D02*
D03*
X350520Y1402080D02*
D03*
X360680Y1452880D02*
D03*
X327660Y650240D02*
D03*
X314960Y751840D02*
D03*
X326446Y752206D02*
D03*
X337820Y751840D02*
D03*
X812800Y711200D02*
D03*
X904240Y728980D02*
D03*
X775692Y653464D02*
D03*
X775368Y638130D02*
D03*
X721360Y584200D02*
D03*
X708660Y571500D02*
D03*
X262050Y490175D02*
D03*
X254017Y504011D02*
D03*
X506518Y478424D02*
D03*
X500380Y500380D02*
D03*
X790742Y484295D02*
D03*
X782420Y500063D02*
D03*
X835660Y530860D02*
D03*
X727006Y480985D02*
D03*
X407170Y693846D02*
D03*
X438661Y610915D02*
D03*
X431697Y673183D02*
D03*
X348441Y672197D02*
D03*
X563880Y777240D02*
D03*
X683124Y768931D02*
D03*
X681595Y790348D02*
D03*
X673475Y879315D02*
D03*
X616808Y780458D02*
D03*
X633117Y781400D02*
D03*
X578115Y637182D02*
D03*
X622416Y601220D02*
D03*
X637635Y603201D02*
D03*
X396240Y1120140D02*
D03*
X451002Y1111687D02*
D03*
X411480Y1112520D02*
D03*
X452120Y1079500D02*
D03*
X241859Y1089913D02*
D03*
X214839Y1089591D02*
D03*
X193040Y1049020D02*
D03*
X792480Y1188720D02*
D03*
X907436Y1183102D02*
D03*
X709446Y1103462D02*
D03*
X380188Y1049631D02*
D03*
X339463Y1039015D02*
D03*
X362238Y996650D02*
D03*
X833120Y1407160D02*
D03*
X753463Y1391406D02*
D03*
X469780Y1245179D02*
D03*
X507981Y1244987D02*
D03*
X431800Y1343660D02*
D03*
X434340Y1358900D02*
D03*
X431800Y1374140D02*
D03*
X314960Y1272540D02*
D03*
Y1254760D02*
D03*
X335280Y1399540D02*
D03*
X317500Y1404620D02*
D03*
X198120Y1409700D02*
D03*
X185420Y1412240D02*
D03*
X175260Y1422400D02*
D03*
X408940Y1244600D02*
D03*
X393700Y1303020D02*
D03*
X429260Y1297940D02*
D03*
X439420Y1275080D02*
D03*
X429260Y1247140D02*
D03*
X381000Y1249680D02*
D03*
X350520Y1292860D02*
D03*
X345440Y1270000D02*
D03*
X358140Y1249680D02*
D03*
X360680Y1440180D02*
D03*
X353060Y1460500D02*
D03*
X340360D02*
D03*
X325120Y1457960D02*
D03*
X223520Y1452880D02*
D03*
X218440Y1468120D02*
D03*
X203200Y1442720D02*
D03*
X200660Y1470660D02*
D03*
X177800Y1463040D02*
D03*
X180340Y1445260D02*
D03*
D141*
X239628Y1464303D02*
D03*
X929726Y1080433D02*
D03*
X929640Y1066800D02*
D03*
X863600Y1079500D02*
D03*
X276860Y972820D02*
D03*
X749807Y1064072D02*
D03*
X759460Y1084580D02*
D03*
X751840Y1079500D02*
D03*
X760330Y1063485D02*
D03*
X802640Y1191260D02*
D03*
X224659Y1502596D02*
D03*
X307340Y1478280D02*
D03*
X826143Y721883D02*
D03*
X807730Y744490D02*
D03*
X863740Y683375D02*
D03*
X921313Y771902D02*
D03*
X952968Y827758D02*
D03*
X878840Y853440D02*
D03*
X858520D02*
D03*
X739140Y716280D02*
D03*
X782320Y739140D02*
D03*
X553720Y523240D02*
D03*
X312420Y525780D02*
D03*
X785997Y1118746D02*
D03*
X813872Y1116942D02*
D03*
X797445Y1096096D02*
D03*
X840518Y1126289D02*
D03*
X840740Y967740D02*
D03*
X863600Y1054100D02*
D03*
X907234Y1096349D02*
D03*
X907109Y1051002D02*
D03*
X411480Y1104900D02*
D03*
X401320D02*
D03*
X678278Y1113313D02*
D03*
X668096Y1128638D02*
D03*
X678180Y1000760D02*
D03*
X679489Y992575D02*
D03*
X695969Y1048526D02*
D03*
X695960Y1056640D02*
D03*
X340187Y962965D02*
D03*
X454331Y1155917D02*
D03*
X447261Y1168482D02*
D03*
X429260Y1158240D02*
D03*
X562359Y1170725D02*
D03*
X571036Y1170105D02*
D03*
X394214Y1037578D02*
D03*
X403626Y1052688D02*
D03*
X399374Y975395D02*
D03*
X360387Y966638D02*
D03*
X378460Y955040D02*
D03*
Y947420D02*
D03*
X360331Y974065D02*
D03*
X408553Y990494D02*
D03*
X457199Y888825D02*
D03*
X449238Y888881D02*
D03*
X518279Y889132D02*
D03*
X526435Y888828D02*
D03*
X609762Y874511D02*
D03*
X574619Y892403D02*
D03*
X565699Y892255D02*
D03*
X635000Y891540D02*
D03*
X626239Y891372D02*
D03*
X475680Y1194033D02*
D03*
X513080Y1168400D02*
D03*
X523240D02*
D03*
X175260Y1363980D02*
D03*
X200660D02*
D03*
X239486Y1470667D02*
D03*
X295931Y1493083D02*
D03*
X271865Y1540374D02*
D03*
X298028Y1540600D02*
D03*
X262121Y1465685D02*
D03*
X255881Y1512335D02*
D03*
X244773Y1503147D02*
D03*
D142*
X817005Y677858D02*
D03*
X23266Y673071D02*
D03*
X25220Y627339D02*
D03*
D143*
X464820Y576580D02*
D03*
X948272Y342211D02*
D03*
X982980Y335280D02*
D03*
X942917Y315537D02*
D03*
X929640Y304420D02*
D03*
X960120Y307340D02*
D03*
X960791Y331597D02*
D03*
D144*
X786317Y1375964D02*
D03*
X533400Y1211580D02*
D03*
X506803Y1211099D02*
D03*
X507026Y1193466D02*
D03*
X497045Y1211693D02*
D03*
X498347Y1193466D02*
D03*
X529936Y1193201D02*
D03*
X516409Y1193567D02*
D03*
X518237Y1212212D02*
D03*
X453650Y480521D02*
D03*
X212842Y485084D02*
D03*
X262232Y1060830D02*
D03*
X249096Y1050097D02*
D03*
X243979Y1077767D02*
D03*
X230926Y1067273D02*
D03*
X103891Y869840D02*
D03*
X251460Y1069340D02*
D03*
X238869Y1060021D02*
D03*
X100188Y774581D02*
D03*
X103171Y680919D02*
D03*
X296226Y995996D02*
D03*
Y981441D02*
D03*
X305249Y996578D02*
D03*
X306123Y981150D02*
D03*
X315861Y996340D02*
D03*
Y982112D02*
D03*
D145*
X43180Y43180D02*
D03*
Y1686560D02*
D03*
X942340Y1689100D02*
D03*
X1277620Y43180D02*
D03*
M02*
