G04*
G04 #@! TF.GenerationSoftware,Altium Limited,Altium Designer,24.4.1 (13)*
G04*
G04 Layer_Color=2752767*
%FSLAX44Y44*%
%MOMM*%
G71*
G04*
G04 #@! TF.SameCoordinates,45E14481-76E1-4DB2-85C8-7C621F4D321E*
G04*
G04*
G04 #@! TF.FilePolarity,Positive*
G04*
G01*
G75*
%ADD19C,0.1270*%
%ADD151C,0.1693*%
%ADD152C,0.1016*%
D19*
X957580Y789940D02*
X962660Y795020D01*
X967740Y789940D01*
X962660Y784860D01*
X957580Y789940D01*
Y764540D02*
X962660Y769620D01*
X967740Y764540D01*
X962660Y759460D01*
X957580Y764540D01*
X530860Y721360D02*
X535940Y726440D01*
X541020Y721360D01*
X535940Y716280D01*
X530860Y721360D01*
X556260D02*
X561340Y726440D01*
X566420Y721360D01*
X561340Y716280D01*
X556260Y721360D01*
X695960Y932180D02*
X701040Y937260D01*
X706120Y932180D01*
X701040Y927100D01*
X695960Y932180D01*
Y906780D02*
X701040Y911860D01*
X706120Y906780D01*
X701040Y901700D01*
X695960Y906780D01*
Y881380D02*
X701040Y886460D01*
X706120Y881380D01*
X701040Y876300D01*
X695960Y881380D01*
Y855980D02*
X701040Y861060D01*
X706120Y855980D01*
X701040Y850900D01*
X695960Y855980D01*
X972820Y1148260D02*
X967740Y1158420D01*
X977900D01*
X972820Y1148260D01*
Y1064260D02*
X967740Y1074420D01*
X977900D01*
X972820Y1064260D01*
X942820Y1084010D02*
X945360Y1086550D01*
X947900D01*
X945360Y1089090D01*
X947900Y1091630D01*
X945360D01*
X942820Y1094170D01*
X940280Y1091630D01*
X937740D01*
X940280Y1089090D01*
X937740Y1086550D01*
X940280D01*
X942820Y1084010D01*
Y1128510D02*
X945360Y1131050D01*
X947900D01*
X945360Y1133590D01*
X947900Y1136130D01*
X945360D01*
X942820Y1138670D01*
X940280Y1136130D01*
X937740D01*
X940280Y1133590D01*
X937740Y1131050D01*
X940280D01*
X942820Y1128510D01*
X1186160Y345410D02*
X1188700D01*
X1191240Y347950D01*
X1193780Y345410D01*
X1196320D01*
Y347950D01*
X1193780Y350490D01*
X1196320Y353030D01*
Y355570D01*
X1193780D01*
X1191240Y353030D01*
X1188700Y355570D01*
X1186160D01*
Y353030D01*
X1188700Y350490D01*
X1186160Y347950D01*
Y345410D01*
Y500410D02*
X1188700D01*
X1191240Y502950D01*
X1193780Y500410D01*
X1196320D01*
Y502950D01*
X1193780Y505490D01*
X1196320Y508030D01*
Y510570D01*
X1193780D01*
X1191240Y508030D01*
X1188700Y510570D01*
X1186160D01*
Y508030D01*
X1188700Y505490D01*
X1186160Y502950D01*
Y500410D01*
X1143000Y368300D02*
Y365760D01*
X1148080D01*
Y368300D01*
X1150620D01*
Y373380D01*
X1148080D01*
Y375920D01*
X1143000D01*
Y373380D01*
X1140460D01*
Y368300D01*
X1143000D01*
Y482600D02*
Y480060D01*
X1148080D01*
Y482600D01*
X1150620D01*
Y487680D01*
X1148080D01*
Y490220D01*
X1143000D01*
Y487680D01*
X1140460D01*
Y482600D01*
X1143000D01*
X1076960Y429260D02*
X1079500Y434340D01*
X1076960Y439420D01*
X1082040Y436880D01*
X1087120Y439420D01*
X1084580Y434340D01*
X1087120Y429260D01*
X1082040Y431800D01*
X1076960Y429260D01*
X1051560Y391160D02*
X1054100Y396240D01*
X1051560Y401320D01*
X1056640Y398780D01*
X1061720Y401320D01*
X1059180Y396240D01*
X1061720Y391160D01*
X1056640Y393700D01*
X1051560Y391160D01*
Y467360D02*
X1054100Y472440D01*
X1051560Y477520D01*
X1056640Y474980D01*
X1061720Y477520D01*
X1059180Y472440D01*
X1061720Y467360D01*
X1056640Y469900D01*
X1051560Y467360D01*
Y416560D02*
X1054100Y421640D01*
X1051560Y426720D01*
X1056640Y424180D01*
X1061720Y426720D01*
X1059180Y421640D01*
X1061720Y416560D01*
X1056640Y419100D01*
X1051560Y416560D01*
Y441960D02*
X1054100Y447040D01*
X1051560Y452120D01*
X1056640Y449580D01*
X1061720Y452120D01*
X1059180Y447040D01*
X1061720Y441960D01*
X1056640Y444500D01*
X1051560Y441960D01*
X1076960Y403860D02*
X1079500Y408940D01*
X1076960Y414020D01*
X1082040Y411480D01*
X1087120Y414020D01*
X1084580Y408940D01*
X1087120Y403860D01*
X1082040Y406400D01*
X1076960Y403860D01*
Y454660D02*
X1079500Y459740D01*
X1076960Y464820D01*
X1082040Y462280D01*
X1087120Y464820D01*
X1084580Y459740D01*
X1087120Y454660D01*
X1082040Y457200D01*
X1076960Y454660D01*
Y378460D02*
X1079500Y383540D01*
X1076960Y388620D01*
X1082040Y386080D01*
X1087120Y388620D01*
X1084580Y383540D01*
X1087120Y378460D01*
X1082040Y381000D01*
X1076960Y378460D01*
X1143020Y558770D02*
Y556230D01*
X1148100D01*
Y558770D01*
X1150640D01*
Y563850D01*
X1148100D01*
Y566390D01*
X1143020D01*
Y563850D01*
X1140480D01*
Y558770D01*
X1143020D01*
Y673070D02*
Y670530D01*
X1148100D01*
Y673070D01*
X1150640D01*
Y678150D01*
X1148100D01*
Y680690D01*
X1143020D01*
Y678150D01*
X1140480D01*
Y673070D01*
X1143020D01*
X1076980Y619730D02*
X1079520Y624810D01*
X1076980Y629890D01*
X1082060Y627350D01*
X1087140Y629890D01*
X1084600Y624810D01*
X1087140Y619730D01*
X1082060Y622270D01*
X1076980Y619730D01*
X1051580Y581630D02*
X1054120Y586710D01*
X1051580Y591790D01*
X1056660Y589250D01*
X1061740Y591790D01*
X1059200Y586710D01*
X1061740Y581630D01*
X1056660Y584170D01*
X1051580Y581630D01*
Y657830D02*
X1054120Y662910D01*
X1051580Y667990D01*
X1056660Y665450D01*
X1061740Y667990D01*
X1059200Y662910D01*
X1061740Y657830D01*
X1056660Y660370D01*
X1051580Y657830D01*
X1186180Y535880D02*
X1188720D01*
X1191260Y538420D01*
X1193800Y535880D01*
X1196340D01*
Y538420D01*
X1193800Y540960D01*
X1196340Y543500D01*
Y546040D01*
X1193800D01*
X1191260Y543500D01*
X1188720Y546040D01*
X1186180D01*
Y543500D01*
X1188720Y540960D01*
X1186180Y538420D01*
Y535880D01*
Y690880D02*
X1188720D01*
X1191260Y693420D01*
X1193800Y690880D01*
X1196340D01*
Y693420D01*
X1193800Y695960D01*
X1196340Y698500D01*
Y701040D01*
X1193800D01*
X1191260Y698500D01*
X1188720Y701040D01*
X1186180D01*
Y698500D01*
X1188720Y695960D01*
X1186180Y693420D01*
Y690880D01*
X1051580Y607030D02*
X1054120Y612110D01*
X1051580Y617190D01*
X1056660Y614650D01*
X1061740Y617190D01*
X1059200Y612110D01*
X1061740Y607030D01*
X1056660Y609570D01*
X1051580Y607030D01*
Y632430D02*
X1054120Y637510D01*
X1051580Y642590D01*
X1056660Y640050D01*
X1061740Y642590D01*
X1059200Y637510D01*
X1061740Y632430D01*
X1056660Y634970D01*
X1051580Y632430D01*
X1076980Y594330D02*
X1079520Y599410D01*
X1076980Y604490D01*
X1082060Y601950D01*
X1087140Y604490D01*
X1084600Y599410D01*
X1087140Y594330D01*
X1082060Y596870D01*
X1076980Y594330D01*
Y645130D02*
X1079520Y650210D01*
X1076980Y655290D01*
X1082060Y652750D01*
X1087140Y655290D01*
X1084600Y650210D01*
X1087140Y645130D01*
X1082060Y647670D01*
X1076980Y645130D01*
Y568930D02*
X1079520Y574010D01*
X1076980Y579090D01*
X1082060Y576550D01*
X1087140Y579090D01*
X1084600Y574010D01*
X1087140Y568930D01*
X1082060Y571470D01*
X1076980Y568930D01*
X121950Y111740D02*
Y109200D01*
X127030D01*
Y111740D01*
X129570D01*
Y116820D01*
X127030D01*
Y119360D01*
X121950D01*
Y116820D01*
X119410D01*
Y111740D01*
X121950D01*
X236250D02*
Y109200D01*
X241330D01*
Y111740D01*
X243870D01*
Y116820D01*
X241330D01*
Y119360D01*
X236250D01*
Y116820D01*
X233710D01*
Y111740D01*
X236250D01*
X182910Y172700D02*
X185450Y177780D01*
X182910Y182860D01*
X187990Y180320D01*
X193070Y182860D01*
X190530Y177780D01*
X193070Y172700D01*
X187990Y175240D01*
X182910Y172700D01*
X144810Y198100D02*
X147350Y203180D01*
X144810Y208260D01*
X149890Y205720D01*
X154970Y208260D01*
X152430Y203180D01*
X154970Y198100D01*
X149890Y200640D01*
X144810Y198100D01*
X221010D02*
X223550Y203180D01*
X221010Y208260D01*
X226090Y205720D01*
X231170Y208260D01*
X228630Y203180D01*
X231170Y198100D01*
X226090Y200640D01*
X221010Y198100D01*
X99060Y63500D02*
X101600D01*
X104140Y66040D01*
X106680Y63500D01*
X109220D01*
Y66040D01*
X106680Y68580D01*
X109220Y71120D01*
Y73660D01*
X106680D01*
X104140Y71120D01*
X101600Y73660D01*
X99060D01*
Y71120D01*
X101600Y68580D01*
X99060Y66040D01*
Y63500D01*
X254060D02*
X256600D01*
X259140Y66040D01*
X261680Y63500D01*
X264220D01*
Y66040D01*
X261680Y68580D01*
X264220Y71120D01*
Y73660D01*
X261680D01*
X259140Y71120D01*
X256600Y73660D01*
X254060D01*
Y71120D01*
X256600Y68580D01*
X254060Y66040D01*
Y63500D01*
X170210Y198100D02*
X172750Y203180D01*
X170210Y208260D01*
X175290Y205720D01*
X180370Y208260D01*
X177830Y203180D01*
X180370Y198100D01*
X175290Y200640D01*
X170210Y198100D01*
X195610D02*
X198150Y203180D01*
X195610Y208260D01*
X200690Y205720D01*
X205770Y208260D01*
X203230Y203180D01*
X205770Y198100D01*
X200690Y200640D01*
X195610Y198100D01*
X157510Y172700D02*
X160050Y177780D01*
X157510Y182860D01*
X162590Y180320D01*
X167670Y182860D01*
X165130Y177780D01*
X167670Y172700D01*
X162590Y175240D01*
X157510Y172700D01*
X208310D02*
X210850Y177780D01*
X208310Y182860D01*
X213390Y180320D01*
X218470Y182860D01*
X215930Y177780D01*
X218470Y172700D01*
X213390Y175240D01*
X208310Y172700D01*
X132110D02*
X134650Y177780D01*
X132110Y182860D01*
X137190Y180320D01*
X142270Y182860D01*
X139730Y177780D01*
X142270Y172700D01*
X137190Y175240D01*
X132110Y172700D01*
X170180Y340360D02*
X175260Y345440D01*
X180340Y340360D01*
X175260Y335280D01*
X170180Y340360D01*
Y365760D02*
X175260Y370840D01*
X180340Y365760D01*
X175260Y360680D01*
X170180Y365760D01*
Y391160D02*
X175260Y396240D01*
X180340Y391160D01*
X175260Y386080D01*
X170180Y391160D01*
Y416560D02*
X175260Y421640D01*
X180340Y416560D01*
X175260Y411480D01*
X170180Y416560D01*
X1092230Y172700D02*
X1094770Y177780D01*
X1092230Y182860D01*
X1097310Y180320D01*
X1102390Y182860D01*
X1099850Y177780D01*
X1102390Y172700D01*
X1097310Y175240D01*
X1092230Y172700D01*
X1168430D02*
X1170970Y177780D01*
X1168430Y182860D01*
X1173510Y180320D01*
X1178590Y182860D01*
X1176050Y177780D01*
X1178590Y172700D01*
X1173510Y175240D01*
X1168430Y172700D01*
X1117630D02*
X1120170Y177780D01*
X1117630Y182860D01*
X1122710Y180320D01*
X1127790Y182860D01*
X1125250Y177780D01*
X1127790Y172700D01*
X1122710Y175240D01*
X1117630Y172700D01*
X1155730Y198100D02*
X1158270Y203180D01*
X1155730Y208260D01*
X1160810Y205720D01*
X1165890Y208260D01*
X1163350Y203180D01*
X1165890Y198100D01*
X1160810Y200640D01*
X1155730Y198100D01*
X1130330D02*
X1132870Y203180D01*
X1130330Y208260D01*
X1135410Y205720D01*
X1140490Y208260D01*
X1137950Y203180D01*
X1140490Y198100D01*
X1135410Y200640D01*
X1130330Y198100D01*
X1214180Y63500D02*
X1216720D01*
X1219260Y66040D01*
X1221800Y63500D01*
X1224340D01*
Y66040D01*
X1221800Y68580D01*
X1224340Y71120D01*
Y73660D01*
X1221800D01*
X1219260Y71120D01*
X1216720Y73660D01*
X1214180D01*
Y71120D01*
X1216720Y68580D01*
X1214180Y66040D01*
Y63500D01*
X1059180D02*
X1061720D01*
X1064260Y66040D01*
X1066800Y63500D01*
X1069340D01*
Y66040D01*
X1066800Y68580D01*
X1069340Y71120D01*
Y73660D01*
X1066800D01*
X1064260Y71120D01*
X1061720Y73660D01*
X1059180D01*
Y71120D01*
X1061720Y68580D01*
X1059180Y66040D01*
Y63500D01*
X901730Y172700D02*
X904270Y177780D01*
X901730Y182860D01*
X906810Y180320D01*
X911890Y182860D01*
X909350Y177780D01*
X911890Y172700D01*
X906810Y175240D01*
X901730Y172700D01*
X977930D02*
X980470Y177780D01*
X977930Y182860D01*
X983010Y180320D01*
X988090Y182860D01*
X985550Y177780D01*
X988090Y172700D01*
X983010Y175240D01*
X977930Y172700D01*
X927130D02*
X929670Y177780D01*
X927130Y182860D01*
X932210Y180320D01*
X937290Y182860D01*
X934750Y177780D01*
X937290Y172700D01*
X932210Y175240D01*
X927130Y172700D01*
X965230Y198100D02*
X967770Y203180D01*
X965230Y208260D01*
X970310Y205720D01*
X975390Y208260D01*
X972850Y203180D01*
X975390Y198100D01*
X970310Y200640D01*
X965230Y198100D01*
X939830D02*
X942370Y203180D01*
X939830Y208260D01*
X944910Y205720D01*
X949990Y208260D01*
X947450Y203180D01*
X949990Y198100D01*
X944910Y200640D01*
X939830Y198100D01*
X1023680Y63500D02*
X1026220D01*
X1028760Y66040D01*
X1031300Y63500D01*
X1033840D01*
Y66040D01*
X1031300Y68580D01*
X1033840Y71120D01*
Y73660D01*
X1031300D01*
X1028760Y71120D01*
X1026220Y73660D01*
X1023680D01*
Y71120D01*
X1026220Y68580D01*
X1023680Y66040D01*
Y63500D01*
X868680D02*
X871220D01*
X873760Y66040D01*
X876300Y63500D01*
X878840D01*
Y66040D01*
X876300Y68580D01*
X878840Y71120D01*
Y73660D01*
X876300D01*
X873760Y71120D01*
X871220Y73660D01*
X868680D01*
Y71120D01*
X871220Y68580D01*
X868680Y66040D01*
Y63500D01*
X708660Y172720D02*
X711200Y177800D01*
X708660Y182880D01*
X713740Y180340D01*
X718820Y182880D01*
X716280Y177800D01*
X718820Y172720D01*
X713740Y175260D01*
X708660Y172720D01*
X784860D02*
X787400Y177800D01*
X784860Y182880D01*
X789940Y180340D01*
X795020Y182880D01*
X792480Y177800D01*
X795020Y172720D01*
X789940Y175260D01*
X784860Y172720D01*
X734060D02*
X736600Y177800D01*
X734060Y182880D01*
X739140Y180340D01*
X744220Y182880D01*
X741680Y177800D01*
X744220Y172720D01*
X739140Y175260D01*
X734060Y172720D01*
X772160Y198120D02*
X774700Y203200D01*
X772160Y208280D01*
X777240Y205740D01*
X782320Y208280D01*
X779780Y203200D01*
X782320Y198120D01*
X777240Y200660D01*
X772160Y198120D01*
X746760D02*
X749300Y203200D01*
X746760Y208280D01*
X751840Y205740D01*
X756920Y208280D01*
X754380Y203200D01*
X756920Y198120D01*
X751840Y200660D01*
X746760Y198120D01*
X830610Y63520D02*
X833150D01*
X835690Y66060D01*
X838230Y63520D01*
X840770D01*
Y66060D01*
X838230Y68600D01*
X840770Y71140D01*
Y73680D01*
X838230D01*
X835690Y71140D01*
X833150Y73680D01*
X830610D01*
Y71140D01*
X833150Y68600D01*
X830610Y66060D01*
Y63520D01*
X675610D02*
X678150D01*
X680690Y66060D01*
X683230Y63520D01*
X685770D01*
Y66060D01*
X683230Y68600D01*
X685770Y71140D01*
Y73680D01*
X683230D01*
X680690Y71140D01*
X678150Y73680D01*
X675610D01*
Y71140D01*
X678150Y68600D01*
X675610Y66060D01*
Y63520D01*
X515650Y172700D02*
X518190Y177780D01*
X515650Y182860D01*
X520730Y180320D01*
X525810Y182860D01*
X523270Y177780D01*
X525810Y172700D01*
X520730Y175240D01*
X515650Y172700D01*
X591850D02*
X594390Y177780D01*
X591850Y182860D01*
X596930Y180320D01*
X602010Y182860D01*
X599470Y177780D01*
X602010Y172700D01*
X596930Y175240D01*
X591850Y172700D01*
X541050D02*
X543590Y177780D01*
X541050Y182860D01*
X546130Y180320D01*
X551210Y182860D01*
X548670Y177780D01*
X551210Y172700D01*
X546130Y175240D01*
X541050Y172700D01*
X579150Y198100D02*
X581690Y203180D01*
X579150Y208260D01*
X584230Y205720D01*
X589310Y208260D01*
X586770Y203180D01*
X589310Y198100D01*
X584230Y200640D01*
X579150Y198100D01*
X553750D02*
X556290Y203180D01*
X553750Y208260D01*
X558830Y205720D01*
X563910Y208260D01*
X561370Y203180D01*
X563910Y198100D01*
X558830Y200640D01*
X553750Y198100D01*
X637600Y63500D02*
X640140D01*
X642680Y66040D01*
X645220Y63500D01*
X647760D01*
Y66040D01*
X645220Y68580D01*
X647760Y71120D01*
Y73660D01*
X645220D01*
X642680Y71120D01*
X640140Y73660D01*
X637600D01*
Y71120D01*
X640140Y68580D01*
X637600Y66040D01*
Y63500D01*
X482600D02*
X485140D01*
X487680Y66040D01*
X490220Y63500D01*
X492760D01*
Y66040D01*
X490220Y68580D01*
X492760Y71120D01*
Y73660D01*
X490220D01*
X487680Y71120D01*
X485140Y73660D01*
X482600D01*
Y71120D01*
X485140Y68580D01*
X482600Y66040D01*
Y63500D01*
X322580Y172720D02*
X325120Y177800D01*
X322580Y182880D01*
X327660Y180340D01*
X332740Y182880D01*
X330200Y177800D01*
X332740Y172720D01*
X327660Y175260D01*
X322580Y172720D01*
X398780D02*
X401320Y177800D01*
X398780Y182880D01*
X403860Y180340D01*
X408940Y182880D01*
X406400Y177800D01*
X408940Y172720D01*
X403860Y175260D01*
X398780Y172720D01*
X347980D02*
X350520Y177800D01*
X347980Y182880D01*
X353060Y180340D01*
X358140Y182880D01*
X355600Y177800D01*
X358140Y172720D01*
X353060Y175260D01*
X347980Y172720D01*
X386080Y198120D02*
X388620Y203200D01*
X386080Y208280D01*
X391160Y205740D01*
X396240Y208280D01*
X393700Y203200D01*
X396240Y198120D01*
X391160Y200660D01*
X386080Y198120D01*
X360680D02*
X363220Y203200D01*
X360680Y208280D01*
X365760Y205740D01*
X370840Y208280D01*
X368300Y203200D01*
X370840Y198120D01*
X365760Y200660D01*
X360680Y198120D01*
X444530Y63520D02*
X447070D01*
X449610Y66060D01*
X452150Y63520D01*
X454690D01*
Y66060D01*
X452150Y68600D01*
X454690Y71140D01*
Y73680D01*
X452150D01*
X449610Y71140D01*
X447070Y73680D01*
X444530D01*
Y71140D01*
X447070Y68600D01*
X444530Y66060D01*
Y63520D01*
X289530D02*
X292070D01*
X294610Y66060D01*
X297150Y63520D01*
X299690D01*
Y66060D01*
X297150Y68600D01*
X299690Y71140D01*
Y73680D01*
X297150D01*
X294610Y71140D01*
X292070Y73680D01*
X289530D01*
Y71140D01*
X292070Y68600D01*
X289530Y66060D01*
Y63520D01*
X149860Y469900D02*
X154940Y474980D01*
X160020Y469900D01*
X154940Y464820D01*
X149860Y469900D01*
X673100Y467360D02*
X678180Y472440D01*
X683260Y467360D01*
X678180Y462280D01*
X673100Y467360D01*
X391160Y464820D02*
X396240Y469900D01*
X401320Y464820D01*
X396240Y459740D01*
X391160Y464820D01*
X858520Y546100D02*
X863600Y551180D01*
X868680Y546100D01*
X863600Y541020D01*
X858520Y546100D01*
X576580Y538480D02*
X581660Y543560D01*
X586740Y538480D01*
X581660Y533400D01*
X576580Y538480D01*
X337820Y548640D02*
X342900Y553720D01*
X347980Y548640D01*
X342900Y543560D01*
X337820Y548640D01*
X858520Y520700D02*
X863600Y525780D01*
X868680Y520700D01*
X863600Y515620D01*
X858520Y520700D01*
X416560Y464820D02*
X421640Y469900D01*
X426720Y464820D01*
X421640Y459740D01*
X416560Y464820D01*
X698500Y467360D02*
X703580Y472440D01*
X708660Y467360D01*
X703580Y462280D01*
X698500Y467360D01*
X576580Y513080D02*
X581660Y518160D01*
X586740Y513080D01*
X581660Y508000D01*
X576580Y513080D01*
X175260Y469900D02*
X180340Y474980D01*
X185420Y469900D01*
X180340Y464820D01*
X175260Y469900D01*
X337820Y523240D02*
X342900Y528320D01*
X347980Y523240D01*
X342900Y518160D01*
X337820Y523240D01*
X431800Y833120D02*
X436880Y838200D01*
X441960Y833120D01*
X436880Y828040D01*
X431800Y833120D01*
X457200D02*
X462280Y838200D01*
X467360Y833120D01*
X462280Y828040D01*
X457200Y833120D01*
X482600D02*
X487680Y838200D01*
X492760Y833120D01*
X487680Y828040D01*
X482600Y833120D01*
X508000D02*
X513080Y838200D01*
X518160Y833120D01*
X513080Y828040D01*
X508000Y833120D01*
X889030Y1656060D02*
X891570D01*
X894110Y1658600D01*
X896650Y1656060D01*
X899190D01*
Y1658600D01*
X896650Y1661140D01*
X899190Y1663680D01*
Y1666220D01*
X896650D01*
X894110Y1663680D01*
X891570Y1666220D01*
X889030D01*
Y1663680D01*
X891570Y1661140D01*
X889030Y1658600D01*
Y1656060D01*
X734030D02*
X736570D01*
X739110Y1658600D01*
X741650Y1656060D01*
X744190D01*
Y1658600D01*
X741650Y1661140D01*
X744190Y1663680D01*
Y1666220D01*
X741650D01*
X739110Y1663680D01*
X736570Y1666220D01*
X734030D01*
Y1663680D01*
X736570Y1661140D01*
X734030Y1658600D01*
Y1656060D01*
X871220Y1612900D02*
Y1610360D01*
X876300D01*
Y1612900D01*
X878840D01*
Y1617980D01*
X876300D01*
Y1620520D01*
X871220D01*
Y1617980D01*
X868680D01*
Y1612900D01*
X871220D01*
X756920D02*
Y1610360D01*
X762000D01*
Y1612900D01*
X764540D01*
Y1617980D01*
X762000D01*
Y1620520D01*
X756920D01*
Y1617980D01*
X754380D01*
Y1612900D01*
X756920D01*
X805180Y1546860D02*
X807720Y1551940D01*
X805180Y1557020D01*
X810260Y1554480D01*
X815340Y1557020D01*
X812800Y1551940D01*
X815340Y1546860D01*
X810260Y1549400D01*
X805180Y1546860D01*
X817880Y1521460D02*
X820420Y1526540D01*
X817880Y1531620D01*
X822960Y1529080D01*
X828040Y1531620D01*
X825500Y1526540D01*
X828040Y1521460D01*
X822960Y1524000D01*
X817880Y1521460D01*
X792480D02*
X795020Y1526540D01*
X792480Y1531620D01*
X797560Y1529080D01*
X802640Y1531620D01*
X800100Y1526540D01*
X802640Y1521460D01*
X797560Y1524000D01*
X792480Y1521460D01*
X830580Y1546860D02*
X833120Y1551940D01*
X830580Y1557020D01*
X835660Y1554480D01*
X840740Y1557020D01*
X838200Y1551940D01*
X840740Y1546860D01*
X835660Y1549400D01*
X830580Y1546860D01*
X779780D02*
X782320Y1551940D01*
X779780Y1557020D01*
X784860Y1554480D01*
X789940Y1557020D01*
X787400Y1551940D01*
X789940Y1546860D01*
X784860Y1549400D01*
X779780Y1546860D01*
X843280Y1521460D02*
X845820Y1526540D01*
X843280Y1531620D01*
X848360Y1529080D01*
X853440Y1531620D01*
X850900Y1526540D01*
X853440Y1521460D01*
X848360Y1524000D01*
X843280Y1521460D01*
X767080D02*
X769620Y1526540D01*
X767080Y1531620D01*
X772160Y1529080D01*
X777240Y1531620D01*
X774700Y1526540D01*
X777240Y1521460D01*
X772160Y1524000D01*
X767080Y1521460D01*
X855980Y1546860D02*
X858520Y1551940D01*
X855980Y1557020D01*
X861060Y1554480D01*
X866140Y1557020D01*
X863600Y1551940D01*
X866140Y1546860D01*
X861060Y1549400D01*
X855980Y1546860D01*
X372350Y1629260D02*
Y1639420D01*
X382510D01*
Y1629260D01*
X372350D01*
X1181130Y198100D02*
X1183670Y203180D01*
X1181130Y208260D01*
X1186210Y205720D01*
X1191290Y208260D01*
X1188750Y203180D01*
X1191290Y198100D01*
X1186210Y200640D01*
X1181130Y198100D01*
X1104930D02*
X1107470Y203180D01*
X1104930Y208260D01*
X1110010Y205720D01*
X1115090Y208260D01*
X1112550Y203180D01*
X1115090Y198100D01*
X1110010Y200640D01*
X1104930Y198100D01*
X1143030Y172700D02*
X1145570Y177780D01*
X1143030Y182860D01*
X1148110Y180320D01*
X1153190Y182860D01*
X1150650Y177780D01*
X1153190Y172700D01*
X1148110Y175240D01*
X1143030Y172700D01*
X1196370Y111740D02*
Y109200D01*
X1201450D01*
Y111740D01*
X1203990D01*
Y116820D01*
X1201450D01*
Y119360D01*
X1196370D01*
Y116820D01*
X1193830D01*
Y111740D01*
X1196370D01*
X1082070D02*
Y109200D01*
X1087150D01*
Y111740D01*
X1089690D01*
Y116820D01*
X1087150D01*
Y119360D01*
X1082070D01*
Y116820D01*
X1079530D01*
Y111740D01*
X1082070D01*
X990630Y198100D02*
X993170Y203180D01*
X990630Y208260D01*
X995710Y205720D01*
X1000790Y208260D01*
X998250Y203180D01*
X1000790Y198100D01*
X995710Y200640D01*
X990630Y198100D01*
X914430D02*
X916970Y203180D01*
X914430Y208260D01*
X919510Y205720D01*
X924590Y208260D01*
X922050Y203180D01*
X924590Y198100D01*
X919510Y200640D01*
X914430Y198100D01*
X952530Y172700D02*
X955070Y177780D01*
X952530Y182860D01*
X957610Y180320D01*
X962690Y182860D01*
X960150Y177780D01*
X962690Y172700D01*
X957610Y175240D01*
X952530Y172700D01*
X1005870Y111740D02*
Y109200D01*
X1010950D01*
Y111740D01*
X1013490D01*
Y116820D01*
X1010950D01*
Y119360D01*
X1005870D01*
Y116820D01*
X1003330D01*
Y111740D01*
X1005870D01*
X891570D02*
Y109200D01*
X896650D01*
Y111740D01*
X899190D01*
Y116820D01*
X896650D01*
Y119360D01*
X891570D01*
Y116820D01*
X889030D01*
Y111740D01*
X891570D01*
X797560Y198120D02*
X800100Y203200D01*
X797560Y208280D01*
X802640Y205740D01*
X807720Y208280D01*
X805180Y203200D01*
X807720Y198120D01*
X802640Y200660D01*
X797560Y198120D01*
X721360D02*
X723900Y203200D01*
X721360Y208280D01*
X726440Y205740D01*
X731520Y208280D01*
X728980Y203200D01*
X731520Y198120D01*
X726440Y200660D01*
X721360Y198120D01*
X759460Y172720D02*
X762000Y177800D01*
X759460Y182880D01*
X764540Y180340D01*
X769620Y182880D01*
X767080Y177800D01*
X769620Y172720D01*
X764540Y175260D01*
X759460Y172720D01*
X812800Y111760D02*
Y109220D01*
X817880D01*
Y111760D01*
X820420D01*
Y116840D01*
X817880D01*
Y119380D01*
X812800D01*
Y116840D01*
X810260D01*
Y111760D01*
X812800D01*
X698500D02*
Y109220D01*
X703580D01*
Y111760D01*
X706120D01*
Y116840D01*
X703580D01*
Y119380D01*
X698500D01*
Y116840D01*
X695960D01*
Y111760D01*
X698500D01*
X604550Y198100D02*
X607090Y203180D01*
X604550Y208260D01*
X609630Y205720D01*
X614710Y208260D01*
X612170Y203180D01*
X614710Y198100D01*
X609630Y200640D01*
X604550Y198100D01*
X528350D02*
X530890Y203180D01*
X528350Y208260D01*
X533430Y205720D01*
X538510Y208260D01*
X535970Y203180D01*
X538510Y198100D01*
X533430Y200640D01*
X528350Y198100D01*
X566450Y172700D02*
X568990Y177780D01*
X566450Y182860D01*
X571530Y180320D01*
X576610Y182860D01*
X574070Y177780D01*
X576610Y172700D01*
X571530Y175240D01*
X566450Y172700D01*
X619790Y111740D02*
Y109200D01*
X624870D01*
Y111740D01*
X627410D01*
Y116820D01*
X624870D01*
Y119360D01*
X619790D01*
Y116820D01*
X617250D01*
Y111740D01*
X619790D01*
X505490D02*
Y109200D01*
X510570D01*
Y111740D01*
X513110D01*
Y116820D01*
X510570D01*
Y119360D01*
X505490D01*
Y116820D01*
X502950D01*
Y111740D01*
X505490D01*
X411480Y198120D02*
X414020Y203200D01*
X411480Y208280D01*
X416560Y205740D01*
X421640Y208280D01*
X419100Y203200D01*
X421640Y198120D01*
X416560Y200660D01*
X411480Y198120D01*
X335280D02*
X337820Y203200D01*
X335280Y208280D01*
X340360Y205740D01*
X345440Y208280D01*
X342900Y203200D01*
X345440Y198120D01*
X340360Y200660D01*
X335280Y198120D01*
X373380Y172720D02*
X375920Y177800D01*
X373380Y182880D01*
X378460Y180340D01*
X383540Y182880D01*
X381000Y177800D01*
X383540Y172720D01*
X378460Y175260D01*
X373380Y172720D01*
X426720Y111760D02*
Y109220D01*
X431800D01*
Y111760D01*
X434340D01*
Y116840D01*
X431800D01*
Y119380D01*
X426720D01*
Y116840D01*
X424180D01*
Y111760D01*
X426720D01*
X312420D02*
Y109220D01*
X317500D01*
Y111760D01*
X320040D01*
Y116840D01*
X317500D01*
Y119380D01*
X312420D01*
Y116840D01*
X309880D01*
Y111760D01*
X312420D01*
X181850Y1629260D02*
Y1639420D01*
X192010D01*
Y1629260D01*
X181850D01*
X179214Y1128999D02*
Y1139159D01*
X189374D01*
Y1128999D01*
X179214D01*
X181246Y1131031D02*
Y1137127D01*
X187342D01*
Y1131031D01*
X181246D01*
X242714Y1128999D02*
Y1139159D01*
X252874D01*
Y1128999D01*
X242714D01*
X244746Y1131031D02*
Y1137127D01*
X250842D01*
Y1131031D01*
X244746D01*
X254000Y1282700D02*
X248920Y1292860D01*
X259080D01*
X254000Y1282700D01*
Y1284732D02*
X250952Y1290828D01*
X257048D01*
X254000Y1284732D01*
X292100Y1287780D02*
X287020Y1297940D01*
X297180D01*
X292100Y1287780D01*
Y1289812D02*
X289052Y1295908D01*
X295148D01*
X292100Y1289812D01*
X368300Y619760D02*
X363220Y629920D01*
X373380D01*
X368300Y619760D01*
Y621792D02*
X365252Y627888D01*
X371348D01*
X368300Y621792D01*
X358140Y619760D02*
X353060Y629920D01*
X363220D01*
X358140Y619760D01*
Y621792D02*
X355092Y627888D01*
X361188D01*
X358140Y621792D01*
X1222180Y589260D02*
X1224720Y591800D01*
X1227260D01*
X1224720Y594340D01*
X1227260Y596880D01*
X1224720D01*
X1222180Y599420D01*
X1219640Y596880D01*
X1217100D01*
X1219640Y594340D01*
X1217100Y591800D01*
X1219640D01*
X1222180Y589260D01*
Y591292D02*
X1223704Y592816D01*
X1225228D01*
X1223704Y594340D01*
X1225228Y595864D01*
X1223704D01*
X1222180Y597388D01*
X1220656Y595864D01*
X1219132D01*
X1220656Y594340D01*
X1219132Y592816D01*
X1220656D01*
X1222180Y591292D01*
X1287180Y459260D02*
X1289720Y461800D01*
X1292260D01*
X1289720Y464340D01*
X1292260Y466880D01*
X1289720D01*
X1287180Y469420D01*
X1284640Y466880D01*
X1282100D01*
X1284640Y464340D01*
X1282100Y461800D01*
X1284640D01*
X1287180Y459260D01*
Y461292D02*
X1288704Y462816D01*
X1290228D01*
X1288704Y464340D01*
X1290228Y465864D01*
X1288704D01*
X1287180Y467388D01*
X1285656Y465864D01*
X1284132D01*
X1285656Y464340D01*
X1284132Y462816D01*
X1285656D01*
X1287180Y461292D01*
X1222180Y329260D02*
X1224720Y331800D01*
X1227260D01*
X1224720Y334340D01*
X1227260Y336880D01*
X1224720D01*
X1222180Y339420D01*
X1219640Y336880D01*
X1217100D01*
X1219640Y334340D01*
X1217100Y331800D01*
X1219640D01*
X1222180Y329260D01*
Y331292D02*
X1223704Y332816D01*
X1225228D01*
X1223704Y334340D01*
X1225228Y335864D01*
X1223704D01*
X1222180Y337388D01*
X1220656Y335864D01*
X1219132D01*
X1220656Y334340D01*
X1219132Y332816D01*
X1220656D01*
X1222180Y331292D01*
X1287180Y199260D02*
X1289720Y201800D01*
X1292260D01*
X1289720Y204340D01*
X1292260Y206880D01*
X1289720D01*
X1287180Y209420D01*
X1284640Y206880D01*
X1282100D01*
X1284640Y204340D01*
X1282100Y201800D01*
X1284640D01*
X1287180Y199260D01*
Y201292D02*
X1288704Y202816D01*
X1290228D01*
X1288704Y204340D01*
X1290228Y205864D01*
X1288704D01*
X1287180Y207388D01*
X1285656Y205864D01*
X1284132D01*
X1285656Y204340D01*
X1284132Y202816D01*
X1285656D01*
X1287180Y201292D01*
X1157180Y459260D02*
X1159720Y461800D01*
X1162260D01*
X1159720Y464340D01*
X1162260Y466880D01*
X1159720D01*
X1157180Y469420D01*
X1154640Y466880D01*
X1152100D01*
X1154640Y464340D01*
X1152100Y461800D01*
X1154640D01*
X1157180Y459260D01*
Y461292D02*
X1158704Y462816D01*
X1160228D01*
X1158704Y464340D01*
X1160228Y465864D01*
X1158704D01*
X1157180Y467388D01*
X1155656Y465864D01*
X1154132D01*
X1155656Y464340D01*
X1154132Y462816D01*
X1155656D01*
X1157180Y461292D01*
X1092180Y329260D02*
X1094720Y331800D01*
X1097260D01*
X1094720Y334340D01*
X1097260Y336880D01*
X1094720D01*
X1092180Y339420D01*
X1089640Y336880D01*
X1087100D01*
X1089640Y334340D01*
X1087100Y331800D01*
X1089640D01*
X1092180Y329260D01*
Y331292D02*
X1093704Y332816D01*
X1095228D01*
X1093704Y334340D01*
X1095228Y335864D01*
X1093704D01*
X1092180Y337388D01*
X1090656Y335864D01*
X1089132D01*
X1090656Y334340D01*
X1089132Y332816D01*
X1090656D01*
X1092180Y331292D01*
Y69260D02*
X1094720Y71800D01*
X1097260D01*
X1094720Y74340D01*
X1097260Y76880D01*
X1094720D01*
X1092180Y79420D01*
X1089640Y76880D01*
X1087100D01*
X1089640Y74340D01*
X1087100Y71800D01*
X1089640D01*
X1092180Y69260D01*
Y71292D02*
X1093704Y72816D01*
X1095228D01*
X1093704Y74340D01*
X1095228Y75864D01*
X1093704D01*
X1092180Y77388D01*
X1090656Y75864D01*
X1089132D01*
X1090656Y74340D01*
X1089132Y72816D01*
X1090656D01*
X1092180Y71292D01*
X962180Y1629260D02*
X964720Y1631800D01*
X967260D01*
X964720Y1634340D01*
X967260Y1636880D01*
X964720D01*
X962180Y1639420D01*
X959640Y1636880D01*
X957100D01*
X959640Y1634340D01*
X957100Y1631800D01*
X959640D01*
X962180Y1629260D01*
Y1631292D02*
X963704Y1632816D01*
X965228D01*
X963704Y1634340D01*
X965228Y1635864D01*
X963704D01*
X962180Y1637388D01*
X960656Y1635864D01*
X959132D01*
X960656Y1634340D01*
X959132Y1632816D01*
X960656D01*
X962180Y1631292D01*
Y1369260D02*
X964720Y1371800D01*
X967260D01*
X964720Y1374340D01*
X967260Y1376880D01*
X964720D01*
X962180Y1379420D01*
X959640Y1376880D01*
X957100D01*
X959640Y1374340D01*
X957100Y1371800D01*
X959640D01*
X962180Y1369260D01*
Y1371292D02*
X963704Y1372816D01*
X965228D01*
X963704Y1374340D01*
X965228Y1375864D01*
X963704D01*
X962180Y1377388D01*
X960656Y1375864D01*
X959132D01*
X960656Y1374340D01*
X959132Y1372816D01*
X960656D01*
X962180Y1371292D01*
Y849260D02*
X964720Y851800D01*
X967260D01*
X964720Y854340D01*
X967260Y856880D01*
X964720D01*
X962180Y859420D01*
X959640Y856880D01*
X957100D01*
X959640Y854340D01*
X957100Y851800D01*
X959640D01*
X962180Y849260D01*
Y851292D02*
X963704Y852816D01*
X965228D01*
X963704Y854340D01*
X965228Y855864D01*
X963704D01*
X962180Y857388D01*
X960656Y855864D01*
X959132D01*
X960656Y854340D01*
X959132Y852816D01*
X960656D01*
X962180Y851292D01*
X1027180Y199260D02*
X1029720Y201800D01*
X1032260D01*
X1029720Y204340D01*
X1032260Y206880D01*
X1029720D01*
X1027180Y209420D01*
X1024640Y206880D01*
X1022100D01*
X1024640Y204340D01*
X1022100Y201800D01*
X1024640D01*
X1027180Y199260D01*
Y201292D02*
X1028704Y202816D01*
X1030228D01*
X1028704Y204340D01*
X1030228Y205864D01*
X1028704D01*
X1027180Y207388D01*
X1025656Y205864D01*
X1024132D01*
X1025656Y204340D01*
X1024132Y202816D01*
X1025656D01*
X1027180Y201292D01*
X962180Y69260D02*
X964720Y71800D01*
X967260D01*
X964720Y74340D01*
X967260Y76880D01*
X964720D01*
X962180Y79420D01*
X959640Y76880D01*
X957100D01*
X959640Y74340D01*
X957100Y71800D01*
X959640D01*
X962180Y69260D01*
Y71292D02*
X963704Y72816D01*
X965228D01*
X963704Y74340D01*
X965228Y75864D01*
X963704D01*
X962180Y77388D01*
X960656Y75864D01*
X959132D01*
X960656Y74340D01*
X959132Y72816D01*
X960656D01*
X962180Y71292D01*
X832180Y1629260D02*
X834720Y1631800D01*
X837260D01*
X834720Y1634340D01*
X837260Y1636880D01*
X834720D01*
X832180Y1639420D01*
X829640Y1636880D01*
X827100D01*
X829640Y1634340D01*
X827100Y1631800D01*
X829640D01*
X832180Y1629260D01*
Y1631292D02*
X833704Y1632816D01*
X835228D01*
X833704Y1634340D01*
X835228Y1635864D01*
X833704D01*
X832180Y1637388D01*
X830656Y1635864D01*
X829132D01*
X830656Y1634340D01*
X829132Y1632816D01*
X830656D01*
X832180Y1631292D01*
X897180Y1499260D02*
X899720Y1501800D01*
X902260D01*
X899720Y1504340D01*
X902260Y1506880D01*
X899720D01*
X897180Y1509420D01*
X894640Y1506880D01*
X892100D01*
X894640Y1504340D01*
X892100Y1501800D01*
X894640D01*
X897180Y1499260D01*
Y1501292D02*
X898704Y1502816D01*
X900228D01*
X898704Y1504340D01*
X900228Y1505864D01*
X898704D01*
X897180Y1507388D01*
X895656Y1505864D01*
X894132D01*
X895656Y1504340D01*
X894132Y1502816D01*
X895656D01*
X897180Y1501292D01*
X832180Y1369260D02*
X834720Y1371800D01*
X837260D01*
X834720Y1374340D01*
X837260Y1376880D01*
X834720D01*
X832180Y1379420D01*
X829640Y1376880D01*
X827100D01*
X829640Y1374340D01*
X827100Y1371800D01*
X829640D01*
X832180Y1369260D01*
Y1371292D02*
X833704Y1372816D01*
X835228D01*
X833704Y1374340D01*
X835228Y1375864D01*
X833704D01*
X832180Y1377388D01*
X830656Y1375864D01*
X829132D01*
X830656Y1374340D01*
X829132Y1372816D01*
X830656D01*
X832180Y1371292D01*
X897180Y1239260D02*
X899720Y1241800D01*
X902260D01*
X899720Y1244340D01*
X902260Y1246880D01*
X899720D01*
X897180Y1249420D01*
X894640Y1246880D01*
X892100D01*
X894640Y1244340D01*
X892100Y1241800D01*
X894640D01*
X897180Y1239260D01*
Y1241292D02*
X898704Y1242816D01*
X900228D01*
X898704Y1244340D01*
X900228Y1245864D01*
X898704D01*
X897180Y1247388D01*
X895656Y1245864D01*
X894132D01*
X895656Y1244340D01*
X894132Y1242816D01*
X895656D01*
X897180Y1241292D01*
Y979260D02*
X899720Y981800D01*
X902260D01*
X899720Y984340D01*
X902260Y986880D01*
X899720D01*
X897180Y989420D01*
X894640Y986880D01*
X892100D01*
X894640Y984340D01*
X892100Y981800D01*
X894640D01*
X897180Y979260D01*
Y981292D02*
X898704Y982816D01*
X900228D01*
X898704Y984340D01*
X900228Y985864D01*
X898704D01*
X897180Y987388D01*
X895656Y985864D01*
X894132D01*
X895656Y984340D01*
X894132Y982816D01*
X895656D01*
X897180Y981292D01*
X832180Y849260D02*
X834720Y851800D01*
X837260D01*
X834720Y854340D01*
X837260Y856880D01*
X834720D01*
X832180Y859420D01*
X829640Y856880D01*
X827100D01*
X829640Y854340D01*
X827100Y851800D01*
X829640D01*
X832180Y849260D01*
Y851292D02*
X833704Y852816D01*
X835228D01*
X833704Y854340D01*
X835228Y855864D01*
X833704D01*
X832180Y857388D01*
X830656Y855864D01*
X829132D01*
X830656Y854340D01*
X829132Y852816D01*
X830656D01*
X832180Y851292D01*
Y589260D02*
X834720Y591800D01*
X837260D01*
X834720Y594340D01*
X837260Y596880D01*
X834720D01*
X832180Y599420D01*
X829640Y596880D01*
X827100D01*
X829640Y594340D01*
X827100Y591800D01*
X829640D01*
X832180Y589260D01*
Y591292D02*
X833704Y592816D01*
X835228D01*
X833704Y594340D01*
X835228Y595864D01*
X833704D01*
X832180Y597388D01*
X830656Y595864D01*
X829132D01*
X830656Y594340D01*
X829132Y592816D01*
X830656D01*
X832180Y591292D01*
X897180Y459260D02*
X899720Y461800D01*
X902260D01*
X899720Y464340D01*
X902260Y466880D01*
X899720D01*
X897180Y469420D01*
X894640Y466880D01*
X892100D01*
X894640Y464340D01*
X892100Y461800D01*
X894640D01*
X897180Y459260D01*
Y461292D02*
X898704Y462816D01*
X900228D01*
X898704Y464340D01*
X900228Y465864D01*
X898704D01*
X897180Y467388D01*
X895656Y465864D01*
X894132D01*
X895656Y464340D01*
X894132Y462816D01*
X895656D01*
X897180Y461292D01*
X832180Y329260D02*
X834720Y331800D01*
X837260D01*
X834720Y334340D01*
X837260Y336880D01*
X834720D01*
X832180Y339420D01*
X829640Y336880D01*
X827100D01*
X829640Y334340D01*
X827100Y331800D01*
X829640D01*
X832180Y329260D01*
Y331292D02*
X833704Y332816D01*
X835228D01*
X833704Y334340D01*
X835228Y335864D01*
X833704D01*
X832180Y337388D01*
X830656Y335864D01*
X829132D01*
X830656Y334340D01*
X829132Y332816D01*
X830656D01*
X832180Y331292D01*
X897180Y199260D02*
X899720Y201800D01*
X902260D01*
X899720Y204340D01*
X902260Y206880D01*
X899720D01*
X897180Y209420D01*
X894640Y206880D01*
X892100D01*
X894640Y204340D01*
X892100Y201800D01*
X894640D01*
X897180Y199260D01*
Y201292D02*
X898704Y202816D01*
X900228D01*
X898704Y204340D01*
X900228Y205864D01*
X898704D01*
X897180Y207388D01*
X895656Y205864D01*
X894132D01*
X895656Y204340D01*
X894132Y202816D01*
X895656D01*
X897180Y201292D01*
X702180Y1629260D02*
X704720Y1631800D01*
X707260D01*
X704720Y1634340D01*
X707260Y1636880D01*
X704720D01*
X702180Y1639420D01*
X699640Y1636880D01*
X697100D01*
X699640Y1634340D01*
X697100Y1631800D01*
X699640D01*
X702180Y1629260D01*
Y1631292D02*
X703704Y1632816D01*
X705228D01*
X703704Y1634340D01*
X705228Y1635864D01*
X703704D01*
X702180Y1637388D01*
X700656Y1635864D01*
X699132D01*
X700656Y1634340D01*
X699132Y1632816D01*
X700656D01*
X702180Y1631292D01*
X767180Y1499260D02*
X769720Y1501800D01*
X772260D01*
X769720Y1504340D01*
X772260Y1506880D01*
X769720D01*
X767180Y1509420D01*
X764640Y1506880D01*
X762100D01*
X764640Y1504340D01*
X762100Y1501800D01*
X764640D01*
X767180Y1499260D01*
Y1501292D02*
X768704Y1502816D01*
X770228D01*
X768704Y1504340D01*
X770228Y1505864D01*
X768704D01*
X767180Y1507388D01*
X765656Y1505864D01*
X764132D01*
X765656Y1504340D01*
X764132Y1502816D01*
X765656D01*
X767180Y1501292D01*
X702180Y1369260D02*
X704720Y1371800D01*
X707260D01*
X704720Y1374340D01*
X707260Y1376880D01*
X704720D01*
X702180Y1379420D01*
X699640Y1376880D01*
X697100D01*
X699640Y1374340D01*
X697100Y1371800D01*
X699640D01*
X702180Y1369260D01*
Y1371292D02*
X703704Y1372816D01*
X705228D01*
X703704Y1374340D01*
X705228Y1375864D01*
X703704D01*
X702180Y1377388D01*
X700656Y1375864D01*
X699132D01*
X700656Y1374340D01*
X699132Y1372816D01*
X700656D01*
X702180Y1371292D01*
X767180Y1239260D02*
X769720Y1241800D01*
X772260D01*
X769720Y1244340D01*
X772260Y1246880D01*
X769720D01*
X767180Y1249420D01*
X764640Y1246880D01*
X762100D01*
X764640Y1244340D01*
X762100Y1241800D01*
X764640D01*
X767180Y1239260D01*
Y1241292D02*
X768704Y1242816D01*
X770228D01*
X768704Y1244340D01*
X770228Y1245864D01*
X768704D01*
X767180Y1247388D01*
X765656Y1245864D01*
X764132D01*
X765656Y1244340D01*
X764132Y1242816D01*
X765656D01*
X767180Y1241292D01*
X702180Y1109260D02*
X704720Y1111800D01*
X707260D01*
X704720Y1114340D01*
X707260Y1116880D01*
X704720D01*
X702180Y1119420D01*
X699640Y1116880D01*
X697100D01*
X699640Y1114340D01*
X697100Y1111800D01*
X699640D01*
X702180Y1109260D01*
Y1111292D02*
X703704Y1112816D01*
X705228D01*
X703704Y1114340D01*
X705228Y1115864D01*
X703704D01*
X702180Y1117388D01*
X700656Y1115864D01*
X699132D01*
X700656Y1114340D01*
X699132Y1112816D01*
X700656D01*
X702180Y1111292D01*
X767180Y979260D02*
X769720Y981800D01*
X772260D01*
X769720Y984340D01*
X772260Y986880D01*
X769720D01*
X767180Y989420D01*
X764640Y986880D01*
X762100D01*
X764640Y984340D01*
X762100Y981800D01*
X764640D01*
X767180Y979260D01*
Y981292D02*
X768704Y982816D01*
X770228D01*
X768704Y984340D01*
X770228Y985864D01*
X768704D01*
X767180Y987388D01*
X765656Y985864D01*
X764132D01*
X765656Y984340D01*
X764132Y982816D01*
X765656D01*
X767180Y981292D01*
Y459260D02*
X769720Y461800D01*
X772260D01*
X769720Y464340D01*
X772260Y466880D01*
X769720D01*
X767180Y469420D01*
X764640Y466880D01*
X762100D01*
X764640Y464340D01*
X762100Y461800D01*
X764640D01*
X767180Y459260D01*
Y461292D02*
X768704Y462816D01*
X770228D01*
X768704Y464340D01*
X770228Y465864D01*
X768704D01*
X767180Y467388D01*
X765656Y465864D01*
X764132D01*
X765656Y464340D01*
X764132Y462816D01*
X765656D01*
X767180Y461292D01*
X702180Y329260D02*
X704720Y331800D01*
X707260D01*
X704720Y334340D01*
X707260Y336880D01*
X704720D01*
X702180Y339420D01*
X699640Y336880D01*
X697100D01*
X699640Y334340D01*
X697100Y331800D01*
X699640D01*
X702180Y329260D01*
Y331292D02*
X703704Y332816D01*
X705228D01*
X703704Y334340D01*
X705228Y335864D01*
X703704D01*
X702180Y337388D01*
X700656Y335864D01*
X699132D01*
X700656Y334340D01*
X699132Y332816D01*
X700656D01*
X702180Y331292D01*
Y69260D02*
X704720Y71800D01*
X707260D01*
X704720Y74340D01*
X707260Y76880D01*
X704720D01*
X702180Y79420D01*
X699640Y76880D01*
X697100D01*
X699640Y74340D01*
X697100Y71800D01*
X699640D01*
X702180Y69260D01*
Y71292D02*
X703704Y72816D01*
X705228D01*
X703704Y74340D01*
X705228Y75864D01*
X703704D01*
X702180Y77388D01*
X700656Y75864D01*
X699132D01*
X700656Y74340D01*
X699132Y72816D01*
X700656D01*
X702180Y71292D01*
X572180Y1629260D02*
X574720Y1631800D01*
X577260D01*
X574720Y1634340D01*
X577260Y1636880D01*
X574720D01*
X572180Y1639420D01*
X569640Y1636880D01*
X567100D01*
X569640Y1634340D01*
X567100Y1631800D01*
X569640D01*
X572180Y1629260D01*
Y1631292D02*
X573704Y1632816D01*
X575228D01*
X573704Y1634340D01*
X575228Y1635864D01*
X573704D01*
X572180Y1637388D01*
X570656Y1635864D01*
X569132D01*
X570656Y1634340D01*
X569132Y1632816D01*
X570656D01*
X572180Y1631292D01*
X637180Y1499260D02*
X639720Y1501800D01*
X642260D01*
X639720Y1504340D01*
X642260Y1506880D01*
X639720D01*
X637180Y1509420D01*
X634640Y1506880D01*
X632100D01*
X634640Y1504340D01*
X632100Y1501800D01*
X634640D01*
X637180Y1499260D01*
Y1501292D02*
X638704Y1502816D01*
X640228D01*
X638704Y1504340D01*
X640228Y1505864D01*
X638704D01*
X637180Y1507388D01*
X635656Y1505864D01*
X634132D01*
X635656Y1504340D01*
X634132Y1502816D01*
X635656D01*
X637180Y1501292D01*
X572180Y1369260D02*
X574720Y1371800D01*
X577260D01*
X574720Y1374340D01*
X577260Y1376880D01*
X574720D01*
X572180Y1379420D01*
X569640Y1376880D01*
X567100D01*
X569640Y1374340D01*
X567100Y1371800D01*
X569640D01*
X572180Y1369260D01*
Y1371292D02*
X573704Y1372816D01*
X575228D01*
X573704Y1374340D01*
X575228Y1375864D01*
X573704D01*
X572180Y1377388D01*
X570656Y1375864D01*
X569132D01*
X570656Y1374340D01*
X569132Y1372816D01*
X570656D01*
X572180Y1371292D01*
X637180Y1239260D02*
X639720Y1241800D01*
X642260D01*
X639720Y1244340D01*
X642260Y1246880D01*
X639720D01*
X637180Y1249420D01*
X634640Y1246880D01*
X632100D01*
X634640Y1244340D01*
X632100Y1241800D01*
X634640D01*
X637180Y1239260D01*
Y1241292D02*
X638704Y1242816D01*
X640228D01*
X638704Y1244340D01*
X640228Y1245864D01*
X638704D01*
X637180Y1247388D01*
X635656Y1245864D01*
X634132D01*
X635656Y1244340D01*
X634132Y1242816D01*
X635656D01*
X637180Y1241292D01*
X572180Y849260D02*
X574720Y851800D01*
X577260D01*
X574720Y854340D01*
X577260Y856880D01*
X574720D01*
X572180Y859420D01*
X569640Y856880D01*
X567100D01*
X569640Y854340D01*
X567100Y851800D01*
X569640D01*
X572180Y849260D01*
Y851292D02*
X573704Y852816D01*
X575228D01*
X573704Y854340D01*
X575228Y855864D01*
X573704D01*
X572180Y857388D01*
X570656Y855864D01*
X569132D01*
X570656Y854340D01*
X569132Y852816D01*
X570656D01*
X572180Y851292D01*
Y589260D02*
X574720Y591800D01*
X577260D01*
X574720Y594340D01*
X577260Y596880D01*
X574720D01*
X572180Y599420D01*
X569640Y596880D01*
X567100D01*
X569640Y594340D01*
X567100Y591800D01*
X569640D01*
X572180Y589260D01*
Y591292D02*
X573704Y592816D01*
X575228D01*
X573704Y594340D01*
X575228Y595864D01*
X573704D01*
X572180Y597388D01*
X570656Y595864D01*
X569132D01*
X570656Y594340D01*
X569132Y592816D01*
X570656D01*
X572180Y591292D01*
X637180Y459260D02*
X639720Y461800D01*
X642260D01*
X639720Y464340D01*
X642260Y466880D01*
X639720D01*
X637180Y469420D01*
X634640Y466880D01*
X632100D01*
X634640Y464340D01*
X632100Y461800D01*
X634640D01*
X637180Y459260D01*
Y461292D02*
X638704Y462816D01*
X640228D01*
X638704Y464340D01*
X640228Y465864D01*
X638704D01*
X637180Y467388D01*
X635656Y465864D01*
X634132D01*
X635656Y464340D01*
X634132Y462816D01*
X635656D01*
X637180Y461292D01*
X572180Y329260D02*
X574720Y331800D01*
X577260D01*
X574720Y334340D01*
X577260Y336880D01*
X574720D01*
X572180Y339420D01*
X569640Y336880D01*
X567100D01*
X569640Y334340D01*
X567100Y331800D01*
X569640D01*
X572180Y329260D01*
Y331292D02*
X573704Y332816D01*
X575228D01*
X573704Y334340D01*
X575228Y335864D01*
X573704D01*
X572180Y337388D01*
X570656Y335864D01*
X569132D01*
X570656Y334340D01*
X569132Y332816D01*
X570656D01*
X572180Y331292D01*
X637180Y199260D02*
X639720Y201800D01*
X642260D01*
X639720Y204340D01*
X642260Y206880D01*
X639720D01*
X637180Y209420D01*
X634640Y206880D01*
X632100D01*
X634640Y204340D01*
X632100Y201800D01*
X634640D01*
X637180Y199260D01*
Y201292D02*
X638704Y202816D01*
X640228D01*
X638704Y204340D01*
X640228Y205864D01*
X638704D01*
X637180Y207388D01*
X635656Y205864D01*
X634132D01*
X635656Y204340D01*
X634132Y202816D01*
X635656D01*
X637180Y201292D01*
X572180Y69260D02*
X574720Y71800D01*
X577260D01*
X574720Y74340D01*
X577260Y76880D01*
X574720D01*
X572180Y79420D01*
X569640Y76880D01*
X567100D01*
X569640Y74340D01*
X567100Y71800D01*
X569640D01*
X572180Y69260D01*
Y71292D02*
X573704Y72816D01*
X575228D01*
X573704Y74340D01*
X575228Y75864D01*
X573704D01*
X572180Y77388D01*
X570656Y75864D01*
X569132D01*
X570656Y74340D01*
X569132Y72816D01*
X570656D01*
X572180Y71292D01*
X507180Y1499260D02*
X509720Y1501800D01*
X512260D01*
X509720Y1504340D01*
X512260Y1506880D01*
X509720D01*
X507180Y1509420D01*
X504640Y1506880D01*
X502100D01*
X504640Y1504340D01*
X502100Y1501800D01*
X504640D01*
X507180Y1499260D01*
Y1501292D02*
X508704Y1502816D01*
X510228D01*
X508704Y1504340D01*
X510228Y1505864D01*
X508704D01*
X507180Y1507388D01*
X505656Y1505864D01*
X504132D01*
X505656Y1504340D01*
X504132Y1502816D01*
X505656D01*
X507180Y1501292D01*
X442180Y1369260D02*
X444720Y1371800D01*
X447260D01*
X444720Y1374340D01*
X447260Y1376880D01*
X444720D01*
X442180Y1379420D01*
X439640Y1376880D01*
X437100D01*
X439640Y1374340D01*
X437100Y1371800D01*
X439640D01*
X442180Y1369260D01*
Y1371292D02*
X443704Y1372816D01*
X445228D01*
X443704Y1374340D01*
X445228Y1375864D01*
X443704D01*
X442180Y1377388D01*
X440656Y1375864D01*
X439132D01*
X440656Y1374340D01*
X439132Y1372816D01*
X440656D01*
X442180Y1371292D01*
X507180Y979260D02*
X509720Y981800D01*
X512260D01*
X509720Y984340D01*
X512260Y986880D01*
X509720D01*
X507180Y989420D01*
X504640Y986880D01*
X502100D01*
X504640Y984340D01*
X502100Y981800D01*
X504640D01*
X507180Y979260D01*
Y981292D02*
X508704Y982816D01*
X510228D01*
X508704Y984340D01*
X510228Y985864D01*
X508704D01*
X507180Y987388D01*
X505656Y985864D01*
X504132D01*
X505656Y984340D01*
X504132Y982816D01*
X505656D01*
X507180Y981292D01*
Y719260D02*
X509720Y721800D01*
X512260D01*
X509720Y724340D01*
X512260Y726880D01*
X509720D01*
X507180Y729420D01*
X504640Y726880D01*
X502100D01*
X504640Y724340D01*
X502100Y721800D01*
X504640D01*
X507180Y719260D01*
Y721292D02*
X508704Y722816D01*
X510228D01*
X508704Y724340D01*
X510228Y725864D01*
X508704D01*
X507180Y727388D01*
X505656Y725864D01*
X504132D01*
X505656Y724340D01*
X504132Y722816D01*
X505656D01*
X507180Y721292D01*
X442180Y589260D02*
X444720Y591800D01*
X447260D01*
X444720Y594340D01*
X447260Y596880D01*
X444720D01*
X442180Y599420D01*
X439640Y596880D01*
X437100D01*
X439640Y594340D01*
X437100Y591800D01*
X439640D01*
X442180Y589260D01*
Y591292D02*
X443704Y592816D01*
X445228D01*
X443704Y594340D01*
X445228Y595864D01*
X443704D01*
X442180Y597388D01*
X440656Y595864D01*
X439132D01*
X440656Y594340D01*
X439132Y592816D01*
X440656D01*
X442180Y591292D01*
Y329260D02*
X444720Y331800D01*
X447260D01*
X444720Y334340D01*
X447260Y336880D01*
X444720D01*
X442180Y339420D01*
X439640Y336880D01*
X437100D01*
X439640Y334340D01*
X437100Y331800D01*
X439640D01*
X442180Y329260D01*
Y331292D02*
X443704Y332816D01*
X445228D01*
X443704Y334340D01*
X445228Y335864D01*
X443704D01*
X442180Y337388D01*
X440656Y335864D01*
X439132D01*
X440656Y334340D01*
X439132Y332816D01*
X440656D01*
X442180Y331292D01*
X507180Y199260D02*
X509720Y201800D01*
X512260D01*
X509720Y204340D01*
X512260Y206880D01*
X509720D01*
X507180Y209420D01*
X504640Y206880D01*
X502100D01*
X504640Y204340D01*
X502100Y201800D01*
X504640D01*
X507180Y199260D01*
Y201292D02*
X508704Y202816D01*
X510228D01*
X508704Y204340D01*
X510228Y205864D01*
X508704D01*
X507180Y207388D01*
X505656Y205864D01*
X504132D01*
X505656Y204340D01*
X504132Y202816D01*
X505656D01*
X507180Y201292D01*
X312180Y1369260D02*
X314720Y1371800D01*
X317260D01*
X314720Y1374340D01*
X317260Y1376880D01*
X314720D01*
X312180Y1379420D01*
X309640Y1376880D01*
X307100D01*
X309640Y1374340D01*
X307100Y1371800D01*
X309640D01*
X312180Y1369260D01*
Y1371292D02*
X313704Y1372816D01*
X315228D01*
X313704Y1374340D01*
X315228Y1375864D01*
X313704D01*
X312180Y1377388D01*
X310656Y1375864D01*
X309132D01*
X310656Y1374340D01*
X309132Y1372816D01*
X310656D01*
X312180Y1371292D01*
X377180Y719260D02*
X379720Y721800D01*
X382260D01*
X379720Y724340D01*
X382260Y726880D01*
X379720D01*
X377180Y729420D01*
X374640Y726880D01*
X372100D01*
X374640Y724340D01*
X372100Y721800D01*
X374640D01*
X377180Y719260D01*
Y721292D02*
X378704Y722816D01*
X380228D01*
X378704Y724340D01*
X380228Y725864D01*
X378704D01*
X377180Y727388D01*
X375656Y725864D01*
X374132D01*
X375656Y724340D01*
X374132Y722816D01*
X375656D01*
X377180Y721292D01*
X312180Y589260D02*
X314720Y591800D01*
X317260D01*
X314720Y594340D01*
X317260Y596880D01*
X314720D01*
X312180Y599420D01*
X309640Y596880D01*
X307100D01*
X309640Y594340D01*
X307100Y591800D01*
X309640D01*
X312180Y589260D01*
Y591292D02*
X313704Y592816D01*
X315228D01*
X313704Y594340D01*
X315228Y595864D01*
X313704D01*
X312180Y597388D01*
X310656Y595864D01*
X309132D01*
X310656Y594340D01*
X309132Y592816D01*
X310656D01*
X312180Y591292D01*
Y329260D02*
X314720Y331800D01*
X317260D01*
X314720Y334340D01*
X317260Y336880D01*
X314720D01*
X312180Y339420D01*
X309640Y336880D01*
X307100D01*
X309640Y334340D01*
X307100Y331800D01*
X309640D01*
X312180Y329260D01*
Y331292D02*
X313704Y332816D01*
X315228D01*
X313704Y334340D01*
X315228Y335864D01*
X313704D01*
X312180Y337388D01*
X310656Y335864D01*
X309132D01*
X310656Y334340D01*
X309132Y332816D01*
X310656D01*
X312180Y331292D01*
Y69260D02*
X314720Y71800D01*
X317260D01*
X314720Y74340D01*
X317260Y76880D01*
X314720D01*
X312180Y79420D01*
X309640Y76880D01*
X307100D01*
X309640Y74340D01*
X307100Y71800D01*
X309640D01*
X312180Y69260D01*
Y71292D02*
X313704Y72816D01*
X315228D01*
X313704Y74340D01*
X315228Y75864D01*
X313704D01*
X312180Y77388D01*
X310656Y75864D01*
X309132D01*
X310656Y74340D01*
X309132Y72816D01*
X310656D01*
X312180Y71292D01*
X182180Y1369260D02*
X184720Y1371800D01*
X187260D01*
X184720Y1374340D01*
X187260Y1376880D01*
X184720D01*
X182180Y1379420D01*
X179640Y1376880D01*
X177100D01*
X179640Y1374340D01*
X177100Y1371800D01*
X179640D01*
X182180Y1369260D01*
Y1371292D02*
X183704Y1372816D01*
X185228D01*
X183704Y1374340D01*
X185228Y1375864D01*
X183704D01*
X182180Y1377388D01*
X180656Y1375864D01*
X179132D01*
X180656Y1374340D01*
X179132Y1372816D01*
X180656D01*
X182180Y1371292D01*
X247180Y1239260D02*
X249720Y1241800D01*
X252260D01*
X249720Y1244340D01*
X252260Y1246880D01*
X249720D01*
X247180Y1249420D01*
X244640Y1246880D01*
X242100D01*
X244640Y1244340D01*
X242100Y1241800D01*
X244640D01*
X247180Y1239260D01*
Y1241292D02*
X248704Y1242816D01*
X250228D01*
X248704Y1244340D01*
X250228Y1245864D01*
X248704D01*
X247180Y1247388D01*
X245656Y1245864D01*
X244132D01*
X245656Y1244340D01*
X244132Y1242816D01*
X245656D01*
X247180Y1241292D01*
X182180Y849260D02*
X184720Y851800D01*
X187260D01*
X184720Y854340D01*
X187260Y856880D01*
X184720D01*
X182180Y859420D01*
X179640Y856880D01*
X177100D01*
X179640Y854340D01*
X177100Y851800D01*
X179640D01*
X182180Y849260D01*
Y851292D02*
X183704Y852816D01*
X185228D01*
X183704Y854340D01*
X185228Y855864D01*
X183704D01*
X182180Y857388D01*
X180656Y855864D01*
X179132D01*
X180656Y854340D01*
X179132Y852816D01*
X180656D01*
X182180Y851292D01*
X247180Y719260D02*
X249720Y721800D01*
X252260D01*
X249720Y724340D01*
X252260Y726880D01*
X249720D01*
X247180Y729420D01*
X244640Y726880D01*
X242100D01*
X244640Y724340D01*
X242100Y721800D01*
X244640D01*
X247180Y719260D01*
Y721292D02*
X248704Y722816D01*
X250228D01*
X248704Y724340D01*
X250228Y725864D01*
X248704D01*
X247180Y727388D01*
X245656Y725864D01*
X244132D01*
X245656Y724340D01*
X244132Y722816D01*
X245656D01*
X247180Y721292D01*
X182180Y589260D02*
X184720Y591800D01*
X187260D01*
X184720Y594340D01*
X187260Y596880D01*
X184720D01*
X182180Y599420D01*
X179640Y596880D01*
X177100D01*
X179640Y594340D01*
X177100Y591800D01*
X179640D01*
X182180Y589260D01*
Y591292D02*
X183704Y592816D01*
X185228D01*
X183704Y594340D01*
X185228Y595864D01*
X183704D01*
X182180Y597388D01*
X180656Y595864D01*
X179132D01*
X180656Y594340D01*
X179132Y592816D01*
X180656D01*
X182180Y591292D01*
X247180Y199260D02*
X249720Y201800D01*
X252260D01*
X249720Y204340D01*
X252260Y206880D01*
X249720D01*
X247180Y209420D01*
X244640Y206880D01*
X242100D01*
X244640Y204340D01*
X242100Y201800D01*
X244640D01*
X247180Y199260D01*
Y201292D02*
X248704Y202816D01*
X250228D01*
X248704Y204340D01*
X250228Y205864D01*
X248704D01*
X247180Y207388D01*
X245656Y205864D01*
X244132D01*
X245656Y204340D01*
X244132Y202816D01*
X245656D01*
X247180Y201292D01*
X182180Y69260D02*
X184720Y71800D01*
X187260D01*
X184720Y74340D01*
X187260Y76880D01*
X184720D01*
X182180Y79420D01*
X179640Y76880D01*
X177100D01*
X179640Y74340D01*
X177100Y71800D01*
X179640D01*
X182180Y69260D01*
Y71292D02*
X183704Y72816D01*
X185228D01*
X183704Y74340D01*
X185228Y75864D01*
X183704D01*
X182180Y77388D01*
X180656Y75864D01*
X179132D01*
X180656Y74340D01*
X179132Y72816D01*
X180656D01*
X182180Y71292D01*
X52180Y1629260D02*
X54720Y1631800D01*
X57260D01*
X54720Y1634340D01*
X57260Y1636880D01*
X54720D01*
X52180Y1639420D01*
X49640Y1636880D01*
X47100D01*
X49640Y1634340D01*
X47100Y1631800D01*
X49640D01*
X52180Y1629260D01*
Y1631292D02*
X53704Y1632816D01*
X55228D01*
X53704Y1634340D01*
X55228Y1635864D01*
X53704D01*
X52180Y1637388D01*
X50656Y1635864D01*
X49132D01*
X50656Y1634340D01*
X49132Y1632816D01*
X50656D01*
X52180Y1631292D01*
Y1369260D02*
X54720Y1371800D01*
X57260D01*
X54720Y1374340D01*
X57260Y1376880D01*
X54720D01*
X52180Y1379420D01*
X49640Y1376880D01*
X47100D01*
X49640Y1374340D01*
X47100Y1371800D01*
X49640D01*
X52180Y1369260D01*
Y1371292D02*
X53704Y1372816D01*
X55228D01*
X53704Y1374340D01*
X55228Y1375864D01*
X53704D01*
X52180Y1377388D01*
X50656Y1375864D01*
X49132D01*
X50656Y1374340D01*
X49132Y1372816D01*
X50656D01*
X52180Y1371292D01*
X117180Y1239260D02*
X119720Y1241800D01*
X122260D01*
X119720Y1244340D01*
X122260Y1246880D01*
X119720D01*
X117180Y1249420D01*
X114640Y1246880D01*
X112100D01*
X114640Y1244340D01*
X112100Y1241800D01*
X114640D01*
X117180Y1239260D01*
Y1241292D02*
X118704Y1242816D01*
X120228D01*
X118704Y1244340D01*
X120228Y1245864D01*
X118704D01*
X117180Y1247388D01*
X115656Y1245864D01*
X114132D01*
X115656Y1244340D01*
X114132Y1242816D01*
X115656D01*
X117180Y1241292D01*
X52180Y1109260D02*
X54720Y1111800D01*
X57260D01*
X54720Y1114340D01*
X57260Y1116880D01*
X54720D01*
X52180Y1119420D01*
X49640Y1116880D01*
X47100D01*
X49640Y1114340D01*
X47100Y1111800D01*
X49640D01*
X52180Y1109260D01*
Y1111292D02*
X53704Y1112816D01*
X55228D01*
X53704Y1114340D01*
X55228Y1115864D01*
X53704D01*
X52180Y1117388D01*
X50656Y1115864D01*
X49132D01*
X50656Y1114340D01*
X49132Y1112816D01*
X50656D01*
X52180Y1111292D01*
X117180Y979260D02*
X119720Y981800D01*
X122260D01*
X119720Y984340D01*
X122260Y986880D01*
X119720D01*
X117180Y989420D01*
X114640Y986880D01*
X112100D01*
X114640Y984340D01*
X112100Y981800D01*
X114640D01*
X117180Y979260D01*
Y981292D02*
X118704Y982816D01*
X120228D01*
X118704Y984340D01*
X120228Y985864D01*
X118704D01*
X117180Y987388D01*
X115656Y985864D01*
X114132D01*
X115656Y984340D01*
X114132Y982816D01*
X115656D01*
X117180Y981292D01*
Y719260D02*
X119720Y721800D01*
X122260D01*
X119720Y724340D01*
X122260Y726880D01*
X119720D01*
X117180Y729420D01*
X114640Y726880D01*
X112100D01*
X114640Y724340D01*
X112100Y721800D01*
X114640D01*
X117180Y719260D01*
Y721292D02*
X118704Y722816D01*
X120228D01*
X118704Y724340D01*
X120228Y725864D01*
X118704D01*
X117180Y727388D01*
X115656Y725864D01*
X114132D01*
X115656Y724340D01*
X114132Y722816D01*
X115656D01*
X117180Y721292D01*
Y459260D02*
X119720Y461800D01*
X122260D01*
X119720Y464340D01*
X122260Y466880D01*
X119720D01*
X117180Y469420D01*
X114640Y466880D01*
X112100D01*
X114640Y464340D01*
X112100Y461800D01*
X114640D01*
X117180Y459260D01*
Y461292D02*
X118704Y462816D01*
X120228D01*
X118704Y464340D01*
X120228Y465864D01*
X118704D01*
X117180Y467388D01*
X115656Y465864D01*
X114132D01*
X115656Y464340D01*
X114132Y462816D01*
X115656D01*
X117180Y461292D01*
X52180Y329260D02*
X54720Y331800D01*
X57260D01*
X54720Y334340D01*
X57260Y336880D01*
X54720D01*
X52180Y339420D01*
X49640Y336880D01*
X47100D01*
X49640Y334340D01*
X47100Y331800D01*
X49640D01*
X52180Y329260D01*
Y331292D02*
X53704Y332816D01*
X55228D01*
X53704Y334340D01*
X55228Y335864D01*
X53704D01*
X52180Y337388D01*
X50656Y335864D01*
X49132D01*
X50656Y334340D01*
X49132Y332816D01*
X50656D01*
X52180Y331292D01*
X117180Y199260D02*
X119720Y201800D01*
X122260D01*
X119720Y204340D01*
X122260Y206880D01*
X119720D01*
X117180Y209420D01*
X114640Y206880D01*
X112100D01*
X114640Y204340D01*
X112100Y201800D01*
X114640D01*
X117180Y199260D01*
Y201292D02*
X118704Y202816D01*
X120228D01*
X118704Y204340D01*
X120228Y205864D01*
X118704D01*
X117180Y207388D01*
X115656Y205864D01*
X114132D01*
X115656Y204340D01*
X114132Y202816D01*
X115656D01*
X117180Y201292D01*
X52180Y69260D02*
X54720Y71800D01*
X57260D01*
X54720Y74340D01*
X57260Y76880D01*
X54720D01*
X52180Y79420D01*
X49640Y76880D01*
X47100D01*
X49640Y74340D01*
X47100Y71800D01*
X49640D01*
X52180Y69260D01*
Y71292D02*
X53704Y72816D01*
X55228D01*
X53704Y74340D01*
X55228Y75864D01*
X53704D01*
X52180Y77388D01*
X50656Y75864D01*
X49132D01*
X50656Y74340D01*
X49132Y72816D01*
X50656D01*
X52180Y71292D01*
X962181Y879261D02*
X964721Y881801D01*
X967261D01*
X964721Y884341D01*
X967261Y886881D01*
X964721D01*
X962181Y889421D01*
X959641Y886881D01*
X957101D01*
X959641Y884341D01*
X957101Y881801D01*
X959641D01*
X962181Y879261D01*
Y881293D02*
X963705Y882817D01*
X965229D01*
X963705Y884341D01*
X965229Y885865D01*
X963705D01*
X962181Y887389D01*
X960657Y885865D01*
X959133D01*
X960657Y884341D01*
X959133Y882817D01*
X960657D01*
X962181Y881293D01*
X942181Y879261D02*
X944721Y881801D01*
X947261D01*
X944721Y884341D01*
X947261Y886881D01*
X944721D01*
X942181Y889421D01*
X939641Y886881D01*
X937101D01*
X939641Y884341D01*
X937101Y881801D01*
X939641D01*
X942181Y879261D01*
Y881293D02*
X943705Y882817D01*
X945229D01*
X943705Y884341D01*
X945229Y885865D01*
X943705D01*
X942181Y887389D01*
X940657Y885865D01*
X939133D01*
X940657Y884341D01*
X939133Y882817D01*
X940657D01*
X942181Y881293D01*
X922181Y879261D02*
X924721Y881801D01*
X927261D01*
X924721Y884341D01*
X927261Y886881D01*
X924721D01*
X922181Y889421D01*
X919641Y886881D01*
X917101D01*
X919641Y884341D01*
X917101Y881801D01*
X919641D01*
X922181Y879261D01*
Y881293D02*
X923705Y882817D01*
X925229D01*
X923705Y884341D01*
X925229Y885865D01*
X923705D01*
X922181Y887389D01*
X920657Y885865D01*
X919133D01*
X920657Y884341D01*
X919133Y882817D01*
X920657D01*
X922181Y881293D01*
X902181Y879261D02*
X904721Y881801D01*
X907261D01*
X904721Y884341D01*
X907261Y886881D01*
X904721D01*
X902181Y889421D01*
X899641Y886881D01*
X897101D01*
X899641Y884341D01*
X897101Y881801D01*
X899641D01*
X902181Y879261D01*
Y881293D02*
X903705Y882817D01*
X905229D01*
X903705Y884341D01*
X905229Y885865D01*
X903705D01*
X902181Y887389D01*
X900657Y885865D01*
X899133D01*
X900657Y884341D01*
X899133Y882817D01*
X900657D01*
X902181Y881293D01*
X882181Y879261D02*
X884721Y881801D01*
X887261D01*
X884721Y884341D01*
X887261Y886881D01*
X884721D01*
X882181Y889421D01*
X879641Y886881D01*
X877101D01*
X879641Y884341D01*
X877101Y881801D01*
X879641D01*
X882181Y879261D01*
Y881293D02*
X883705Y882817D01*
X885229D01*
X883705Y884341D01*
X885229Y885865D01*
X883705D01*
X882181Y887389D01*
X880657Y885865D01*
X879133D01*
X880657Y884341D01*
X879133Y882817D01*
X880657D01*
X882181Y881293D01*
X862181Y879261D02*
X864721Y881801D01*
X867261D01*
X864721Y884341D01*
X867261Y886881D01*
X864721D01*
X862181Y889421D01*
X859641Y886881D01*
X857101D01*
X859641Y884341D01*
X857101Y881801D01*
X859641D01*
X862181Y879261D01*
Y881293D02*
X863705Y882817D01*
X865229D01*
X863705Y884341D01*
X865229Y885865D01*
X863705D01*
X862181Y887389D01*
X860657Y885865D01*
X859133D01*
X860657Y884341D01*
X859133Y882817D01*
X860657D01*
X862181Y881293D01*
X842181Y879261D02*
X844721Y881801D01*
X847261D01*
X844721Y884341D01*
X847261Y886881D01*
X844721D01*
X842181Y889421D01*
X839641Y886881D01*
X837101D01*
X839641Y884341D01*
X837101Y881801D01*
X839641D01*
X842181Y879261D01*
Y881293D02*
X843705Y882817D01*
X845229D01*
X843705Y884341D01*
X845229Y885865D01*
X843705D01*
X842181Y887389D01*
X840657Y885865D01*
X839133D01*
X840657Y884341D01*
X839133Y882817D01*
X840657D01*
X842181Y881293D01*
X822181Y879261D02*
X824721Y881801D01*
X827261D01*
X824721Y884341D01*
X827261Y886881D01*
X824721D01*
X822181Y889421D01*
X819641Y886881D01*
X817101D01*
X819641Y884341D01*
X817101Y881801D01*
X819641D01*
X822181Y879261D01*
Y881293D02*
X823705Y882817D01*
X825229D01*
X823705Y884341D01*
X825229Y885865D01*
X823705D01*
X822181Y887389D01*
X820657Y885865D01*
X819133D01*
X820657Y884341D01*
X819133Y882817D01*
X820657D01*
X822181Y881293D01*
X802181Y879261D02*
X804721Y881801D01*
X807261D01*
X804721Y884341D01*
X807261Y886881D01*
X804721D01*
X802181Y889421D01*
X799641Y886881D01*
X797101D01*
X799641Y884341D01*
X797101Y881801D01*
X799641D01*
X802181Y879261D01*
Y881293D02*
X803705Y882817D01*
X805229D01*
X803705Y884341D01*
X805229Y885865D01*
X803705D01*
X802181Y887389D01*
X800657Y885865D01*
X799133D01*
X800657Y884341D01*
X799133Y882817D01*
X800657D01*
X802181Y881293D01*
X782181Y879261D02*
X784721Y881801D01*
X787261D01*
X784721Y884341D01*
X787261Y886881D01*
X784721D01*
X782181Y889421D01*
X779641Y886881D01*
X777101D01*
X779641Y884341D01*
X777101Y881801D01*
X779641D01*
X782181Y879261D01*
Y881293D02*
X783705Y882817D01*
X785229D01*
X783705Y884341D01*
X785229Y885865D01*
X783705D01*
X782181Y887389D01*
X780657Y885865D01*
X779133D01*
X780657Y884341D01*
X779133Y882817D01*
X780657D01*
X782181Y881293D01*
X762181Y879261D02*
X764721Y881801D01*
X767261D01*
X764721Y884341D01*
X767261Y886881D01*
X764721D01*
X762181Y889421D01*
X759641Y886881D01*
X757101D01*
X759641Y884341D01*
X757101Y881801D01*
X759641D01*
X762181Y879261D01*
Y881293D02*
X763705Y882817D01*
X765229D01*
X763705Y884341D01*
X765229Y885865D01*
X763705D01*
X762181Y887389D01*
X760657Y885865D01*
X759133D01*
X760657Y884341D01*
X759133Y882817D01*
X760657D01*
X762181Y881293D01*
X742181Y879261D02*
X744721Y881801D01*
X747261D01*
X744721Y884341D01*
X747261Y886881D01*
X744721D01*
X742181Y889421D01*
X739641Y886881D01*
X737101D01*
X739641Y884341D01*
X737101Y881801D01*
X739641D01*
X742181Y879261D01*
Y881293D02*
X743705Y882817D01*
X745229D01*
X743705Y884341D01*
X745229Y885865D01*
X743705D01*
X742181Y887389D01*
X740657Y885865D01*
X739133D01*
X740657Y884341D01*
X739133Y882817D01*
X740657D01*
X742181Y881293D01*
X1312181Y699261D02*
X1307101Y709421D01*
X1317261D01*
X1312181Y699261D01*
Y701293D02*
X1309133Y707389D01*
X1315229D01*
X1312181Y701293D01*
X1302181Y679261D02*
X1297101Y689421D01*
X1307261D01*
X1302181Y679261D01*
Y681293D02*
X1299133Y687389D01*
X1305229D01*
X1302181Y681293D01*
X1292181Y699261D02*
X1287101Y709421D01*
X1297261D01*
X1292181Y699261D01*
Y701293D02*
X1289133Y707389D01*
X1295229D01*
X1292181Y701293D01*
X1282181Y679261D02*
X1277101Y689421D01*
X1287261D01*
X1282181Y679261D01*
Y681293D02*
X1279133Y687389D01*
X1285229D01*
X1282181Y681293D01*
X1272181Y699261D02*
X1267101Y709421D01*
X1277261D01*
X1272181Y699261D01*
Y701293D02*
X1269133Y707389D01*
X1275229D01*
X1272181Y701293D01*
X1262181Y679261D02*
X1257101Y689421D01*
X1267261D01*
X1262181Y679261D01*
Y681293D02*
X1259133Y687389D01*
X1265229D01*
X1262181Y681293D01*
X1252181Y699261D02*
X1247101Y709421D01*
X1257261D01*
X1252181Y699261D01*
Y701293D02*
X1249133Y707389D01*
X1255229D01*
X1252181Y701293D01*
X1242181Y679261D02*
X1237101Y689421D01*
X1247261D01*
X1242181Y679261D01*
Y681293D02*
X1239133Y687389D01*
X1245229D01*
X1242181Y681293D01*
X1232181Y699261D02*
X1227101Y709421D01*
X1237261D01*
X1232181Y699261D01*
Y701293D02*
X1229133Y707389D01*
X1235229D01*
X1232181Y701293D01*
X1222181Y679261D02*
X1217101Y689421D01*
X1227261D01*
X1222181Y679261D01*
Y681293D02*
X1219133Y687389D01*
X1225229D01*
X1222181Y681293D01*
X1212181Y699261D02*
X1207101Y709421D01*
X1217261D01*
X1212181Y699261D01*
Y701293D02*
X1209133Y707389D01*
X1215229D01*
X1212181Y701293D01*
X1202181Y679261D02*
X1197101Y689421D01*
X1207261D01*
X1202181Y679261D01*
Y681293D02*
X1199133Y687389D01*
X1205229D01*
X1202181Y681293D01*
X1172181Y699261D02*
X1167101Y709421D01*
X1177261D01*
X1172181Y699261D01*
Y701293D02*
X1169133Y707389D01*
X1175229D01*
X1172181Y701293D01*
X1152181Y699261D02*
X1147101Y709421D01*
X1157261D01*
X1152181Y699261D01*
Y701293D02*
X1149133Y707389D01*
X1155229D01*
X1152181Y701293D01*
X1132181Y699261D02*
X1127101Y709421D01*
X1137261D01*
X1132181Y699261D01*
Y701293D02*
X1129133Y707389D01*
X1135229D01*
X1132181Y701293D01*
X1122181Y679261D02*
X1117101Y689421D01*
X1127261D01*
X1122181Y679261D01*
Y681293D02*
X1119133Y687389D01*
X1125229D01*
X1122181Y681293D01*
X1112181Y699261D02*
X1107101Y709421D01*
X1117261D01*
X1112181Y699261D01*
Y701293D02*
X1109133Y707389D01*
X1115229D01*
X1112181Y701293D01*
X1102181Y679261D02*
X1097101Y689421D01*
X1107261D01*
X1102181Y679261D01*
Y681293D02*
X1099133Y687389D01*
X1105229D01*
X1102181Y681293D01*
X1092181Y699261D02*
X1087101Y709421D01*
X1097261D01*
X1092181Y699261D01*
Y701293D02*
X1089133Y707389D01*
X1095229D01*
X1092181Y701293D01*
X1082181Y679261D02*
X1077101Y689421D01*
X1087261D01*
X1082181Y679261D01*
Y681293D02*
X1079133Y687389D01*
X1085229D01*
X1082181Y681293D01*
X1072181Y699261D02*
X1067101Y709421D01*
X1077261D01*
X1072181Y699261D01*
Y701293D02*
X1069133Y707389D01*
X1075229D01*
X1072181Y701293D01*
X1062181Y679261D02*
X1057101Y689421D01*
X1067261D01*
X1062181Y679261D01*
Y681293D02*
X1059133Y687389D01*
X1065229D01*
X1062181Y681293D01*
X1052181Y699261D02*
X1047101Y709421D01*
X1057261D01*
X1052181Y699261D01*
Y701293D02*
X1049133Y707389D01*
X1055229D01*
X1052181Y701293D01*
X1042181Y679261D02*
X1037101Y689421D01*
X1047261D01*
X1042181Y679261D01*
Y681293D02*
X1039133Y687389D01*
X1045229D01*
X1042181Y681293D01*
X1032181Y699261D02*
X1027101Y709421D01*
X1037261D01*
X1032181Y699261D01*
Y701293D02*
X1029133Y707389D01*
X1035229D01*
X1032181Y701293D01*
X1022181Y679261D02*
X1017101Y689421D01*
X1027261D01*
X1022181Y679261D01*
Y681293D02*
X1019133Y687389D01*
X1025229D01*
X1022181Y681293D01*
X1012181Y699261D02*
X1007101Y709421D01*
X1017261D01*
X1012181Y699261D01*
Y701293D02*
X1009133Y707389D01*
X1015229D01*
X1012181Y701293D01*
X1002181Y679261D02*
X997101Y689421D01*
X1007261D01*
X1002181Y679261D01*
Y681293D02*
X999133Y687389D01*
X1005229D01*
X1002181Y681293D01*
X992181Y699261D02*
X987101Y709421D01*
X997261D01*
X992181Y699261D01*
Y701293D02*
X989133Y707389D01*
X995229D01*
X992181Y701293D01*
X982181Y679261D02*
X977101Y689421D01*
X987261D01*
X982181Y679261D01*
Y681293D02*
X979133Y687389D01*
X985229D01*
X982181Y681293D01*
X972181Y699261D02*
X967101Y709421D01*
X977261D01*
X972181Y699261D01*
Y701293D02*
X969133Y707389D01*
X975229D01*
X972181Y701293D01*
X962181Y679261D02*
X957101Y689421D01*
X967261D01*
X962181Y679261D01*
Y681293D02*
X959133Y687389D01*
X965229D01*
X962181Y681293D01*
X952181Y699261D02*
X947101Y709421D01*
X957261D01*
X952181Y699261D01*
Y701293D02*
X949133Y707389D01*
X955229D01*
X952181Y701293D01*
X942181Y679261D02*
X937101Y689421D01*
X947261D01*
X942181Y679261D01*
Y681293D02*
X939133Y687389D01*
X945229D01*
X942181Y681293D01*
X932181Y699261D02*
X927101Y709421D01*
X937261D01*
X932181Y699261D01*
Y701293D02*
X929133Y707389D01*
X935229D01*
X932181Y701293D01*
X922181Y679261D02*
X917101Y689421D01*
X927261D01*
X922181Y679261D01*
Y681293D02*
X919133Y687389D01*
X925229D01*
X922181Y681293D01*
X912181Y699261D02*
X907101Y709421D01*
X917261D01*
X912181Y699261D01*
Y701293D02*
X909133Y707389D01*
X915229D01*
X912181Y701293D01*
X902181Y679261D02*
X897101Y689421D01*
X907261D01*
X902181Y679261D01*
Y681293D02*
X899133Y687389D01*
X905229D01*
X902181Y681293D01*
X892181Y699261D02*
X887101Y709421D01*
X897261D01*
X892181Y699261D01*
Y701293D02*
X889133Y707389D01*
X895229D01*
X892181Y701293D01*
X882181Y679261D02*
X877101Y689421D01*
X887261D01*
X882181Y679261D01*
Y681293D02*
X879133Y687389D01*
X885229D01*
X882181Y681293D01*
X772181Y699261D02*
X767101Y709421D01*
X777261D01*
X772181Y699261D01*
Y701293D02*
X769133Y707389D01*
X775229D01*
X772181Y701293D01*
X762181Y679261D02*
X757101Y689421D01*
X767261D01*
X762181Y679261D01*
Y681293D02*
X759133Y687389D01*
X765229D01*
X762181Y681293D01*
X752181Y699261D02*
X747101Y709421D01*
X757261D01*
X752181Y699261D01*
Y701293D02*
X749133Y707389D01*
X755229D01*
X752181Y701293D01*
X742181Y679261D02*
X737101Y689421D01*
X747261D01*
X742181Y679261D01*
Y681293D02*
X739133Y687389D01*
X745229D01*
X742181Y681293D01*
X732181Y699261D02*
X727101Y709421D01*
X737261D01*
X732181Y699261D01*
Y701293D02*
X729133Y707389D01*
X735229D01*
X732181Y701293D01*
X722181Y679261D02*
X717101Y689421D01*
X727261D01*
X722181Y679261D01*
Y681293D02*
X719133Y687389D01*
X725229D01*
X722181Y681293D01*
X712181Y699261D02*
X707101Y709421D01*
X717261D01*
X712181Y699261D01*
Y701293D02*
X709133Y707389D01*
X715229D01*
X712181Y701293D01*
X702181Y679261D02*
X697101Y689421D01*
X707261D01*
X702181Y679261D01*
Y681293D02*
X699133Y687389D01*
X705229D01*
X702181Y681293D01*
X692181Y699261D02*
X687101Y709421D01*
X697261D01*
X692181Y699261D01*
Y701293D02*
X689133Y707389D01*
X695229D01*
X692181Y701293D01*
X682181Y679261D02*
X677101Y689421D01*
X687261D01*
X682181Y679261D01*
Y681293D02*
X679133Y687389D01*
X685229D01*
X682181Y681293D01*
X672180Y699261D02*
X667101Y709421D01*
X677261D01*
X672180Y699261D01*
Y701293D02*
X669133Y707389D01*
X675229D01*
X672180Y701293D01*
X662180Y679261D02*
X657101Y689421D01*
X667261D01*
X662180Y679261D01*
Y681293D02*
X659133Y687389D01*
X665229D01*
X662180Y681293D01*
X652180Y699261D02*
X647101Y709421D01*
X657261D01*
X652180Y699261D01*
Y701293D02*
X649133Y707389D01*
X655229D01*
X652180Y701293D01*
X642180Y679261D02*
X637100Y689421D01*
X647261D01*
X642180Y679261D01*
Y681293D02*
X639132Y687389D01*
X645229D01*
X642180Y681293D01*
X632180Y699261D02*
X627100Y709421D01*
X637261D01*
X632180Y699261D01*
Y701293D02*
X629132Y707389D01*
X635229D01*
X632180Y701293D01*
X622180Y679261D02*
X617100Y689421D01*
X627261D01*
X622180Y679261D01*
Y681293D02*
X619132Y687389D01*
X625229D01*
X622180Y681293D01*
X612180Y699261D02*
X607100Y709421D01*
X617261D01*
X612180Y699261D01*
Y701293D02*
X609132Y707389D01*
X615229D01*
X612180Y701293D01*
X602180Y679261D02*
X597100Y689421D01*
X607261D01*
X602180Y679261D01*
Y681293D02*
X599132Y687389D01*
X605229D01*
X602180Y681293D01*
X592180Y699261D02*
X587100Y709421D01*
X597261D01*
X592180Y699261D01*
Y701293D02*
X589132Y707389D01*
X595229D01*
X592180Y701293D01*
X582180Y679261D02*
X577100Y689421D01*
X587261D01*
X582180Y679261D01*
Y681293D02*
X579132Y687389D01*
X585229D01*
X582180Y681293D01*
X572180Y699261D02*
X567100Y709421D01*
X577261D01*
X572180Y699261D01*
Y701293D02*
X569132Y707389D01*
X575229D01*
X572180Y701293D01*
X562180Y679261D02*
X557100Y689421D01*
X567261D01*
X562180Y679261D01*
Y681293D02*
X559132Y687389D01*
X565229D01*
X562180Y681293D01*
X552180Y699261D02*
X547100Y709421D01*
X557261D01*
X552180Y699261D01*
Y701293D02*
X549132Y707389D01*
X555229D01*
X552180Y701293D01*
X542180Y679261D02*
X537100Y689421D01*
X547261D01*
X542180Y679261D01*
Y681293D02*
X539132Y687389D01*
X545229D01*
X542180Y681293D01*
X532180Y699261D02*
X527100Y709421D01*
X537261D01*
X532180Y699261D01*
Y701293D02*
X529132Y707389D01*
X535229D01*
X532180Y701293D01*
X522180Y679261D02*
X517100Y689421D01*
X527261D01*
X522180Y679261D01*
Y681293D02*
X519132Y687389D01*
X525229D01*
X522180Y681293D01*
X512180Y699261D02*
X507100Y709421D01*
X517261D01*
X512180Y699261D01*
Y701293D02*
X509132Y707389D01*
X515229D01*
X512180Y701293D01*
X502180Y679261D02*
X497100Y689421D01*
X507261D01*
X502180Y679261D01*
Y681293D02*
X499132Y687389D01*
X505229D01*
X502180Y681293D01*
X492180Y699261D02*
X487100Y709421D01*
X497260D01*
X492180Y699261D01*
Y701293D02*
X489132Y707389D01*
X495228D01*
X492180Y701293D01*
X482180Y679261D02*
X477100Y689421D01*
X487260D01*
X482180Y679261D01*
Y681293D02*
X479132Y687389D01*
X485228D01*
X482180Y681293D01*
X472180Y699261D02*
X467100Y709421D01*
X477260D01*
X472180Y699261D01*
Y701293D02*
X469132Y707389D01*
X475228D01*
X472180Y701293D01*
X462180Y679261D02*
X457100Y689421D01*
X467260D01*
X462180Y679261D01*
Y681293D02*
X459132Y687389D01*
X465228D01*
X462180Y681293D01*
X452180Y699261D02*
X447100Y709421D01*
X457260D01*
X452180Y699261D01*
Y701293D02*
X449132Y707389D01*
X455228D01*
X452180Y701293D01*
X432180Y699261D02*
X427100Y709421D01*
X437260D01*
X432180Y699261D01*
Y701293D02*
X429132Y707389D01*
X435228D01*
X432180Y701293D01*
X412180Y699261D02*
X407100Y709421D01*
X417260D01*
X412180Y699261D01*
Y701293D02*
X409132Y707389D01*
X415228D01*
X412180Y701293D01*
X402180Y679261D02*
X397100Y689421D01*
X407260D01*
X402180Y679261D01*
Y681293D02*
X399132Y687389D01*
X405228D01*
X402180Y681293D01*
X392180Y699261D02*
X387100Y709421D01*
X397260D01*
X392180Y699261D01*
Y701293D02*
X389132Y707389D01*
X395228D01*
X392180Y701293D01*
X382180Y679261D02*
X377100Y689421D01*
X387260D01*
X382180Y679261D01*
Y681293D02*
X379132Y687389D01*
X385228D01*
X382180Y681293D01*
X372180Y699261D02*
X367100Y709421D01*
X377260D01*
X372180Y699261D01*
Y701293D02*
X369132Y707389D01*
X375228D01*
X372180Y701293D01*
X362180Y679261D02*
X357100Y689421D01*
X367260D01*
X362180Y679261D01*
Y681293D02*
X359132Y687389D01*
X365228D01*
X362180Y681293D01*
X352180Y699261D02*
X347100Y709421D01*
X357260D01*
X352180Y699261D01*
Y701293D02*
X349132Y707389D01*
X355228D01*
X352180Y701293D01*
X342180Y679261D02*
X337100Y689421D01*
X347260D01*
X342180Y679261D01*
Y681293D02*
X339132Y687389D01*
X345228D01*
X342180Y681293D01*
X332180Y699261D02*
X327100Y709421D01*
X337260D01*
X332180Y699261D01*
Y701293D02*
X329132Y707389D01*
X335228D01*
X332180Y701293D01*
X322180Y679261D02*
X317100Y689421D01*
X327260D01*
X322180Y679261D01*
Y681293D02*
X319132Y687389D01*
X325228D01*
X322180Y681293D01*
X312180Y699261D02*
X307100Y709421D01*
X317260D01*
X312180Y699261D01*
Y701293D02*
X309132Y707389D01*
X315228D01*
X312180Y701293D01*
X302180Y679261D02*
X297100Y689421D01*
X307260D01*
X302180Y679261D01*
Y681293D02*
X299132Y687389D01*
X305228D01*
X302180Y681293D01*
X292180Y699261D02*
X287100Y709421D01*
X297260D01*
X292180Y699261D01*
Y701293D02*
X289132Y707389D01*
X295228D01*
X292180Y701293D01*
X282180Y679261D02*
X277100Y689421D01*
X287260D01*
X282180Y679261D01*
Y681293D02*
X279132Y687389D01*
X285228D01*
X282180Y681293D01*
X272180Y699261D02*
X267100Y709421D01*
X277260D01*
X272180Y699261D01*
Y701293D02*
X269132Y707389D01*
X275228D01*
X272180Y701293D01*
X262180Y679261D02*
X257100Y689421D01*
X267260D01*
X262180Y679261D01*
Y681293D02*
X259132Y687389D01*
X265228D01*
X262180Y681293D01*
X252180Y699261D02*
X247100Y709421D01*
X257260D01*
X252180Y699261D01*
Y701293D02*
X249132Y707389D01*
X255228D01*
X252180Y701293D01*
X242180Y679261D02*
X237100Y689421D01*
X247260D01*
X242180Y679261D01*
Y681293D02*
X239132Y687389D01*
X245228D01*
X242180Y681293D01*
X232180Y699261D02*
X227100Y709421D01*
X237260D01*
X232180Y699261D01*
Y701293D02*
X229132Y707389D01*
X235228D01*
X232180Y701293D01*
X222180Y679261D02*
X217100Y689421D01*
X227260D01*
X222180Y679261D01*
Y681293D02*
X219132Y687389D01*
X225228D01*
X222180Y681293D01*
X212180Y699261D02*
X207100Y709421D01*
X217260D01*
X212180Y699261D01*
Y701293D02*
X209132Y707389D01*
X215228D01*
X212180Y701293D01*
X192180Y699261D02*
X187100Y709421D01*
X197260D01*
X192180Y699261D01*
Y701293D02*
X189132Y707389D01*
X195228D01*
X192180Y701293D01*
X182180Y679261D02*
X177100Y689421D01*
X187260D01*
X182180Y679261D01*
Y681293D02*
X179132Y687389D01*
X185228D01*
X182180Y681293D01*
X172180Y699261D02*
X167100Y709421D01*
X177260D01*
X172180Y699261D01*
Y701293D02*
X169132Y707389D01*
X175228D01*
X172180Y701293D01*
X162180Y679261D02*
X157100Y689421D01*
X167260D01*
X162180Y679261D01*
Y681293D02*
X159132Y687389D01*
X165228D01*
X162180Y681293D01*
X152180Y699261D02*
X147100Y709421D01*
X157260D01*
X152180Y699261D01*
Y701293D02*
X149132Y707389D01*
X155228D01*
X152180Y701293D01*
X132180Y699261D02*
X127100Y709421D01*
X137260D01*
X132180Y699261D01*
Y701293D02*
X129132Y707389D01*
X135228D01*
X132180Y701293D01*
X112180Y699261D02*
X107100Y709421D01*
X117260D01*
X112180Y699261D01*
Y701293D02*
X109132Y707389D01*
X115228D01*
X112180Y701293D01*
X92180Y699261D02*
X87100Y709421D01*
X97260D01*
X92180Y699261D01*
Y701293D02*
X89132Y707389D01*
X95228D01*
X92180Y701293D01*
X82180Y679261D02*
X77100Y689421D01*
X87260D01*
X82180Y679261D01*
Y681293D02*
X79132Y687389D01*
X85228D01*
X82180Y681293D01*
X72180Y699261D02*
X67100Y709421D01*
X77260D01*
X72180Y699261D01*
Y701293D02*
X69132Y707389D01*
X75228D01*
X72180Y701293D01*
X42180Y679261D02*
X37100Y689421D01*
X47260D01*
X42180Y679261D01*
Y681293D02*
X39132Y687389D01*
X45228D01*
X42180Y681293D01*
X32180Y699261D02*
X27100Y709421D01*
X37260D01*
X32180Y699261D01*
Y701293D02*
X29132Y707389D01*
X35228D01*
X32180Y701293D01*
X22180Y679261D02*
X17100Y689421D01*
X27260D01*
X22180Y679261D01*
Y681293D02*
X19132Y687389D01*
X25228D01*
X22180Y681293D01*
X234548Y1459223D02*
X237088Y1464303D01*
X234548Y1469383D01*
X239628Y1466843D01*
X244708Y1469383D01*
X242168Y1464303D01*
X244708Y1459223D01*
X239628Y1461763D01*
X234548Y1459223D01*
X236580Y1461255D02*
X238104Y1464303D01*
X236580Y1467351D01*
X239628Y1465827D01*
X242676Y1467351D01*
X241152Y1464303D01*
X242676Y1461255D01*
X239628Y1462779D01*
X236580Y1461255D01*
X924646Y1075352D02*
X927186Y1080433D01*
X924646Y1085512D01*
X929726Y1082972D01*
X934806Y1085512D01*
X932266Y1080433D01*
X934806Y1075352D01*
X929726Y1077893D01*
X924646Y1075352D01*
X926678Y1077384D02*
X928202Y1080433D01*
X926678Y1083481D01*
X929726Y1081956D01*
X932774Y1083481D01*
X931250Y1080433D01*
X932774Y1077384D01*
X929726Y1078908D01*
X926678Y1077384D01*
X924560Y1061720D02*
X927100Y1066800D01*
X924560Y1071880D01*
X929640Y1069340D01*
X934720Y1071880D01*
X932180Y1066800D01*
X934720Y1061720D01*
X929640Y1064260D01*
X924560Y1061720D01*
X926592Y1063752D02*
X928116Y1066800D01*
X926592Y1069848D01*
X929640Y1068324D01*
X932688Y1069848D01*
X931164Y1066800D01*
X932688Y1063752D01*
X929640Y1065276D01*
X926592Y1063752D01*
X858520Y1074420D02*
X861060Y1079500D01*
X858520Y1084580D01*
X863600Y1082040D01*
X868680Y1084580D01*
X866140Y1079500D01*
X868680Y1074420D01*
X863600Y1076960D01*
X858520Y1074420D01*
X860552Y1076452D02*
X862076Y1079500D01*
X860552Y1082548D01*
X863600Y1081024D01*
X866648Y1082548D01*
X865124Y1079500D01*
X866648Y1076452D01*
X863600Y1077976D01*
X860552Y1076452D01*
X350520Y1397000D02*
X353060Y1399540D01*
X355600D01*
X353060Y1402080D01*
X355600Y1404620D01*
X353060D01*
X350520Y1407160D01*
X347980Y1404620D01*
X345440D01*
X347980Y1402080D01*
X345440Y1399540D01*
X347980D01*
X350520Y1397000D01*
Y1399032D02*
X352044Y1400556D01*
X353568D01*
X352044Y1402080D01*
X353568Y1403604D01*
X352044D01*
X350520Y1405128D01*
X348996Y1403604D01*
X347472D01*
X348996Y1402080D01*
X347472Y1400556D01*
X348996D01*
X350520Y1399032D01*
X360680Y1447800D02*
X363220Y1450340D01*
X365760D01*
X363220Y1452880D01*
X365760Y1455420D01*
X363220D01*
X360680Y1457960D01*
X358140Y1455420D01*
X355600D01*
X358140Y1452880D01*
X355600Y1450340D01*
X358140D01*
X360680Y1447800D01*
Y1449832D02*
X362204Y1451356D01*
X363728D01*
X362204Y1452880D01*
X363728Y1454404D01*
X362204D01*
X360680Y1455928D01*
X359156Y1454404D01*
X357632D01*
X359156Y1452880D01*
X357632Y1451356D01*
X359156D01*
X360680Y1449832D01*
X271780Y967740D02*
X274320Y972820D01*
X271780Y977900D01*
X276860Y975360D01*
X281940Y977900D01*
X279400Y972820D01*
X281940Y967740D01*
X276860Y970280D01*
X271780Y967740D01*
X273812Y969772D02*
X275336Y972820D01*
X273812Y975868D01*
X276860Y974344D01*
X279908Y975868D01*
X278384Y972820D01*
X279908Y969772D01*
X276860Y971296D01*
X273812Y969772D01*
X814465Y675318D02*
Y672778D01*
X819545D01*
Y675318D01*
X822085D01*
Y680398D01*
X819545D01*
Y682938D01*
X814465D01*
Y680398D01*
X811925D01*
Y675318D01*
X814465D01*
X815481Y676334D02*
Y674810D01*
X818529D01*
Y676334D01*
X820053D01*
Y679382D01*
X818529D01*
Y680906D01*
X815481D01*
Y679382D01*
X813957D01*
Y676334D01*
X815481D01*
X20726Y670531D02*
Y667991D01*
X25806D01*
Y670531D01*
X28346D01*
Y675611D01*
X25806D01*
Y678151D01*
X20726D01*
Y675611D01*
X18186D01*
Y670531D01*
X20726D01*
X21742Y671547D02*
Y670023D01*
X24790D01*
Y671547D01*
X26314D01*
Y674595D01*
X24790D01*
Y676119D01*
X21742D01*
Y674595D01*
X20218D01*
Y671547D01*
X21742D01*
X22680Y624799D02*
Y622259D01*
X27760D01*
Y624799D01*
X30300D01*
Y629879D01*
X27760D01*
Y632419D01*
X22680D01*
Y629879D01*
X20140D01*
Y624799D01*
X22680D01*
X23696Y625815D02*
Y624291D01*
X26744D01*
Y625815D01*
X28268D01*
Y628863D01*
X26744D01*
Y630387D01*
X23696D01*
Y628863D01*
X22172D01*
Y625815D01*
X23696D01*
X299720Y1231900D02*
X294640Y1242060D01*
X304800D01*
X299720Y1231900D01*
Y1233932D02*
X296672Y1240028D01*
X302768D01*
X299720Y1233932D01*
X307340Y1231900D02*
X302260Y1242060D01*
X312420D01*
X307340Y1231900D01*
Y1233932D02*
X304292Y1240028D01*
X310388D01*
X307340Y1233932D01*
X327660Y645160D02*
X330200Y647700D01*
X332740D01*
X330200Y650240D01*
X332740Y652780D01*
X330200D01*
X327660Y655320D01*
X325120Y652780D01*
X322580D01*
X325120Y650240D01*
X322580Y647700D01*
X325120D01*
X327660Y645160D01*
Y647192D02*
X329184Y648716D01*
X330708D01*
X329184Y650240D01*
X330708Y651764D01*
X329184D01*
X327660Y653288D01*
X326136Y651764D01*
X324612D01*
X326136Y650240D01*
X324612Y648716D01*
X326136D01*
X327660Y647192D01*
X314960Y746760D02*
X317500Y749300D01*
X320040D01*
X317500Y751840D01*
X320040Y754380D01*
X317500D01*
X314960Y756920D01*
X312420Y754380D01*
X309880D01*
X312420Y751840D01*
X309880Y749300D01*
X312420D01*
X314960Y746760D01*
Y748792D02*
X316484Y750316D01*
X318008D01*
X316484Y751840D01*
X318008Y753364D01*
X316484D01*
X314960Y754888D01*
X313436Y753364D01*
X311912D01*
X313436Y751840D01*
X311912Y750316D01*
X313436D01*
X314960Y748792D01*
X326446Y747126D02*
X328986Y749666D01*
X331526D01*
X328986Y752206D01*
X331526Y754746D01*
X328986D01*
X326446Y757286D01*
X323906Y754746D01*
X321366D01*
X323906Y752206D01*
X321366Y749666D01*
X323906D01*
X326446Y747126D01*
Y749158D02*
X327970Y750682D01*
X329494D01*
X327970Y752206D01*
X329494Y753730D01*
X327970D01*
X326446Y755254D01*
X324922Y753730D01*
X323398D01*
X324922Y752206D01*
X323398Y750682D01*
X324922D01*
X326446Y749158D01*
X459740Y571500D02*
X462280D01*
X464820Y574040D01*
X467360Y571500D01*
X469900D01*
Y574040D01*
X467360Y576580D01*
X469900Y579120D01*
Y581660D01*
X467360D01*
X464820Y579120D01*
X462280Y581660D01*
X459740D01*
Y579120D01*
X462280Y576580D01*
X459740Y574040D01*
Y571500D01*
X461772Y573532D02*
X463296D01*
X464820Y575056D01*
X466344Y573532D01*
X467868D01*
Y575056D01*
X466344Y576580D01*
X467868Y578104D01*
Y579628D01*
X466344D01*
X464820Y578104D01*
X463296Y579628D01*
X461772D01*
Y578104D01*
X463296Y576580D01*
X461772Y575056D01*
Y573532D01*
X744727Y1058992D02*
X747267Y1064072D01*
X744727Y1069152D01*
X749807Y1066612D01*
X754887Y1069152D01*
X752347Y1064072D01*
X754887Y1058992D01*
X749807Y1061532D01*
X744727Y1058992D01*
X746759Y1061024D02*
X748283Y1064072D01*
X746759Y1067120D01*
X749807Y1065596D01*
X752855Y1067120D01*
X751331Y1064072D01*
X752855Y1061024D01*
X749807Y1062548D01*
X746759Y1061024D01*
X754380Y1079500D02*
X756920Y1084580D01*
X754380Y1089660D01*
X759460Y1087120D01*
X764540Y1089660D01*
X762000Y1084580D01*
X764540Y1079500D01*
X759460Y1082040D01*
X754380Y1079500D01*
X756412Y1081532D02*
X757936Y1084580D01*
X756412Y1087628D01*
X759460Y1086104D01*
X762508Y1087628D01*
X760984Y1084580D01*
X762508Y1081532D01*
X759460Y1083056D01*
X756412Y1081532D01*
X746760Y1074420D02*
X749300Y1079500D01*
X746760Y1084580D01*
X751840Y1082040D01*
X756920Y1084580D01*
X754380Y1079500D01*
X756920Y1074420D01*
X751840Y1076960D01*
X746760Y1074420D01*
X748792Y1076452D02*
X750316Y1079500D01*
X748792Y1082548D01*
X751840Y1081024D01*
X754888Y1082548D01*
X753364Y1079500D01*
X754888Y1076452D01*
X751840Y1077976D01*
X748792Y1076452D01*
X755250Y1058405D02*
X757790Y1063485D01*
X755250Y1068565D01*
X760330Y1066025D01*
X765410Y1068565D01*
X762870Y1063485D01*
X765410Y1058405D01*
X760330Y1060945D01*
X755250Y1058405D01*
X757282Y1060437D02*
X758806Y1063485D01*
X757282Y1066533D01*
X760330Y1065009D01*
X763378Y1066533D01*
X761854Y1063485D01*
X763378Y1060437D01*
X760330Y1061961D01*
X757282Y1060437D01*
X797560Y1186180D02*
X800100Y1191260D01*
X797560Y1196340D01*
X802640Y1193800D01*
X807720Y1196340D01*
X805180Y1191260D01*
X807720Y1186180D01*
X802640Y1188720D01*
X797560Y1186180D01*
X799592Y1188212D02*
X801116Y1191260D01*
X799592Y1194308D01*
X802640Y1192784D01*
X805688Y1194308D01*
X804164Y1191260D01*
X805688Y1188212D01*
X802640Y1189736D01*
X799592Y1188212D01*
X219579Y1497516D02*
X222119Y1502596D01*
X219579Y1507675D01*
X224659Y1505135D01*
X229739Y1507675D01*
X227199Y1502596D01*
X229739Y1497516D01*
X224659Y1500056D01*
X219579Y1497516D01*
X221611Y1499547D02*
X223135Y1502596D01*
X221611Y1505643D01*
X224659Y1504120D01*
X227707Y1505643D01*
X226183Y1502596D01*
X227707Y1499547D01*
X224659Y1501071D01*
X221611Y1499547D01*
X302260Y1473200D02*
X304800Y1478280D01*
X302260Y1483360D01*
X307340Y1480820D01*
X312420Y1483360D01*
X309880Y1478280D01*
X312420Y1473200D01*
X307340Y1475740D01*
X302260Y1473200D01*
X304292Y1475232D02*
X305816Y1478280D01*
X304292Y1481328D01*
X307340Y1479804D01*
X310388Y1481328D01*
X308864Y1478280D01*
X310388Y1475232D01*
X307340Y1476756D01*
X304292Y1475232D01*
X786317Y1370884D02*
X781237Y1381044D01*
X791397D01*
X786317Y1370884D01*
Y1372916D02*
X783269Y1379012D01*
X789365D01*
X786317Y1372916D01*
X533400Y1206500D02*
X528320Y1216660D01*
X538480D01*
X533400Y1206500D01*
Y1208532D02*
X530352Y1214628D01*
X536448D01*
X533400Y1208532D01*
X506803Y1206019D02*
X501723Y1216179D01*
X511883D01*
X506803Y1206019D01*
Y1208051D02*
X503755Y1214147D01*
X509851D01*
X506803Y1208051D01*
X507026Y1188386D02*
X501946Y1198546D01*
X512107D01*
X507026Y1188386D01*
Y1190418D02*
X503979Y1196514D01*
X510075D01*
X507026Y1190418D01*
X497045Y1206613D02*
X491965Y1216773D01*
X502125D01*
X497045Y1206613D01*
Y1208645D02*
X493997Y1214741D01*
X500093D01*
X497045Y1208645D01*
X498347Y1188386D02*
X493267Y1198546D01*
X503427D01*
X498347Y1188386D01*
Y1190418D02*
X495299Y1196514D01*
X501395D01*
X498347Y1190418D01*
X529936Y1188121D02*
X524856Y1198281D01*
X535016D01*
X529936Y1188121D01*
Y1190153D02*
X526888Y1196249D01*
X532984D01*
X529936Y1190153D01*
X516409Y1188487D02*
X511329Y1198647D01*
X521489D01*
X516409Y1188487D01*
Y1190519D02*
X513362Y1196615D01*
X519458D01*
X516409Y1190519D01*
X518237Y1207132D02*
X513158Y1217292D01*
X523317D01*
X518237Y1207132D01*
Y1209164D02*
X515190Y1215260D01*
X521286D01*
X518237Y1209164D01*
X453650Y475441D02*
X448570Y485601D01*
X458730D01*
X453650Y475441D01*
Y477473D02*
X450602Y483569D01*
X456698D01*
X453650Y477473D01*
X212842Y480004D02*
X207762Y490164D01*
X217922D01*
X212842Y480004D01*
Y482036D02*
X209794Y488132D01*
X215890D01*
X212842Y482036D01*
X262232Y1055750D02*
X257152Y1065910D01*
X267312D01*
X262232Y1055750D01*
Y1057782D02*
X259184Y1063878D01*
X265280D01*
X262232Y1057782D01*
X249096Y1045017D02*
X244016Y1055177D01*
X254176D01*
X249096Y1045017D01*
Y1047049D02*
X246048Y1053145D01*
X252144D01*
X249096Y1047049D01*
X243979Y1072687D02*
X238899Y1082847D01*
X249059D01*
X243979Y1072687D01*
Y1074719D02*
X240931Y1080815D01*
X247027D01*
X243979Y1074719D01*
X230926Y1062193D02*
X225846Y1072353D01*
X236006D01*
X230926Y1062193D01*
Y1064225D02*
X227878Y1070321D01*
X233974D01*
X230926Y1064225D01*
X103891Y864760D02*
X98811Y874920D01*
X108971D01*
X103891Y864760D01*
Y866792D02*
X100843Y872888D01*
X106939D01*
X103891Y866792D01*
X251460Y1064260D02*
X246380Y1074420D01*
X256540D01*
X251460Y1064260D01*
Y1066292D02*
X248412Y1072388D01*
X254508D01*
X251460Y1066292D01*
X238869Y1054941D02*
X233789Y1065101D01*
X243949D01*
X238869Y1054941D01*
Y1056973D02*
X235821Y1063069D01*
X241917D01*
X238869Y1056973D01*
X100188Y769501D02*
X95108Y779661D01*
X105268D01*
X100188Y769501D01*
Y771533D02*
X97140Y777629D01*
X103236D01*
X100188Y771533D01*
X103171Y675839D02*
X98091Y686000D01*
X108251D01*
X103171Y675839D01*
Y677871D02*
X100123Y683968D01*
X106219D01*
X103171Y677871D01*
X296226Y990916D02*
X291146Y1001076D01*
X301306D01*
X296226Y990916D01*
Y992948D02*
X293178Y999044D01*
X299274D01*
X296226Y992948D01*
Y976361D02*
X291146Y986521D01*
X301306D01*
X296226Y976361D01*
Y978393D02*
X293178Y984489D01*
X299274D01*
X296226Y978393D01*
X305249Y991498D02*
X300169Y1001658D01*
X310329D01*
X305249Y991498D01*
Y993530D02*
X302201Y999626D01*
X308297D01*
X305249Y993530D01*
X306123Y976070D02*
X301043Y986230D01*
X311203D01*
X306123Y976070D01*
Y978102D02*
X303075Y984198D01*
X309171D01*
X306123Y978102D01*
X315861Y991260D02*
X310781Y1001420D01*
X320941D01*
X315861Y991260D01*
Y993292D02*
X312813Y999388D01*
X318909D01*
X315861Y993292D01*
Y977032D02*
X310781Y987192D01*
X320941D01*
X315861Y977032D01*
Y979064D02*
X312813Y985160D01*
X318909D01*
X315861Y979064D01*
X337820Y746760D02*
X340360Y749300D01*
X342900D01*
X340360Y751840D01*
X342900Y754380D01*
X340360D01*
X337820Y756920D01*
X335280Y754380D01*
X332740D01*
X335280Y751840D01*
X332740Y749300D01*
X335280D01*
X337820Y746760D01*
Y748792D02*
X339344Y750316D01*
X340868D01*
X339344Y751840D01*
X340868Y753364D01*
X339344D01*
X337820Y754888D01*
X336296Y753364D01*
X334772D01*
X336296Y751840D01*
X334772Y750316D01*
X336296D01*
X337820Y748792D01*
X821063Y716804D02*
X823603Y721883D01*
X821063Y726964D01*
X826143Y724424D01*
X831223Y726964D01*
X828683Y721883D01*
X831223Y716804D01*
X826143Y719343D01*
X821063Y716804D01*
X823095Y718836D02*
X824619Y721883D01*
X823095Y724931D01*
X826143Y723408D01*
X829191Y724931D01*
X827667Y721883D01*
X829191Y718836D01*
X826143Y720359D01*
X823095Y718836D01*
X807720Y706120D02*
X810260D01*
X812800Y708660D01*
X815340Y706120D01*
X817880D01*
Y708660D01*
X815340Y711200D01*
X817880Y713740D01*
Y716280D01*
X815340D01*
X812800Y713740D01*
X810260Y716280D01*
X807720D01*
Y713740D01*
X810260Y711200D01*
X807720Y708660D01*
Y706120D01*
X809752Y708152D02*
X811276D01*
X812800Y709676D01*
X814324Y708152D01*
X815848D01*
Y709676D01*
X814324Y711200D01*
X815848Y712724D01*
Y714248D01*
X814324D01*
X812800Y712724D01*
X811276Y714248D01*
X809752D01*
Y712724D01*
X811276Y711200D01*
X809752Y709676D01*
Y708152D01*
X802650Y739410D02*
X805190Y744490D01*
X802650Y749570D01*
X807730Y747030D01*
X812810Y749570D01*
X810270Y744490D01*
X812810Y739410D01*
X807730Y741950D01*
X802650Y739410D01*
X804682Y741442D02*
X806206Y744490D01*
X804682Y747538D01*
X807730Y746014D01*
X810778Y747538D01*
X809254Y744490D01*
X810778Y741442D01*
X807730Y742966D01*
X804682Y741442D01*
X904240Y723900D02*
X906780Y726440D01*
X909320D01*
X906780Y728980D01*
X909320Y731520D01*
X906780D01*
X904240Y734060D01*
X901700Y731520D01*
X899160D01*
X901700Y728980D01*
X899160Y726440D01*
X901700D01*
X904240Y723900D01*
Y725932D02*
X905764Y727456D01*
X907288D01*
X905764Y728980D01*
X907288Y730504D01*
X905764D01*
X904240Y732028D01*
X902716Y730504D01*
X901192D01*
X902716Y728980D01*
X901192Y727456D01*
X902716D01*
X904240Y725932D01*
X858660Y678295D02*
X861200Y683375D01*
X858660Y688455D01*
X863740Y685915D01*
X868820Y688455D01*
X866280Y683375D01*
X868820Y678295D01*
X863740Y680835D01*
X858660Y678295D01*
X860692Y680327D02*
X862216Y683375D01*
X860692Y686423D01*
X863740Y684899D01*
X866788Y686423D01*
X865264Y683375D01*
X866788Y680327D01*
X863740Y681851D01*
X860692Y680327D01*
X916233Y766822D02*
X918773Y771902D01*
X916233Y776982D01*
X921313Y774442D01*
X926393Y776982D01*
X923853Y771902D01*
X926393Y766822D01*
X921313Y769362D01*
X916233Y766822D01*
X918265Y768854D02*
X919789Y771902D01*
X918265Y774950D01*
X921313Y773426D01*
X924361Y774950D01*
X922837Y771902D01*
X924361Y768854D01*
X921313Y770378D01*
X918265Y768854D01*
X947888Y822678D02*
X950428Y827758D01*
X947888Y832838D01*
X952968Y830298D01*
X958048Y832838D01*
X955508Y827758D01*
X958048Y822678D01*
X952968Y825218D01*
X947888Y822678D01*
X949920Y824710D02*
X951444Y827758D01*
X949920Y830806D01*
X952968Y829282D01*
X956016Y830806D01*
X954492Y827758D01*
X956016Y824710D01*
X952968Y826234D01*
X949920Y824710D01*
X873760Y848360D02*
X876300Y853440D01*
X873760Y858520D01*
X878840Y855980D01*
X883920Y858520D01*
X881380Y853440D01*
X883920Y848360D01*
X878840Y850900D01*
X873760Y848360D01*
X875792Y850392D02*
X877316Y853440D01*
X875792Y856488D01*
X878840Y854964D01*
X881888Y856488D01*
X880364Y853440D01*
X881888Y850392D01*
X878840Y851916D01*
X875792Y850392D01*
X853440Y848360D02*
X855980Y853440D01*
X853440Y858520D01*
X858520Y855980D01*
X863600Y858520D01*
X861060Y853440D01*
X863600Y848360D01*
X858520Y850900D01*
X853440Y848360D01*
X855472Y850392D02*
X856996Y853440D01*
X855472Y856488D01*
X858520Y854964D01*
X861568Y856488D01*
X860044Y853440D01*
X861568Y850392D01*
X858520Y851916D01*
X855472Y850392D01*
X734060Y711200D02*
X736600Y716280D01*
X734060Y721360D01*
X739140Y718820D01*
X744220Y721360D01*
X741680Y716280D01*
X744220Y711200D01*
X739140Y713740D01*
X734060Y711200D01*
X736092Y713232D02*
X737616Y716280D01*
X736092Y719328D01*
X739140Y717804D01*
X742188Y719328D01*
X740664Y716280D01*
X742188Y713232D01*
X739140Y714756D01*
X736092Y713232D01*
X777240Y734060D02*
X779780Y739140D01*
X777240Y744220D01*
X782320Y741680D01*
X787400Y744220D01*
X784860Y739140D01*
X787400Y734060D01*
X782320Y736600D01*
X777240Y734060D01*
X779272Y736092D02*
X780796Y739140D01*
X779272Y742188D01*
X782320Y740664D01*
X785368Y742188D01*
X783844Y739140D01*
X785368Y736092D01*
X782320Y737616D01*
X779272Y736092D01*
X775692Y648384D02*
X778232Y650924D01*
X780772D01*
X778232Y653464D01*
X780772Y656004D01*
X778232D01*
X775692Y658544D01*
X773152Y656004D01*
X770612D01*
X773152Y653464D01*
X770612Y650924D01*
X773152D01*
X775692Y648384D01*
Y650416D02*
X777216Y651940D01*
X778740D01*
X777216Y653464D01*
X778740Y654988D01*
X777216D01*
X775692Y656512D01*
X774168Y654988D01*
X772644D01*
X774168Y653464D01*
X772644Y651940D01*
X774168D01*
X775692Y650416D01*
X775368Y633050D02*
X777908Y635590D01*
X780448D01*
X777908Y638130D01*
X780448Y640670D01*
X777908D01*
X775368Y643210D01*
X772828Y640670D01*
X770288D01*
X772828Y638130D01*
X770288Y635590D01*
X772828D01*
X775368Y633050D01*
Y635082D02*
X776892Y636606D01*
X778416D01*
X776892Y638130D01*
X778416Y639654D01*
X776892D01*
X775368Y641178D01*
X773844Y639654D01*
X772320D01*
X773844Y638130D01*
X772320Y636606D01*
X773844D01*
X775368Y635082D01*
X721360Y579120D02*
X723900Y581660D01*
X726440D01*
X723900Y584200D01*
X726440Y586740D01*
X723900D01*
X721360Y589280D01*
X718820Y586740D01*
X716280D01*
X718820Y584200D01*
X716280Y581660D01*
X718820D01*
X721360Y579120D01*
Y581152D02*
X722884Y582676D01*
X724408D01*
X722884Y584200D01*
X724408Y585724D01*
X722884D01*
X721360Y587248D01*
X719836Y585724D01*
X718312D01*
X719836Y584200D01*
X718312Y582676D01*
X719836D01*
X721360Y581152D01*
X708660Y566420D02*
X711200Y568960D01*
X713740D01*
X711200Y571500D01*
X713740Y574040D01*
X711200D01*
X708660Y576580D01*
X706120Y574040D01*
X703580D01*
X706120Y571500D01*
X703580Y568960D01*
X706120D01*
X708660Y566420D01*
Y568452D02*
X710184Y569976D01*
X711708D01*
X710184Y571500D01*
X711708Y573024D01*
X710184D01*
X708660Y574548D01*
X707136Y573024D01*
X705612D01*
X707136Y571500D01*
X705612Y569976D01*
X707136D01*
X708660Y568452D01*
X945732Y339671D02*
Y337131D01*
X950812D01*
Y339671D01*
X953352D01*
Y344751D01*
X950812D01*
Y347291D01*
X945732D01*
Y344751D01*
X943192D01*
Y339671D01*
X945732D01*
X946748Y340687D02*
Y339163D01*
X949796D01*
Y340687D01*
X951320D01*
Y343735D01*
X949796D01*
Y345259D01*
X946748D01*
Y343735D01*
X945224D01*
Y340687D01*
X946748D01*
X980440Y332740D02*
Y330200D01*
X985520D01*
Y332740D01*
X988060D01*
Y337820D01*
X985520D01*
Y340360D01*
X980440D01*
Y337820D01*
X977900D01*
Y332740D01*
X980440D01*
X981456Y333756D02*
Y332232D01*
X984504D01*
Y333756D01*
X986028D01*
Y336804D01*
X984504D01*
Y338328D01*
X981456D01*
Y336804D01*
X979932D01*
Y333756D01*
X981456D01*
X940377Y312997D02*
Y310457D01*
X945457D01*
Y312997D01*
X947997D01*
Y318077D01*
X945457D01*
Y320617D01*
X940377D01*
Y318077D01*
X937837D01*
Y312997D01*
X940377D01*
X941393Y314013D02*
Y312489D01*
X944441D01*
Y314013D01*
X945965D01*
Y317061D01*
X944441D01*
Y318585D01*
X941393D01*
Y317061D01*
X939869D01*
Y314013D01*
X941393D01*
X927100Y301880D02*
Y299340D01*
X932180D01*
Y301880D01*
X934720D01*
Y306960D01*
X932180D01*
Y309500D01*
X927100D01*
Y306960D01*
X924560D01*
Y301880D01*
X927100D01*
X928116Y302896D02*
Y301372D01*
X931164D01*
Y302896D01*
X932688D01*
Y305944D01*
X931164D01*
Y307468D01*
X928116D01*
Y305944D01*
X926592D01*
Y302896D01*
X928116D01*
X957580Y304800D02*
Y302260D01*
X962660D01*
Y304800D01*
X965200D01*
Y309880D01*
X962660D01*
Y312420D01*
X957580D01*
Y309880D01*
X955040D01*
Y304800D01*
X957580D01*
X958596Y305816D02*
Y304292D01*
X961644D01*
Y305816D01*
X963168D01*
Y308864D01*
X961644D01*
Y310388D01*
X958596D01*
Y308864D01*
X957072D01*
Y305816D01*
X958596D01*
X958251Y329057D02*
Y326517D01*
X963331D01*
Y329057D01*
X965871D01*
Y334137D01*
X963331D01*
Y336677D01*
X958251D01*
Y334137D01*
X955711D01*
Y329057D01*
X958251D01*
X959267Y330073D02*
Y328549D01*
X962315D01*
Y330073D01*
X963839D01*
Y333121D01*
X962315D01*
Y334645D01*
X959267D01*
Y333121D01*
X957743D01*
Y330073D01*
X959267D01*
X548640Y518160D02*
X551180Y523240D01*
X548640Y528320D01*
X553720Y525780D01*
X558800Y528320D01*
X556260Y523240D01*
X558800Y518160D01*
X553720Y520700D01*
X548640Y518160D01*
X550672Y520192D02*
X552196Y523240D01*
X550672Y526288D01*
X553720Y524764D01*
X556768Y526288D01*
X555244Y523240D01*
X556768Y520192D01*
X553720Y521716D01*
X550672Y520192D01*
X307340Y520700D02*
X309880Y525780D01*
X307340Y530860D01*
X312420Y528320D01*
X317500Y530860D01*
X314960Y525780D01*
X317500Y520700D01*
X312420Y523240D01*
X307340Y520700D01*
X309372Y522732D02*
X310896Y525780D01*
X309372Y528828D01*
X312420Y527304D01*
X315468Y528828D01*
X313944Y525780D01*
X315468Y522732D01*
X312420Y524256D01*
X309372Y522732D01*
X262050Y485095D02*
X264590Y487635D01*
X267130D01*
X264590Y490175D01*
X267130Y492715D01*
X264590D01*
X262050Y495255D01*
X259510Y492715D01*
X256970D01*
X259510Y490175D01*
X256970Y487635D01*
X259510D01*
X262050Y485095D01*
Y487127D02*
X263574Y488651D01*
X265098D01*
X263574Y490175D01*
X265098Y491699D01*
X263574D01*
X262050Y493223D01*
X260526Y491699D01*
X259002D01*
X260526Y490175D01*
X259002Y488651D01*
X260526D01*
X262050Y487127D01*
X254017Y498931D02*
X256557Y501470D01*
X259097D01*
X256557Y504011D01*
X259097Y506550D01*
X256557D01*
X254017Y509090D01*
X251477Y506550D01*
X248937D01*
X251477Y504011D01*
X248937Y501470D01*
X251477D01*
X254017Y498931D01*
Y500962D02*
X255541Y502486D01*
X257065D01*
X255541Y504011D01*
X257065Y505535D01*
X255541D01*
X254017Y507058D01*
X252493Y505535D01*
X250969D01*
X252493Y504011D01*
X250969Y502486D01*
X252493D01*
X254017Y500962D01*
X506518Y473344D02*
X509058Y475884D01*
X511598D01*
X509058Y478424D01*
X511598Y480964D01*
X509058D01*
X506518Y483504D01*
X503978Y480964D01*
X501438D01*
X503978Y478424D01*
X501438Y475884D01*
X503978D01*
X506518Y473344D01*
Y475376D02*
X508042Y476900D01*
X509566D01*
X508042Y478424D01*
X509566Y479948D01*
X508042D01*
X506518Y481472D01*
X504994Y479948D01*
X503470D01*
X504994Y478424D01*
X503470Y476900D01*
X504994D01*
X506518Y475376D01*
X500380Y495300D02*
X502920Y497840D01*
X505460D01*
X502920Y500380D01*
X505460Y502920D01*
X502920D01*
X500380Y505460D01*
X497840Y502920D01*
X495300D01*
X497840Y500380D01*
X495300Y497840D01*
X497840D01*
X500380Y495300D01*
Y497332D02*
X501904Y498856D01*
X503428D01*
X501904Y500380D01*
X503428Y501904D01*
X501904D01*
X500380Y503428D01*
X498856Y501904D01*
X497332D01*
X498856Y500380D01*
X497332Y498856D01*
X498856D01*
X500380Y497332D01*
X790742Y479215D02*
X793282Y481755D01*
X795822D01*
X793282Y484295D01*
X795822Y486835D01*
X793282D01*
X790742Y489375D01*
X788202Y486835D01*
X785662D01*
X788202Y484295D01*
X785662Y481755D01*
X788202D01*
X790742Y479215D01*
Y481247D02*
X792266Y482771D01*
X793790D01*
X792266Y484295D01*
X793790Y485819D01*
X792266D01*
X790742Y487343D01*
X789218Y485819D01*
X787694D01*
X789218Y484295D01*
X787694Y482771D01*
X789218D01*
X790742Y481247D01*
X782420Y494983D02*
X784960Y497523D01*
X787500D01*
X784960Y500063D01*
X787500Y502603D01*
X784960D01*
X782420Y505143D01*
X779880Y502603D01*
X777340D01*
X779880Y500063D01*
X777340Y497523D01*
X779880D01*
X782420Y494983D01*
Y497015D02*
X783944Y498539D01*
X785468D01*
X783944Y500063D01*
X785468Y501587D01*
X783944D01*
X782420Y503111D01*
X780896Y501587D01*
X779372D01*
X780896Y500063D01*
X779372Y498539D01*
X780896D01*
X782420Y497015D01*
X835660Y525780D02*
X838200Y528320D01*
X840740D01*
X838200Y530860D01*
X840740Y533400D01*
X838200D01*
X835660Y535940D01*
X833120Y533400D01*
X830580D01*
X833120Y530860D01*
X830580Y528320D01*
X833120D01*
X835660Y525780D01*
Y527812D02*
X837184Y529336D01*
X838708D01*
X837184Y530860D01*
X838708Y532384D01*
X837184D01*
X835660Y533908D01*
X834136Y532384D01*
X832612D01*
X834136Y530860D01*
X832612Y529336D01*
X834136D01*
X835660Y527812D01*
X727006Y475905D02*
X729546Y478445D01*
X732086D01*
X729546Y480985D01*
X732086Y483525D01*
X729546D01*
X727006Y486065D01*
X724466Y483525D01*
X721926D01*
X724466Y480985D01*
X721926Y478445D01*
X724466D01*
X727006Y475905D01*
Y477937D02*
X728530Y479461D01*
X730054D01*
X728530Y480985D01*
X730054Y482509D01*
X728530D01*
X727006Y484033D01*
X725482Y482509D01*
X723958D01*
X725482Y480985D01*
X723958Y479461D01*
X725482D01*
X727006Y477937D01*
X407170Y688766D02*
X409711Y691306D01*
X412251D01*
X409711Y693846D01*
X412251Y696386D01*
X409711D01*
X407170Y698926D01*
X404631Y696386D01*
X402090D01*
X404631Y693846D01*
X402090Y691306D01*
X404631D01*
X407170Y688766D01*
Y690798D02*
X408694Y692322D01*
X410219D01*
X408694Y693846D01*
X410219Y695370D01*
X408694D01*
X407170Y696894D01*
X405647Y695370D01*
X404123D01*
X405647Y693846D01*
X404123Y692322D01*
X405647D01*
X407170Y690798D01*
X438661Y605835D02*
X441201Y608375D01*
X443741D01*
X441201Y610915D01*
X443741Y613455D01*
X441201D01*
X438661Y615995D01*
X436121Y613455D01*
X433581D01*
X436121Y610915D01*
X433581Y608375D01*
X436121D01*
X438661Y605835D01*
Y607867D02*
X440185Y609391D01*
X441709D01*
X440185Y610915D01*
X441709Y612439D01*
X440185D01*
X438661Y613963D01*
X437137Y612439D01*
X435613D01*
X437137Y610915D01*
X435613Y609391D01*
X437137D01*
X438661Y607867D01*
X431697Y668103D02*
X434237Y670643D01*
X436777D01*
X434237Y673183D01*
X436777Y675723D01*
X434237D01*
X431697Y678263D01*
X429157Y675723D01*
X426617D01*
X429157Y673183D01*
X426617Y670643D01*
X429157D01*
X431697Y668103D01*
Y670135D02*
X433221Y671659D01*
X434745D01*
X433221Y673183D01*
X434745Y674707D01*
X433221D01*
X431697Y676231D01*
X430173Y674707D01*
X428649D01*
X430173Y673183D01*
X428649Y671659D01*
X430173D01*
X431697Y670135D01*
X348441Y667117D02*
X350980Y669658D01*
X353521D01*
X350980Y672197D01*
X353521Y674737D01*
X350980D01*
X348441Y677278D01*
X345900Y674737D01*
X343360D01*
X345900Y672197D01*
X343360Y669658D01*
X345900D01*
X348441Y667117D01*
Y669149D02*
X349964Y670674D01*
X351488D01*
X349964Y672197D01*
X351488Y673721D01*
X349964D01*
X348441Y675246D01*
X346917Y673721D01*
X345392D01*
X346917Y672197D01*
X345392Y670674D01*
X346917D01*
X348441Y669149D01*
X563880Y772160D02*
X566420Y774700D01*
X568960D01*
X566420Y777240D01*
X568960Y779780D01*
X566420D01*
X563880Y782320D01*
X561340Y779780D01*
X558800D01*
X561340Y777240D01*
X558800Y774700D01*
X561340D01*
X563880Y772160D01*
Y774192D02*
X565404Y775716D01*
X566928D01*
X565404Y777240D01*
X566928Y778764D01*
X565404D01*
X563880Y780288D01*
X562356Y778764D01*
X560832D01*
X562356Y777240D01*
X560832Y775716D01*
X562356D01*
X563880Y774192D01*
X683124Y763850D02*
X685665Y766391D01*
X688204D01*
X685665Y768931D01*
X688204Y771470D01*
X685665D01*
X683124Y774010D01*
X680584Y771470D01*
X678045D01*
X680584Y768931D01*
X678045Y766391D01*
X680584D01*
X683124Y763850D01*
Y765882D02*
X684649Y767406D01*
X686172D01*
X684649Y768931D01*
X686172Y770454D01*
X684649D01*
X683124Y771979D01*
X681600Y770454D01*
X680077D01*
X681600Y768931D01*
X680077Y767406D01*
X681600D01*
X683124Y765882D01*
X681595Y785268D02*
X684135Y787808D01*
X686675D01*
X684135Y790348D01*
X686675Y792888D01*
X684135D01*
X681595Y795428D01*
X679055Y792888D01*
X676515D01*
X679055Y790348D01*
X676515Y787808D01*
X679055D01*
X681595Y785268D01*
Y787300D02*
X683119Y788824D01*
X684643D01*
X683119Y790348D01*
X684643Y791872D01*
X683119D01*
X681595Y793396D01*
X680071Y791872D01*
X678547D01*
X680071Y790348D01*
X678547Y788824D01*
X680071D01*
X681595Y787300D01*
X673475Y874235D02*
X676015Y876775D01*
X678555D01*
X676015Y879315D01*
X678555Y881855D01*
X676015D01*
X673475Y884395D01*
X670935Y881855D01*
X668395D01*
X670935Y879315D01*
X668395Y876775D01*
X670935D01*
X673475Y874235D01*
Y876267D02*
X674999Y877791D01*
X676523D01*
X674999Y879315D01*
X676523Y880839D01*
X674999D01*
X673475Y882363D01*
X671951Y880839D01*
X670427D01*
X671951Y879315D01*
X670427Y877791D01*
X671951D01*
X673475Y876267D01*
X616808Y775378D02*
X619348Y777918D01*
X621888D01*
X619348Y780458D01*
X621888Y782998D01*
X619348D01*
X616808Y785538D01*
X614268Y782998D01*
X611728D01*
X614268Y780458D01*
X611728Y777918D01*
X614268D01*
X616808Y775378D01*
Y777410D02*
X618332Y778934D01*
X619856D01*
X618332Y780458D01*
X619856Y781982D01*
X618332D01*
X616808Y783506D01*
X615284Y781982D01*
X613760D01*
X615284Y780458D01*
X613760Y778934D01*
X615284D01*
X616808Y777410D01*
X633117Y776320D02*
X635658Y778860D01*
X638198D01*
X635658Y781400D01*
X638198Y783940D01*
X635658D01*
X633117Y786480D01*
X630578Y783940D01*
X628037D01*
X630578Y781400D01*
X628037Y778860D01*
X630578D01*
X633117Y776320D01*
Y778352D02*
X634641Y779876D01*
X636166D01*
X634641Y781400D01*
X636166Y782924D01*
X634641D01*
X633117Y784448D01*
X631594Y782924D01*
X630070D01*
X631594Y781400D01*
X630070Y779876D01*
X631594D01*
X633117Y778352D01*
X578115Y632102D02*
X580655Y634642D01*
X583195D01*
X580655Y637182D01*
X583195Y639722D01*
X580655D01*
X578115Y642262D01*
X575575Y639722D01*
X573035D01*
X575575Y637182D01*
X573035Y634642D01*
X575575D01*
X578115Y632102D01*
Y634134D02*
X579639Y635658D01*
X581163D01*
X579639Y637182D01*
X581163Y638706D01*
X579639D01*
X578115Y640230D01*
X576591Y638706D01*
X575067D01*
X576591Y637182D01*
X575067Y635658D01*
X576591D01*
X578115Y634134D01*
X622416Y596140D02*
X624956Y598680D01*
X627496D01*
X624956Y601220D01*
X627496Y603760D01*
X624956D01*
X622416Y606300D01*
X619876Y603760D01*
X617336D01*
X619876Y601220D01*
X617336Y598680D01*
X619876D01*
X622416Y596140D01*
Y598172D02*
X623940Y599696D01*
X625464D01*
X623940Y601220D01*
X625464Y602744D01*
X623940D01*
X622416Y604268D01*
X620892Y602744D01*
X619368D01*
X620892Y601220D01*
X619368Y599696D01*
X620892D01*
X622416Y598172D01*
X637635Y598121D02*
X640175Y600661D01*
X642715D01*
X640175Y603201D01*
X642715Y605741D01*
X640175D01*
X637635Y608281D01*
X635095Y605741D01*
X632555D01*
X635095Y603201D01*
X632555Y600661D01*
X635095D01*
X637635Y598121D01*
Y600153D02*
X639159Y601677D01*
X640683D01*
X639159Y603201D01*
X640683Y604725D01*
X639159D01*
X637635Y606249D01*
X636111Y604725D01*
X634587D01*
X636111Y603201D01*
X634587Y601677D01*
X636111D01*
X637635Y600153D01*
X396240Y1115060D02*
X398780Y1117600D01*
X401320D01*
X398780Y1120140D01*
X401320Y1122680D01*
X398780D01*
X396240Y1125220D01*
X393700Y1122680D01*
X391160D01*
X393700Y1120140D01*
X391160Y1117600D01*
X393700D01*
X396240Y1115060D01*
Y1117092D02*
X397764Y1118616D01*
X399288D01*
X397764Y1120140D01*
X399288Y1121664D01*
X397764D01*
X396240Y1123188D01*
X394716Y1121664D01*
X393192D01*
X394716Y1120140D01*
X393192Y1118616D01*
X394716D01*
X396240Y1117092D01*
X451002Y1106607D02*
X453541Y1109147D01*
X456082D01*
X453541Y1111687D01*
X456082Y1114227D01*
X453541D01*
X451002Y1116767D01*
X448461Y1114227D01*
X445922D01*
X448461Y1111687D01*
X445922Y1109147D01*
X448461D01*
X451002Y1106607D01*
Y1108639D02*
X452525Y1110163D01*
X454049D01*
X452525Y1111687D01*
X454049Y1113211D01*
X452525D01*
X451002Y1114735D01*
X449478Y1113211D01*
X447953D01*
X449478Y1111687D01*
X447953Y1110163D01*
X449478D01*
X451002Y1108639D01*
X411480Y1107440D02*
X414020Y1109980D01*
X416560D01*
X414020Y1112520D01*
X416560Y1115060D01*
X414020D01*
X411480Y1117600D01*
X408940Y1115060D01*
X406400D01*
X408940Y1112520D01*
X406400Y1109980D01*
X408940D01*
X411480Y1107440D01*
Y1109472D02*
X413004Y1110996D01*
X414528D01*
X413004Y1112520D01*
X414528Y1114044D01*
X413004D01*
X411480Y1115568D01*
X409956Y1114044D01*
X408432D01*
X409956Y1112520D01*
X408432Y1110996D01*
X409956D01*
X411480Y1109472D01*
X452120Y1074420D02*
X454660Y1076960D01*
X457200D01*
X454660Y1079500D01*
X457200Y1082040D01*
X454660D01*
X452120Y1084580D01*
X449580Y1082040D01*
X447040D01*
X449580Y1079500D01*
X447040Y1076960D01*
X449580D01*
X452120Y1074420D01*
Y1076452D02*
X453644Y1077976D01*
X455168D01*
X453644Y1079500D01*
X455168Y1081024D01*
X453644D01*
X452120Y1082548D01*
X450596Y1081024D01*
X449072D01*
X450596Y1079500D01*
X449072Y1077976D01*
X450596D01*
X452120Y1076452D01*
X241859Y1084833D02*
X244399Y1087373D01*
X246939D01*
X244399Y1089913D01*
X246939Y1092453D01*
X244399D01*
X241859Y1094993D01*
X239319Y1092453D01*
X236779D01*
X239319Y1089913D01*
X236779Y1087373D01*
X239319D01*
X241859Y1084833D01*
Y1086865D02*
X243383Y1088389D01*
X244907D01*
X243383Y1089913D01*
X244907Y1091437D01*
X243383D01*
X241859Y1092961D01*
X240335Y1091437D01*
X238811D01*
X240335Y1089913D01*
X238811Y1088389D01*
X240335D01*
X241859Y1086865D01*
X214839Y1084511D02*
X217379Y1087051D01*
X219919D01*
X217379Y1089591D01*
X219919Y1092131D01*
X217379D01*
X214839Y1094671D01*
X212299Y1092131D01*
X209759D01*
X212299Y1089591D01*
X209759Y1087051D01*
X212299D01*
X214839Y1084511D01*
Y1086543D02*
X216363Y1088067D01*
X217887D01*
X216363Y1089591D01*
X217887Y1091115D01*
X216363D01*
X214839Y1092639D01*
X213315Y1091115D01*
X211791D01*
X213315Y1089591D01*
X211791Y1088067D01*
X213315D01*
X214839Y1086543D01*
X193040Y1043940D02*
X195580Y1046480D01*
X198120D01*
X195580Y1049020D01*
X198120Y1051560D01*
X195580D01*
X193040Y1054100D01*
X190500Y1051560D01*
X187960D01*
X190500Y1049020D01*
X187960Y1046480D01*
X190500D01*
X193040Y1043940D01*
Y1045972D02*
X194564Y1047496D01*
X196088D01*
X194564Y1049020D01*
X196088Y1050544D01*
X194564D01*
X193040Y1052068D01*
X191516Y1050544D01*
X189992D01*
X191516Y1049020D01*
X189992Y1047496D01*
X191516D01*
X193040Y1045972D01*
X792480Y1183640D02*
X795020Y1186180D01*
X797560D01*
X795020Y1188720D01*
X797560Y1191260D01*
X795020D01*
X792480Y1193800D01*
X789940Y1191260D01*
X787400D01*
X789940Y1188720D01*
X787400Y1186180D01*
X789940D01*
X792480Y1183640D01*
Y1185672D02*
X794004Y1187196D01*
X795528D01*
X794004Y1188720D01*
X795528Y1190244D01*
X794004D01*
X792480Y1191768D01*
X790956Y1190244D01*
X789432D01*
X790956Y1188720D01*
X789432Y1187196D01*
X790956D01*
X792480Y1185672D01*
X780917Y1113666D02*
X783457Y1118746D01*
X780917Y1123826D01*
X785997Y1121286D01*
X791077Y1123826D01*
X788537Y1118746D01*
X791077Y1113666D01*
X785997Y1116206D01*
X780917Y1113666D01*
X782949Y1115698D02*
X784473Y1118746D01*
X782949Y1121794D01*
X785997Y1120270D01*
X789045Y1121794D01*
X787521Y1118746D01*
X789045Y1115698D01*
X785997Y1117222D01*
X782949Y1115698D01*
X808792Y1111862D02*
X811331Y1116942D01*
X808792Y1122022D01*
X813872Y1119482D01*
X818951Y1122022D01*
X816412Y1116942D01*
X818951Y1111862D01*
X813872Y1114402D01*
X808792Y1111862D01*
X810824Y1113894D02*
X812347Y1116942D01*
X810824Y1119990D01*
X813872Y1118466D01*
X816919Y1119990D01*
X815396Y1116942D01*
X816919Y1113894D01*
X813872Y1115418D01*
X810824Y1113894D01*
X792365Y1091016D02*
X794904Y1096096D01*
X792365Y1101176D01*
X797445Y1098636D01*
X802524Y1101176D01*
X799985Y1096096D01*
X802524Y1091016D01*
X797445Y1093556D01*
X792365Y1091016D01*
X794397Y1093048D02*
X795920Y1096096D01*
X794397Y1099144D01*
X797445Y1097620D01*
X800492Y1099144D01*
X798969Y1096096D01*
X800492Y1093048D01*
X797445Y1094572D01*
X794397Y1093048D01*
X835438Y1121209D02*
X837978Y1126289D01*
X835438Y1131369D01*
X840518Y1128829D01*
X845598Y1131369D01*
X843058Y1126289D01*
X845598Y1121209D01*
X840518Y1123749D01*
X835438Y1121209D01*
X837470Y1123241D02*
X838994Y1126289D01*
X837470Y1129337D01*
X840518Y1127813D01*
X843566Y1129337D01*
X842042Y1126289D01*
X843566Y1123241D01*
X840518Y1124765D01*
X837470Y1123241D01*
X835660Y962660D02*
X838200Y967740D01*
X835660Y972820D01*
X840740Y970280D01*
X845820Y972820D01*
X843280Y967740D01*
X845820Y962660D01*
X840740Y965200D01*
X835660Y962660D01*
X837692Y964692D02*
X839216Y967740D01*
X837692Y970788D01*
X840740Y969264D01*
X843788Y970788D01*
X842264Y967740D01*
X843788Y964692D01*
X840740Y966216D01*
X837692Y964692D01*
X858520Y1049020D02*
X861060Y1054100D01*
X858520Y1059180D01*
X863600Y1056640D01*
X868680Y1059180D01*
X866140Y1054100D01*
X868680Y1049020D01*
X863600Y1051560D01*
X858520Y1049020D01*
X860552Y1051052D02*
X862076Y1054100D01*
X860552Y1057148D01*
X863600Y1055624D01*
X866648Y1057148D01*
X865124Y1054100D01*
X866648Y1051052D01*
X863600Y1052576D01*
X860552Y1051052D01*
X902154Y1091270D02*
X904695Y1096349D01*
X902154Y1101430D01*
X907234Y1098889D01*
X912315Y1101430D01*
X909774Y1096349D01*
X912315Y1091270D01*
X907234Y1093810D01*
X902154Y1091270D01*
X904186Y1093301D02*
X905711Y1096349D01*
X904186Y1099398D01*
X907234Y1097874D01*
X910283Y1099398D01*
X908758Y1096349D01*
X910283Y1093301D01*
X907234Y1094826D01*
X904186Y1093301D01*
X907436Y1178022D02*
X909976Y1180562D01*
X912516D01*
X909976Y1183102D01*
X912516Y1185642D01*
X909976D01*
X907436Y1188182D01*
X904896Y1185642D01*
X902356D01*
X904896Y1183102D01*
X902356Y1180562D01*
X904896D01*
X907436Y1178022D01*
Y1180054D02*
X908960Y1181578D01*
X910484D01*
X908960Y1183102D01*
X910484Y1184626D01*
X908960D01*
X907436Y1186150D01*
X905912Y1184626D01*
X904388D01*
X905912Y1183102D01*
X904388Y1181578D01*
X905912D01*
X907436Y1180054D01*
X902029Y1045922D02*
X904569Y1051002D01*
X902029Y1056082D01*
X907109Y1053542D01*
X912189Y1056082D01*
X909649Y1051002D01*
X912189Y1045922D01*
X907109Y1048462D01*
X902029Y1045922D01*
X904061Y1047954D02*
X905585Y1051002D01*
X904061Y1054050D01*
X907109Y1052526D01*
X910157Y1054050D01*
X908633Y1051002D01*
X910157Y1047954D01*
X907109Y1049478D01*
X904061Y1047954D01*
X406400Y1099820D02*
X408940Y1104900D01*
X406400Y1109980D01*
X411480Y1107440D01*
X416560Y1109980D01*
X414020Y1104900D01*
X416560Y1099820D01*
X411480Y1102360D01*
X406400Y1099820D01*
X408432Y1101852D02*
X409956Y1104900D01*
X408432Y1107948D01*
X411480Y1106424D01*
X414528Y1107948D01*
X413004Y1104900D01*
X414528Y1101852D01*
X411480Y1103376D01*
X408432Y1101852D01*
X396240Y1099820D02*
X398780Y1104900D01*
X396240Y1109980D01*
X401320Y1107440D01*
X406400Y1109980D01*
X403860Y1104900D01*
X406400Y1099820D01*
X401320Y1102360D01*
X396240Y1099820D01*
X398272Y1101852D02*
X399796Y1104900D01*
X398272Y1107948D01*
X401320Y1106424D01*
X404368Y1107948D01*
X402844Y1104900D01*
X404368Y1101852D01*
X401320Y1103376D01*
X398272Y1101852D01*
X673197Y1108233D02*
X675738Y1113313D01*
X673197Y1118393D01*
X678278Y1115853D01*
X683357Y1118393D01*
X680817Y1113313D01*
X683357Y1108233D01*
X678278Y1110773D01*
X673197Y1108233D01*
X675229Y1110265D02*
X676753Y1113313D01*
X675229Y1116361D01*
X678278Y1114837D01*
X681326Y1116361D01*
X679801Y1113313D01*
X681326Y1110265D01*
X678278Y1111789D01*
X675229Y1110265D01*
X663016Y1123558D02*
X665556Y1128638D01*
X663016Y1133718D01*
X668096Y1131178D01*
X673176Y1133718D01*
X670636Y1128638D01*
X673176Y1123558D01*
X668096Y1126098D01*
X663016Y1123558D01*
X665048Y1125590D02*
X666572Y1128638D01*
X665048Y1131686D01*
X668096Y1130162D01*
X671144Y1131686D01*
X669620Y1128638D01*
X671144Y1125590D01*
X668096Y1127114D01*
X665048Y1125590D01*
X673100Y995680D02*
X675640Y1000760D01*
X673100Y1005840D01*
X678180Y1003300D01*
X683260Y1005840D01*
X680720Y1000760D01*
X683260Y995680D01*
X678180Y998220D01*
X673100Y995680D01*
X675132Y997712D02*
X676656Y1000760D01*
X675132Y1003808D01*
X678180Y1002284D01*
X681228Y1003808D01*
X679704Y1000760D01*
X681228Y997712D01*
X678180Y999236D01*
X675132Y997712D01*
X674409Y987495D02*
X676949Y992575D01*
X674409Y997655D01*
X679489Y995115D01*
X684569Y997655D01*
X682029Y992575D01*
X684569Y987495D01*
X679489Y990035D01*
X674409Y987495D01*
X676441Y989527D02*
X677965Y992575D01*
X676441Y995623D01*
X679489Y994099D01*
X682537Y995623D01*
X681013Y992575D01*
X682537Y989527D01*
X679489Y991051D01*
X676441Y989527D01*
X690889Y1043446D02*
X693429Y1048526D01*
X690889Y1053606D01*
X695969Y1051066D01*
X701049Y1053606D01*
X698509Y1048526D01*
X701049Y1043446D01*
X695969Y1045986D01*
X690889Y1043446D01*
X692921Y1045478D02*
X694445Y1048526D01*
X692921Y1051574D01*
X695969Y1050050D01*
X699017Y1051574D01*
X697493Y1048526D01*
X699017Y1045478D01*
X695969Y1047002D01*
X692921Y1045478D01*
X690880Y1051560D02*
X693420Y1056640D01*
X690880Y1061720D01*
X695960Y1059180D01*
X701040Y1061720D01*
X698500Y1056640D01*
X701040Y1051560D01*
X695960Y1054100D01*
X690880Y1051560D01*
X692912Y1053592D02*
X694436Y1056640D01*
X692912Y1059688D01*
X695960Y1058164D01*
X699008Y1059688D01*
X697484Y1056640D01*
X699008Y1053592D01*
X695960Y1055116D01*
X692912Y1053592D01*
X709446Y1098382D02*
X711986Y1100922D01*
X714526D01*
X711986Y1103462D01*
X714526Y1106002D01*
X711986D01*
X709446Y1108542D01*
X706906Y1106002D01*
X704366D01*
X706906Y1103462D01*
X704366Y1100922D01*
X706906D01*
X709446Y1098382D01*
Y1100414D02*
X710970Y1101938D01*
X712494D01*
X710970Y1103462D01*
X712494Y1104986D01*
X710970D01*
X709446Y1106510D01*
X707922Y1104986D01*
X706398D01*
X707922Y1103462D01*
X706398Y1101938D01*
X707922D01*
X709446Y1100414D01*
X380188Y1044551D02*
X382728Y1047091D01*
X385268D01*
X382728Y1049631D01*
X385268Y1052171D01*
X382728D01*
X380188Y1054711D01*
X377648Y1052171D01*
X375108D01*
X377648Y1049631D01*
X375108Y1047091D01*
X377648D01*
X380188Y1044551D01*
Y1046583D02*
X381712Y1048107D01*
X383236D01*
X381712Y1049631D01*
X383236Y1051155D01*
X381712D01*
X380188Y1052679D01*
X378664Y1051155D01*
X377140D01*
X378664Y1049631D01*
X377140Y1048107D01*
X378664D01*
X380188Y1046583D01*
X339463Y1033935D02*
X342003Y1036475D01*
X344543D01*
X342003Y1039015D01*
X344543Y1041555D01*
X342003D01*
X339463Y1044095D01*
X336923Y1041555D01*
X334383D01*
X336923Y1039015D01*
X334383Y1036475D01*
X336923D01*
X339463Y1033935D01*
Y1035967D02*
X340987Y1037491D01*
X342511D01*
X340987Y1039015D01*
X342511Y1040539D01*
X340987D01*
X339463Y1042063D01*
X337939Y1040539D01*
X336415D01*
X337939Y1039015D01*
X336415Y1037491D01*
X337939D01*
X339463Y1035967D01*
X362238Y991570D02*
X364778Y994110D01*
X367318D01*
X364778Y996650D01*
X367318Y999190D01*
X364778D01*
X362238Y1001730D01*
X359698Y999190D01*
X357158D01*
X359698Y996650D01*
X357158Y994110D01*
X359698D01*
X362238Y991570D01*
Y993602D02*
X363762Y995126D01*
X365286D01*
X363762Y996650D01*
X365286Y998174D01*
X363762D01*
X362238Y999698D01*
X360714Y998174D01*
X359190D01*
X360714Y996650D01*
X359190Y995126D01*
X360714D01*
X362238Y993602D01*
X335107Y957885D02*
X337647Y962965D01*
X335107Y968045D01*
X340187Y965505D01*
X345267Y968045D01*
X342727Y962965D01*
X345267Y957885D01*
X340187Y960425D01*
X335107Y957885D01*
X337139Y959917D02*
X338663Y962965D01*
X337139Y966013D01*
X340187Y964489D01*
X343235Y966013D01*
X341711Y962965D01*
X343235Y959917D01*
X340187Y961441D01*
X337139Y959917D01*
X449251Y1150837D02*
X451791Y1155917D01*
X449251Y1160997D01*
X454331Y1158457D01*
X459411Y1160997D01*
X456871Y1155917D01*
X459411Y1150837D01*
X454331Y1153377D01*
X449251Y1150837D01*
X451283Y1152869D02*
X452807Y1155917D01*
X451283Y1158965D01*
X454331Y1157441D01*
X457379Y1158965D01*
X455855Y1155917D01*
X457379Y1152869D01*
X454331Y1154393D01*
X451283Y1152869D01*
X442181Y1163402D02*
X444721Y1168482D01*
X442181Y1173562D01*
X447261Y1171022D01*
X452341Y1173562D01*
X449801Y1168482D01*
X452341Y1163402D01*
X447261Y1165942D01*
X442181Y1163402D01*
X444213Y1165434D02*
X445737Y1168482D01*
X444213Y1171530D01*
X447261Y1170006D01*
X450309Y1171530D01*
X448785Y1168482D01*
X450309Y1165434D01*
X447261Y1166958D01*
X444213Y1165434D01*
X424180Y1153160D02*
X426720Y1158240D01*
X424180Y1163320D01*
X429260Y1160780D01*
X434340Y1163320D01*
X431800Y1158240D01*
X434340Y1153160D01*
X429260Y1155700D01*
X424180Y1153160D01*
X426212Y1155192D02*
X427736Y1158240D01*
X426212Y1161288D01*
X429260Y1159764D01*
X432308Y1161288D01*
X430784Y1158240D01*
X432308Y1155192D01*
X429260Y1156716D01*
X426212Y1155192D01*
X557279Y1165645D02*
X559819Y1170725D01*
X557279Y1175805D01*
X562359Y1173265D01*
X567439Y1175805D01*
X564899Y1170725D01*
X567439Y1165645D01*
X562359Y1168185D01*
X557279Y1165645D01*
X559311Y1167677D02*
X560835Y1170725D01*
X559311Y1173773D01*
X562359Y1172249D01*
X565407Y1173773D01*
X563883Y1170725D01*
X565407Y1167677D01*
X562359Y1169201D01*
X559311Y1167677D01*
X565956Y1165025D02*
X568496Y1170105D01*
X565956Y1175185D01*
X571036Y1172645D01*
X576116Y1175185D01*
X573576Y1170105D01*
X576116Y1165025D01*
X571036Y1167565D01*
X565956Y1165025D01*
X567988Y1167057D02*
X569512Y1170105D01*
X567988Y1173153D01*
X571036Y1171629D01*
X574084Y1173153D01*
X572560Y1170105D01*
X574084Y1167057D01*
X571036Y1168581D01*
X567988Y1167057D01*
X389134Y1032498D02*
X391674Y1037578D01*
X389134Y1042658D01*
X394214Y1040118D01*
X399294Y1042658D01*
X396754Y1037578D01*
X399294Y1032498D01*
X394214Y1035038D01*
X389134Y1032498D01*
X391166Y1034530D02*
X392690Y1037578D01*
X391166Y1040626D01*
X394214Y1039102D01*
X397262Y1040626D01*
X395738Y1037578D01*
X397262Y1034530D01*
X394214Y1036054D01*
X391166Y1034530D01*
X398546Y1047608D02*
X401086Y1052688D01*
X398546Y1057768D01*
X403626Y1055228D01*
X408706Y1057768D01*
X406166Y1052688D01*
X408706Y1047608D01*
X403626Y1050148D01*
X398546Y1047608D01*
X400578Y1049640D02*
X402102Y1052688D01*
X400578Y1055736D01*
X403626Y1054212D01*
X406674Y1055736D01*
X405150Y1052688D01*
X406674Y1049640D01*
X403626Y1051164D01*
X400578Y1049640D01*
X394294Y970315D02*
X396833Y975395D01*
X394294Y980475D01*
X399374Y977935D01*
X404454Y980475D01*
X401913Y975395D01*
X404454Y970315D01*
X399374Y972855D01*
X394294Y970315D01*
X396325Y972347D02*
X397850Y975395D01*
X396325Y978443D01*
X399374Y976919D01*
X402421Y978443D01*
X400897Y975395D01*
X402421Y972347D01*
X399374Y973871D01*
X396325Y972347D01*
X355307Y961558D02*
X357846Y966638D01*
X355307Y971718D01*
X360387Y969178D01*
X365466Y971718D01*
X362926Y966638D01*
X365466Y961558D01*
X360387Y964098D01*
X355307Y961558D01*
X357338Y963590D02*
X358862Y966638D01*
X357338Y969686D01*
X360387Y968162D01*
X363434Y969686D01*
X361911Y966638D01*
X363434Y963590D01*
X360387Y965114D01*
X357338Y963590D01*
X373380Y949960D02*
X375920Y955040D01*
X373380Y960120D01*
X378460Y957580D01*
X383540Y960120D01*
X381000Y955040D01*
X383540Y949960D01*
X378460Y952500D01*
X373380Y949960D01*
X375412Y951992D02*
X376936Y955040D01*
X375412Y958088D01*
X378460Y956564D01*
X381508Y958088D01*
X379984Y955040D01*
X381508Y951992D01*
X378460Y953516D01*
X375412Y951992D01*
X373380Y942340D02*
X375920Y947420D01*
X373380Y952500D01*
X378460Y949960D01*
X383540Y952500D01*
X381000Y947420D01*
X383540Y942340D01*
X378460Y944880D01*
X373380Y942340D01*
X375412Y944372D02*
X376936Y947420D01*
X375412Y950468D01*
X378460Y948944D01*
X381508Y950468D01*
X379984Y947420D01*
X381508Y944372D01*
X378460Y945896D01*
X375412Y944372D01*
X355252Y968985D02*
X357791Y974065D01*
X355252Y979145D01*
X360331Y976605D01*
X365411Y979145D01*
X362872Y974065D01*
X365411Y968985D01*
X360331Y971525D01*
X355252Y968985D01*
X357284Y971017D02*
X358807Y974065D01*
X357284Y977113D01*
X360331Y975589D01*
X363380Y977113D01*
X361856Y974065D01*
X363380Y971017D01*
X360331Y972541D01*
X357284Y971017D01*
X403473Y985414D02*
X406012Y990494D01*
X403473Y995574D01*
X408553Y993034D01*
X413633Y995574D01*
X411092Y990494D01*
X413633Y985414D01*
X408553Y987954D01*
X403473Y985414D01*
X405504Y987446D02*
X407029Y990494D01*
X405504Y993542D01*
X408553Y992018D01*
X411600Y993542D01*
X410076Y990494D01*
X411600Y987446D01*
X408553Y988970D01*
X405504Y987446D01*
X452119Y883745D02*
X454659Y888825D01*
X452119Y893905D01*
X457199Y891365D01*
X462279Y893905D01*
X459739Y888825D01*
X462279Y883745D01*
X457199Y886285D01*
X452119Y883745D01*
X454151Y885777D02*
X455675Y888825D01*
X454151Y891873D01*
X457199Y890349D01*
X460247Y891873D01*
X458723Y888825D01*
X460247Y885777D01*
X457199Y887301D01*
X454151Y885777D01*
X444158Y883801D02*
X446698Y888881D01*
X444158Y893961D01*
X449238Y891421D01*
X454318Y893961D01*
X451778Y888881D01*
X454318Y883801D01*
X449238Y886341D01*
X444158Y883801D01*
X446190Y885833D02*
X447714Y888881D01*
X446190Y891929D01*
X449238Y890405D01*
X452286Y891929D01*
X450762Y888881D01*
X452286Y885833D01*
X449238Y887357D01*
X446190Y885833D01*
X513199Y884052D02*
X515739Y889132D01*
X513199Y894212D01*
X518279Y891672D01*
X523359Y894212D01*
X520819Y889132D01*
X523359Y884052D01*
X518279Y886592D01*
X513199Y884052D01*
X515231Y886084D02*
X516755Y889132D01*
X515231Y892180D01*
X518279Y890656D01*
X521327Y892180D01*
X519803Y889132D01*
X521327Y886084D01*
X518279Y887608D01*
X515231Y886084D01*
X521355Y883748D02*
X523895Y888828D01*
X521355Y893908D01*
X526435Y891368D01*
X531515Y893908D01*
X528975Y888828D01*
X531515Y883748D01*
X526435Y886288D01*
X521355Y883748D01*
X523387Y885780D02*
X524911Y888828D01*
X523387Y891876D01*
X526435Y890352D01*
X529483Y891876D01*
X527959Y888828D01*
X529483Y885780D01*
X526435Y887304D01*
X523387Y885780D01*
X604682Y869431D02*
X607222Y874511D01*
X604682Y879591D01*
X609762Y877051D01*
X614842Y879591D01*
X612302Y874511D01*
X614842Y869431D01*
X609762Y871971D01*
X604682Y869431D01*
X606714Y871463D02*
X608238Y874511D01*
X606714Y877559D01*
X609762Y876035D01*
X612810Y877559D01*
X611286Y874511D01*
X612810Y871463D01*
X609762Y872987D01*
X606714Y871463D01*
X569539Y887323D02*
X572080Y892403D01*
X569539Y897483D01*
X574619Y894943D01*
X579700Y897483D01*
X577160Y892403D01*
X579700Y887323D01*
X574619Y889863D01*
X569539Y887323D01*
X571572Y889355D02*
X573096Y892403D01*
X571572Y895451D01*
X574619Y893927D01*
X577668Y895451D01*
X576143Y892403D01*
X577668Y889355D01*
X574619Y890879D01*
X571572Y889355D01*
X560619Y887175D02*
X563159Y892255D01*
X560619Y897335D01*
X565699Y894795D01*
X570779Y897335D01*
X568239Y892255D01*
X570779Y887175D01*
X565699Y889715D01*
X560619Y887175D01*
X562651Y889207D02*
X564175Y892255D01*
X562651Y895303D01*
X565699Y893779D01*
X568747Y895303D01*
X567223Y892255D01*
X568747Y889207D01*
X565699Y890731D01*
X562651Y889207D01*
X629920Y886460D02*
X632460Y891540D01*
X629920Y896620D01*
X635000Y894080D01*
X640080Y896620D01*
X637540Y891540D01*
X640080Y886460D01*
X635000Y889000D01*
X629920Y886460D01*
X631952Y888492D02*
X633476Y891540D01*
X631952Y894588D01*
X635000Y893064D01*
X638048Y894588D01*
X636524Y891540D01*
X638048Y888492D01*
X635000Y890016D01*
X631952Y888492D01*
X621159Y886292D02*
X623699Y891372D01*
X621159Y896451D01*
X626239Y893912D01*
X631319Y896451D01*
X628779Y891372D01*
X631319Y886292D01*
X626239Y888831D01*
X621159Y886292D01*
X623191Y888324D02*
X624715Y891372D01*
X623191Y894419D01*
X626239Y892896D01*
X629287Y894419D01*
X627763Y891372D01*
X629287Y888324D01*
X626239Y889847D01*
X623191Y888324D01*
X470600Y1188953D02*
X473140Y1194033D01*
X470600Y1199113D01*
X475680Y1196573D01*
X480760Y1199113D01*
X478220Y1194033D01*
X480760Y1188953D01*
X475680Y1191493D01*
X470600Y1188953D01*
X472632Y1190985D02*
X474156Y1194033D01*
X472632Y1197081D01*
X475680Y1195557D01*
X478728Y1197081D01*
X477204Y1194033D01*
X478728Y1190985D01*
X475680Y1192509D01*
X472632Y1190985D01*
X508000Y1163320D02*
X510540Y1168400D01*
X508000Y1173480D01*
X513080Y1170940D01*
X518160Y1173480D01*
X515620Y1168400D01*
X518160Y1163320D01*
X513080Y1165860D01*
X508000Y1163320D01*
X510032Y1165352D02*
X511556Y1168400D01*
X510032Y1171448D01*
X513080Y1169924D01*
X516128Y1171448D01*
X514604Y1168400D01*
X516128Y1165352D01*
X513080Y1166876D01*
X510032Y1165352D01*
X518160Y1163320D02*
X520700Y1168400D01*
X518160Y1173480D01*
X523240Y1170940D01*
X528320Y1173480D01*
X525780Y1168400D01*
X528320Y1163320D01*
X523240Y1165860D01*
X518160Y1163320D01*
X520192Y1165352D02*
X521716Y1168400D01*
X520192Y1171448D01*
X523240Y1169924D01*
X526288Y1171448D01*
X524764Y1168400D01*
X526288Y1165352D01*
X523240Y1166876D01*
X520192Y1165352D01*
X833120Y1402080D02*
X835660Y1404620D01*
X838200D01*
X835660Y1407160D01*
X838200Y1409700D01*
X835660D01*
X833120Y1412240D01*
X830580Y1409700D01*
X828040D01*
X830580Y1407160D01*
X828040Y1404620D01*
X830580D01*
X833120Y1402080D01*
Y1404112D02*
X834644Y1405636D01*
X836168D01*
X834644Y1407160D01*
X836168Y1408684D01*
X834644D01*
X833120Y1410208D01*
X831596Y1408684D01*
X830072D01*
X831596Y1407160D01*
X830072Y1405636D01*
X831596D01*
X833120Y1404112D01*
X753463Y1386326D02*
X756003Y1388866D01*
X758543D01*
X756003Y1391406D01*
X758543Y1393946D01*
X756003D01*
X753463Y1396486D01*
X750923Y1393946D01*
X748383D01*
X750923Y1391406D01*
X748383Y1388866D01*
X750923D01*
X753463Y1386326D01*
Y1388358D02*
X754987Y1389882D01*
X756511D01*
X754987Y1391406D01*
X756511Y1392930D01*
X754987D01*
X753463Y1394454D01*
X751939Y1392930D01*
X750415D01*
X751939Y1391406D01*
X750415Y1389882D01*
X751939D01*
X753463Y1388358D01*
X469780Y1240099D02*
X472319Y1242639D01*
X474860D01*
X472319Y1245179D01*
X474860Y1247719D01*
X472319D01*
X469780Y1250259D01*
X467239Y1247719D01*
X464700D01*
X467239Y1245179D01*
X464700Y1242639D01*
X467239D01*
X469780Y1240099D01*
Y1242131D02*
X471303Y1243655D01*
X472827D01*
X471303Y1245179D01*
X472827Y1246703D01*
X471303D01*
X469780Y1248227D01*
X468256Y1246703D01*
X466731D01*
X468256Y1245179D01*
X466731Y1243655D01*
X468256D01*
X469780Y1242131D01*
X507981Y1239908D02*
X510521Y1242448D01*
X513061D01*
X510521Y1244987D01*
X513061Y1247527D01*
X510521D01*
X507981Y1250068D01*
X505441Y1247527D01*
X502901D01*
X505441Y1244987D01*
X502901Y1242448D01*
X505441D01*
X507981Y1239908D01*
Y1241939D02*
X509505Y1243464D01*
X511029D01*
X509505Y1244987D01*
X511029Y1246512D01*
X509505D01*
X507981Y1248036D01*
X506457Y1246512D01*
X504933D01*
X506457Y1244987D01*
X504933Y1243464D01*
X506457D01*
X507981Y1241939D01*
X431800Y1338580D02*
X434340Y1341120D01*
X436880D01*
X434340Y1343660D01*
X436880Y1346200D01*
X434340D01*
X431800Y1348740D01*
X429260Y1346200D01*
X426720D01*
X429260Y1343660D01*
X426720Y1341120D01*
X429260D01*
X431800Y1338580D01*
Y1340612D02*
X433324Y1342136D01*
X434848D01*
X433324Y1343660D01*
X434848Y1345184D01*
X433324D01*
X431800Y1346708D01*
X430276Y1345184D01*
X428752D01*
X430276Y1343660D01*
X428752Y1342136D01*
X430276D01*
X431800Y1340612D01*
X434340Y1353820D02*
X436880Y1356360D01*
X439420D01*
X436880Y1358900D01*
X439420Y1361440D01*
X436880D01*
X434340Y1363980D01*
X431800Y1361440D01*
X429260D01*
X431800Y1358900D01*
X429260Y1356360D01*
X431800D01*
X434340Y1353820D01*
Y1355852D02*
X435864Y1357376D01*
X437388D01*
X435864Y1358900D01*
X437388Y1360424D01*
X435864D01*
X434340Y1361948D01*
X432816Y1360424D01*
X431292D01*
X432816Y1358900D01*
X431292Y1357376D01*
X432816D01*
X434340Y1355852D01*
X431800Y1369060D02*
X434340Y1371600D01*
X436880D01*
X434340Y1374140D01*
X436880Y1376680D01*
X434340D01*
X431800Y1379220D01*
X429260Y1376680D01*
X426720D01*
X429260Y1374140D01*
X426720Y1371600D01*
X429260D01*
X431800Y1369060D01*
Y1371092D02*
X433324Y1372616D01*
X434848D01*
X433324Y1374140D01*
X434848Y1375664D01*
X433324D01*
X431800Y1377188D01*
X430276Y1375664D01*
X428752D01*
X430276Y1374140D01*
X428752Y1372616D01*
X430276D01*
X431800Y1371092D01*
X279400Y1282700D02*
X274320Y1292860D01*
X284480D01*
X279400Y1282700D01*
Y1284732D02*
X276352Y1290828D01*
X282448D01*
X279400Y1284732D01*
X314960Y1267460D02*
X317500Y1270000D01*
X320040D01*
X317500Y1272540D01*
X320040Y1275080D01*
X317500D01*
X314960Y1277620D01*
X312420Y1275080D01*
X309880D01*
X312420Y1272540D01*
X309880Y1270000D01*
X312420D01*
X314960Y1267460D01*
Y1269492D02*
X316484Y1271016D01*
X318008D01*
X316484Y1272540D01*
X318008Y1274064D01*
X316484D01*
X314960Y1275588D01*
X313436Y1274064D01*
X311912D01*
X313436Y1272540D01*
X311912Y1271016D01*
X313436D01*
X314960Y1269492D01*
Y1249680D02*
X317500Y1252220D01*
X320040D01*
X317500Y1254760D01*
X320040Y1257300D01*
X317500D01*
X314960Y1259840D01*
X312420Y1257300D01*
X309880D01*
X312420Y1254760D01*
X309880Y1252220D01*
X312420D01*
X314960Y1249680D01*
Y1251712D02*
X316484Y1253236D01*
X318008D01*
X316484Y1254760D01*
X318008Y1256284D01*
X316484D01*
X314960Y1257808D01*
X313436Y1256284D01*
X311912D01*
X313436Y1254760D01*
X311912Y1253236D01*
X313436D01*
X314960Y1251712D01*
X170180Y1358900D02*
X172720Y1363980D01*
X170180Y1369060D01*
X175260Y1366520D01*
X180340Y1369060D01*
X177800Y1363980D01*
X180340Y1358900D01*
X175260Y1361440D01*
X170180Y1358900D01*
X172212Y1360932D02*
X173736Y1363980D01*
X172212Y1367028D01*
X175260Y1365504D01*
X178308Y1367028D01*
X176784Y1363980D01*
X178308Y1360932D01*
X175260Y1362456D01*
X172212Y1360932D01*
X195580Y1358900D02*
X198120Y1363980D01*
X195580Y1369060D01*
X200660Y1366520D01*
X205740Y1369060D01*
X203200Y1363980D01*
X205740Y1358900D01*
X200660Y1361440D01*
X195580Y1358900D01*
X197612Y1360932D02*
X199136Y1363980D01*
X197612Y1367028D01*
X200660Y1365504D01*
X203708Y1367028D01*
X202184Y1363980D01*
X203708Y1360932D01*
X200660Y1362456D01*
X197612Y1360932D01*
X335280Y1394460D02*
X337820Y1397000D01*
X340360D01*
X337820Y1399540D01*
X340360Y1402080D01*
X337820D01*
X335280Y1404620D01*
X332740Y1402080D01*
X330200D01*
X332740Y1399540D01*
X330200Y1397000D01*
X332740D01*
X335280Y1394460D01*
Y1396492D02*
X336804Y1398016D01*
X338328D01*
X336804Y1399540D01*
X338328Y1401064D01*
X336804D01*
X335280Y1402588D01*
X333756Y1401064D01*
X332232D01*
X333756Y1399540D01*
X332232Y1398016D01*
X333756D01*
X335280Y1396492D01*
X317500Y1399540D02*
X320040Y1402080D01*
X322580D01*
X320040Y1404620D01*
X322580Y1407160D01*
X320040D01*
X317500Y1409700D01*
X314960Y1407160D01*
X312420D01*
X314960Y1404620D01*
X312420Y1402080D01*
X314960D01*
X317500Y1399540D01*
Y1401572D02*
X319024Y1403096D01*
X320548D01*
X319024Y1404620D01*
X320548Y1406144D01*
X319024D01*
X317500Y1407668D01*
X315976Y1406144D01*
X314452D01*
X315976Y1404620D01*
X314452Y1403096D01*
X315976D01*
X317500Y1401572D01*
X234406Y1465587D02*
X236946Y1470667D01*
X234406Y1475747D01*
X239486Y1473207D01*
X244566Y1475747D01*
X242026Y1470667D01*
X244566Y1465587D01*
X239486Y1468127D01*
X234406Y1465587D01*
X236438Y1467619D02*
X237962Y1470667D01*
X236438Y1473715D01*
X239486Y1472191D01*
X242534Y1473715D01*
X241010Y1470667D01*
X242534Y1467619D01*
X239486Y1469143D01*
X236438Y1467619D01*
X198120Y1404620D02*
X200660Y1407160D01*
X203200D01*
X200660Y1409700D01*
X203200Y1412240D01*
X200660D01*
X198120Y1414780D01*
X195580Y1412240D01*
X193040D01*
X195580Y1409700D01*
X193040Y1407160D01*
X195580D01*
X198120Y1404620D01*
Y1406652D02*
X199644Y1408176D01*
X201168D01*
X199644Y1409700D01*
X201168Y1411224D01*
X199644D01*
X198120Y1412748D01*
X196596Y1411224D01*
X195072D01*
X196596Y1409700D01*
X195072Y1408176D01*
X196596D01*
X198120Y1406652D01*
X185420Y1407160D02*
X187960Y1409700D01*
X190500D01*
X187960Y1412240D01*
X190500Y1414780D01*
X187960D01*
X185420Y1417320D01*
X182880Y1414780D01*
X180340D01*
X182880Y1412240D01*
X180340Y1409700D01*
X182880D01*
X185420Y1407160D01*
Y1409192D02*
X186944Y1410716D01*
X188468D01*
X186944Y1412240D01*
X188468Y1413764D01*
X186944D01*
X185420Y1415288D01*
X183896Y1413764D01*
X182372D01*
X183896Y1412240D01*
X182372Y1410716D01*
X183896D01*
X185420Y1409192D01*
X175260Y1417320D02*
X177800Y1419860D01*
X180340D01*
X177800Y1422400D01*
X180340Y1424940D01*
X177800D01*
X175260Y1427480D01*
X172720Y1424940D01*
X170180D01*
X172720Y1422400D01*
X170180Y1419860D01*
X172720D01*
X175260Y1417320D01*
Y1419352D02*
X176784Y1420876D01*
X178308D01*
X176784Y1422400D01*
X178308Y1423924D01*
X176784D01*
X175260Y1425448D01*
X173736Y1423924D01*
X172212D01*
X173736Y1422400D01*
X172212Y1420876D01*
X173736D01*
X175260Y1419352D01*
X290851Y1488003D02*
X293391Y1493083D01*
X290851Y1498163D01*
X295931Y1495623D01*
X301011Y1498163D01*
X298471Y1493083D01*
X301011Y1488003D01*
X295931Y1490543D01*
X290851Y1488003D01*
X292883Y1490035D02*
X294407Y1493083D01*
X292883Y1496131D01*
X295931Y1494607D01*
X298979Y1496131D01*
X297455Y1493083D01*
X298979Y1490035D01*
X295931Y1491559D01*
X292883Y1490035D01*
X266785Y1535294D02*
X269325Y1540374D01*
X266785Y1545454D01*
X271865Y1542914D01*
X276945Y1545454D01*
X274405Y1540374D01*
X276945Y1535294D01*
X271865Y1537834D01*
X266785Y1535294D01*
X268817Y1537326D02*
X270341Y1540374D01*
X268817Y1543422D01*
X271865Y1541898D01*
X274913Y1543422D01*
X273389Y1540374D01*
X274913Y1537326D01*
X271865Y1538850D01*
X268817Y1537326D01*
X292948Y1535520D02*
X295488Y1540600D01*
X292948Y1545680D01*
X298028Y1543140D01*
X303108Y1545680D01*
X300568Y1540600D01*
X303108Y1535520D01*
X298028Y1538060D01*
X292948Y1535520D01*
X294980Y1537552D02*
X296504Y1540600D01*
X294980Y1543648D01*
X298028Y1542124D01*
X301076Y1543648D01*
X299552Y1540600D01*
X301076Y1537552D01*
X298028Y1539076D01*
X294980Y1537552D01*
X257041Y1460605D02*
X259581Y1465685D01*
X257041Y1470765D01*
X262121Y1468225D01*
X267201Y1470765D01*
X264661Y1465685D01*
X267201Y1460605D01*
X262121Y1463145D01*
X257041Y1460605D01*
X259073Y1462637D02*
X260597Y1465685D01*
X259073Y1468733D01*
X262121Y1467209D01*
X265169Y1468733D01*
X263645Y1465685D01*
X265169Y1462637D01*
X262121Y1464161D01*
X259073Y1462637D01*
X250801Y1507255D02*
X253341Y1512335D01*
X250801Y1517415D01*
X255881Y1514875D01*
X260961Y1517415D01*
X258421Y1512335D01*
X260961Y1507255D01*
X255881Y1509795D01*
X250801Y1507255D01*
X252833Y1509287D02*
X254357Y1512335D01*
X252833Y1515383D01*
X255881Y1513859D01*
X258929Y1515383D01*
X257405Y1512335D01*
X258929Y1509287D01*
X255881Y1510811D01*
X252833Y1509287D01*
X239693Y1498067D02*
X242233Y1503147D01*
X239693Y1508227D01*
X244773Y1505687D01*
X249853Y1508227D01*
X247313Y1503147D01*
X249853Y1498067D01*
X244773Y1500607D01*
X239693Y1498067D01*
X241725Y1500099D02*
X243249Y1503147D01*
X241725Y1506195D01*
X244773Y1504671D01*
X247821Y1506195D01*
X246297Y1503147D01*
X247821Y1500099D01*
X244773Y1501623D01*
X241725Y1500099D01*
X408940Y1239520D02*
X411480Y1242060D01*
X414020D01*
X411480Y1244600D01*
X414020Y1247140D01*
X411480D01*
X408940Y1249680D01*
X406400Y1247140D01*
X403860D01*
X406400Y1244600D01*
X403860Y1242060D01*
X406400D01*
X408940Y1239520D01*
Y1241552D02*
X410464Y1243076D01*
X411988D01*
X410464Y1244600D01*
X411988Y1246124D01*
X410464D01*
X408940Y1247648D01*
X407416Y1246124D01*
X405892D01*
X407416Y1244600D01*
X405892Y1243076D01*
X407416D01*
X408940Y1241552D01*
X393700Y1297940D02*
X396240Y1300480D01*
X398780D01*
X396240Y1303020D01*
X398780Y1305560D01*
X396240D01*
X393700Y1308100D01*
X391160Y1305560D01*
X388620D01*
X391160Y1303020D01*
X388620Y1300480D01*
X391160D01*
X393700Y1297940D01*
Y1299972D02*
X395224Y1301496D01*
X396748D01*
X395224Y1303020D01*
X396748Y1304544D01*
X395224D01*
X393700Y1306068D01*
X392176Y1304544D01*
X390652D01*
X392176Y1303020D01*
X390652Y1301496D01*
X392176D01*
X393700Y1299972D01*
X429260Y1292860D02*
X431800Y1295400D01*
X434340D01*
X431800Y1297940D01*
X434340Y1300480D01*
X431800D01*
X429260Y1303020D01*
X426720Y1300480D01*
X424180D01*
X426720Y1297940D01*
X424180Y1295400D01*
X426720D01*
X429260Y1292860D01*
Y1294892D02*
X430784Y1296416D01*
X432308D01*
X430784Y1297940D01*
X432308Y1299464D01*
X430784D01*
X429260Y1300988D01*
X427736Y1299464D01*
X426212D01*
X427736Y1297940D01*
X426212Y1296416D01*
X427736D01*
X429260Y1294892D01*
X439420Y1270000D02*
X441960Y1272540D01*
X444500D01*
X441960Y1275080D01*
X444500Y1277620D01*
X441960D01*
X439420Y1280160D01*
X436880Y1277620D01*
X434340D01*
X436880Y1275080D01*
X434340Y1272540D01*
X436880D01*
X439420Y1270000D01*
Y1272032D02*
X440944Y1273556D01*
X442468D01*
X440944Y1275080D01*
X442468Y1276604D01*
X440944D01*
X439420Y1278128D01*
X437896Y1276604D01*
X436372D01*
X437896Y1275080D01*
X436372Y1273556D01*
X437896D01*
X439420Y1272032D01*
X429260Y1242060D02*
X431800Y1244600D01*
X434340D01*
X431800Y1247140D01*
X434340Y1249680D01*
X431800D01*
X429260Y1252220D01*
X426720Y1249680D01*
X424180D01*
X426720Y1247140D01*
X424180Y1244600D01*
X426720D01*
X429260Y1242060D01*
Y1244092D02*
X430784Y1245616D01*
X432308D01*
X430784Y1247140D01*
X432308Y1248664D01*
X430784D01*
X429260Y1250188D01*
X427736Y1248664D01*
X426212D01*
X427736Y1247140D01*
X426212Y1245616D01*
X427736D01*
X429260Y1244092D01*
X381000Y1244600D02*
X383540Y1247140D01*
X386080D01*
X383540Y1249680D01*
X386080Y1252220D01*
X383540D01*
X381000Y1254760D01*
X378460Y1252220D01*
X375920D01*
X378460Y1249680D01*
X375920Y1247140D01*
X378460D01*
X381000Y1244600D01*
Y1246632D02*
X382524Y1248156D01*
X384048D01*
X382524Y1249680D01*
X384048Y1251204D01*
X382524D01*
X381000Y1252728D01*
X379476Y1251204D01*
X377952D01*
X379476Y1249680D01*
X377952Y1248156D01*
X379476D01*
X381000Y1246632D01*
X350520Y1287780D02*
X353060Y1290320D01*
X355600D01*
X353060Y1292860D01*
X355600Y1295400D01*
X353060D01*
X350520Y1297940D01*
X347980Y1295400D01*
X345440D01*
X347980Y1292860D01*
X345440Y1290320D01*
X347980D01*
X350520Y1287780D01*
Y1289812D02*
X352044Y1291336D01*
X353568D01*
X352044Y1292860D01*
X353568Y1294384D01*
X352044D01*
X350520Y1295908D01*
X348996Y1294384D01*
X347472D01*
X348996Y1292860D01*
X347472Y1291336D01*
X348996D01*
X350520Y1289812D01*
X345440Y1264920D02*
X347980Y1267460D01*
X350520D01*
X347980Y1270000D01*
X350520Y1272540D01*
X347980D01*
X345440Y1275080D01*
X342900Y1272540D01*
X340360D01*
X342900Y1270000D01*
X340360Y1267460D01*
X342900D01*
X345440Y1264920D01*
Y1266952D02*
X346964Y1268476D01*
X348488D01*
X346964Y1270000D01*
X348488Y1271524D01*
X346964D01*
X345440Y1273048D01*
X343916Y1271524D01*
X342392D01*
X343916Y1270000D01*
X342392Y1268476D01*
X343916D01*
X345440Y1266952D01*
X358140Y1244600D02*
X360680Y1247140D01*
X363220D01*
X360680Y1249680D01*
X363220Y1252220D01*
X360680D01*
X358140Y1254760D01*
X355600Y1252220D01*
X353060D01*
X355600Y1249680D01*
X353060Y1247140D01*
X355600D01*
X358140Y1244600D01*
Y1246632D02*
X359664Y1248156D01*
X361188D01*
X359664Y1249680D01*
X361188Y1251204D01*
X359664D01*
X358140Y1252728D01*
X356616Y1251204D01*
X355092D01*
X356616Y1249680D01*
X355092Y1248156D01*
X356616D01*
X358140Y1246632D01*
X360680Y1435100D02*
X363220Y1437640D01*
X365760D01*
X363220Y1440180D01*
X365760Y1442720D01*
X363220D01*
X360680Y1445260D01*
X358140Y1442720D01*
X355600D01*
X358140Y1440180D01*
X355600Y1437640D01*
X358140D01*
X360680Y1435100D01*
Y1437132D02*
X362204Y1438656D01*
X363728D01*
X362204Y1440180D01*
X363728Y1441704D01*
X362204D01*
X360680Y1443228D01*
X359156Y1441704D01*
X357632D01*
X359156Y1440180D01*
X357632Y1438656D01*
X359156D01*
X360680Y1437132D01*
X353060Y1455420D02*
X355600Y1457960D01*
X358140D01*
X355600Y1460500D01*
X358140Y1463040D01*
X355600D01*
X353060Y1465580D01*
X350520Y1463040D01*
X347980D01*
X350520Y1460500D01*
X347980Y1457960D01*
X350520D01*
X353060Y1455420D01*
Y1457452D02*
X354584Y1458976D01*
X356108D01*
X354584Y1460500D01*
X356108Y1462024D01*
X354584D01*
X353060Y1463548D01*
X351536Y1462024D01*
X350012D01*
X351536Y1460500D01*
X350012Y1458976D01*
X351536D01*
X353060Y1457452D01*
X340360Y1455420D02*
X342900Y1457960D01*
X345440D01*
X342900Y1460500D01*
X345440Y1463040D01*
X342900D01*
X340360Y1465580D01*
X337820Y1463040D01*
X335280D01*
X337820Y1460500D01*
X335280Y1457960D01*
X337820D01*
X340360Y1455420D01*
Y1457452D02*
X341884Y1458976D01*
X343408D01*
X341884Y1460500D01*
X343408Y1462024D01*
X341884D01*
X340360Y1463548D01*
X338836Y1462024D01*
X337312D01*
X338836Y1460500D01*
X337312Y1458976D01*
X338836D01*
X340360Y1457452D01*
X325120Y1452880D02*
X327660Y1455420D01*
X330200D01*
X327660Y1457960D01*
X330200Y1460500D01*
X327660D01*
X325120Y1463040D01*
X322580Y1460500D01*
X320040D01*
X322580Y1457960D01*
X320040Y1455420D01*
X322580D01*
X325120Y1452880D01*
Y1454912D02*
X326644Y1456436D01*
X328168D01*
X326644Y1457960D01*
X328168Y1459484D01*
X326644D01*
X325120Y1461008D01*
X323596Y1459484D01*
X322072D01*
X323596Y1457960D01*
X322072Y1456436D01*
X323596D01*
X325120Y1454912D01*
X288377Y1320958D02*
X283297Y1331118D01*
X293457D01*
X288377Y1320958D01*
Y1322990D02*
X285329Y1329086D01*
X291425D01*
X288377Y1322990D01*
X278217Y1320958D02*
X273137Y1331118D01*
X283297D01*
X278217Y1320958D01*
Y1322990D02*
X275169Y1329086D01*
X281265D01*
X278217Y1322990D01*
X265517Y1320958D02*
X260437Y1331118D01*
X270597D01*
X265517Y1320958D01*
Y1322990D02*
X262469Y1329086D01*
X268565D01*
X265517Y1322990D01*
X255357Y1320958D02*
X250277Y1331118D01*
X260437D01*
X255357Y1320958D01*
Y1322990D02*
X252309Y1329086D01*
X258405D01*
X255357Y1322990D01*
X245197Y1320958D02*
X240117Y1331118D01*
X250277D01*
X245197Y1320958D01*
Y1322990D02*
X242149Y1329086D01*
X248245D01*
X245197Y1322990D01*
X232497Y1320958D02*
X227417Y1331118D01*
X237577D01*
X232497Y1320958D01*
Y1322990D02*
X229449Y1329086D01*
X235545D01*
X232497Y1322990D01*
X287020Y1409700D02*
X281940Y1419860D01*
X292100D01*
X287020Y1409700D01*
Y1411732D02*
X283972Y1417828D01*
X290068D01*
X287020Y1411732D01*
X279400Y1417320D02*
X274320Y1427480D01*
X284480D01*
X279400Y1417320D01*
Y1419352D02*
X276352Y1425448D01*
X282448D01*
X279400Y1419352D01*
X294640Y1402080D02*
X289560Y1412240D01*
X299720D01*
X294640Y1402080D01*
Y1404112D02*
X291592Y1410208D01*
X297688D01*
X294640Y1404112D01*
X302260Y1391920D02*
X297180Y1402080D01*
X307340D01*
X302260Y1391920D01*
Y1393952D02*
X299212Y1400048D01*
X305308D01*
X302260Y1393952D01*
Y1376680D02*
X297180Y1386840D01*
X307340D01*
X302260Y1376680D01*
Y1378712D02*
X299212Y1384808D01*
X305308D01*
X302260Y1378712D01*
X299720Y1363980D02*
X294640Y1374140D01*
X304800D01*
X299720Y1363980D01*
Y1366012D02*
X296672Y1372108D01*
X302768D01*
X299720Y1366012D01*
X287020Y1358900D02*
X281940Y1369060D01*
X292100D01*
X287020Y1358900D01*
Y1360932D02*
X283972Y1367028D01*
X290068D01*
X287020Y1360932D01*
X274320Y1358900D02*
X269240Y1369060D01*
X279400D01*
X274320Y1358900D01*
Y1360932D02*
X271272Y1367028D01*
X277368D01*
X274320Y1360932D01*
X261620Y1358900D02*
X256540Y1369060D01*
X266700D01*
X261620Y1358900D01*
Y1360932D02*
X258572Y1367028D01*
X264668D01*
X261620Y1360932D01*
X248920Y1358900D02*
X243840Y1369060D01*
X254000D01*
X248920Y1358900D01*
Y1360932D02*
X245872Y1367028D01*
X251968D01*
X248920Y1360932D01*
X236220Y1358900D02*
X231140Y1369060D01*
X241300D01*
X236220Y1358900D01*
Y1360932D02*
X233172Y1367028D01*
X239268D01*
X236220Y1360932D01*
X220980Y1361440D02*
X215900Y1371600D01*
X226060D01*
X220980Y1361440D01*
Y1363472D02*
X217932Y1369568D01*
X224028D01*
X220980Y1363472D01*
X215900Y1371600D02*
X210820Y1381760D01*
X220980D01*
X215900Y1371600D01*
Y1373632D02*
X212852Y1379728D01*
X218948D01*
X215900Y1373632D01*
Y1381760D02*
X210820Y1391920D01*
X220980D01*
X215900Y1381760D01*
Y1383792D02*
X212852Y1389888D01*
X218948D01*
X215900Y1383792D01*
X220980Y1394460D02*
X215900Y1404620D01*
X226060D01*
X220980Y1394460D01*
Y1396492D02*
X217932Y1402588D01*
X224028D01*
X220980Y1396492D01*
X228600Y1402080D02*
X223520Y1412240D01*
X233680D01*
X228600Y1402080D01*
Y1404112D02*
X225552Y1410208D01*
X231648D01*
X228600Y1404112D01*
X236220Y1409700D02*
X231140Y1419860D01*
X241300D01*
X236220Y1409700D01*
Y1411732D02*
X233172Y1417828D01*
X239268D01*
X236220Y1411732D01*
X243840Y1417320D02*
X238760Y1427480D01*
X248920D01*
X243840Y1417320D01*
Y1419352D02*
X240792Y1425448D01*
X246888D01*
X243840Y1419352D01*
X223520Y1447800D02*
X226060Y1450340D01*
X228600D01*
X226060Y1452880D01*
X228600Y1455420D01*
X226060D01*
X223520Y1457960D01*
X220980Y1455420D01*
X218440D01*
X220980Y1452880D01*
X218440Y1450340D01*
X220980D01*
X223520Y1447800D01*
Y1449832D02*
X225044Y1451356D01*
X226568D01*
X225044Y1452880D01*
X226568Y1454404D01*
X225044D01*
X223520Y1455928D01*
X221996Y1454404D01*
X220472D01*
X221996Y1452880D01*
X220472Y1451356D01*
X221996D01*
X223520Y1449832D01*
X218440Y1463040D02*
X220980Y1465580D01*
X223520D01*
X220980Y1468120D01*
X223520Y1470660D01*
X220980D01*
X218440Y1473200D01*
X215900Y1470660D01*
X213360D01*
X215900Y1468120D01*
X213360Y1465580D01*
X215900D01*
X218440Y1463040D01*
Y1465072D02*
X219964Y1466596D01*
X221488D01*
X219964Y1468120D01*
X221488Y1469644D01*
X219964D01*
X218440Y1471168D01*
X216916Y1469644D01*
X215392D01*
X216916Y1468120D01*
X215392Y1466596D01*
X216916D01*
X218440Y1465072D01*
X203200Y1437640D02*
X205740Y1440180D01*
X208280D01*
X205740Y1442720D01*
X208280Y1445260D01*
X205740D01*
X203200Y1447800D01*
X200660Y1445260D01*
X198120D01*
X200660Y1442720D01*
X198120Y1440180D01*
X200660D01*
X203200Y1437640D01*
Y1439672D02*
X204724Y1441196D01*
X206248D01*
X204724Y1442720D01*
X206248Y1444244D01*
X204724D01*
X203200Y1445768D01*
X201676Y1444244D01*
X200152D01*
X201676Y1442720D01*
X200152Y1441196D01*
X201676D01*
X203200Y1439672D01*
X200660Y1465580D02*
X203200Y1468120D01*
X205740D01*
X203200Y1470660D01*
X205740Y1473200D01*
X203200D01*
X200660Y1475740D01*
X198120Y1473200D01*
X195580D01*
X198120Y1470660D01*
X195580Y1468120D01*
X198120D01*
X200660Y1465580D01*
Y1467612D02*
X202184Y1469136D01*
X203708D01*
X202184Y1470660D01*
X203708Y1472184D01*
X202184D01*
X200660Y1473708D01*
X199136Y1472184D01*
X197612D01*
X199136Y1470660D01*
X197612Y1469136D01*
X199136D01*
X200660Y1467612D01*
X177800Y1457960D02*
X180340Y1460500D01*
X182880D01*
X180340Y1463040D01*
X182880Y1465580D01*
X180340D01*
X177800Y1468120D01*
X175260Y1465580D01*
X172720D01*
X175260Y1463040D01*
X172720Y1460500D01*
X175260D01*
X177800Y1457960D01*
Y1459992D02*
X179324Y1461516D01*
X180848D01*
X179324Y1463040D01*
X180848Y1464564D01*
X179324D01*
X177800Y1466088D01*
X176276Y1464564D01*
X174752D01*
X176276Y1463040D01*
X174752Y1461516D01*
X176276D01*
X177800Y1459992D01*
X180340Y1440180D02*
X182880Y1442720D01*
X185420D01*
X182880Y1445260D01*
X185420Y1447800D01*
X182880D01*
X180340Y1450340D01*
X177800Y1447800D01*
X175260D01*
X177800Y1445260D01*
X175260Y1442720D01*
X177800D01*
X180340Y1440180D01*
Y1442212D02*
X181864Y1443736D01*
X183388D01*
X181864Y1445260D01*
X183388Y1446784D01*
X181864D01*
X180340Y1448308D01*
X178816Y1446784D01*
X177292D01*
X178816Y1445260D01*
X177292Y1443736D01*
X178816D01*
X180340Y1442212D01*
D151*
X145300Y830940D02*
G03*
X145300Y830940I-5080J0D01*
G01*
X210300D02*
G03*
X210300Y830940I-5080J0D01*
G01*
Y875940D02*
G03*
X210300Y875940I-5080J0D01*
G01*
X145300D02*
G03*
X145300Y875940I-5080J0D01*
G01*
Y736960D02*
G03*
X145300Y736960I-5080J0D01*
G01*
X210300D02*
G03*
X210300Y736960I-5080J0D01*
G01*
Y781960D02*
G03*
X210300Y781960I-5080J0D01*
G01*
X145300D02*
G03*
X145300Y781960I-5080J0D01*
G01*
Y642980D02*
G03*
X145300Y642980I-5080J0D01*
G01*
X210300D02*
G03*
X210300Y642980I-5080J0D01*
G01*
Y687980D02*
G03*
X210300Y687980I-5080J0D01*
G01*
X145300D02*
G03*
X145300Y687980I-5080J0D01*
G01*
X217200Y926680D02*
G03*
X217200Y926680I-5080J0D01*
G01*
X262200Y991680D02*
G03*
X262200Y991680I-5080J0D01*
G01*
Y926680D02*
G03*
X262200Y926680I-5080J0D01*
G01*
X217200Y991680D02*
G03*
X217200Y991680I-5080J0D01*
G01*
X48260Y43180D02*
G03*
X48260Y43180I-5080J0D01*
G01*
Y1686560D02*
G03*
X48260Y1686560I-5080J0D01*
G01*
X947420Y1689100D02*
G03*
X947420Y1689100I-5080J0D01*
G01*
X1282700Y43180D02*
G03*
X1282700Y43180I-5080J0D01*
G01*
D152*
X46228D02*
G03*
X46228Y43180I-3048J0D01*
G01*
Y1686560D02*
G03*
X46228Y1686560I-3048J0D01*
G01*
X945388Y1689100D02*
G03*
X945388Y1689100I-3048J0D01*
G01*
X1280668Y43180D02*
G03*
X1280668Y43180I-3048J0D01*
G01*
M02*
