G04*
G04 #@! TF.GenerationSoftware,Altium Limited,Altium Designer,24.4.1 (13)*
G04*
G04 Layer_Color=255*
%FSLAX44Y44*%
%MOMM*%
G71*
G04*
G04 #@! TF.SameCoordinates,45E14481-76E1-4DB2-85C8-7C621F4D321E*
G04*
G04*
G04 #@! TF.FilePolarity,Positive*
G04*
G01*
G75*
%ADD25R,1.5000X1.5000*%
%ADD100C,1.5700*%
%ADD101R,1.5700X1.5700*%
%ADD109R,1.5700X1.5700*%
%ADD111C,10.2064*%
%ADD126R,1.5500X1.5500*%
%ADD127C,1.5500*%
%ADD128R,1.5500X1.5500*%
%ADD129R,1.9000X1.4000*%
%ADD130O,1.2500X1.0500*%
%ADD131C,2.4000*%
%ADD132C,3.2500*%
%ADD133C,1.4000*%
G04:AMPARAMS|DCode=134|XSize=1.4mm|YSize=1.4mm|CornerRadius=0.35mm|HoleSize=0mm|Usage=FLASHONLY|Rotation=90.000|XOffset=0mm|YOffset=0mm|HoleType=Round|Shape=RoundedRectangle|*
%AMROUNDEDRECTD134*
21,1,1.4000,0.7000,0,0,90.0*
21,1,0.7000,1.4000,0,0,90.0*
1,1,0.7000,0.3500,0.3500*
1,1,0.7000,0.3500,-0.3500*
1,1,0.7000,-0.3500,-0.3500*
1,1,0.7000,-0.3500,0.3500*
%
%ADD134ROUNDEDRECTD134*%
G04:AMPARAMS|DCode=135|XSize=1.4mm|YSize=1.4mm|CornerRadius=0.35mm|HoleSize=0mm|Usage=FLASHONLY|Rotation=0.000|XOffset=0mm|YOffset=0mm|HoleType=Round|Shape=RoundedRectangle|*
%AMROUNDEDRECTD135*
21,1,1.4000,0.7000,0,0,0.0*
21,1,0.7000,1.4000,0,0,0.0*
1,1,0.7000,0.3500,-0.3500*
1,1,0.7000,-0.3500,-0.3500*
1,1,0.7000,-0.3500,0.3500*
1,1,0.7000,0.3500,0.3500*
%
%ADD135ROUNDEDRECTD135*%
%ADD136C,1.5000*%
%ADD137R,1.5000X1.5000*%
%ADD138C,0.5100*%
%ADD146R,1.0000X0.8000*%
%ADD147R,0.8500X0.9000*%
D25*
X140220Y875940D02*
D03*
Y781960D02*
D03*
Y687980D02*
D03*
D100*
X701040Y932180D02*
D03*
Y906780D02*
D03*
Y881380D02*
D03*
X175260Y340360D02*
D03*
Y365760D02*
D03*
Y391160D02*
D03*
X462280Y833120D02*
D03*
X487680D02*
D03*
X513080D02*
D03*
D101*
X701040Y855980D02*
D03*
X175260Y416560D02*
D03*
D109*
X436880Y833120D02*
D03*
D111*
X377430Y1634340D02*
D03*
X186930D02*
D03*
D126*
X962660Y789940D02*
D03*
X863600Y546100D02*
D03*
X581660Y538480D02*
D03*
X342900Y548640D02*
D03*
D127*
X962660Y764540D02*
D03*
X535940Y721360D02*
D03*
X154940Y469900D02*
D03*
X678180Y467360D02*
D03*
X396240Y464820D02*
D03*
X863600Y520700D02*
D03*
X581660Y513080D02*
D03*
X342900Y523240D02*
D03*
D128*
X561340Y721360D02*
D03*
X421640Y464820D02*
D03*
X703580Y467360D02*
D03*
X180340Y469900D02*
D03*
D129*
X972820Y1151340D02*
D03*
Y1071340D02*
D03*
D130*
X942820Y1089090D02*
D03*
Y1133590D02*
D03*
D131*
X1191240Y350490D02*
D03*
Y505490D02*
D03*
X1191260Y540960D02*
D03*
Y695960D02*
D03*
X104140Y68580D02*
D03*
X259140D02*
D03*
X1219260D02*
D03*
X1064260D02*
D03*
X1028760D02*
D03*
X873760D02*
D03*
X835690Y68600D02*
D03*
X680690D02*
D03*
X642680Y68580D02*
D03*
X487680D02*
D03*
X449610Y68600D02*
D03*
X294610D02*
D03*
X894110Y1661140D02*
D03*
X739110D02*
D03*
D132*
X1145540Y370840D02*
D03*
Y485140D02*
D03*
X1145560Y561310D02*
D03*
Y675610D02*
D03*
X124490Y114280D02*
D03*
X238790D02*
D03*
X873760Y1615440D02*
D03*
X759460D02*
D03*
X1198910Y114280D02*
D03*
X1084610D02*
D03*
X1008410D02*
D03*
X894110D02*
D03*
X815340Y114300D02*
D03*
X701040D02*
D03*
X622330Y114280D02*
D03*
X508030D02*
D03*
X429260Y114300D02*
D03*
X314960D02*
D03*
D133*
X1082040Y434340D02*
D03*
X1056640Y396240D02*
D03*
Y472440D02*
D03*
Y421640D02*
D03*
Y447040D02*
D03*
X1082040Y408940D02*
D03*
Y459740D02*
D03*
X1082060Y624810D02*
D03*
X1056660Y586710D02*
D03*
Y662910D02*
D03*
Y612110D02*
D03*
Y637510D02*
D03*
X1082060Y599410D02*
D03*
Y650210D02*
D03*
X187990Y177780D02*
D03*
X149890Y203180D02*
D03*
X226090D02*
D03*
X175290D02*
D03*
X200690D02*
D03*
X162590Y177780D02*
D03*
X213390D02*
D03*
X1173510D02*
D03*
X1122710D02*
D03*
X1160810Y203180D02*
D03*
X1135410D02*
D03*
X983010Y177780D02*
D03*
X932210D02*
D03*
X970310Y203180D02*
D03*
X944910D02*
D03*
X789940Y177800D02*
D03*
X739140D02*
D03*
X777240Y203200D02*
D03*
X751840D02*
D03*
X596930Y177780D02*
D03*
X546130D02*
D03*
X584230Y203180D02*
D03*
X558830D02*
D03*
X403860Y177800D02*
D03*
X353060D02*
D03*
X391160Y203200D02*
D03*
X365760D02*
D03*
X810260Y1551940D02*
D03*
X822960Y1526540D02*
D03*
X797560D02*
D03*
X835660Y1551940D02*
D03*
X784860D02*
D03*
X848360Y1526540D02*
D03*
X772160D02*
D03*
X1186210Y203180D02*
D03*
X1110010D02*
D03*
X1148110Y177780D02*
D03*
X995710Y203180D02*
D03*
X919510D02*
D03*
X957610Y177780D02*
D03*
X802640Y203200D02*
D03*
X726440D02*
D03*
X764540Y177800D02*
D03*
X609630Y203180D02*
D03*
X533430D02*
D03*
X571530Y177780D02*
D03*
X416560Y203200D02*
D03*
X340360D02*
D03*
X378460Y177800D02*
D03*
D134*
X1082040Y383540D02*
D03*
X1082060Y574010D02*
D03*
D135*
X137190Y177780D02*
D03*
X1097310D02*
D03*
X906810D02*
D03*
X713740Y177800D02*
D03*
X520730Y177780D02*
D03*
X327660Y177800D02*
D03*
X861060Y1551940D02*
D03*
D136*
X140220Y830940D02*
D03*
X205220D02*
D03*
Y875940D02*
D03*
X140220Y736960D02*
D03*
X205220D02*
D03*
Y781960D02*
D03*
X140220Y642980D02*
D03*
X205220D02*
D03*
Y687980D02*
D03*
X212120Y926680D02*
D03*
X257120D02*
D03*
X212120Y991680D02*
D03*
D137*
X257120D02*
D03*
D138*
X184294Y1134079D02*
D03*
X247794D02*
D03*
D146*
X55880Y657620D02*
D03*
Y642620D02*
D03*
D147*
X40510Y627380D02*
D03*
X56010D02*
D03*
X40380Y673100D02*
D03*
X55880D02*
D03*
M02*
