M48
;Layer_Color=9474304
;FILE_FORMAT=4:4
METRIC,LZ
;TYPE=PLATED
T01F00S00C0.2500
T02F00S00C0.3000
T03F00S00C0.4000
T04F00S00C0.5000
T05F00S00C0.6000
T08F00S00C0.9000
T09F00S00C1.0000
T10F00S00C1.0200
T11F00S00C1.6000
T12F00S00C3.0000
T13F00S00C6.7564
;TYPE=NON_PLATED
T14F00S00C1.0200
T15F00S00C3.2500
%
T01
X0086374Y00683375
X00826143Y00721883
X0080773Y0074449
X0078232Y0073914
X0073914Y0071628
X0055372Y0052324
X0031242Y0052578
X00340187Y00962965
X00360387Y00966638
X00360331Y00974065
X0037846Y0095504
Y0094742
X00399374Y00975395
X00408553Y00990494
X00394214Y01037578
X00403626Y01052688
X0040132Y011049
X0041148
X00449238Y00888881
X0027686Y0097282
X00457199Y00888825
X00518279Y00889132
X00526435Y00888828
X00565699Y00892255
X00574619Y00892403
X00626239Y00891372
X00635Y0089154
X00609762Y00874511
X00679489Y00992575
X0067818Y0100076
X00695969Y01048526
X0069596Y0105664
X00749807Y01064072
X0076033Y01063485
X0075946Y0108458
X0075184Y010795
X00797445Y01096096
X00785997Y01118746
X00813872Y01116942
X00840518Y01126289
X0084074Y0096774
X00678278Y01113313
X00668096Y01128638
X008636Y010795
Y010541
X00907109Y01051002
X0092964Y010668
X00929726Y01080433
X00907234Y01096349
X0087884Y0085344
X0085852
X00952968Y00827758
X00921313Y00771902
X0080264Y0119126
X00571036Y01170105
X00562359Y01170725
X0052324Y011684
X0051308
X0047568Y01194033
X00447261Y01168482
X00454331Y01155917
X0042926Y0115824
X0020066Y0136398
X0017526
X00239628Y01464303
X00239486Y01470667
X00262121Y01465685
X00255881Y01512335
X00244773Y01503147
X00224659Y01502596
X00295931Y01493083
X0030734Y0147828
X00298028Y015406
X00271865Y01540374
T02
X01262181Y00684341
X01282181
X01302181
X01312181Y00704341
X01292181
X01272181
X01252181
X01232181
X01212181
X01222181Y00684341
X01242181
X01202181
X01172181Y00704341
X01152181
X01132181
X01112181
X01092181
X01072181
X01052181
X01032181
X01012181
X00992181
X00972181
X00952181
X00932181
X00912181
X00892181
X00902181Y00684341
X00922181
X00942181
X00962181
X00982181
X01002181
X01022181
X01042181
X01062181
X01082181
X01102181
X01122181
X00882181
X00762181
X00742181
X00722181
X00702181
X00682181
X0066218
X0064218
X0062218
X0060218
X0058218
X0056218
X0054218
X0052218
X0050218
X0048218
X0046218
X0047218Y00704341
X0049218
X0051218
X0053218
X0055218
X0057218
X0059218
X0061218
X0063218
X0065218
X0067218
X00692181
X00712181
X00732181
X00752181
X00772181
X0045218
X0043218
X0041218
X0039218
X0037218
X0035218
X0033218
X0031218
X0029218
X0027218
X0025218
X0023218
X0021218
X0019218
X0017218
X0015218
X0013218
X0011218
X0009218
X0007218
X0008218Y00684341
X00103171Y00680919
X0016218Y00684341
X0018218
X0022218
X0024218
X0026218
X0028218
X0030218
X0032218
X0034218
X0036218
X0038218
X0040218
X003683Y0062484
X0035814
X0045365Y00480521
X00212842Y00485084
X0004218Y00684341
X0002218
X0003218Y00704341
X00100188Y00774581
X00103891Y0086984
X00296226Y00981441
X00306123Y0098115
X00315861Y00982112
Y0099634
X00305249Y00996578
X00296226Y00995996
X00262232Y0106083
X0025146Y0106934
X00243979Y01077767
X00238869Y01060021
X00230926Y01067273
X00249096Y01050097
X00498347Y01193466
X00507026
X00516409Y01193567
X00529936Y01193201
X005334Y0121158
X00518237Y01212212
X00506803Y01211099
X00497045Y01211693
X00786317Y01375964
X0030226Y0138176
Y01397
X0029464Y0140716
X0028702Y0141478
X002794Y014224
X0024384
X0023622Y0141478
X002286Y0140716
X0022098Y0139954
X002159Y0138684
Y0137668
X0022098Y0136652
X0023622Y0136398
X0024892
X0026162
X0027432
X0028702
X0029972Y0136906
X00288377Y01326038
X00278217
X00265517
X00255357
X00245197
X00232497
X00254Y0128778
X002794
X002921Y0129286
X0029972Y0123698
X0030734
T03
X0005218Y0007434
Y0033434
X0011718Y0020434
X0024718
X0031218Y0033434
X0044218
X0031218Y0007434
X0018218
X0057218
X0070218
X0063718Y0020434
X0050718
X0057218Y0033434
X0070218
X0083218
X0089718Y0020434
X0102718
X0109218Y0033434
X0122218
X0109218Y0007434
X0096218
X0128718Y0020434
Y0046434
X0115718
X0122218Y0059434
X0090424Y0072898
X0089718Y0046434
X00790742Y00484295
X0078242Y00500063
X0076718Y0046434
X00727006Y00480985
X0063718Y0046434
X00637635Y00603201
X00622416Y0060122
X0057218Y0059434
X00578115Y00637182
X0050718Y0072434
X0050038Y0050038
X00506518Y00478424
X0070866Y005715
X0072136Y005842
X00775368Y0063813
X00775692Y00653464
X0083218Y0059434
X0083566Y0053086
X0044218Y0059434
X00438661Y00610915
X00431697Y00673183
X0040717Y00693846
X0037718Y0072434
X00348441Y00672197
X0032766Y0065024
X0031218Y0059434
X0018218
X00254017Y00504011
X0026205Y00490175
X0011718Y0046434
Y0072434
X0024718
X0005218Y0111434
X00214839Y01089591
X00241859Y01089913
X0019304Y0104902
X0011718Y0098434
X0018218Y0085434
X0031496Y0075184
X00326446Y00752206
X0033782Y0075184
X00362238Y0099665
X00339463Y01039015
X00380188Y01049631
X0039624Y0112014
X0041148Y0111252
X00451002Y01111687
X0045212Y010795
X0050718Y0098434
X0057218Y0085434
X0056388Y0077724
X00616808Y00780458
X00633117Y007814
X00681595Y00790348
X00683124Y00768931
X00673475Y00879315
X00742181Y00884341
X00762181
X00782181
X00802181
X00822181
X00842181
X0083218Y0085434
X0076718Y0098434
X00709446Y01103462
X0070218Y0111434
X0089718Y0098434
X00902181Y00884341
X00922181
X00942181
X00962181
X0096218Y0085434
X00882181Y00884341
X00862181
X00907436Y01183102
X0089718Y0124434
X0096218Y0137434
X0089718Y0150434
X0076718
X00753463Y01391406
X0070218Y0137434
X0083218
X0083312Y0140716
X0076718Y0124434
X0079248Y0118872
X0063718Y0124434
X00507981Y01244987
X0046978Y01245179
X0057218Y0137434
X0063718Y0150434
X0050718
X0044218Y0137434
X004318Y0137414
X0043434Y013589
X004318Y0134366
X0042926Y0129794
X0043942Y0127508
X0042926Y0124714
X0040894Y012446
X00381Y0124968
X0035814
X0034544Y0127
X0035052Y0129286
X003937Y0130302
X0031496Y0127254
Y0125476
X0024718Y0124434
X0011718
X0018218Y0137434
X0018542Y0141224
X0019812Y014097
X0017526Y014224
X0018034Y0144526
X001778Y0146304
X0020066Y0147066
X0021844Y0146812
X0022352Y0145288
X002032Y0144272
X0032512Y0145796
X0034036Y014605
X0035306
X0036068Y0145288
Y0144018
X0035052Y0140208
X0033528Y0139954
X003175Y0140462
X0031218Y0137434
X0005218
Y0163434
X0057218
X0070218
X0083218
X0096218
T04
X0046482Y0057658
X008128Y007112
T05
X0092964Y0030442
X00942917Y00315537
X0096012Y0030734
X00960791Y00331597
X00948272Y00342211
X0098298Y0033528
X00817005Y00677858
X00023266Y00673071
X0002522Y00627339
T08
X0013719Y0017778
X0016259
X0018799
X0021339
X0022609Y0020318
X0020069
X0017529
X0014989
X0034036Y002032
X0036576
X0039116
X0041656
X0040386Y001778
X0037846
X0035306
X0032766
X0052073Y0017778
X0054613
X0057153
X0059693
X0058423Y0020318
X0055883
X0053343
X0060963
X0072644Y002032
X0075184
X0077724
X0080264
X0078994Y001778
X0076454
X0073914
X0071374
X0090681Y0017778
X0093221
X0095761
X0098301
X0097031Y0020318
X0094491
X0091951
X0099571
X0111001
X0113541
X0116081
X0118621
X0117351Y0017778
X0114811
X0112271
X0109731
X0108204Y0038354
Y0040894
Y0043434
Y0045974
X0105664Y0047244
Y0044704
Y0042164
Y0039624
X0105666Y0058671
Y0061211
Y0063751
Y0066291
X0108206Y0065021
Y0062481
Y0059941
Y0057401
X0084836Y0152654
X0082296
X0079756
X0077216
X0078486Y0155194
X0081026
X0083566
X0086106
T09
X0014022Y0064298
Y0068798
Y0073696
X0020522
Y0068798
Y0064298
Y0078196
Y0083094
Y0087594
X0021212Y0092668
X0025712
Y0099168
X0021212
X0014022Y0087594
Y0083094
Y0078196
T10
X0017526Y0034036
X008636Y005207
Y005461
X0070358Y0046736
X0067818
X0058166Y0051308
Y0053848
X0056134Y0072136
X0053594
X003429Y0054864
Y0052324
X0039624Y0046482
X0042164
X0018034Y004699
X0015494
X0017526Y0041656
Y0039116
Y0036576
X0043688Y0083312
X0046228
X0048768
X0051308
X0070104Y0085598
Y0088138
Y0090678
Y0093218
X0096266Y0078994
Y0076454
T11
X0010414Y0006858
X0025914
X0029461Y000686
X0044961
X0048768Y0006858
X0064268
X0068069Y000686
X0083569
X0087376Y0006858
X0102876
X0106426
X0121926
X0119124Y0035049
Y0050549
X0119126Y0054096
Y0069596
X0073911Y0166114
X0089411
T12
X0004318Y0004318
X0127762
X0004318Y0168656
X0094234Y016891
T13
X0018693Y0163434
X0037743
T14
X00184294Y01134079
X00247794
T15
X0012449Y0011428
X0023879
X0031496Y001143
X0042926
X0050803Y0011428
X0062233
X0070104Y001143
X0081534
X0089411Y0011428
X0100841
X0108461
X0119891
X0114554Y0037084
Y0048514
X0114556Y0056131
Y0067561
X0075946Y0161544
X0087376
M30
