G04*
G04 #@! TF.GenerationSoftware,Altium Limited,Altium Designer,24.4.1 (13)*
G04*
G04 Layer_Physical_Order=2*
G04 Layer_Color=36540*
%FSLAX44Y44*%
%MOMM*%
G71*
G04*
G04 #@! TF.SameCoordinates,45E14481-76E1-4DB2-85C8-7C621F4D321E*
G04*
G04*
G04 #@! TF.FilePolarity,Positive*
G04*
G01*
G75*
%ADD25R,1.5000X1.5000*%
%ADD100C,1.5700*%
%ADD101R,1.5700X1.5700*%
%ADD109R,1.5700X1.5700*%
%ADD111C,10.2064*%
%ADD124C,0.4540*%
%ADD126R,1.5500X1.5500*%
%ADD127C,1.5500*%
%ADD128R,1.5500X1.5500*%
%ADD129R,1.9000X1.4000*%
%ADD130O,1.2500X1.0500*%
%ADD131C,2.4000*%
%ADD132C,3.2500*%
%ADD133C,1.4000*%
G04:AMPARAMS|DCode=134|XSize=1.4mm|YSize=1.4mm|CornerRadius=0.35mm|HoleSize=0mm|Usage=FLASHONLY|Rotation=90.000|XOffset=0mm|YOffset=0mm|HoleType=Round|Shape=RoundedRectangle|*
%AMROUNDEDRECTD134*
21,1,1.4000,0.7000,0,0,90.0*
21,1,0.7000,1.4000,0,0,90.0*
1,1,0.7000,0.3500,0.3500*
1,1,0.7000,0.3500,-0.3500*
1,1,0.7000,-0.3500,-0.3500*
1,1,0.7000,-0.3500,0.3500*
%
%ADD134ROUNDEDRECTD134*%
G04:AMPARAMS|DCode=135|XSize=1.4mm|YSize=1.4mm|CornerRadius=0.35mm|HoleSize=0mm|Usage=FLASHONLY|Rotation=0.000|XOffset=0mm|YOffset=0mm|HoleType=Round|Shape=RoundedRectangle|*
%AMROUNDEDRECTD135*
21,1,1.4000,0.7000,0,0,0.0*
21,1,0.7000,1.4000,0,0,0.0*
1,1,0.7000,0.3500,-0.3500*
1,1,0.7000,-0.3500,-0.3500*
1,1,0.7000,-0.3500,0.3500*
1,1,0.7000,0.3500,0.3500*
%
%ADD135ROUNDEDRECTD135*%
%ADD136C,1.5000*%
%ADD137R,1.5000X1.5000*%
%ADD138C,0.5100*%
%ADD139C,0.5000*%
%ADD140C,0.8000*%
%ADD141C,0.4000*%
%ADD142C,1.0000*%
%ADD143C,0.9000*%
%ADD144C,0.6000*%
%ADD145C,5.0000*%
G36*
X988060Y1716720D02*
Y1142451D01*
X987552Y1142034D01*
X968756D01*
X967765Y1141837D01*
X966925Y1141275D01*
X966363Y1140435D01*
X966166Y1139444D01*
Y1130554D01*
X966363Y1129563D01*
X966925Y1128723D01*
X967765Y1128161D01*
X968756Y1127964D01*
X987806D01*
X988060Y1127756D01*
Y1094953D01*
X987552Y1094536D01*
X968502D01*
X967511Y1094339D01*
X966671Y1093777D01*
X966109Y1092937D01*
X965912Y1091946D01*
Y1083564D01*
X966109Y1082573D01*
X966671Y1081733D01*
X966925Y1081479D01*
X967765Y1080917D01*
X968756Y1080720D01*
X987552D01*
X988060Y1080303D01*
Y726440D01*
X1318260D01*
X1319627Y727807D01*
X1320800Y727321D01*
Y0D01*
X0D01*
Y1724340D01*
X988060D01*
Y1716720D01*
D02*
G37*
%LPC*%
G36*
X875611Y1634230D02*
X871909D01*
X868279Y1633508D01*
X864860Y1632092D01*
X861782Y1630035D01*
X859165Y1627418D01*
X857109Y1624340D01*
X855692Y1620921D01*
X854970Y1617291D01*
Y1613589D01*
X855692Y1609959D01*
X857109Y1606540D01*
X859165Y1603462D01*
X861782Y1600845D01*
X864860Y1598788D01*
X868279Y1597372D01*
X871909Y1596650D01*
X875611D01*
X879241Y1597372D01*
X882660Y1598788D01*
X885738Y1600845D01*
X888355Y1603462D01*
X890412Y1606540D01*
X891828Y1609959D01*
X892550Y1613589D01*
Y1617291D01*
X891828Y1620921D01*
X890412Y1624340D01*
X888355Y1627418D01*
X885738Y1630035D01*
X882660Y1632092D01*
X879241Y1633508D01*
X875611Y1634230D01*
D02*
G37*
G36*
X761311D02*
X757609D01*
X753979Y1633508D01*
X750560Y1632092D01*
X747482Y1630035D01*
X744865Y1627418D01*
X742809Y1624340D01*
X741392Y1620921D01*
X740670Y1617291D01*
Y1613589D01*
X741392Y1609959D01*
X742809Y1606540D01*
X744865Y1603462D01*
X747482Y1600845D01*
X750560Y1598788D01*
X753979Y1597372D01*
X757609Y1596650D01*
X761311D01*
X764941Y1597372D01*
X768360Y1598788D01*
X771438Y1600845D01*
X774055Y1603462D01*
X776112Y1606540D01*
X777528Y1609959D01*
X778250Y1613589D01*
Y1617291D01*
X777528Y1620921D01*
X776112Y1624340D01*
X774055Y1627418D01*
X771438Y1630035D01*
X768360Y1632092D01*
X764941Y1633508D01*
X761311Y1634230D01*
D02*
G37*
G36*
X190668Y1691372D02*
X183192D01*
X175780Y1690396D01*
X168558Y1688461D01*
X161651Y1685600D01*
X155177Y1681862D01*
X149246Y1677311D01*
X143959Y1672025D01*
X139408Y1666093D01*
X135670Y1659619D01*
X132809Y1652712D01*
X130874Y1645490D01*
X129898Y1638078D01*
Y1630602D01*
X130874Y1623190D01*
X132809Y1615968D01*
X135670Y1609061D01*
X139408Y1602587D01*
X143959Y1596655D01*
X149246Y1591369D01*
X155177Y1586818D01*
X161651Y1583080D01*
X168558Y1580219D01*
X175780Y1578284D01*
X183192Y1577308D01*
X190668D01*
X198080Y1578284D01*
X205302Y1580219D01*
X212209Y1583080D01*
X218683Y1586818D01*
X224615Y1591369D01*
X229901Y1596655D01*
X234452Y1602587D01*
X238190Y1609061D01*
X241051Y1615968D01*
X242986Y1623190D01*
X243962Y1630602D01*
Y1638078D01*
X242986Y1645490D01*
X241051Y1652712D01*
X238190Y1659619D01*
X234452Y1666093D01*
X229901Y1672025D01*
X224615Y1677311D01*
X218683Y1681862D01*
X212209Y1685600D01*
X205302Y1688461D01*
X198080Y1690396D01*
X190668Y1691372D01*
D02*
G37*
G36*
X811516Y1561480D02*
X809004D01*
X806578Y1560830D01*
X804402Y1559574D01*
X802626Y1557798D01*
X801370Y1555622D01*
X800720Y1553196D01*
Y1550684D01*
X801370Y1548258D01*
X802626Y1546082D01*
X804402Y1544306D01*
X806578Y1543050D01*
X809004Y1542400D01*
X811516D01*
X813942Y1543050D01*
X816118Y1544306D01*
X817894Y1546082D01*
X819150Y1548258D01*
X819800Y1550684D01*
Y1553196D01*
X819150Y1555622D01*
X817894Y1557798D01*
X816118Y1559574D01*
X813942Y1560830D01*
X811516Y1561480D01*
D02*
G37*
G36*
X298931Y1545140D02*
X297125D01*
X295457Y1544449D01*
X294179Y1543172D01*
X293488Y1541503D01*
Y1539697D01*
X294179Y1538029D01*
X295457Y1536752D01*
X297125Y1536060D01*
X298931D01*
X300600Y1536752D01*
X301877Y1538029D01*
X302568Y1539697D01*
Y1541503D01*
X301877Y1543172D01*
X300600Y1544449D01*
X298931Y1545140D01*
D02*
G37*
G36*
X272768Y1544914D02*
X270962D01*
X269293Y1544223D01*
X268016Y1542946D01*
X267325Y1541277D01*
Y1539471D01*
X268016Y1537802D01*
X269293Y1536525D01*
X270962Y1535834D01*
X272768D01*
X274437Y1536525D01*
X275714Y1537802D01*
X276405Y1539471D01*
Y1541277D01*
X275714Y1542946D01*
X274437Y1544223D01*
X272768Y1544914D01*
D02*
G37*
G36*
X824216Y1536080D02*
X821704D01*
X819278Y1535430D01*
X817102Y1534174D01*
X815326Y1532398D01*
X814070Y1530222D01*
X813420Y1527796D01*
Y1525284D01*
X814070Y1522858D01*
X815326Y1520682D01*
X817102Y1518906D01*
X819278Y1517650D01*
X821704Y1517000D01*
X824216D01*
X826642Y1517650D01*
X828818Y1518906D01*
X830594Y1520682D01*
X831850Y1522858D01*
X832500Y1525284D01*
Y1527796D01*
X831850Y1530222D01*
X830594Y1532398D01*
X828818Y1534174D01*
X826642Y1535430D01*
X824216Y1536080D01*
D02*
G37*
G36*
X225562Y1507135D02*
X223756D01*
X222087Y1506444D01*
X220810Y1505167D01*
X220119Y1503499D01*
Y1501692D01*
X220810Y1500024D01*
X222087Y1498747D01*
X223756Y1498056D01*
X225562D01*
X227231Y1498747D01*
X228508Y1500024D01*
X229199Y1501692D01*
Y1503499D01*
X228508Y1505167D01*
X227231Y1506444D01*
X225562Y1507135D01*
D02*
G37*
G36*
X308243Y1482820D02*
X306437D01*
X304768Y1482129D01*
X303491Y1480852D01*
X302800Y1479183D01*
Y1477377D01*
X303491Y1475708D01*
X304768Y1474431D01*
X306437Y1473740D01*
X308243D01*
X309912Y1474431D01*
X311189Y1475708D01*
X311880Y1477377D01*
Y1479183D01*
X311189Y1480852D01*
X309912Y1482129D01*
X308243Y1482820D01*
D02*
G37*
G36*
X354376Y1470500D02*
X351744D01*
X349200Y1469819D01*
X346920Y1468502D01*
X346710Y1468292D01*
X346500Y1468502D01*
X344220Y1469819D01*
X341676Y1470500D01*
X339044D01*
X336500Y1469819D01*
X334220Y1468502D01*
X332368Y1466650D01*
X332239Y1466527D01*
X330690Y1466291D01*
X328980Y1467278D01*
X326437Y1467960D01*
X323803D01*
X321260Y1467278D01*
X318980Y1465962D01*
X317118Y1464100D01*
X315802Y1461820D01*
X315120Y1459276D01*
Y1456644D01*
X315802Y1454100D01*
X317118Y1451820D01*
X318980Y1449958D01*
X321260Y1448642D01*
X323803Y1447960D01*
X326437D01*
X328980Y1448642D01*
X331260Y1449958D01*
X333112Y1451810D01*
X333241Y1451933D01*
X334790Y1452169D01*
X336500Y1451181D01*
X339044Y1450500D01*
X341676D01*
X344220Y1451181D01*
X346500Y1452498D01*
X346710Y1452708D01*
X346920Y1452498D01*
X349200Y1451181D01*
X350905Y1450725D01*
X351362Y1449020D01*
X352678Y1446740D01*
X352888Y1446530D01*
X352678Y1446320D01*
X351362Y1444040D01*
X350680Y1441496D01*
Y1438864D01*
X351362Y1436320D01*
X352678Y1434040D01*
X354540Y1432178D01*
X356820Y1430862D01*
X359364Y1430180D01*
X361996D01*
X364540Y1430862D01*
X366820Y1432178D01*
X368682Y1434040D01*
X369999Y1436320D01*
X370680Y1438864D01*
Y1441496D01*
X369999Y1444040D01*
X368682Y1446320D01*
X368472Y1446530D01*
X368682Y1446740D01*
X369999Y1449020D01*
X370680Y1451564D01*
Y1454196D01*
X369999Y1456740D01*
X368682Y1459020D01*
X366820Y1460882D01*
X364540Y1462198D01*
X362835Y1462655D01*
X362379Y1464360D01*
X361062Y1466640D01*
X359200Y1468502D01*
X356920Y1469819D01*
X354376Y1470500D01*
D02*
G37*
G36*
X201977Y1480660D02*
X199343D01*
X196800Y1479978D01*
X194520Y1478662D01*
X192658Y1476800D01*
X191341Y1474520D01*
X190660Y1471976D01*
Y1469344D01*
X191341Y1466800D01*
X192658Y1464520D01*
X194520Y1462658D01*
X196800Y1461342D01*
X199343Y1460660D01*
X201977D01*
X204520Y1461342D01*
X206800Y1462658D01*
X207972Y1463830D01*
X208014Y1463846D01*
X209516Y1463578D01*
X210438Y1461980D01*
X212300Y1460118D01*
X214089Y1459085D01*
X214699Y1457602D01*
X214202Y1456740D01*
X213520Y1454196D01*
Y1451564D01*
X214202Y1449020D01*
X215518Y1446740D01*
X217380Y1444878D01*
X219660Y1443562D01*
X222204Y1442880D01*
X224837D01*
X227380Y1443562D01*
X229660Y1444878D01*
X231522Y1446740D01*
X232838Y1449020D01*
X233520Y1451564D01*
Y1454196D01*
X232838Y1456740D01*
X231522Y1459020D01*
X229660Y1460882D01*
X227871Y1461915D01*
X227260Y1463398D01*
X227759Y1464260D01*
X228440Y1466803D01*
Y1469436D01*
X227759Y1471980D01*
X226442Y1474260D01*
X224580Y1476122D01*
X222300Y1477439D01*
X219757Y1478120D01*
X217124D01*
X214580Y1477439D01*
X212300Y1476122D01*
X211128Y1474950D01*
X211086Y1474934D01*
X209584Y1475202D01*
X208662Y1476800D01*
X206800Y1478662D01*
X204520Y1479978D01*
X201977Y1480660D01*
D02*
G37*
G36*
X179116Y1473040D02*
X176483D01*
X173940Y1472359D01*
X171660Y1471042D01*
X169798Y1469180D01*
X168482Y1466900D01*
X167800Y1464357D01*
Y1461723D01*
X168482Y1459180D01*
X169798Y1456900D01*
X171660Y1455038D01*
X173258Y1454116D01*
X173526Y1452614D01*
X173510Y1452572D01*
X172338Y1451400D01*
X171021Y1449120D01*
X170340Y1446577D01*
Y1443943D01*
X171021Y1441400D01*
X172338Y1439120D01*
X174200Y1437258D01*
X176480Y1435941D01*
X179023Y1435260D01*
X181656D01*
X184200Y1435941D01*
X186480Y1437258D01*
X188342Y1439120D01*
X189659Y1441400D01*
X190340Y1443943D01*
Y1446577D01*
X189659Y1449120D01*
X188342Y1451400D01*
X186480Y1453262D01*
X184883Y1454184D01*
X184614Y1455686D01*
X184630Y1455728D01*
X185802Y1456900D01*
X187118Y1459180D01*
X187800Y1461723D01*
Y1464357D01*
X187118Y1466900D01*
X185802Y1469180D01*
X183940Y1471042D01*
X181660Y1472359D01*
X179116Y1473040D01*
D02*
G37*
G36*
X204517Y1452720D02*
X201884D01*
X199340Y1452039D01*
X197060Y1450722D01*
X195198Y1448860D01*
X193881Y1446580D01*
X193200Y1444037D01*
Y1441404D01*
X193881Y1438860D01*
X195198Y1436580D01*
X197060Y1434718D01*
X199340Y1433401D01*
X201884Y1432720D01*
X204517D01*
X207060Y1433401D01*
X209340Y1434718D01*
X211202Y1436580D01*
X212519Y1438860D01*
X213200Y1441404D01*
Y1444037D01*
X212519Y1446580D01*
X211202Y1448860D01*
X209340Y1450722D01*
X207060Y1452039D01*
X204517Y1452720D01*
D02*
G37*
G36*
X787419Y1381504D02*
X785215D01*
X783179Y1380661D01*
X781621Y1379102D01*
X780777Y1377066D01*
Y1374862D01*
X781621Y1372826D01*
X783179Y1371268D01*
X785215Y1370424D01*
X787419D01*
X789455Y1371268D01*
X791014Y1372826D01*
X791857Y1374862D01*
Y1377066D01*
X791014Y1379102D01*
X789455Y1380661D01*
X787419Y1381504D01*
D02*
G37*
G36*
X289379Y1331078D02*
X287374D01*
X285522Y1330311D01*
X284104Y1328893D01*
X283984Y1328604D01*
X282610D01*
X282490Y1328893D01*
X281072Y1330311D01*
X279219Y1331078D01*
X277214D01*
X275362Y1330311D01*
X273944Y1328893D01*
X273177Y1327041D01*
Y1325036D01*
X273944Y1323183D01*
X275362Y1321766D01*
X277214Y1320998D01*
X279219D01*
X281072Y1321766D01*
X282490Y1323183D01*
X282610Y1323473D01*
X283984D01*
X284104Y1323183D01*
X285522Y1321766D01*
X287374Y1320998D01*
X289379D01*
X291232Y1321766D01*
X292650Y1323183D01*
X293417Y1325036D01*
Y1327041D01*
X292650Y1328893D01*
X291232Y1330311D01*
X289379Y1331078D01*
D02*
G37*
G36*
X266519D02*
X264514D01*
X262662Y1330311D01*
X261244Y1328893D01*
X261124Y1328604D01*
X259750D01*
X259630Y1328893D01*
X258212Y1330311D01*
X256359Y1331078D01*
X254354D01*
X252502Y1330311D01*
X251084Y1328893D01*
X250964Y1328604D01*
X249590D01*
X249470Y1328893D01*
X248052Y1330311D01*
X246199Y1331078D01*
X244194D01*
X242342Y1330311D01*
X240924Y1328893D01*
X240157Y1327041D01*
Y1325036D01*
X240924Y1323183D01*
X242342Y1321766D01*
X244194Y1320998D01*
X246199D01*
X248052Y1321766D01*
X249470Y1323183D01*
X249590Y1323473D01*
X250964D01*
X251084Y1323183D01*
X252502Y1321766D01*
X254354Y1320998D01*
X256359D01*
X258212Y1321766D01*
X259630Y1323183D01*
X259750Y1323473D01*
X261124D01*
X261244Y1323183D01*
X262662Y1321766D01*
X264514Y1320998D01*
X266519D01*
X268372Y1321766D01*
X269790Y1323183D01*
X270557Y1325036D01*
Y1327041D01*
X269790Y1328893D01*
X268372Y1330311D01*
X266519Y1331078D01*
D02*
G37*
G36*
X233499D02*
X231494D01*
X229642Y1330311D01*
X228224Y1328893D01*
X227457Y1327041D01*
Y1325036D01*
X228224Y1323183D01*
X229642Y1321766D01*
X231494Y1320998D01*
X233499D01*
X235352Y1321766D01*
X236770Y1323183D01*
X237537Y1325036D01*
Y1327041D01*
X236770Y1328893D01*
X235352Y1330311D01*
X233499Y1331078D01*
D02*
G37*
G36*
X394561Y1309560D02*
X392839D01*
X391176Y1309114D01*
X389684Y1308253D01*
X388467Y1307036D01*
X387606Y1305544D01*
X387160Y1303881D01*
Y1302159D01*
X387606Y1300496D01*
X388467Y1299004D01*
X389684Y1297787D01*
X391176Y1296926D01*
X392839Y1296480D01*
X394561D01*
X396224Y1296926D01*
X397716Y1297787D01*
X398933Y1299004D01*
X399794Y1300496D01*
X400240Y1302159D01*
Y1303881D01*
X399794Y1305544D01*
X398933Y1307036D01*
X397716Y1308253D01*
X396224Y1309114D01*
X394561Y1309560D01*
D02*
G37*
G36*
X430121Y1304480D02*
X428399D01*
X426736Y1304034D01*
X425244Y1303173D01*
X424027Y1301956D01*
X423166Y1300464D01*
X422720Y1298801D01*
Y1297079D01*
X423166Y1295416D01*
X424027Y1293924D01*
X425244Y1292707D01*
X426736Y1291846D01*
X428399Y1291400D01*
X430121D01*
X431784Y1291846D01*
X433276Y1292707D01*
X434493Y1293924D01*
X435354Y1295416D01*
X435800Y1297079D01*
Y1298801D01*
X435354Y1300464D01*
X434493Y1301956D01*
X433276Y1303173D01*
X431784Y1304034D01*
X430121Y1304480D01*
D02*
G37*
G36*
X293102Y1297900D02*
X291098D01*
X289245Y1297133D01*
X287827Y1295715D01*
X287060Y1293862D01*
Y1291857D01*
X287827Y1290005D01*
X289245Y1288587D01*
X291098Y1287820D01*
X293102D01*
X294955Y1288587D01*
X296373Y1290005D01*
X297140Y1291857D01*
Y1293862D01*
X296373Y1295715D01*
X294955Y1297133D01*
X293102Y1297900D01*
D02*
G37*
G36*
X351381Y1299400D02*
X349659D01*
X347996Y1298954D01*
X346504Y1298093D01*
X345287Y1296876D01*
X344426Y1295384D01*
X343980Y1293721D01*
Y1291999D01*
X344426Y1290336D01*
X345287Y1288844D01*
X346504Y1287627D01*
X347996Y1286766D01*
X349659Y1286320D01*
X351381D01*
X353044Y1286766D01*
X354536Y1287627D01*
X355753Y1288844D01*
X356614Y1290336D01*
X357060Y1291999D01*
Y1293721D01*
X356614Y1295384D01*
X355753Y1296876D01*
X354536Y1298093D01*
X353044Y1298954D01*
X351381Y1299400D01*
D02*
G37*
G36*
X280403Y1292820D02*
X278398D01*
X276545Y1292053D01*
X275127Y1290635D01*
X274360Y1288783D01*
Y1286777D01*
X275127Y1284925D01*
X276545Y1283507D01*
X278398Y1282740D01*
X280403D01*
X282255Y1283507D01*
X283673Y1284925D01*
X284440Y1286777D01*
Y1288783D01*
X283673Y1290635D01*
X282255Y1292053D01*
X280403Y1292820D01*
D02*
G37*
G36*
X255002D02*
X252997D01*
X251145Y1292053D01*
X249727Y1290635D01*
X248960Y1288783D01*
Y1286777D01*
X249727Y1284925D01*
X251145Y1283507D01*
X252997Y1282740D01*
X255002D01*
X256855Y1283507D01*
X258273Y1284925D01*
X259040Y1286777D01*
Y1288783D01*
X258273Y1290635D01*
X256855Y1292053D01*
X255002Y1292820D01*
D02*
G37*
G36*
X440281Y1281620D02*
X438559D01*
X436896Y1281174D01*
X435404Y1280313D01*
X434187Y1279096D01*
X433326Y1277604D01*
X432880Y1275941D01*
Y1274219D01*
X433326Y1272556D01*
X434187Y1271064D01*
X435404Y1269847D01*
X436896Y1268986D01*
X438559Y1268540D01*
X440281D01*
X441944Y1268986D01*
X443436Y1269847D01*
X444653Y1271064D01*
X445514Y1272556D01*
X445960Y1274219D01*
Y1275941D01*
X445514Y1277604D01*
X444653Y1279096D01*
X443436Y1280313D01*
X441944Y1281174D01*
X440281Y1281620D01*
D02*
G37*
G36*
X346301Y1276540D02*
X344579D01*
X342916Y1276094D01*
X341424Y1275233D01*
X340207Y1274016D01*
X339346Y1272524D01*
X338900Y1270861D01*
Y1269139D01*
X339346Y1267476D01*
X340207Y1265984D01*
X341424Y1264767D01*
X342916Y1263906D01*
X344579Y1263460D01*
X346301D01*
X347964Y1263906D01*
X349456Y1264767D01*
X350673Y1265984D01*
X351534Y1267476D01*
X351980Y1269139D01*
Y1270861D01*
X351534Y1272524D01*
X350673Y1274016D01*
X349456Y1275233D01*
X347964Y1276094D01*
X346301Y1276540D01*
D02*
G37*
G36*
X381861Y1256220D02*
X380139D01*
X378476Y1255774D01*
X376984Y1254913D01*
X375767Y1253696D01*
X374906Y1252204D01*
X374460Y1250541D01*
Y1248819D01*
X374906Y1247156D01*
X375767Y1245664D01*
X376984Y1244447D01*
X378476Y1243586D01*
X380139Y1243140D01*
X381861D01*
X383524Y1243586D01*
X385016Y1244447D01*
X386233Y1245664D01*
X387094Y1247156D01*
X387540Y1248819D01*
Y1250541D01*
X387094Y1252204D01*
X386233Y1253696D01*
X385016Y1254913D01*
X383524Y1255774D01*
X381861Y1256220D01*
D02*
G37*
G36*
X359001D02*
X357279D01*
X355616Y1255774D01*
X354124Y1254913D01*
X352907Y1253696D01*
X352046Y1252204D01*
X351600Y1250541D01*
Y1248819D01*
X352046Y1247156D01*
X352907Y1245664D01*
X354124Y1244447D01*
X355616Y1243586D01*
X357279Y1243140D01*
X359001D01*
X360664Y1243586D01*
X362156Y1244447D01*
X363373Y1245664D01*
X364234Y1247156D01*
X364680Y1248819D01*
Y1250541D01*
X364234Y1252204D01*
X363373Y1253696D01*
X362156Y1254913D01*
X360664Y1255774D01*
X359001Y1256220D01*
D02*
G37*
G36*
X430121Y1253680D02*
X428399D01*
X426736Y1253234D01*
X425244Y1252373D01*
X424027Y1251156D01*
X423166Y1249664D01*
X422720Y1248001D01*
Y1246279D01*
X423166Y1244616D01*
X424027Y1243124D01*
X425244Y1241907D01*
X426736Y1241046D01*
X428399Y1240600D01*
X430121D01*
X431784Y1241046D01*
X433276Y1241907D01*
X434493Y1243124D01*
X435354Y1244616D01*
X435800Y1246279D01*
Y1248001D01*
X435354Y1249664D01*
X434493Y1251156D01*
X433276Y1252373D01*
X431784Y1253234D01*
X430121Y1253680D01*
D02*
G37*
G36*
X308342Y1242020D02*
X306338D01*
X304485Y1241253D01*
X303530Y1240298D01*
X302575Y1241253D01*
X300723Y1242020D01*
X298717D01*
X296865Y1241253D01*
X295447Y1239835D01*
X294680Y1237982D01*
Y1235977D01*
X295447Y1234125D01*
X296865Y1232707D01*
X298717Y1231940D01*
X300723D01*
X302575Y1232707D01*
X303530Y1233662D01*
X304485Y1232707D01*
X306338Y1231940D01*
X308342D01*
X310195Y1232707D01*
X311613Y1234125D01*
X312380Y1235977D01*
Y1237982D01*
X311613Y1239835D01*
X310195Y1241253D01*
X308342Y1242020D01*
D02*
G37*
G36*
X470640Y1251719D02*
X468918D01*
X467255Y1251273D01*
X465764Y1250412D01*
X464546Y1249195D01*
X463685Y1247703D01*
X463240Y1246040D01*
Y1244318D01*
X463685Y1242655D01*
X464546Y1241163D01*
X465764Y1239946D01*
X467255Y1239085D01*
X468918Y1238639D01*
X470640D01*
X472304Y1239085D01*
X473795Y1239946D01*
X475013Y1241163D01*
X475874Y1242655D01*
X476319Y1244318D01*
Y1246040D01*
X475874Y1247703D01*
X475013Y1249195D01*
X473795Y1250412D01*
X472304Y1251273D01*
X470640Y1251719D01*
D02*
G37*
G36*
X409801Y1251140D02*
X408079D01*
X406416Y1250694D01*
X404924Y1249833D01*
X403707Y1248616D01*
X402846Y1247124D01*
X402400Y1245461D01*
Y1243739D01*
X402846Y1242076D01*
X403707Y1240584D01*
X404924Y1239367D01*
X406416Y1238506D01*
X408079Y1238060D01*
X409801D01*
X411464Y1238506D01*
X412956Y1239367D01*
X414173Y1240584D01*
X415034Y1242076D01*
X415480Y1243739D01*
Y1245461D01*
X415034Y1247124D01*
X414173Y1248616D01*
X412956Y1249833D01*
X411464Y1250694D01*
X409801Y1251140D01*
D02*
G37*
G36*
X519339Y1217752D02*
X517136D01*
X515099Y1216908D01*
X513541Y1215350D01*
X512977Y1213989D01*
X511602D01*
X511499Y1214237D01*
X509941Y1215796D01*
X507905Y1216639D01*
X505701D01*
X503665Y1215796D01*
X502994Y1215125D01*
X501741Y1214832D01*
X500183Y1216390D01*
X498147Y1217233D01*
X495943D01*
X493907Y1216390D01*
X492348Y1214831D01*
X491505Y1212795D01*
Y1210591D01*
X492348Y1208555D01*
X493907Y1206997D01*
X495943Y1206153D01*
X498147D01*
X500183Y1206997D01*
X500853Y1207667D01*
X502106Y1207961D01*
X503665Y1206402D01*
X505701Y1205559D01*
X507905D01*
X509941Y1206402D01*
X511499Y1207961D01*
X512063Y1209322D01*
X513438D01*
X513541Y1209074D01*
X515099Y1207515D01*
X517136Y1206672D01*
X519339D01*
X521376Y1207515D01*
X522934Y1209074D01*
X523778Y1211110D01*
Y1213314D01*
X522934Y1215350D01*
X521376Y1216908D01*
X519339Y1217752D01*
D02*
G37*
G36*
X534502Y1217120D02*
X532298D01*
X530262Y1216277D01*
X528703Y1214718D01*
X527860Y1212682D01*
Y1210478D01*
X528703Y1208442D01*
X530262Y1206883D01*
X532298Y1206040D01*
X534502D01*
X536538Y1206883D01*
X538097Y1208442D01*
X538940Y1210478D01*
Y1212682D01*
X538097Y1214718D01*
X536538Y1216277D01*
X534502Y1217120D01*
D02*
G37*
G36*
X517511Y1199107D02*
X515308D01*
X513271Y1198263D01*
X511713Y1196705D01*
X511637Y1196690D01*
X510165Y1198163D01*
X508128Y1199006D01*
X505924D01*
X503888Y1198163D01*
X502687Y1196961D01*
X501485Y1198163D01*
X499449Y1199006D01*
X497245D01*
X495209Y1198163D01*
X493650Y1196604D01*
X492807Y1194568D01*
Y1192364D01*
X493650Y1190328D01*
X495209Y1188769D01*
X497245Y1187926D01*
X499449D01*
X501485Y1188769D01*
X502687Y1189971D01*
X503888Y1188769D01*
X505924Y1187926D01*
X508128D01*
X510165Y1188769D01*
X511723Y1190328D01*
X511799Y1190343D01*
X513271Y1188870D01*
X515308Y1188027D01*
X517511D01*
X519548Y1188870D01*
X521106Y1190429D01*
X521950Y1192465D01*
Y1194669D01*
X521106Y1196705D01*
X519548Y1198263D01*
X517511Y1199107D01*
D02*
G37*
G36*
X803543Y1195800D02*
X801737D01*
X800068Y1195109D01*
X798791Y1193832D01*
X798660Y1193516D01*
X797182Y1193267D01*
X796496Y1193953D01*
X795004Y1194814D01*
X793341Y1195260D01*
X791619D01*
X789956Y1194814D01*
X788464Y1193953D01*
X787247Y1192736D01*
X786386Y1191244D01*
X785940Y1189581D01*
Y1187859D01*
X786386Y1186196D01*
X787247Y1184704D01*
X788464Y1183487D01*
X789956Y1182626D01*
X791619Y1182180D01*
X793341D01*
X795004Y1182626D01*
X796496Y1183487D01*
X797713Y1184704D01*
X798574Y1186196D01*
X798767Y1186916D01*
X799943Y1187364D01*
X800200Y1187356D01*
X801737Y1186720D01*
X803543D01*
X805212Y1187411D01*
X806489Y1188688D01*
X807180Y1190357D01*
Y1192163D01*
X806489Y1193832D01*
X805212Y1195109D01*
X803543Y1195800D01*
D02*
G37*
G36*
X531038Y1198741D02*
X528834D01*
X526798Y1197898D01*
X525240Y1196339D01*
X524396Y1194303D01*
Y1192099D01*
X525240Y1190063D01*
X526798Y1188505D01*
X528834Y1187661D01*
X531038D01*
X533074Y1188505D01*
X534633Y1190063D01*
X535476Y1192099D01*
Y1194303D01*
X534633Y1196339D01*
X533074Y1197898D01*
X531038Y1198741D01*
D02*
G37*
G36*
X563262Y1175265D02*
X561456D01*
X559787Y1174573D01*
X558510Y1173296D01*
X557819Y1171628D01*
Y1169821D01*
X558510Y1168153D01*
X559787Y1166876D01*
X561456Y1166185D01*
X563262D01*
X564930Y1166876D01*
X566208Y1168153D01*
X566899Y1169821D01*
Y1171628D01*
X566208Y1173296D01*
X564930Y1174573D01*
X563262Y1175265D01*
D02*
G37*
G36*
X448164Y1173022D02*
X446358D01*
X444689Y1172331D01*
X443412Y1171054D01*
X442721Y1169385D01*
Y1167579D01*
X443412Y1165911D01*
X444689Y1164633D01*
X446358Y1163942D01*
X448164D01*
X449833Y1164633D01*
X451110Y1165911D01*
X451801Y1167579D01*
Y1169385D01*
X451110Y1171054D01*
X449833Y1172331D01*
X448164Y1173022D01*
D02*
G37*
G36*
X513983Y1172940D02*
X512177D01*
X510508Y1172249D01*
X509231Y1170972D01*
X508540Y1169303D01*
Y1167497D01*
X509231Y1165828D01*
X510508Y1164551D01*
X512177Y1163860D01*
X513983D01*
X515652Y1164551D01*
X516929Y1165828D01*
X517620Y1167497D01*
Y1169303D01*
X516929Y1170972D01*
X515652Y1172249D01*
X513983Y1172940D01*
D02*
G37*
G36*
X455234Y1160457D02*
X453428D01*
X451759Y1159766D01*
X450482Y1158488D01*
X449791Y1156820D01*
Y1155014D01*
X450482Y1153345D01*
X451759Y1152068D01*
X453428Y1151377D01*
X455234D01*
X456902Y1152068D01*
X458180Y1153345D01*
X458871Y1155014D01*
Y1156820D01*
X458180Y1158488D01*
X456902Y1159766D01*
X455234Y1160457D01*
D02*
G37*
G36*
X248799Y1141719D02*
X246788D01*
X244845Y1141199D01*
X243102Y1140193D01*
X241680Y1138770D01*
X240674Y1137028D01*
X240154Y1135085D01*
Y1133073D01*
X240674Y1131130D01*
X241680Y1129388D01*
X243102Y1127966D01*
X244845Y1126960D01*
X246788Y1126439D01*
X248799D01*
X250742Y1126960D01*
X252485Y1127966D01*
X253907Y1129388D01*
X254913Y1131130D01*
X255434Y1133073D01*
Y1135085D01*
X254913Y1137028D01*
X253907Y1138770D01*
X252485Y1140193D01*
X250742Y1141199D01*
X248799Y1141719D01*
D02*
G37*
G36*
X185299D02*
X183288D01*
X181345Y1141199D01*
X179603Y1140193D01*
X178180Y1138770D01*
X177174Y1137028D01*
X176654Y1135085D01*
Y1133073D01*
X177174Y1131130D01*
X178180Y1129388D01*
X179603Y1127966D01*
X181345Y1126960D01*
X183288Y1126439D01*
X185299D01*
X187243Y1126960D01*
X188985Y1127966D01*
X190407Y1129388D01*
X191413Y1131130D01*
X191934Y1133073D01*
Y1135085D01*
X191413Y1137028D01*
X190407Y1138770D01*
X188985Y1140193D01*
X187243Y1141199D01*
X185299Y1141719D01*
D02*
G37*
G36*
X668999Y1133178D02*
X667193D01*
X665524Y1132487D01*
X664247Y1131210D01*
X663556Y1129541D01*
Y1127735D01*
X664247Y1126066D01*
X665524Y1124789D01*
X667193Y1124098D01*
X668999D01*
X670668Y1124789D01*
X671945Y1126066D01*
X672636Y1127735D01*
Y1129541D01*
X671945Y1131210D01*
X670668Y1132487D01*
X668999Y1133178D01*
D02*
G37*
G36*
X397101Y1126680D02*
X395379D01*
X393716Y1126234D01*
X392224Y1125373D01*
X391007Y1124156D01*
X390146Y1122664D01*
X389700Y1121001D01*
Y1119279D01*
X390146Y1117616D01*
X391007Y1116124D01*
X392224Y1114907D01*
X393716Y1114046D01*
X395379Y1113600D01*
X397101D01*
X398764Y1114046D01*
X400256Y1114907D01*
X401473Y1116124D01*
X402334Y1117616D01*
X402780Y1119279D01*
Y1121001D01*
X402334Y1122664D01*
X401473Y1124156D01*
X400256Y1125373D01*
X398764Y1126234D01*
X397101Y1126680D01*
D02*
G37*
G36*
X814774Y1121482D02*
X812968D01*
X811300Y1120791D01*
X810023Y1119513D01*
X809332Y1117845D01*
Y1116039D01*
X810023Y1114370D01*
X811300Y1113093D01*
X812968Y1112402D01*
X814774D01*
X816443Y1113093D01*
X817720Y1114370D01*
X818411Y1116039D01*
Y1117845D01*
X817720Y1119513D01*
X816443Y1120791D01*
X814774Y1121482D01*
D02*
G37*
G36*
X451862Y1118227D02*
X450140D01*
X448477Y1117782D01*
X446986Y1116921D01*
X445768Y1115703D01*
X444907Y1114212D01*
X444462Y1112548D01*
Y1110826D01*
X444907Y1109163D01*
X445768Y1107672D01*
X446986Y1106454D01*
X448477Y1105593D01*
X450140Y1105147D01*
X451862D01*
X453526Y1105593D01*
X455017Y1106454D01*
X456235Y1107672D01*
X457096Y1109163D01*
X457542Y1110826D01*
Y1112548D01*
X457096Y1114212D01*
X456235Y1115703D01*
X455017Y1116921D01*
X453526Y1117782D01*
X451862Y1118227D01*
D02*
G37*
G36*
X412341Y1119060D02*
X410619D01*
X408956Y1118614D01*
X407464Y1117753D01*
X406247Y1116536D01*
X405386Y1115044D01*
X404940Y1113381D01*
Y1111659D01*
X405386Y1109996D01*
X406247Y1108504D01*
X407464Y1107287D01*
X407537Y1107245D01*
X406940Y1105803D01*
Y1103997D01*
X407631Y1102328D01*
X408908Y1101051D01*
X410577Y1100360D01*
X412383D01*
X414052Y1101051D01*
X415329Y1102328D01*
X416020Y1103997D01*
Y1105803D01*
X415423Y1107245D01*
X415496Y1107287D01*
X416713Y1108504D01*
X417574Y1109996D01*
X418020Y1111659D01*
Y1113381D01*
X417574Y1115044D01*
X416713Y1116536D01*
X415496Y1117753D01*
X414004Y1118614D01*
X412341Y1119060D01*
D02*
G37*
G36*
X760363Y1089120D02*
X758557D01*
X756888Y1088429D01*
X755611Y1087152D01*
X754920Y1085483D01*
Y1084500D01*
X753656Y1083662D01*
X752743Y1084040D01*
X750937D01*
X749268Y1083349D01*
X747991Y1082072D01*
X747300Y1080403D01*
Y1078597D01*
X747991Y1076928D01*
X749268Y1075651D01*
X750937Y1074960D01*
X752743D01*
X754412Y1075651D01*
X755689Y1076928D01*
X756380Y1078597D01*
Y1079580D01*
X757644Y1080418D01*
X758557Y1080040D01*
X760363D01*
X762032Y1080731D01*
X763309Y1082008D01*
X764000Y1083677D01*
Y1085483D01*
X763309Y1087152D01*
X762032Y1088429D01*
X760363Y1089120D01*
D02*
G37*
G36*
X930629Y1084973D02*
X928823D01*
X927154Y1084281D01*
X925877Y1083004D01*
X925186Y1081336D01*
Y1079529D01*
X925877Y1077861D01*
X927154Y1076584D01*
X928823Y1075892D01*
X930629D01*
X932298Y1076584D01*
X933575Y1077861D01*
X934266Y1079529D01*
Y1081336D01*
X933575Y1083004D01*
X932298Y1084281D01*
X930629Y1084973D01*
D02*
G37*
G36*
X864503Y1084040D02*
X862697D01*
X861028Y1083349D01*
X859751Y1082072D01*
X859060Y1080403D01*
Y1078597D01*
X859751Y1076928D01*
X861028Y1075651D01*
X862697Y1074960D01*
X864503D01*
X866172Y1075651D01*
X867449Y1076928D01*
X868140Y1078597D01*
Y1080403D01*
X867449Y1082072D01*
X866172Y1083349D01*
X864503Y1084040D01*
D02*
G37*
G36*
X452981Y1086040D02*
X451259D01*
X449596Y1085594D01*
X448104Y1084733D01*
X446887Y1083516D01*
X446026Y1082024D01*
X445580Y1080361D01*
Y1078639D01*
X446026Y1076976D01*
X446887Y1075484D01*
X448104Y1074267D01*
X449596Y1073406D01*
X451259Y1072960D01*
X452981D01*
X454644Y1073406D01*
X456136Y1074267D01*
X457353Y1075484D01*
X458214Y1076976D01*
X458660Y1078639D01*
Y1080361D01*
X458214Y1082024D01*
X457353Y1083516D01*
X456136Y1084733D01*
X454644Y1085594D01*
X452981Y1086040D01*
D02*
G37*
G36*
X245081Y1083307D02*
X242877D01*
X240841Y1082464D01*
X239282Y1080905D01*
X238439Y1078869D01*
Y1076665D01*
X239282Y1074629D01*
X240841Y1073071D01*
X242877Y1072227D01*
X245081D01*
X245327Y1072329D01*
X246299Y1071357D01*
X245920Y1070442D01*
Y1068238D01*
X246763Y1066202D01*
X248322Y1064643D01*
X250358Y1063800D01*
X252562D01*
X254598Y1064643D01*
X256157Y1066202D01*
X257000Y1068238D01*
Y1070442D01*
X256157Y1072478D01*
X254598Y1074037D01*
X252562Y1074880D01*
X250358D01*
X250112Y1074778D01*
X249140Y1075750D01*
X249519Y1076665D01*
Y1078869D01*
X248675Y1080905D01*
X247117Y1082464D01*
X245081Y1083307D01*
D02*
G37*
G36*
X930543Y1071340D02*
X928737D01*
X927068Y1070649D01*
X925791Y1069372D01*
X925100Y1067703D01*
Y1065897D01*
X925791Y1064228D01*
X927068Y1062951D01*
X928737Y1062260D01*
X930543D01*
X932212Y1062951D01*
X933489Y1064228D01*
X934180Y1065897D01*
Y1067703D01*
X933489Y1069372D01*
X932212Y1070649D01*
X930543Y1071340D01*
D02*
G37*
G36*
X750710Y1068612D02*
X748904D01*
X747235Y1067921D01*
X745958Y1066643D01*
X745267Y1064975D01*
Y1063169D01*
X745958Y1061500D01*
X747235Y1060223D01*
X748904Y1059532D01*
X750710D01*
X752379Y1060223D01*
X753656Y1061500D01*
X754347Y1063169D01*
Y1064975D01*
X753656Y1066643D01*
X752379Y1067921D01*
X750710Y1068612D01*
D02*
G37*
G36*
X761233Y1068025D02*
X759427D01*
X757758Y1067334D01*
X756481Y1066057D01*
X755790Y1064388D01*
Y1062582D01*
X756481Y1060913D01*
X757758Y1059636D01*
X759427Y1058945D01*
X761233D01*
X762902Y1059636D01*
X764179Y1060913D01*
X764870Y1062582D01*
Y1064388D01*
X764179Y1066057D01*
X762902Y1067334D01*
X761233Y1068025D01*
D02*
G37*
G36*
X263334Y1066370D02*
X261130D01*
X259094Y1065527D01*
X257535Y1063969D01*
X256692Y1061932D01*
Y1059728D01*
X257535Y1057692D01*
X259094Y1056134D01*
X261130Y1055290D01*
X263334D01*
X265370Y1056134D01*
X266929Y1057692D01*
X267772Y1059728D01*
Y1061932D01*
X266929Y1063969D01*
X265370Y1065527D01*
X263334Y1066370D01*
D02*
G37*
G36*
X232028Y1072813D02*
X229824D01*
X227787Y1071970D01*
X226229Y1070411D01*
X225386Y1068375D01*
Y1066171D01*
X226229Y1064135D01*
X227787Y1062577D01*
X229824Y1061733D01*
X232028D01*
X232371Y1061875D01*
X233329Y1060898D01*
Y1058919D01*
X234172Y1056883D01*
X235731Y1055325D01*
X237767Y1054481D01*
X239971D01*
X242007Y1055325D01*
X243566Y1056883D01*
X244409Y1058919D01*
Y1061123D01*
X243566Y1063159D01*
X242007Y1064718D01*
X239971Y1065561D01*
X237767D01*
X237424Y1065419D01*
X236466Y1066397D01*
Y1068375D01*
X235622Y1070411D01*
X234064Y1071970D01*
X232028Y1072813D01*
D02*
G37*
G36*
X696863Y1061180D02*
X695057D01*
X693388Y1060489D01*
X692111Y1059212D01*
X691420Y1057543D01*
Y1055737D01*
X692111Y1054068D01*
X693388Y1052791D01*
X695057Y1052100D01*
X696863D01*
X698532Y1052791D01*
X699809Y1054068D01*
X700500Y1055737D01*
Y1057543D01*
X699809Y1059212D01*
X698532Y1060489D01*
X696863Y1061180D01*
D02*
G37*
G36*
X864503Y1058640D02*
X862697D01*
X861028Y1057949D01*
X859751Y1056672D01*
X859060Y1055003D01*
Y1053197D01*
X859751Y1051528D01*
X861028Y1050251D01*
X862697Y1049560D01*
X864503D01*
X866172Y1050251D01*
X867449Y1051528D01*
X868140Y1053197D01*
Y1055003D01*
X867449Y1056672D01*
X866172Y1057949D01*
X864503Y1058640D01*
D02*
G37*
G36*
X250198Y1055637D02*
X247994D01*
X245958Y1054794D01*
X244399Y1053235D01*
X243556Y1051199D01*
Y1048995D01*
X244399Y1046959D01*
X245958Y1045401D01*
X247994Y1044557D01*
X250198D01*
X252234Y1045401D01*
X253792Y1046959D01*
X254636Y1048995D01*
Y1051199D01*
X253792Y1053235D01*
X252234Y1054794D01*
X250198Y1055637D01*
D02*
G37*
G36*
X193901Y1055560D02*
X192179D01*
X190516Y1055114D01*
X189024Y1054253D01*
X187807Y1053036D01*
X186946Y1051544D01*
X186500Y1049881D01*
Y1048159D01*
X186946Y1046496D01*
X187807Y1045004D01*
X189024Y1043787D01*
X190516Y1042926D01*
X192179Y1042480D01*
X193901D01*
X195564Y1042926D01*
X197056Y1043787D01*
X198273Y1045004D01*
X199134Y1046496D01*
X199580Y1048159D01*
Y1049881D01*
X199134Y1051544D01*
X198273Y1053036D01*
X197056Y1054253D01*
X195564Y1055114D01*
X193901Y1055560D01*
D02*
G37*
G36*
X395117Y1042118D02*
X393311D01*
X391642Y1041427D01*
X390365Y1040150D01*
X389674Y1038481D01*
Y1036675D01*
X390365Y1035006D01*
X391642Y1033729D01*
X393311Y1033038D01*
X395117D01*
X396785Y1033729D01*
X398063Y1035006D01*
X398754Y1036675D01*
Y1038481D01*
X398063Y1040150D01*
X396785Y1041427D01*
X395117Y1042118D01*
D02*
G37*
G36*
X306351Y1002118D02*
X304147D01*
X302111Y1001274D01*
X300553Y999716D01*
X300375Y999681D01*
X299364Y1000692D01*
X297328Y1001536D01*
X295124D01*
X293088Y1000692D01*
X291529Y999134D01*
X290686Y997097D01*
Y994894D01*
X291529Y992857D01*
X293088Y991299D01*
X295124Y990456D01*
X297328D01*
X299364Y991299D01*
X300922Y992857D01*
X301100Y992893D01*
X302111Y991881D01*
X304147Y991038D01*
X306351D01*
X308388Y991881D01*
X309766Y993260D01*
X311141Y993259D01*
X311164Y993202D01*
X312723Y991644D01*
X314759Y990800D01*
X316963D01*
X318999Y991644D01*
X320558Y993202D01*
X321401Y995238D01*
Y997442D01*
X320558Y999479D01*
X318999Y1001037D01*
X316963Y1001880D01*
X314759D01*
X312723Y1001037D01*
X311344Y999659D01*
X309969Y999660D01*
X309946Y999716D01*
X308388Y1001274D01*
X306351Y1002118D01*
D02*
G37*
G36*
X679083Y1005300D02*
X677277D01*
X675608Y1004609D01*
X674331Y1003332D01*
X673640Y1001663D01*
Y999857D01*
X674331Y998188D01*
X675608Y996911D01*
X677277Y996220D01*
X679083D01*
X680752Y996911D01*
X682029Y998188D01*
X682720Y999857D01*
Y1001663D01*
X682029Y1003332D01*
X680752Y1004609D01*
X679083Y1005300D01*
D02*
G37*
G36*
X316963Y987652D02*
X314759D01*
X312723Y986809D01*
X311409Y985495D01*
X309921Y985187D01*
X309261Y985847D01*
X307225Y986690D01*
X305021D01*
X302985Y985847D01*
X302127Y984989D01*
X301010Y984609D01*
X300490Y985012D01*
X299364Y986138D01*
X297328Y986981D01*
X295124D01*
X293088Y986138D01*
X291529Y984579D01*
X290686Y982543D01*
Y980339D01*
X291529Y978303D01*
X293088Y976745D01*
X295124Y975901D01*
X297328D01*
X299364Y976745D01*
X300221Y977602D01*
X301338Y977982D01*
X301858Y977580D01*
X302985Y976454D01*
X305021Y975610D01*
X307225D01*
X309261Y976454D01*
X310575Y977767D01*
X312063Y978075D01*
X312723Y977415D01*
X314759Y976572D01*
X316963D01*
X318999Y977415D01*
X320558Y978974D01*
X321401Y981010D01*
Y983214D01*
X320558Y985250D01*
X318999Y986809D01*
X316963Y987652D01*
D02*
G37*
G36*
X267160Y1001720D02*
X247080D01*
Y981640D01*
X267160D01*
Y1001720D01*
D02*
G37*
G36*
X213442D02*
X210798D01*
X208245Y1001036D01*
X205955Y999714D01*
X204086Y997845D01*
X202764Y995555D01*
X202080Y993002D01*
Y990358D01*
X202764Y987805D01*
X204086Y985515D01*
X205955Y983646D01*
X208245Y982324D01*
X210798Y981640D01*
X213442D01*
X215995Y982324D01*
X218285Y983646D01*
X220154Y985515D01*
X221476Y987805D01*
X222160Y990358D01*
Y993002D01*
X221476Y995555D01*
X220154Y997845D01*
X218285Y999714D01*
X215995Y1001036D01*
X213442Y1001720D01*
D02*
G37*
G36*
X400277Y979935D02*
X398470D01*
X396802Y979244D01*
X395525Y977967D01*
X394833Y976298D01*
Y974492D01*
X395525Y972823D01*
X396802Y971546D01*
X398470Y970855D01*
X400277D01*
X401945Y971546D01*
X403222Y972823D01*
X403913Y974492D01*
Y976298D01*
X403222Y977967D01*
X401945Y979244D01*
X400277Y979935D01*
D02*
G37*
G36*
X361290Y971178D02*
X359483D01*
X357815Y970487D01*
X356538Y969210D01*
X355846Y967541D01*
Y965735D01*
X356538Y964067D01*
X357815Y962789D01*
X359483Y962098D01*
X361290D01*
X362958Y962789D01*
X364235Y964067D01*
X364926Y965735D01*
Y967541D01*
X364235Y969210D01*
X362958Y970487D01*
X361290Y971178D01*
D02*
G37*
G36*
X379363Y959580D02*
X377557D01*
X375888Y958889D01*
X374611Y957612D01*
X373920Y955943D01*
Y954137D01*
X374611Y952468D01*
X375888Y951191D01*
X377557Y950500D01*
X379363D01*
X381032Y951191D01*
X382309Y952468D01*
X383000Y954137D01*
Y955943D01*
X382309Y957612D01*
X381032Y958889D01*
X379363Y959580D01*
D02*
G37*
G36*
X258442Y936720D02*
X255798D01*
X253245Y936036D01*
X250955Y934714D01*
X249086Y932845D01*
X247764Y930555D01*
X247080Y928002D01*
Y925358D01*
X247764Y922805D01*
X249086Y920515D01*
X250955Y918646D01*
X253245Y917324D01*
X255798Y916640D01*
X258442D01*
X260995Y917324D01*
X263285Y918646D01*
X265154Y920515D01*
X266476Y922805D01*
X267160Y925358D01*
Y928002D01*
X266476Y930555D01*
X265154Y932845D01*
X263285Y934714D01*
X260995Y936036D01*
X258442Y936720D01*
D02*
G37*
G36*
X702408Y917170D02*
X699672D01*
X697030Y916462D01*
X694660Y915094D01*
X692726Y913160D01*
X691358Y910790D01*
X690650Y908148D01*
Y905412D01*
X691358Y902770D01*
X692726Y900400D01*
X694660Y898466D01*
X697030Y897098D01*
X699672Y896390D01*
X702408D01*
X705050Y897098D01*
X707420Y898466D01*
X709354Y900400D01*
X710722Y902770D01*
X711430Y905412D01*
Y908148D01*
X710722Y910790D01*
X709354Y913160D01*
X707420Y915094D01*
X705050Y916462D01*
X702408Y917170D01*
D02*
G37*
G36*
X575523Y896943D02*
X573717D01*
X572048Y896252D01*
X570771Y894975D01*
X570079Y893307D01*
Y891500D01*
X570771Y889832D01*
X572048Y888555D01*
X573717Y887863D01*
X575523D01*
X577191Y888555D01*
X578468Y889832D01*
X579160Y891500D01*
Y893307D01*
X578468Y894975D01*
X577191Y896252D01*
X575523Y896943D01*
D02*
G37*
G36*
X627142Y895911D02*
X625336D01*
X623667Y895220D01*
X622390Y893943D01*
X621699Y892275D01*
Y890469D01*
X622390Y888800D01*
X623667Y887523D01*
X625336Y886832D01*
X627142D01*
X628811Y887523D01*
X630088Y888800D01*
X630779Y890469D01*
Y892275D01*
X630088Y893943D01*
X628811Y895220D01*
X627142Y895911D01*
D02*
G37*
G36*
X527338Y893368D02*
X525532D01*
X523864Y892677D01*
X522587Y891400D01*
X521895Y889731D01*
Y887925D01*
X522587Y886256D01*
X523864Y884979D01*
X525532Y884288D01*
X527338D01*
X529007Y884979D01*
X530284Y886256D01*
X530975Y887925D01*
Y889731D01*
X530284Y891400D01*
X529007Y892677D01*
X527338Y893368D01*
D02*
G37*
G36*
X458102Y893365D02*
X456296D01*
X454627Y892673D01*
X453350Y891396D01*
X452659Y889728D01*
Y887922D01*
X453350Y886253D01*
X454627Y884976D01*
X456296Y884285D01*
X458102D01*
X459770Y884976D01*
X461048Y886253D01*
X461739Y887922D01*
Y889728D01*
X461048Y891396D01*
X459770Y892673D01*
X458102Y893365D01*
D02*
G37*
G36*
X674336Y885855D02*
X672614D01*
X670950Y885410D01*
X669459Y884549D01*
X668241Y883331D01*
X667380Y881840D01*
X666935Y880176D01*
Y878454D01*
X667380Y876791D01*
X668241Y875300D01*
X669459Y874082D01*
X670950Y873221D01*
X672614Y872775D01*
X674336D01*
X675999Y873221D01*
X677490Y874082D01*
X678708Y875300D01*
X679569Y876791D01*
X680015Y878454D01*
Y880176D01*
X679569Y881840D01*
X678708Y883331D01*
X677490Y884549D01*
X675999Y885410D01*
X674336Y885855D01*
D02*
G37*
G36*
X702408Y891770D02*
X699672D01*
X697030Y891062D01*
X694660Y889694D01*
X692726Y887760D01*
X691358Y885390D01*
X690650Y882748D01*
Y880012D01*
X691358Y877370D01*
X692726Y875000D01*
X694660Y873066D01*
X697030Y871698D01*
X699672Y870990D01*
X702408D01*
X705050Y871698D01*
X707420Y873066D01*
X709354Y875000D01*
X710722Y877370D01*
X711430Y880012D01*
Y882748D01*
X710722Y885390D01*
X709354Y887760D01*
X707420Y889694D01*
X705050Y891062D01*
X702408Y891770D01*
D02*
G37*
G36*
X206542Y885980D02*
X203898D01*
X201345Y885296D01*
X199055Y883974D01*
X197186Y882105D01*
X195864Y879815D01*
X195180Y877262D01*
Y874618D01*
X195864Y872065D01*
X197186Y869775D01*
X199055Y867906D01*
X201345Y866584D01*
X203898Y865900D01*
X206542D01*
X209095Y866584D01*
X211385Y867906D01*
X213254Y869775D01*
X214576Y872065D01*
X215260Y874618D01*
Y877262D01*
X214576Y879815D01*
X213254Y882105D01*
X211385Y883974D01*
X209095Y885296D01*
X206542Y885980D01*
D02*
G37*
G36*
X150260D02*
X130180D01*
Y865900D01*
X150260D01*
Y885980D01*
D02*
G37*
G36*
X711430Y866370D02*
X690650D01*
Y845590D01*
X711430D01*
Y866370D01*
D02*
G37*
G36*
X514448Y843510D02*
X511712D01*
X509070Y842802D01*
X506700Y841434D01*
X504766Y839500D01*
X503398Y837130D01*
X502690Y834488D01*
Y831752D01*
X503398Y829110D01*
X504766Y826740D01*
X506700Y824806D01*
X509070Y823438D01*
X511712Y822730D01*
X514448D01*
X517090Y823438D01*
X519460Y824806D01*
X521394Y826740D01*
X522762Y829110D01*
X523470Y831752D01*
Y834488D01*
X522762Y837130D01*
X521394Y839500D01*
X519460Y841434D01*
X517090Y842802D01*
X514448Y843510D01*
D02*
G37*
G36*
X489048D02*
X486312D01*
X483670Y842802D01*
X481300Y841434D01*
X479366Y839500D01*
X477998Y837130D01*
X477290Y834488D01*
Y831752D01*
X477998Y829110D01*
X479366Y826740D01*
X481300Y824806D01*
X483670Y823438D01*
X486312Y822730D01*
X489048D01*
X491690Y823438D01*
X494060Y824806D01*
X495994Y826740D01*
X497362Y829110D01*
X498070Y831752D01*
Y834488D01*
X497362Y837130D01*
X495994Y839500D01*
X494060Y841434D01*
X491690Y842802D01*
X489048Y843510D01*
D02*
G37*
G36*
X463648D02*
X460912D01*
X458270Y842802D01*
X455900Y841434D01*
X453966Y839500D01*
X452598Y837130D01*
X451890Y834488D01*
Y831752D01*
X452598Y829110D01*
X453966Y826740D01*
X455900Y824806D01*
X458270Y823438D01*
X460912Y822730D01*
X463648D01*
X466290Y823438D01*
X468660Y824806D01*
X470594Y826740D01*
X471962Y829110D01*
X472670Y831752D01*
Y834488D01*
X471962Y837130D01*
X470594Y839500D01*
X468660Y841434D01*
X466290Y842802D01*
X463648Y843510D01*
D02*
G37*
G36*
X447270D02*
X426490D01*
Y822730D01*
X447270D01*
Y843510D01*
D02*
G37*
G36*
X141542Y840980D02*
X138898D01*
X136345Y840296D01*
X134055Y838974D01*
X132186Y837105D01*
X130864Y834815D01*
X130180Y832262D01*
Y829618D01*
X130864Y827065D01*
X132186Y824775D01*
X134055Y822906D01*
X136345Y821584D01*
X138898Y820900D01*
X141542D01*
X144095Y821584D01*
X146385Y822906D01*
X148254Y824775D01*
X149576Y827065D01*
X150260Y829618D01*
Y832262D01*
X149576Y834815D01*
X148254Y837105D01*
X146385Y838974D01*
X144095Y840296D01*
X141542Y840980D01*
D02*
G37*
G36*
X682456Y796888D02*
X680734D01*
X679070Y796443D01*
X677579Y795582D01*
X676361Y794364D01*
X675500Y792873D01*
X675055Y791209D01*
Y789487D01*
X675500Y787824D01*
X676361Y786333D01*
X677579Y785115D01*
X679070Y784254D01*
X680734Y783808D01*
X682456D01*
X684119Y784254D01*
X685610Y785115D01*
X686828Y786333D01*
X687689Y787824D01*
X688135Y789487D01*
Y791209D01*
X687689Y792873D01*
X686828Y794364D01*
X685610Y795582D01*
X684119Y796443D01*
X682456Y796888D01*
D02*
G37*
G36*
X633979Y787940D02*
X632256D01*
X630593Y787494D01*
X629102Y786633D01*
X627884Y785416D01*
X627023Y783924D01*
X626577Y782261D01*
Y780539D01*
X627023Y778876D01*
X627884Y777384D01*
X629102Y776167D01*
X630593Y775306D01*
X632256Y774860D01*
X633979D01*
X635642Y775306D01*
X637133Y776167D01*
X638351Y777384D01*
X639212Y778876D01*
X639657Y780539D01*
Y782261D01*
X639212Y783924D01*
X638351Y785416D01*
X637133Y786633D01*
X635642Y787494D01*
X633979Y787940D01*
D02*
G37*
G36*
X206542Y792000D02*
X203898D01*
X201345Y791316D01*
X199055Y789994D01*
X197186Y788125D01*
X195864Y785835D01*
X195180Y783282D01*
Y780638D01*
X195864Y778085D01*
X197186Y775795D01*
X199055Y773926D01*
X201345Y772604D01*
X203898Y771920D01*
X206542D01*
X209095Y772604D01*
X211385Y773926D01*
X213254Y775795D01*
X214576Y778085D01*
X215260Y780638D01*
Y783282D01*
X214576Y785835D01*
X213254Y788125D01*
X211385Y789994D01*
X209095Y791316D01*
X206542Y792000D01*
D02*
G37*
G36*
X150260D02*
X130180D01*
Y771920D01*
X150260D01*
Y792000D01*
D02*
G37*
G36*
X564741Y783780D02*
X563019D01*
X561356Y783334D01*
X559864Y782473D01*
X558647Y781256D01*
X557786Y779764D01*
X557340Y778101D01*
Y776379D01*
X557786Y774716D01*
X558647Y773224D01*
X559864Y772007D01*
X561356Y771146D01*
X563019Y770700D01*
X564741D01*
X566404Y771146D01*
X567896Y772007D01*
X569113Y773224D01*
X569974Y774716D01*
X570420Y776379D01*
Y778101D01*
X569974Y779764D01*
X569113Y781256D01*
X567896Y782473D01*
X566404Y783334D01*
X564741Y783780D01*
D02*
G37*
G36*
X683986Y775471D02*
X682263D01*
X680600Y775025D01*
X679109Y774164D01*
X677891Y772946D01*
X677030Y771455D01*
X676584Y769792D01*
Y768070D01*
X677030Y766406D01*
X677891Y764915D01*
X679109Y763697D01*
X680600Y762836D01*
X682263Y762391D01*
X683986D01*
X685649Y762836D01*
X687140Y763697D01*
X688358Y764915D01*
X689219Y766406D01*
X689665Y768070D01*
Y769792D01*
X689219Y771455D01*
X688358Y772946D01*
X687140Y774164D01*
X685649Y775025D01*
X683986Y775471D01*
D02*
G37*
G36*
X964015Y774830D02*
X961305D01*
X958688Y774129D01*
X956342Y772774D01*
X954426Y770858D01*
X953071Y768512D01*
X952370Y765895D01*
Y763185D01*
X953071Y760568D01*
X954426Y758222D01*
X956342Y756306D01*
X958688Y754951D01*
X961305Y754250D01*
X964015D01*
X966632Y754951D01*
X968978Y756306D01*
X970894Y758222D01*
X972249Y760568D01*
X972950Y763185D01*
Y765895D01*
X972249Y768512D01*
X970894Y770858D01*
X968978Y772774D01*
X966632Y774129D01*
X964015Y774830D01*
D02*
G37*
G36*
X808633Y749030D02*
X806826D01*
X805158Y748338D01*
X803881Y747061D01*
X803190Y745393D01*
Y743587D01*
X803881Y741918D01*
X805158Y740641D01*
X806826Y739950D01*
X808633D01*
X810301Y740641D01*
X811578Y741918D01*
X812270Y743587D01*
Y745393D01*
X811578Y747061D01*
X810301Y748338D01*
X808633Y749030D01*
D02*
G37*
G36*
X141542Y747000D02*
X138898D01*
X136345Y746316D01*
X134055Y744994D01*
X132186Y743125D01*
X130864Y740835D01*
X130180Y738282D01*
Y735638D01*
X130864Y733085D01*
X132186Y730795D01*
X134055Y728926D01*
X136345Y727604D01*
X138898Y726920D01*
X141542D01*
X144095Y727604D01*
X146385Y728926D01*
X148254Y730795D01*
X149576Y733085D01*
X150260Y735638D01*
Y738282D01*
X149576Y740835D01*
X148254Y743125D01*
X146385Y744994D01*
X144095Y746316D01*
X141542Y747000D01*
D02*
G37*
G36*
X827046Y726423D02*
X825240D01*
X823571Y725732D01*
X822294Y724455D01*
X821603Y722787D01*
Y720981D01*
X822294Y719312D01*
X823571Y718035D01*
X825240Y717344D01*
X827046D01*
X828714Y718035D01*
X829992Y719312D01*
X830683Y720981D01*
Y722787D01*
X829992Y724455D01*
X828714Y725732D01*
X827046Y726423D01*
D02*
G37*
G36*
X571630Y731650D02*
X551050D01*
Y711070D01*
X571630D01*
Y731650D01*
D02*
G37*
G36*
X206542Y698020D02*
X203898D01*
X201345Y697336D01*
X199055Y696014D01*
X197186Y694145D01*
X195864Y691855D01*
X195180Y689302D01*
Y686658D01*
X195864Y684105D01*
X197186Y681815D01*
X199055Y679946D01*
X201345Y678624D01*
X203898Y677940D01*
X206542D01*
X209095Y678624D01*
X211385Y679946D01*
X213254Y681815D01*
X214576Y684105D01*
X215260Y686658D01*
Y689302D01*
X214576Y691855D01*
X213254Y694145D01*
X211385Y696014D01*
X209095Y697336D01*
X206542Y698020D01*
D02*
G37*
G36*
X150260D02*
X130180D01*
Y677940D01*
X150260D01*
Y698020D01*
D02*
G37*
G36*
X817998Y685398D02*
X816012D01*
X814095Y684884D01*
X812375Y683892D01*
X810972Y682488D01*
X809979Y680769D01*
X809465Y678851D01*
Y676866D01*
X809979Y674948D01*
X810972Y673229D01*
X812375Y671825D01*
X814095Y670832D01*
X816012Y670318D01*
X817998D01*
X819915Y670832D01*
X821635Y671825D01*
X823039Y673229D01*
X824031Y674948D01*
X824545Y676866D01*
Y678851D01*
X824031Y680769D01*
X823039Y682488D01*
X821635Y683892D01*
X819915Y684884D01*
X817998Y685398D01*
D02*
G37*
G36*
X349301Y678737D02*
X347579D01*
X345916Y678292D01*
X344425Y677431D01*
X343207Y676213D01*
X342346Y674722D01*
X341900Y673058D01*
Y671337D01*
X342346Y669673D01*
X343207Y668182D01*
X344425Y666964D01*
X345916Y666103D01*
X347579Y665658D01*
X349301D01*
X350965Y666103D01*
X352456Y666964D01*
X353674Y668182D01*
X354535Y669673D01*
X354980Y671337D01*
Y673058D01*
X354535Y674722D01*
X353674Y676213D01*
X352456Y677431D01*
X350965Y678292D01*
X349301Y678737D01*
D02*
G37*
G36*
X1147411Y694400D02*
X1143709D01*
X1140079Y693678D01*
X1136660Y692262D01*
X1133582Y690205D01*
X1130965Y687588D01*
X1128908Y684510D01*
X1127492Y681091D01*
X1126770Y677461D01*
Y673759D01*
X1127492Y670129D01*
X1128908Y666710D01*
X1130965Y663632D01*
X1133582Y661015D01*
X1136660Y658959D01*
X1140079Y657542D01*
X1143709Y656820D01*
X1147411D01*
X1151041Y657542D01*
X1154460Y658959D01*
X1157538Y661015D01*
X1160155Y663632D01*
X1162212Y666710D01*
X1163628Y670129D01*
X1164350Y673759D01*
Y677461D01*
X1163628Y681091D01*
X1162212Y684510D01*
X1160155Y687588D01*
X1157538Y690205D01*
X1154460Y692262D01*
X1151041Y693678D01*
X1147411Y694400D01*
D02*
G37*
G36*
X1057916Y672450D02*
X1055404D01*
X1052978Y671800D01*
X1050802Y670544D01*
X1049026Y668768D01*
X1047770Y666592D01*
X1047120Y664166D01*
Y661654D01*
X1047770Y659228D01*
X1049026Y657052D01*
X1050802Y655276D01*
X1052978Y654020D01*
X1055404Y653370D01*
X1057916D01*
X1060342Y654020D01*
X1062518Y655276D01*
X1064294Y657052D01*
X1065550Y659228D01*
X1066200Y661654D01*
Y664166D01*
X1065550Y666592D01*
X1064294Y668768D01*
X1062518Y670544D01*
X1060342Y671800D01*
X1057916Y672450D01*
D02*
G37*
G36*
X776553Y660004D02*
X774831D01*
X773168Y659558D01*
X771676Y658697D01*
X770459Y657479D01*
X769598Y655988D01*
X769152Y654325D01*
Y652603D01*
X769598Y650939D01*
X770459Y649448D01*
X771676Y648230D01*
X773168Y647369D01*
X774831Y646924D01*
X776553D01*
X778216Y647369D01*
X779708Y648230D01*
X780925Y649448D01*
X781786Y650939D01*
X782232Y652603D01*
Y654325D01*
X781786Y655988D01*
X780925Y657479D01*
X779708Y658697D01*
X778216Y659558D01*
X776553Y660004D01*
D02*
G37*
G36*
X141542Y653020D02*
X138898D01*
X136345Y652336D01*
X134055Y651014D01*
X132186Y649145D01*
X130864Y646855D01*
X130180Y644302D01*
Y641658D01*
X130864Y639105D01*
X132186Y636815D01*
X134055Y634946D01*
X136345Y633624D01*
X138898Y632940D01*
X141542D01*
X144095Y633624D01*
X146385Y634946D01*
X148254Y636815D01*
X149576Y639105D01*
X150260Y641658D01*
Y644302D01*
X149576Y646855D01*
X148254Y649145D01*
X146385Y651014D01*
X144095Y652336D01*
X141542Y653020D01*
D02*
G37*
G36*
X776229Y644670D02*
X774507D01*
X772844Y644225D01*
X771352Y643364D01*
X770135Y642146D01*
X769274Y640655D01*
X768828Y638991D01*
Y637269D01*
X769274Y635606D01*
X770135Y634115D01*
X771352Y632897D01*
X772844Y632036D01*
X774507Y631590D01*
X776229D01*
X777893Y632036D01*
X779384Y632897D01*
X780601Y634115D01*
X781462Y635606D01*
X781908Y637269D01*
Y638991D01*
X781462Y640655D01*
X780601Y642146D01*
X779384Y643364D01*
X777893Y644225D01*
X776229Y644670D01*
D02*
G37*
G36*
X369302Y629880D02*
X367298D01*
X365445Y629113D01*
X364027Y627695D01*
X363907Y627405D01*
X362533D01*
X362413Y627695D01*
X360995Y629113D01*
X359142Y629880D01*
X357137D01*
X355285Y629113D01*
X353867Y627695D01*
X353100Y625843D01*
Y623838D01*
X353867Y621985D01*
X355285Y620567D01*
X357137Y619800D01*
X359142D01*
X360995Y620567D01*
X362413Y621985D01*
X362533Y622275D01*
X363907D01*
X364027Y621985D01*
X365445Y620567D01*
X367298Y619800D01*
X369302D01*
X371155Y620567D01*
X372573Y621985D01*
X373340Y623838D01*
Y625843D01*
X372573Y627695D01*
X371155Y629113D01*
X369302Y629880D01*
D02*
G37*
G36*
X1083316Y634350D02*
X1080804D01*
X1078378Y633700D01*
X1076202Y632444D01*
X1074426Y630668D01*
X1073170Y628492D01*
X1072520Y626066D01*
Y623554D01*
X1073170Y621128D01*
X1074426Y618952D01*
X1076202Y617176D01*
X1078378Y615920D01*
X1080804Y615270D01*
X1083316D01*
X1085742Y615920D01*
X1087918Y617176D01*
X1089694Y618952D01*
X1090950Y621128D01*
X1091600Y623554D01*
Y626066D01*
X1090950Y628492D01*
X1089694Y630668D01*
X1087918Y632444D01*
X1085742Y633700D01*
X1083316Y634350D01*
D02*
G37*
G36*
X623277Y607760D02*
X621555D01*
X619892Y607314D01*
X618400Y606454D01*
X617183Y605236D01*
X616322Y603745D01*
X615876Y602081D01*
Y600359D01*
X616322Y598696D01*
X617183Y597205D01*
X618400Y595987D01*
X619892Y595126D01*
X621555Y594680D01*
X623277D01*
X624940Y595126D01*
X626432Y595987D01*
X627649Y597205D01*
X628510Y598696D01*
X628956Y600359D01*
Y602081D01*
X628510Y603745D01*
X627649Y605236D01*
X626432Y606454D01*
X624940Y607314D01*
X623277Y607760D01*
D02*
G37*
G36*
X722221Y590740D02*
X720499D01*
X718836Y590294D01*
X717344Y589433D01*
X716127Y588216D01*
X715266Y586724D01*
X714820Y585061D01*
Y583339D01*
X715266Y581676D01*
X716127Y580184D01*
X717344Y578967D01*
X718836Y578106D01*
X720499Y577660D01*
X722221D01*
X723884Y578106D01*
X725376Y578967D01*
X726593Y580184D01*
X727454Y581676D01*
X727900Y583339D01*
Y585061D01*
X727454Y586724D01*
X726593Y588216D01*
X725376Y589433D01*
X723884Y590294D01*
X722221Y590740D01*
D02*
G37*
G36*
X1057916Y596250D02*
X1055404D01*
X1052978Y595600D01*
X1050802Y594344D01*
X1049026Y592568D01*
X1047770Y590392D01*
X1047120Y587966D01*
Y585454D01*
X1047770Y583028D01*
X1049026Y580852D01*
X1050802Y579076D01*
X1052978Y577820D01*
X1055404Y577170D01*
X1057916D01*
X1060342Y577820D01*
X1062518Y579076D01*
X1064294Y580852D01*
X1065550Y583028D01*
X1066200Y585454D01*
Y587966D01*
X1065550Y590392D01*
X1064294Y592568D01*
X1062518Y594344D01*
X1060342Y595600D01*
X1057916Y596250D01*
D02*
G37*
G36*
X465747Y583620D02*
X463893D01*
X462103Y583140D01*
X460497Y582213D01*
X459187Y580903D01*
X458260Y579297D01*
X457780Y577507D01*
Y575653D01*
X458260Y573863D01*
X459187Y572257D01*
X460497Y570947D01*
X462103Y570020D01*
X463893Y569540D01*
X465747D01*
X467537Y570020D01*
X469143Y570947D01*
X470453Y572257D01*
X471380Y573863D01*
X471860Y575653D01*
Y577507D01*
X471380Y579297D01*
X470453Y580903D01*
X469143Y582213D01*
X467537Y583140D01*
X465747Y583620D01*
D02*
G37*
G36*
X709521Y578040D02*
X707799D01*
X706136Y577594D01*
X704644Y576733D01*
X703427Y575516D01*
X702566Y574024D01*
X702120Y572361D01*
Y570639D01*
X702566Y568976D01*
X703427Y567484D01*
X704644Y566267D01*
X706136Y565406D01*
X707799Y564960D01*
X709521D01*
X711184Y565406D01*
X712676Y566267D01*
X713893Y567484D01*
X714754Y568976D01*
X715200Y570639D01*
Y572361D01*
X714754Y574024D01*
X713893Y575516D01*
X712676Y576733D01*
X711184Y577594D01*
X709521Y578040D01*
D02*
G37*
G36*
X1147411Y580100D02*
X1143709D01*
X1140079Y579378D01*
X1136660Y577962D01*
X1133582Y575905D01*
X1130965Y573288D01*
X1128908Y570210D01*
X1127492Y566791D01*
X1126770Y563161D01*
Y559459D01*
X1127492Y555829D01*
X1128908Y552410D01*
X1130965Y549332D01*
X1133582Y546715D01*
X1136660Y544659D01*
X1140079Y543242D01*
X1143709Y542520D01*
X1147411D01*
X1151041Y543242D01*
X1154460Y544659D01*
X1157538Y546715D01*
X1160155Y549332D01*
X1162212Y552410D01*
X1163628Y555829D01*
X1164350Y559459D01*
Y563161D01*
X1163628Y566791D01*
X1162212Y570210D01*
X1160155Y573288D01*
X1157538Y575905D01*
X1154460Y577962D01*
X1151041Y579378D01*
X1147411Y580100D01*
D02*
G37*
G36*
X353190Y558930D02*
X332610D01*
Y538350D01*
X353190D01*
Y558930D01*
D02*
G37*
G36*
X873890Y556390D02*
X853310D01*
Y535810D01*
X873890D01*
Y556390D01*
D02*
G37*
G36*
X591950Y548770D02*
X571370D01*
Y528190D01*
X591950D01*
Y548770D01*
D02*
G37*
G36*
X344255Y533530D02*
X341545D01*
X338928Y532829D01*
X336582Y531474D01*
X334666Y529558D01*
X333311Y527212D01*
X332610Y524595D01*
Y521885D01*
X333311Y519268D01*
X334666Y516922D01*
X336582Y515006D01*
X338928Y513651D01*
X341545Y512950D01*
X344255D01*
X346872Y513651D01*
X349218Y515006D01*
X351134Y516922D01*
X352489Y519268D01*
X353190Y521885D01*
Y524595D01*
X352489Y527212D01*
X351134Y529558D01*
X349218Y531474D01*
X346872Y532829D01*
X344255Y533530D01*
D02*
G37*
G36*
X864955Y530990D02*
X862245D01*
X859628Y530289D01*
X857282Y528934D01*
X855366Y527018D01*
X854011Y524672D01*
X853310Y522055D01*
Y519345D01*
X854011Y516728D01*
X855366Y514382D01*
X857282Y512466D01*
X859628Y511111D01*
X862245Y510410D01*
X864955D01*
X867572Y511111D01*
X869918Y512466D01*
X871834Y514382D01*
X873189Y516728D01*
X873890Y519345D01*
Y522055D01*
X873189Y524672D01*
X871834Y527018D01*
X869918Y528934D01*
X867572Y530289D01*
X864955Y530990D01*
D02*
G37*
G36*
X583015Y523370D02*
X580305D01*
X577688Y522669D01*
X575342Y521314D01*
X573426Y519398D01*
X572071Y517052D01*
X571370Y514435D01*
Y511725D01*
X572071Y509108D01*
X573426Y506762D01*
X575342Y504846D01*
X577688Y503491D01*
X580305Y502790D01*
X583015D01*
X585632Y503491D01*
X587978Y504846D01*
X589894Y506762D01*
X591249Y509108D01*
X591950Y511725D01*
Y514435D01*
X591249Y517052D01*
X589894Y519398D01*
X587978Y521314D01*
X585632Y522669D01*
X583015Y523370D01*
D02*
G37*
G36*
X254878Y510550D02*
X253156D01*
X251493Y510105D01*
X250002Y509244D01*
X248784Y508026D01*
X247923Y506535D01*
X247477Y504871D01*
Y503149D01*
X247923Y501486D01*
X248784Y499995D01*
X250002Y498777D01*
X251493Y497916D01*
X253156Y497471D01*
X254878D01*
X256542Y497916D01*
X258033Y498777D01*
X259251Y499995D01*
X260112Y501486D01*
X260557Y503149D01*
Y504871D01*
X260112Y506535D01*
X259251Y508026D01*
X258033Y509244D01*
X256542Y510105D01*
X254878Y510550D01*
D02*
G37*
G36*
X501241Y506920D02*
X499519D01*
X497856Y506474D01*
X496364Y505613D01*
X495147Y504396D01*
X494286Y502904D01*
X493840Y501241D01*
Y499519D01*
X494286Y497856D01*
X495147Y496364D01*
X496364Y495147D01*
X497856Y494286D01*
X499519Y493840D01*
X501241D01*
X502904Y494286D01*
X504396Y495147D01*
X505613Y496364D01*
X506474Y497856D01*
X506920Y499519D01*
Y501241D01*
X506474Y502904D01*
X505613Y504396D01*
X504396Y505613D01*
X502904Y506474D01*
X501241Y506920D01*
D02*
G37*
G36*
X783281Y506603D02*
X781559D01*
X779895Y506157D01*
X778404Y505296D01*
X777186Y504079D01*
X776325Y502587D01*
X775880Y500924D01*
Y499202D01*
X776325Y497539D01*
X777186Y496047D01*
X778404Y494830D01*
X779895Y493969D01*
X781559Y493523D01*
X783281D01*
X784944Y493969D01*
X786435Y494830D01*
X787653Y496047D01*
X788514Y497539D01*
X788960Y499202D01*
Y500924D01*
X788514Y502587D01*
X787653Y504079D01*
X786435Y505296D01*
X784944Y506157D01*
X783281Y506603D01*
D02*
G37*
G36*
X1193154Y520030D02*
X1189326D01*
X1185628Y519039D01*
X1182312Y517125D01*
X1179605Y514418D01*
X1177691Y511102D01*
X1176700Y507404D01*
Y503576D01*
X1177691Y499878D01*
X1179605Y496562D01*
X1182312Y493855D01*
X1185628Y491941D01*
X1189326Y490950D01*
X1193154D01*
X1196852Y491941D01*
X1200168Y493855D01*
X1202875Y496562D01*
X1204789Y499878D01*
X1205780Y503576D01*
Y507404D01*
X1204789Y511102D01*
X1202875Y514418D01*
X1200168Y517125D01*
X1196852Y519039D01*
X1193154Y520030D01*
D02*
G37*
G36*
X262911Y496715D02*
X261189D01*
X259526Y496270D01*
X258035Y495409D01*
X256817Y494191D01*
X255956Y492700D01*
X255510Y491036D01*
Y489314D01*
X255956Y487651D01*
X256817Y486160D01*
X258035Y484942D01*
X259526Y484081D01*
X261189Y483635D01*
X262911D01*
X264575Y484081D01*
X266066Y484942D01*
X267284Y486160D01*
X268145Y487651D01*
X268590Y489314D01*
Y491036D01*
X268145Y492700D01*
X267284Y494191D01*
X266066Y495409D01*
X264575Y496270D01*
X262911Y496715D01*
D02*
G37*
G36*
X791603Y490835D02*
X789881D01*
X788217Y490389D01*
X786726Y489528D01*
X785508Y488311D01*
X784647Y486819D01*
X784202Y485156D01*
Y483434D01*
X784647Y481771D01*
X785508Y480279D01*
X786726Y479062D01*
X788217Y478201D01*
X789881Y477755D01*
X791603D01*
X793266Y478201D01*
X794757Y479062D01*
X795975Y480279D01*
X796836Y481771D01*
X797282Y483434D01*
Y485156D01*
X796836Y486819D01*
X795975Y488311D01*
X794757Y489528D01*
X793266Y490389D01*
X791603Y490835D01*
D02*
G37*
G36*
X507379Y484964D02*
X505657D01*
X503993Y484518D01*
X502502Y483657D01*
X501284Y482439D01*
X500423Y480948D01*
X499978Y479285D01*
Y477563D01*
X500423Y475899D01*
X501284Y474408D01*
X502502Y473190D01*
X503993Y472329D01*
X505657Y471884D01*
X507379D01*
X509042Y472329D01*
X510533Y473190D01*
X511751Y474408D01*
X512612Y475899D01*
X513058Y477563D01*
Y479285D01*
X512612Y480948D01*
X511751Y482439D01*
X510533Y483657D01*
X509042Y484518D01*
X507379Y484964D01*
D02*
G37*
G36*
X1147391Y503930D02*
X1143689D01*
X1140059Y503208D01*
X1136640Y501791D01*
X1133562Y499735D01*
X1130945Y497118D01*
X1128888Y494040D01*
X1127472Y490621D01*
X1126750Y486991D01*
Y483289D01*
X1127472Y479659D01*
X1128888Y476240D01*
X1130945Y473162D01*
X1133562Y470545D01*
X1136640Y468489D01*
X1140059Y467072D01*
X1143689Y466350D01*
X1147391D01*
X1151021Y467072D01*
X1154440Y468489D01*
X1157518Y470545D01*
X1160135Y473162D01*
X1162191Y476240D01*
X1163608Y479659D01*
X1164330Y483289D01*
Y486991D01*
X1163608Y490621D01*
X1162191Y494040D01*
X1160135Y497118D01*
X1157518Y499735D01*
X1154440Y501791D01*
X1151021Y503208D01*
X1147391Y503930D01*
D02*
G37*
G36*
X1057896Y481980D02*
X1055384D01*
X1052958Y481330D01*
X1050782Y480074D01*
X1049006Y478298D01*
X1047750Y476122D01*
X1047100Y473696D01*
Y471184D01*
X1047750Y468758D01*
X1049006Y466582D01*
X1050782Y464806D01*
X1052958Y463550D01*
X1055384Y462900D01*
X1057896D01*
X1060322Y463550D01*
X1062498Y464806D01*
X1064274Y466582D01*
X1065530Y468758D01*
X1066180Y471184D01*
Y473696D01*
X1065530Y476122D01*
X1064274Y478298D01*
X1062498Y480074D01*
X1060322Y481330D01*
X1057896Y481980D01*
D02*
G37*
G36*
X190630Y480190D02*
X170050D01*
Y459610D01*
X190630D01*
Y480190D01*
D02*
G37*
G36*
X156295D02*
X153585D01*
X150968Y479489D01*
X148622Y478134D01*
X146706Y476218D01*
X145351Y473872D01*
X144650Y471255D01*
Y468545D01*
X145351Y465928D01*
X146706Y463582D01*
X148622Y461666D01*
X150968Y460311D01*
X153585Y459610D01*
X156295D01*
X158912Y460311D01*
X161258Y461666D01*
X163174Y463582D01*
X164529Y465928D01*
X165230Y468545D01*
Y471255D01*
X164529Y473872D01*
X163174Y476218D01*
X161258Y478134D01*
X158912Y479489D01*
X156295Y480190D01*
D02*
G37*
G36*
X713870Y477650D02*
X693290D01*
Y457070D01*
X713870D01*
Y477650D01*
D02*
G37*
G36*
X679535D02*
X676825D01*
X674208Y476949D01*
X671862Y475594D01*
X669946Y473678D01*
X668591Y471332D01*
X667890Y468715D01*
Y466005D01*
X668591Y463388D01*
X669946Y461042D01*
X671862Y459126D01*
X674208Y457771D01*
X676825Y457070D01*
X679535D01*
X682152Y457771D01*
X684498Y459126D01*
X686414Y461042D01*
X687769Y463388D01*
X688470Y466005D01*
Y468715D01*
X687769Y471332D01*
X686414Y473678D01*
X684498Y475594D01*
X682152Y476949D01*
X679535Y477650D01*
D02*
G37*
G36*
X431930Y475110D02*
X411350D01*
Y454530D01*
X431930D01*
Y475110D01*
D02*
G37*
G36*
X397595D02*
X394885D01*
X392268Y474409D01*
X389922Y473054D01*
X388006Y471138D01*
X386651Y468792D01*
X385950Y466175D01*
Y463465D01*
X386651Y460848D01*
X388006Y458502D01*
X389922Y456586D01*
X392268Y455231D01*
X394885Y454530D01*
X397595D01*
X400212Y455231D01*
X402558Y456586D01*
X404474Y458502D01*
X405829Y460848D01*
X406530Y463465D01*
Y466175D01*
X405829Y468792D01*
X404474Y471138D01*
X402558Y473054D01*
X400212Y474409D01*
X397595Y475110D01*
D02*
G37*
G36*
X1083296Y443880D02*
X1080784D01*
X1078358Y443230D01*
X1076182Y441974D01*
X1074406Y440198D01*
X1073150Y438022D01*
X1072500Y435596D01*
Y433084D01*
X1073150Y430658D01*
X1074406Y428482D01*
X1076182Y426706D01*
X1078358Y425450D01*
X1080784Y424800D01*
X1083296D01*
X1085722Y425450D01*
X1087898Y426706D01*
X1089674Y428482D01*
X1090930Y430658D01*
X1091580Y433084D01*
Y435596D01*
X1090930Y438022D01*
X1089674Y440198D01*
X1087898Y441974D01*
X1085722Y443230D01*
X1083296Y443880D01*
D02*
G37*
G36*
X185650Y426950D02*
X164870D01*
Y406170D01*
X185650D01*
Y426950D01*
D02*
G37*
G36*
X1057896Y405780D02*
X1055384D01*
X1052958Y405130D01*
X1050782Y403874D01*
X1049006Y402098D01*
X1047750Y399922D01*
X1047100Y397496D01*
Y394984D01*
X1047750Y392558D01*
X1049006Y390382D01*
X1050782Y388606D01*
X1052958Y387350D01*
X1055384Y386700D01*
X1057896D01*
X1060322Y387350D01*
X1062498Y388606D01*
X1064274Y390382D01*
X1065530Y392558D01*
X1066180Y394984D01*
Y397496D01*
X1065530Y399922D01*
X1064274Y402098D01*
X1062498Y403874D01*
X1060322Y405130D01*
X1057896Y405780D01*
D02*
G37*
G36*
X176628Y401550D02*
X173892D01*
X171250Y400842D01*
X168880Y399474D01*
X166946Y397540D01*
X165578Y395170D01*
X164870Y392528D01*
Y389792D01*
X165578Y387150D01*
X166946Y384780D01*
X168880Y382846D01*
X171250Y381478D01*
X173892Y380770D01*
X176628D01*
X179270Y381478D01*
X181640Y382846D01*
X183574Y384780D01*
X184942Y387150D01*
X185650Y389792D01*
Y392528D01*
X184942Y395170D01*
X183574Y397540D01*
X181640Y399474D01*
X179270Y400842D01*
X176628Y401550D01*
D02*
G37*
G36*
Y376150D02*
X173892D01*
X171250Y375442D01*
X168880Y374074D01*
X166946Y372140D01*
X165578Y369770D01*
X164870Y367128D01*
Y364392D01*
X165578Y361750D01*
X166946Y359380D01*
X168880Y357446D01*
X171250Y356078D01*
X173892Y355370D01*
X176628D01*
X179270Y356078D01*
X181640Y357446D01*
X183574Y359380D01*
X184942Y361750D01*
X185650Y364392D01*
Y367128D01*
X184942Y369770D01*
X183574Y372140D01*
X181640Y374074D01*
X179270Y375442D01*
X176628Y376150D01*
D02*
G37*
G36*
X1147391Y389630D02*
X1143689D01*
X1140059Y388908D01*
X1136640Y387491D01*
X1133562Y385435D01*
X1130945Y382818D01*
X1128888Y379740D01*
X1127472Y376321D01*
X1126750Y372691D01*
Y368989D01*
X1127472Y365359D01*
X1128888Y361940D01*
X1130945Y358862D01*
X1133562Y356245D01*
X1136640Y354188D01*
X1140059Y352772D01*
X1143689Y352050D01*
X1147391D01*
X1151021Y352772D01*
X1154440Y354188D01*
X1157518Y356245D01*
X1160135Y358862D01*
X1162191Y361940D01*
X1163608Y365359D01*
X1164330Y368989D01*
Y372691D01*
X1163608Y376321D01*
X1162191Y379740D01*
X1160135Y382818D01*
X1157518Y385435D01*
X1154440Y387491D01*
X1151021Y388908D01*
X1147391Y389630D01*
D02*
G37*
G36*
X1193154Y365030D02*
X1189326D01*
X1185628Y364039D01*
X1182312Y362125D01*
X1179605Y359418D01*
X1177691Y356102D01*
X1176700Y352404D01*
Y348576D01*
X1177691Y344878D01*
X1179605Y341562D01*
X1182312Y338855D01*
X1185628Y336941D01*
X1189326Y335950D01*
X1193154D01*
X1196852Y336941D01*
X1200168Y338855D01*
X1202875Y341562D01*
X1204789Y344878D01*
X1205780Y348576D01*
Y352404D01*
X1204789Y356102D01*
X1202875Y359418D01*
X1200168Y362125D01*
X1196852Y364039D01*
X1193154Y365030D01*
D02*
G37*
G36*
X949199Y349251D02*
X947345D01*
X945555Y348771D01*
X943949Y347844D01*
X942638Y346534D01*
X941712Y344928D01*
X941232Y343138D01*
Y341284D01*
X941712Y339493D01*
X942638Y337888D01*
X943949Y336577D01*
X945555Y335651D01*
X947345Y335171D01*
X949199D01*
X950989Y335651D01*
X952595Y336577D01*
X953905Y337888D01*
X954832Y339493D01*
X955312Y341284D01*
Y343138D01*
X954832Y344928D01*
X953905Y346534D01*
X952595Y347844D01*
X950989Y348771D01*
X949199Y349251D01*
D02*
G37*
G36*
X983907Y342320D02*
X982053D01*
X980263Y341840D01*
X978657Y340913D01*
X977347Y339603D01*
X976420Y337997D01*
X975940Y336207D01*
Y334353D01*
X976420Y332563D01*
X977347Y330957D01*
X978657Y329647D01*
X980263Y328720D01*
X982053Y328240D01*
X983907D01*
X985697Y328720D01*
X987303Y329647D01*
X988613Y330957D01*
X989540Y332563D01*
X990020Y334353D01*
Y336207D01*
X989540Y337997D01*
X988613Y339603D01*
X987303Y340913D01*
X985697Y341840D01*
X983907Y342320D01*
D02*
G37*
G36*
X961718Y338637D02*
X959864D01*
X958074Y338157D01*
X956468Y337230D01*
X955158Y335920D01*
X954231Y334314D01*
X953751Y332524D01*
Y330670D01*
X954231Y328880D01*
X955158Y327274D01*
X956468Y325964D01*
X958074Y325037D01*
X959864Y324557D01*
X961718D01*
X963508Y325037D01*
X965114Y325964D01*
X966424Y327274D01*
X967351Y328880D01*
X967831Y330670D01*
Y332524D01*
X967351Y334314D01*
X966424Y335920D01*
X965114Y337230D01*
X963508Y338157D01*
X961718Y338637D01*
D02*
G37*
G36*
X943844Y322577D02*
X941990D01*
X940200Y322097D01*
X938594Y321170D01*
X937283Y319860D01*
X936357Y318254D01*
X935877Y316464D01*
Y314610D01*
X936357Y312819D01*
X937283Y311214D01*
X938594Y309904D01*
X940200Y308977D01*
X941990Y308497D01*
X943844D01*
X945634Y308977D01*
X947240Y309904D01*
X948550Y311214D01*
X949477Y312819D01*
X949957Y314610D01*
Y316464D01*
X949477Y318254D01*
X948550Y319860D01*
X947240Y321170D01*
X945634Y322097D01*
X943844Y322577D01*
D02*
G37*
G36*
X961047Y314380D02*
X959193D01*
X957403Y313900D01*
X955797Y312973D01*
X954487Y311663D01*
X953560Y310057D01*
X953080Y308267D01*
Y306413D01*
X953560Y304623D01*
X954487Y303017D01*
X955797Y301707D01*
X957403Y300780D01*
X959193Y300300D01*
X961047D01*
X962837Y300780D01*
X964443Y301707D01*
X965753Y303017D01*
X966680Y304623D01*
X967160Y306413D01*
Y308267D01*
X966680Y310057D01*
X965753Y311663D01*
X964443Y312973D01*
X962837Y313900D01*
X961047Y314380D01*
D02*
G37*
G36*
X930567Y311460D02*
X928713D01*
X926923Y310980D01*
X925317Y310053D01*
X924007Y308743D01*
X923080Y307137D01*
X922600Y305347D01*
Y303493D01*
X923080Y301703D01*
X924007Y300097D01*
X925317Y298787D01*
X926923Y297860D01*
X928713Y297380D01*
X930567D01*
X932357Y297860D01*
X933963Y298787D01*
X935273Y300097D01*
X936200Y301703D01*
X936680Y303493D01*
Y305347D01*
X936200Y307137D01*
X935273Y308743D01*
X933963Y310053D01*
X932357Y310980D01*
X930567Y311460D01*
D02*
G37*
G36*
X803896Y212740D02*
X801384D01*
X798958Y212090D01*
X796782Y210834D01*
X795006Y209058D01*
X793750Y206882D01*
X793100Y204456D01*
Y201944D01*
X793750Y199518D01*
X795006Y197342D01*
X796782Y195566D01*
X798958Y194310D01*
X801384Y193660D01*
X803896D01*
X806322Y194310D01*
X808498Y195566D01*
X810274Y197342D01*
X811530Y199518D01*
X812180Y201944D01*
Y204456D01*
X811530Y206882D01*
X810274Y209058D01*
X808498Y210834D01*
X806322Y212090D01*
X803896Y212740D01*
D02*
G37*
G36*
X727696D02*
X725184D01*
X722758Y212090D01*
X720582Y210834D01*
X718806Y209058D01*
X717550Y206882D01*
X716900Y204456D01*
Y201944D01*
X717550Y199518D01*
X718806Y197342D01*
X720582Y195566D01*
X722758Y194310D01*
X725184Y193660D01*
X727696D01*
X730122Y194310D01*
X732298Y195566D01*
X734074Y197342D01*
X735330Y199518D01*
X735980Y201944D01*
Y204456D01*
X735330Y206882D01*
X734074Y209058D01*
X732298Y210834D01*
X730122Y212090D01*
X727696Y212740D01*
D02*
G37*
G36*
X417816D02*
X415304D01*
X412878Y212090D01*
X410702Y210834D01*
X408926Y209058D01*
X407670Y206882D01*
X407020Y204456D01*
Y201944D01*
X407670Y199518D01*
X408926Y197342D01*
X410702Y195566D01*
X412878Y194310D01*
X415304Y193660D01*
X417816D01*
X420242Y194310D01*
X422418Y195566D01*
X424194Y197342D01*
X425450Y199518D01*
X426100Y201944D01*
Y204456D01*
X425450Y206882D01*
X424194Y209058D01*
X422418Y210834D01*
X420242Y212090D01*
X417816Y212740D01*
D02*
G37*
G36*
X341616D02*
X339104D01*
X336678Y212090D01*
X334502Y210834D01*
X332726Y209058D01*
X331470Y206882D01*
X330820Y204456D01*
Y201944D01*
X331470Y199518D01*
X332726Y197342D01*
X334502Y195566D01*
X336678Y194310D01*
X339104Y193660D01*
X341616D01*
X344042Y194310D01*
X346218Y195566D01*
X347994Y197342D01*
X349250Y199518D01*
X349900Y201944D01*
Y204456D01*
X349250Y206882D01*
X347994Y209058D01*
X346218Y210834D01*
X344042Y212090D01*
X341616Y212740D01*
D02*
G37*
G36*
X1187466Y212720D02*
X1184954D01*
X1182528Y212070D01*
X1180352Y210814D01*
X1178576Y209038D01*
X1177320Y206862D01*
X1176670Y204436D01*
Y201924D01*
X1177320Y199498D01*
X1178576Y197322D01*
X1180352Y195546D01*
X1182528Y194290D01*
X1184954Y193640D01*
X1187466D01*
X1189892Y194290D01*
X1192068Y195546D01*
X1193844Y197322D01*
X1195100Y199498D01*
X1195750Y201924D01*
Y204436D01*
X1195100Y206862D01*
X1193844Y209038D01*
X1192068Y210814D01*
X1189892Y212070D01*
X1187466Y212720D01*
D02*
G37*
G36*
X1111266D02*
X1108754D01*
X1106328Y212070D01*
X1104152Y210814D01*
X1102376Y209038D01*
X1101120Y206862D01*
X1100470Y204436D01*
Y201924D01*
X1101120Y199498D01*
X1102376Y197322D01*
X1104152Y195546D01*
X1106328Y194290D01*
X1108754Y193640D01*
X1111266D01*
X1113692Y194290D01*
X1115868Y195546D01*
X1117644Y197322D01*
X1118900Y199498D01*
X1119550Y201924D01*
Y204436D01*
X1118900Y206862D01*
X1117644Y209038D01*
X1115868Y210814D01*
X1113692Y212070D01*
X1111266Y212720D01*
D02*
G37*
G36*
X996966D02*
X994454D01*
X992028Y212070D01*
X989852Y210814D01*
X988076Y209038D01*
X986820Y206862D01*
X986170Y204436D01*
Y201924D01*
X986820Y199498D01*
X988076Y197322D01*
X989852Y195546D01*
X992028Y194290D01*
X994454Y193640D01*
X996966D01*
X999392Y194290D01*
X1001568Y195546D01*
X1003344Y197322D01*
X1004600Y199498D01*
X1005250Y201924D01*
Y204436D01*
X1004600Y206862D01*
X1003344Y209038D01*
X1001568Y210814D01*
X999392Y212070D01*
X996966Y212720D01*
D02*
G37*
G36*
X920766D02*
X918254D01*
X915828Y212070D01*
X913652Y210814D01*
X911876Y209038D01*
X910620Y206862D01*
X909970Y204436D01*
Y201924D01*
X910620Y199498D01*
X911876Y197322D01*
X913652Y195546D01*
X915828Y194290D01*
X918254Y193640D01*
X920766D01*
X923192Y194290D01*
X925368Y195546D01*
X927144Y197322D01*
X928400Y199498D01*
X929050Y201924D01*
Y204436D01*
X928400Y206862D01*
X927144Y209038D01*
X925368Y210814D01*
X923192Y212070D01*
X920766Y212720D01*
D02*
G37*
G36*
X610886D02*
X608374D01*
X605948Y212070D01*
X603772Y210814D01*
X601996Y209038D01*
X600740Y206862D01*
X600090Y204436D01*
Y201924D01*
X600740Y199498D01*
X601996Y197322D01*
X603772Y195546D01*
X605948Y194290D01*
X608374Y193640D01*
X610886D01*
X613312Y194290D01*
X615488Y195546D01*
X617264Y197322D01*
X618520Y199498D01*
X619170Y201924D01*
Y204436D01*
X618520Y206862D01*
X617264Y209038D01*
X615488Y210814D01*
X613312Y212070D01*
X610886Y212720D01*
D02*
G37*
G36*
X534686D02*
X532174D01*
X529748Y212070D01*
X527572Y210814D01*
X525796Y209038D01*
X524540Y206862D01*
X523890Y204436D01*
Y201924D01*
X524540Y199498D01*
X525796Y197322D01*
X527572Y195546D01*
X529748Y194290D01*
X532174Y193640D01*
X534686D01*
X537112Y194290D01*
X539288Y195546D01*
X541064Y197322D01*
X542320Y199498D01*
X542970Y201924D01*
Y204436D01*
X542320Y206862D01*
X541064Y209038D01*
X539288Y210814D01*
X537112Y212070D01*
X534686Y212720D01*
D02*
G37*
G36*
X227346D02*
X224834D01*
X222408Y212070D01*
X220232Y210814D01*
X218456Y209038D01*
X217200Y206862D01*
X216550Y204436D01*
Y201924D01*
X217200Y199498D01*
X218456Y197322D01*
X220232Y195546D01*
X222408Y194290D01*
X224834Y193640D01*
X227346D01*
X229772Y194290D01*
X231948Y195546D01*
X233724Y197322D01*
X234980Y199498D01*
X235630Y201924D01*
Y204436D01*
X234980Y206862D01*
X233724Y209038D01*
X231948Y210814D01*
X229772Y212070D01*
X227346Y212720D01*
D02*
G37*
G36*
X151146D02*
X148634D01*
X146208Y212070D01*
X144032Y210814D01*
X142256Y209038D01*
X141000Y206862D01*
X140350Y204436D01*
Y201924D01*
X141000Y199498D01*
X142256Y197322D01*
X144032Y195546D01*
X146208Y194290D01*
X148634Y193640D01*
X151146D01*
X153572Y194290D01*
X155748Y195546D01*
X157524Y197322D01*
X158780Y199498D01*
X159430Y201924D01*
Y204436D01*
X158780Y206862D01*
X157524Y209038D01*
X155748Y210814D01*
X153572Y212070D01*
X151146Y212720D01*
D02*
G37*
G36*
X765796Y187340D02*
X763284D01*
X760858Y186690D01*
X758682Y185434D01*
X756906Y183658D01*
X755650Y181482D01*
X755000Y179056D01*
Y176544D01*
X755650Y174118D01*
X756906Y171942D01*
X758682Y170166D01*
X760858Y168910D01*
X763284Y168260D01*
X765796D01*
X768222Y168910D01*
X770398Y170166D01*
X772174Y171942D01*
X773430Y174118D01*
X774080Y176544D01*
Y179056D01*
X773430Y181482D01*
X772174Y183658D01*
X770398Y185434D01*
X768222Y186690D01*
X765796Y187340D01*
D02*
G37*
G36*
X379716D02*
X377204D01*
X374778Y186690D01*
X372602Y185434D01*
X370826Y183658D01*
X369570Y181482D01*
X368920Y179056D01*
Y176544D01*
X369570Y174118D01*
X370826Y171942D01*
X372602Y170166D01*
X374778Y168910D01*
X377204Y168260D01*
X379716D01*
X382142Y168910D01*
X384318Y170166D01*
X386094Y171942D01*
X387350Y174118D01*
X388000Y176544D01*
Y179056D01*
X387350Y181482D01*
X386094Y183658D01*
X384318Y185434D01*
X382142Y186690D01*
X379716Y187340D01*
D02*
G37*
G36*
X1149366Y187320D02*
X1146854D01*
X1144428Y186670D01*
X1142252Y185414D01*
X1140476Y183638D01*
X1139220Y181462D01*
X1138570Y179036D01*
Y176524D01*
X1139220Y174098D01*
X1140476Y171922D01*
X1142252Y170146D01*
X1144428Y168890D01*
X1146854Y168240D01*
X1149366D01*
X1151792Y168890D01*
X1153968Y170146D01*
X1155744Y171922D01*
X1157000Y174098D01*
X1157650Y176524D01*
Y179036D01*
X1157000Y181462D01*
X1155744Y183638D01*
X1153968Y185414D01*
X1151792Y186670D01*
X1149366Y187320D01*
D02*
G37*
G36*
X958866D02*
X956354D01*
X953928Y186670D01*
X951752Y185414D01*
X949976Y183638D01*
X948720Y181462D01*
X948070Y179036D01*
Y176524D01*
X948720Y174098D01*
X949976Y171922D01*
X951752Y170146D01*
X953928Y168890D01*
X956354Y168240D01*
X958866D01*
X961292Y168890D01*
X963468Y170146D01*
X965244Y171922D01*
X966500Y174098D01*
X967150Y176524D01*
Y179036D01*
X966500Y181462D01*
X965244Y183638D01*
X963468Y185414D01*
X961292Y186670D01*
X958866Y187320D01*
D02*
G37*
G36*
X572786D02*
X570274D01*
X567848Y186670D01*
X565672Y185414D01*
X563896Y183638D01*
X562640Y181462D01*
X561990Y179036D01*
Y176524D01*
X562640Y174098D01*
X563896Y171922D01*
X565672Y170146D01*
X567848Y168890D01*
X570274Y168240D01*
X572786D01*
X575212Y168890D01*
X577388Y170146D01*
X579164Y171922D01*
X580420Y174098D01*
X581070Y176524D01*
Y179036D01*
X580420Y181462D01*
X579164Y183638D01*
X577388Y185414D01*
X575212Y186670D01*
X572786Y187320D01*
D02*
G37*
G36*
X189246D02*
X186734D01*
X184308Y186670D01*
X182132Y185414D01*
X180356Y183638D01*
X179100Y181462D01*
X178450Y179036D01*
Y176524D01*
X179100Y174098D01*
X180356Y171922D01*
X182132Y170146D01*
X184308Y168890D01*
X186734Y168240D01*
X189246D01*
X191672Y168890D01*
X193848Y170146D01*
X195624Y171922D01*
X196880Y174098D01*
X197530Y176524D01*
Y179036D01*
X196880Y181462D01*
X195624Y183638D01*
X193848Y185414D01*
X191672Y186670D01*
X189246Y187320D01*
D02*
G37*
G36*
X817191Y133090D02*
X813489D01*
X809859Y132368D01*
X806440Y130951D01*
X803362Y128895D01*
X800745Y126278D01*
X798689Y123200D01*
X797272Y119781D01*
X796550Y116151D01*
Y112449D01*
X797272Y108819D01*
X798689Y105400D01*
X800745Y102322D01*
X803362Y99705D01*
X806440Y97648D01*
X809859Y96232D01*
X813489Y95510D01*
X817191D01*
X820821Y96232D01*
X824240Y97648D01*
X827318Y99705D01*
X829935Y102322D01*
X831992Y105400D01*
X833408Y108819D01*
X834130Y112449D01*
Y116151D01*
X833408Y119781D01*
X831992Y123200D01*
X829935Y126278D01*
X827318Y128895D01*
X824240Y130951D01*
X820821Y132368D01*
X817191Y133090D01*
D02*
G37*
G36*
X702891D02*
X699189D01*
X695559Y132368D01*
X692140Y130951D01*
X689062Y128895D01*
X686445Y126278D01*
X684389Y123200D01*
X682972Y119781D01*
X682250Y116151D01*
Y112449D01*
X682972Y108819D01*
X684389Y105400D01*
X686445Y102322D01*
X689062Y99705D01*
X692140Y97648D01*
X695559Y96232D01*
X699189Y95510D01*
X702891D01*
X706521Y96232D01*
X709940Y97648D01*
X713018Y99705D01*
X715635Y102322D01*
X717691Y105400D01*
X719108Y108819D01*
X719830Y112449D01*
Y116151D01*
X719108Y119781D01*
X717691Y123200D01*
X715635Y126278D01*
X713018Y128895D01*
X709940Y130951D01*
X706521Y132368D01*
X702891Y133090D01*
D02*
G37*
G36*
X431111D02*
X427409D01*
X423779Y132368D01*
X420360Y130951D01*
X417282Y128895D01*
X414665Y126278D01*
X412608Y123200D01*
X411192Y119781D01*
X410470Y116151D01*
Y112449D01*
X411192Y108819D01*
X412608Y105400D01*
X414665Y102322D01*
X417282Y99705D01*
X420360Y97648D01*
X423779Y96232D01*
X427409Y95510D01*
X431111D01*
X434741Y96232D01*
X438160Y97648D01*
X441238Y99705D01*
X443855Y102322D01*
X445911Y105400D01*
X447328Y108819D01*
X448050Y112449D01*
Y116151D01*
X447328Y119781D01*
X445911Y123200D01*
X443855Y126278D01*
X441238Y128895D01*
X438160Y130951D01*
X434741Y132368D01*
X431111Y133090D01*
D02*
G37*
G36*
X316811D02*
X313109D01*
X309479Y132368D01*
X306060Y130951D01*
X302982Y128895D01*
X300365Y126278D01*
X298309Y123200D01*
X296892Y119781D01*
X296170Y116151D01*
Y112449D01*
X296892Y108819D01*
X298309Y105400D01*
X300365Y102322D01*
X302982Y99705D01*
X306060Y97648D01*
X309479Y96232D01*
X313109Y95510D01*
X316811D01*
X320441Y96232D01*
X323860Y97648D01*
X326938Y99705D01*
X329555Y102322D01*
X331612Y105400D01*
X333028Y108819D01*
X333750Y112449D01*
Y116151D01*
X333028Y119781D01*
X331612Y123200D01*
X329555Y126278D01*
X326938Y128895D01*
X323860Y130951D01*
X320441Y132368D01*
X316811Y133090D01*
D02*
G37*
G36*
X1200761Y133070D02*
X1197059D01*
X1193429Y132348D01*
X1190010Y130932D01*
X1186932Y128875D01*
X1184315Y126258D01*
X1182259Y123180D01*
X1180842Y119761D01*
X1180120Y116131D01*
Y112429D01*
X1180842Y108799D01*
X1182259Y105380D01*
X1184315Y102302D01*
X1186932Y99685D01*
X1190010Y97628D01*
X1193429Y96212D01*
X1197059Y95490D01*
X1200761D01*
X1204391Y96212D01*
X1207810Y97628D01*
X1210888Y99685D01*
X1213505Y102302D01*
X1215562Y105380D01*
X1216978Y108799D01*
X1217700Y112429D01*
Y116131D01*
X1216978Y119761D01*
X1215562Y123180D01*
X1213505Y126258D01*
X1210888Y128875D01*
X1207810Y130932D01*
X1204391Y132348D01*
X1200761Y133070D01*
D02*
G37*
G36*
X1086461D02*
X1082759D01*
X1079129Y132348D01*
X1075710Y130932D01*
X1072632Y128875D01*
X1070015Y126258D01*
X1067959Y123180D01*
X1066542Y119761D01*
X1065820Y116131D01*
Y112429D01*
X1066542Y108799D01*
X1067959Y105380D01*
X1070015Y102302D01*
X1072632Y99685D01*
X1075710Y97628D01*
X1079129Y96212D01*
X1082759Y95490D01*
X1086461D01*
X1090091Y96212D01*
X1093510Y97628D01*
X1096588Y99685D01*
X1099205Y102302D01*
X1101262Y105380D01*
X1102678Y108799D01*
X1103400Y112429D01*
Y116131D01*
X1102678Y119761D01*
X1101262Y123180D01*
X1099205Y126258D01*
X1096588Y128875D01*
X1093510Y130932D01*
X1090091Y132348D01*
X1086461Y133070D01*
D02*
G37*
G36*
X1010261D02*
X1006559D01*
X1002929Y132348D01*
X999510Y130932D01*
X996432Y128875D01*
X993815Y126258D01*
X991758Y123180D01*
X990342Y119761D01*
X989620Y116131D01*
Y112429D01*
X990342Y108799D01*
X991758Y105380D01*
X993815Y102302D01*
X996432Y99685D01*
X999510Y97628D01*
X1002929Y96212D01*
X1006559Y95490D01*
X1010261D01*
X1013891Y96212D01*
X1017310Y97628D01*
X1020388Y99685D01*
X1023005Y102302D01*
X1025061Y105380D01*
X1026478Y108799D01*
X1027200Y112429D01*
Y116131D01*
X1026478Y119761D01*
X1025061Y123180D01*
X1023005Y126258D01*
X1020388Y128875D01*
X1017310Y130932D01*
X1013891Y132348D01*
X1010261Y133070D01*
D02*
G37*
G36*
X895961D02*
X892259D01*
X888629Y132348D01*
X885210Y130932D01*
X882132Y128875D01*
X879515Y126258D01*
X877458Y123180D01*
X876042Y119761D01*
X875320Y116131D01*
Y112429D01*
X876042Y108799D01*
X877458Y105380D01*
X879515Y102302D01*
X882132Y99685D01*
X885210Y97628D01*
X888629Y96212D01*
X892259Y95490D01*
X895961D01*
X899591Y96212D01*
X903010Y97628D01*
X906088Y99685D01*
X908705Y102302D01*
X910761Y105380D01*
X912178Y108799D01*
X912900Y112429D01*
Y116131D01*
X912178Y119761D01*
X910761Y123180D01*
X908705Y126258D01*
X906088Y128875D01*
X903010Y130932D01*
X899591Y132348D01*
X895961Y133070D01*
D02*
G37*
G36*
X624181D02*
X620479D01*
X616849Y132348D01*
X613430Y130932D01*
X610352Y128875D01*
X607735Y126258D01*
X605678Y123180D01*
X604262Y119761D01*
X603540Y116131D01*
Y112429D01*
X604262Y108799D01*
X605678Y105380D01*
X607735Y102302D01*
X610352Y99685D01*
X613430Y97628D01*
X616849Y96212D01*
X620479Y95490D01*
X624181D01*
X627811Y96212D01*
X631230Y97628D01*
X634308Y99685D01*
X636925Y102302D01*
X638982Y105380D01*
X640398Y108799D01*
X641120Y112429D01*
Y116131D01*
X640398Y119761D01*
X638982Y123180D01*
X636925Y126258D01*
X634308Y128875D01*
X631230Y130932D01*
X627811Y132348D01*
X624181Y133070D01*
D02*
G37*
G36*
X509881D02*
X506179D01*
X502549Y132348D01*
X499130Y130932D01*
X496052Y128875D01*
X493435Y126258D01*
X491379Y123180D01*
X489962Y119761D01*
X489240Y116131D01*
Y112429D01*
X489962Y108799D01*
X491379Y105380D01*
X493435Y102302D01*
X496052Y99685D01*
X499130Y97628D01*
X502549Y96212D01*
X506179Y95490D01*
X509881D01*
X513511Y96212D01*
X516930Y97628D01*
X520008Y99685D01*
X522625Y102302D01*
X524682Y105380D01*
X526098Y108799D01*
X526820Y112429D01*
Y116131D01*
X526098Y119761D01*
X524682Y123180D01*
X522625Y126258D01*
X520008Y128875D01*
X516930Y130932D01*
X513511Y132348D01*
X509881Y133070D01*
D02*
G37*
G36*
X240641D02*
X236939D01*
X233309Y132348D01*
X229890Y130932D01*
X226812Y128875D01*
X224195Y126258D01*
X222139Y123180D01*
X220722Y119761D01*
X220000Y116131D01*
Y112429D01*
X220722Y108799D01*
X222139Y105380D01*
X224195Y102302D01*
X226812Y99685D01*
X229890Y97628D01*
X233309Y96212D01*
X236939Y95490D01*
X240641D01*
X244271Y96212D01*
X247690Y97628D01*
X250768Y99685D01*
X253385Y102302D01*
X255441Y105380D01*
X256858Y108799D01*
X257580Y112429D01*
Y116131D01*
X256858Y119761D01*
X255441Y123180D01*
X253385Y126258D01*
X250768Y128875D01*
X247690Y130932D01*
X244271Y132348D01*
X240641Y133070D01*
D02*
G37*
G36*
X126341D02*
X122639D01*
X119009Y132348D01*
X115590Y130932D01*
X112512Y128875D01*
X109895Y126258D01*
X107838Y123180D01*
X106422Y119761D01*
X105700Y116131D01*
Y112429D01*
X106422Y108799D01*
X107838Y105380D01*
X109895Y102302D01*
X112512Y99685D01*
X115590Y97628D01*
X119009Y96212D01*
X122639Y95490D01*
X126341D01*
X129971Y96212D01*
X133390Y97628D01*
X136468Y99685D01*
X139085Y102302D01*
X141142Y105380D01*
X142558Y108799D01*
X143280Y112429D01*
Y116131D01*
X142558Y119761D01*
X141142Y123180D01*
X139085Y126258D01*
X136468Y128875D01*
X133390Y130932D01*
X129971Y132348D01*
X126341Y133070D01*
D02*
G37*
%LPD*%
D25*
X140220Y875940D02*
D03*
Y781960D02*
D03*
Y687980D02*
D03*
D100*
X701040Y932180D02*
D03*
Y906780D02*
D03*
Y881380D02*
D03*
X175260Y340360D02*
D03*
Y365760D02*
D03*
Y391160D02*
D03*
X462280Y833120D02*
D03*
X487680D02*
D03*
X513080D02*
D03*
D101*
X701040Y855980D02*
D03*
X175260Y416560D02*
D03*
D109*
X436880Y833120D02*
D03*
D111*
X377430Y1634340D02*
D03*
X186930D02*
D03*
D124*
X507594Y1244600D02*
X507981Y1244987D01*
X502920Y1244600D02*
X507594D01*
D126*
X962660Y789940D02*
D03*
X863600Y546100D02*
D03*
X581660Y538480D02*
D03*
X342900Y548640D02*
D03*
D127*
X962660Y764540D02*
D03*
X535940Y721360D02*
D03*
X154940Y469900D02*
D03*
X678180Y467360D02*
D03*
X396240Y464820D02*
D03*
X863600Y520700D02*
D03*
X581660Y513080D02*
D03*
X342900Y523240D02*
D03*
D128*
X561340Y721360D02*
D03*
X421640Y464820D02*
D03*
X703580Y467360D02*
D03*
X180340Y469900D02*
D03*
D129*
X972820Y1151340D02*
D03*
Y1071340D02*
D03*
D130*
X942820Y1089090D02*
D03*
Y1133590D02*
D03*
D131*
X1191240Y350490D02*
D03*
Y505490D02*
D03*
X1191260Y540960D02*
D03*
Y695960D02*
D03*
X104140Y68580D02*
D03*
X259140D02*
D03*
X1219260D02*
D03*
X1064260D02*
D03*
X1028760D02*
D03*
X873760D02*
D03*
X835690Y68600D02*
D03*
X680690D02*
D03*
X642680Y68580D02*
D03*
X487680D02*
D03*
X449610Y68600D02*
D03*
X294610D02*
D03*
X894110Y1661140D02*
D03*
X739110D02*
D03*
D132*
X1145540Y370840D02*
D03*
Y485140D02*
D03*
X1145560Y561310D02*
D03*
Y675610D02*
D03*
X124490Y114280D02*
D03*
X238790D02*
D03*
X873760Y1615440D02*
D03*
X759460D02*
D03*
X1198910Y114280D02*
D03*
X1084610D02*
D03*
X1008410D02*
D03*
X894110D02*
D03*
X815340Y114300D02*
D03*
X701040D02*
D03*
X622330Y114280D02*
D03*
X508030D02*
D03*
X429260Y114300D02*
D03*
X314960D02*
D03*
D133*
X1082040Y434340D02*
D03*
X1056640Y396240D02*
D03*
Y472440D02*
D03*
Y421640D02*
D03*
Y447040D02*
D03*
X1082040Y408940D02*
D03*
Y459740D02*
D03*
X1082060Y624810D02*
D03*
X1056660Y586710D02*
D03*
Y662910D02*
D03*
Y612110D02*
D03*
Y637510D02*
D03*
X1082060Y599410D02*
D03*
Y650210D02*
D03*
X187990Y177780D02*
D03*
X149890Y203180D02*
D03*
X226090D02*
D03*
X175290D02*
D03*
X200690D02*
D03*
X162590Y177780D02*
D03*
X213390D02*
D03*
X1173510D02*
D03*
X1122710D02*
D03*
X1160810Y203180D02*
D03*
X1135410D02*
D03*
X983010Y177780D02*
D03*
X932210D02*
D03*
X970310Y203180D02*
D03*
X944910D02*
D03*
X789940Y177800D02*
D03*
X739140D02*
D03*
X777240Y203200D02*
D03*
X751840D02*
D03*
X596930Y177780D02*
D03*
X546130D02*
D03*
X584230Y203180D02*
D03*
X558830D02*
D03*
X403860Y177800D02*
D03*
X353060D02*
D03*
X391160Y203200D02*
D03*
X365760D02*
D03*
X810260Y1551940D02*
D03*
X822960Y1526540D02*
D03*
X797560D02*
D03*
X835660Y1551940D02*
D03*
X784860D02*
D03*
X848360Y1526540D02*
D03*
X772160D02*
D03*
X1186210Y203180D02*
D03*
X1110010D02*
D03*
X1148110Y177780D02*
D03*
X995710Y203180D02*
D03*
X919510D02*
D03*
X957610Y177780D02*
D03*
X802640Y203200D02*
D03*
X726440D02*
D03*
X764540Y177800D02*
D03*
X609630Y203180D02*
D03*
X533430D02*
D03*
X571530Y177780D02*
D03*
X416560Y203200D02*
D03*
X340360D02*
D03*
X378460Y177800D02*
D03*
D134*
X1082040Y383540D02*
D03*
X1082060Y574010D02*
D03*
D135*
X137190Y177780D02*
D03*
X1097310D02*
D03*
X906810D02*
D03*
X713740Y177800D02*
D03*
X520730Y177780D02*
D03*
X327660Y177800D02*
D03*
X861060Y1551940D02*
D03*
D136*
X140220Y830940D02*
D03*
X205220D02*
D03*
Y875940D02*
D03*
X140220Y736960D02*
D03*
X205220D02*
D03*
Y781960D02*
D03*
X140220Y642980D02*
D03*
X205220D02*
D03*
Y687980D02*
D03*
X212120Y926680D02*
D03*
X257120D02*
D03*
X212120Y991680D02*
D03*
D137*
X257120D02*
D03*
D138*
X184294Y1134079D02*
D03*
X247794D02*
D03*
D139*
X254000Y1287780D02*
D03*
X292100Y1292860D02*
D03*
X368300Y624840D02*
D03*
X358140D02*
D03*
X1312181Y704341D02*
D03*
X1302181Y684341D02*
D03*
X1292181Y704341D02*
D03*
X1282181Y684341D02*
D03*
X1272181Y704341D02*
D03*
X1262181Y684341D02*
D03*
X1252181Y704341D02*
D03*
X1242181Y684341D02*
D03*
X1232181Y704341D02*
D03*
X1222181Y684341D02*
D03*
X1212181Y704341D02*
D03*
X1202181Y684341D02*
D03*
X1172181Y704341D02*
D03*
X1152181D02*
D03*
X1132181D02*
D03*
X1122181Y684341D02*
D03*
X1112181Y704341D02*
D03*
X1102181Y684341D02*
D03*
X1092181Y704341D02*
D03*
X1082181Y684341D02*
D03*
X1072181Y704341D02*
D03*
X1062181Y684341D02*
D03*
X1052181Y704341D02*
D03*
X1042181Y684341D02*
D03*
X1032181Y704341D02*
D03*
X1022181Y684341D02*
D03*
X1012181Y704341D02*
D03*
X1002181Y684341D02*
D03*
X992181Y704341D02*
D03*
X982181Y684341D02*
D03*
X972181Y704341D02*
D03*
X962181Y684341D02*
D03*
X952181Y704341D02*
D03*
X942181Y684341D02*
D03*
X932181Y704341D02*
D03*
X922181Y684341D02*
D03*
X912181Y704341D02*
D03*
X902181Y684341D02*
D03*
X892181Y704341D02*
D03*
X882181Y684341D02*
D03*
X772181Y704341D02*
D03*
X762181Y684341D02*
D03*
X752181Y704341D02*
D03*
X742181Y684341D02*
D03*
X732181Y704341D02*
D03*
X722181Y684341D02*
D03*
X712181Y704341D02*
D03*
X702181Y684341D02*
D03*
X692181Y704341D02*
D03*
X682181Y684341D02*
D03*
X672180Y704341D02*
D03*
X662180Y684341D02*
D03*
X652180Y704341D02*
D03*
X642180Y684341D02*
D03*
X632180Y704341D02*
D03*
X622180Y684341D02*
D03*
X612180Y704341D02*
D03*
X602180Y684341D02*
D03*
X592180Y704341D02*
D03*
X582180Y684341D02*
D03*
X572180Y704341D02*
D03*
X562180Y684341D02*
D03*
X552180Y704341D02*
D03*
X542180Y684341D02*
D03*
X532180Y704341D02*
D03*
X522180Y684341D02*
D03*
X512180Y704341D02*
D03*
X502180Y684341D02*
D03*
X492180Y704341D02*
D03*
X482180Y684341D02*
D03*
X472180Y704341D02*
D03*
X462180Y684341D02*
D03*
X452180Y704341D02*
D03*
X432180D02*
D03*
X412180D02*
D03*
X402180Y684341D02*
D03*
X392180Y704341D02*
D03*
X382180Y684341D02*
D03*
X372180Y704341D02*
D03*
X362180Y684341D02*
D03*
X352180Y704341D02*
D03*
X342180Y684341D02*
D03*
X332180Y704341D02*
D03*
X322180Y684341D02*
D03*
X312180Y704341D02*
D03*
X302180Y684341D02*
D03*
X292180Y704341D02*
D03*
X282180Y684341D02*
D03*
X272180Y704341D02*
D03*
X262180Y684341D02*
D03*
X252180Y704341D02*
D03*
X242180Y684341D02*
D03*
X232180Y704341D02*
D03*
X222180Y684341D02*
D03*
X212180Y704341D02*
D03*
X192180D02*
D03*
X182180Y684341D02*
D03*
X172180Y704341D02*
D03*
X162180Y684341D02*
D03*
X152180Y704341D02*
D03*
X132180D02*
D03*
X112180D02*
D03*
X92180D02*
D03*
X82180Y684341D02*
D03*
X72180Y704341D02*
D03*
X42180Y684341D02*
D03*
X32180Y704341D02*
D03*
X22180Y684341D02*
D03*
X299720Y1236980D02*
D03*
X307340D02*
D03*
X279400Y1287780D02*
D03*
X288377Y1326038D02*
D03*
X278217D02*
D03*
X265517D02*
D03*
X255357D02*
D03*
X245197D02*
D03*
X232497D02*
D03*
X287020Y1414780D02*
D03*
X279400Y1422400D02*
D03*
X294640Y1407160D02*
D03*
X302260Y1397000D02*
D03*
Y1381760D02*
D03*
X299720Y1369060D02*
D03*
X287020Y1363980D02*
D03*
X274320D02*
D03*
X261620D02*
D03*
X248920D02*
D03*
X236220D02*
D03*
X220980Y1366520D02*
D03*
X215900Y1376680D02*
D03*
Y1386840D02*
D03*
X220980Y1399540D02*
D03*
X228600Y1407160D02*
D03*
X236220Y1414780D02*
D03*
X243840Y1422400D02*
D03*
D140*
X1222180Y594340D02*
D03*
X1287180Y464340D02*
D03*
X1222180Y334340D02*
D03*
X1287180Y204340D02*
D03*
X1157180Y464340D02*
D03*
X1092180Y334340D02*
D03*
Y74340D02*
D03*
X962180Y1634340D02*
D03*
Y1374340D02*
D03*
Y854340D02*
D03*
X1027180Y204340D02*
D03*
X962180Y74340D02*
D03*
X832180Y1634340D02*
D03*
X897180Y1504340D02*
D03*
X832180Y1374340D02*
D03*
X897180Y1244340D02*
D03*
Y984340D02*
D03*
X832180Y854340D02*
D03*
Y594340D02*
D03*
X897180Y464340D02*
D03*
X832180Y334340D02*
D03*
X897180Y204340D02*
D03*
X702180Y1634340D02*
D03*
X767180Y1504340D02*
D03*
X702180Y1374340D02*
D03*
X767180Y1244340D02*
D03*
X702180Y1114340D02*
D03*
X767180Y984340D02*
D03*
Y464340D02*
D03*
X702180Y334340D02*
D03*
Y74340D02*
D03*
X572180Y1634340D02*
D03*
X637180Y1504340D02*
D03*
X572180Y1374340D02*
D03*
X637180Y1244340D02*
D03*
X572180Y854340D02*
D03*
Y594340D02*
D03*
X637180Y464340D02*
D03*
X572180Y334340D02*
D03*
X637180Y204340D02*
D03*
X572180Y74340D02*
D03*
X507180Y1504340D02*
D03*
X442180Y1374340D02*
D03*
X507180Y984340D02*
D03*
Y724340D02*
D03*
X442180Y594340D02*
D03*
Y334340D02*
D03*
X507180Y204340D02*
D03*
X312180Y1374340D02*
D03*
X377180Y724340D02*
D03*
X312180Y594340D02*
D03*
Y334340D02*
D03*
Y74340D02*
D03*
X182180Y1374340D02*
D03*
X247180Y1244340D02*
D03*
X182180Y854340D02*
D03*
X247180Y724340D02*
D03*
X182180Y594340D02*
D03*
X247180Y204340D02*
D03*
X182180Y74340D02*
D03*
X52180Y1634340D02*
D03*
Y1374340D02*
D03*
X117180Y1244340D02*
D03*
X52180Y1114340D02*
D03*
X117180Y984340D02*
D03*
Y724340D02*
D03*
Y464340D02*
D03*
X52180Y334340D02*
D03*
X117180Y204340D02*
D03*
X52180Y74340D02*
D03*
X962181Y884341D02*
D03*
X942181D02*
D03*
X922181D02*
D03*
X902181D02*
D03*
X882181D02*
D03*
X862181D02*
D03*
X842181D02*
D03*
X822181D02*
D03*
X802181D02*
D03*
X782181D02*
D03*
X762181D02*
D03*
X742181D02*
D03*
X350520Y1402080D02*
D03*
X360680Y1452880D02*
D03*
X327660Y650240D02*
D03*
X314960Y751840D02*
D03*
X326446Y752206D02*
D03*
X337820Y751840D02*
D03*
X812800Y711200D02*
D03*
X904240Y728980D02*
D03*
X775692Y653464D02*
D03*
X775368Y638130D02*
D03*
X721360Y584200D02*
D03*
X708660Y571500D02*
D03*
X262050Y490175D02*
D03*
X254017Y504011D02*
D03*
X506518Y478424D02*
D03*
X500380Y500380D02*
D03*
X790742Y484295D02*
D03*
X782420Y500063D02*
D03*
X835660Y530860D02*
D03*
X727006Y480985D02*
D03*
X407170Y693846D02*
D03*
X438661Y610915D02*
D03*
X431697Y673183D02*
D03*
X348441Y672197D02*
D03*
X563880Y777240D02*
D03*
X683124Y768931D02*
D03*
X681595Y790348D02*
D03*
X673475Y879315D02*
D03*
X616808Y780458D02*
D03*
X633117Y781400D02*
D03*
X578115Y637182D02*
D03*
X622416Y601220D02*
D03*
X637635Y603201D02*
D03*
X396240Y1120140D02*
D03*
X451002Y1111687D02*
D03*
X411480Y1112520D02*
D03*
X452120Y1079500D02*
D03*
X241859Y1089913D02*
D03*
X214839Y1089591D02*
D03*
X193040Y1049020D02*
D03*
X792480Y1188720D02*
D03*
X907436Y1183102D02*
D03*
X709446Y1103462D02*
D03*
X380188Y1049631D02*
D03*
X339463Y1039015D02*
D03*
X362238Y996650D02*
D03*
X833120Y1407160D02*
D03*
X753463Y1391406D02*
D03*
X469780Y1245179D02*
D03*
X507981Y1244987D02*
D03*
X431800Y1343660D02*
D03*
X434340Y1358900D02*
D03*
X431800Y1374140D02*
D03*
X314960Y1272540D02*
D03*
Y1254760D02*
D03*
X335280Y1399540D02*
D03*
X317500Y1404620D02*
D03*
X198120Y1409700D02*
D03*
X185420Y1412240D02*
D03*
X175260Y1422400D02*
D03*
X408940Y1244600D02*
D03*
X393700Y1303020D02*
D03*
X429260Y1297940D02*
D03*
X439420Y1275080D02*
D03*
X429260Y1247140D02*
D03*
X381000Y1249680D02*
D03*
X350520Y1292860D02*
D03*
X345440Y1270000D02*
D03*
X358140Y1249680D02*
D03*
X360680Y1440180D02*
D03*
X353060Y1460500D02*
D03*
X340360D02*
D03*
X325120Y1457960D02*
D03*
X223520Y1452880D02*
D03*
X218440Y1468120D02*
D03*
X203200Y1442720D02*
D03*
X200660Y1470660D02*
D03*
X177800Y1463040D02*
D03*
X180340Y1445260D02*
D03*
D141*
X239628Y1464303D02*
D03*
X929726Y1080433D02*
D03*
X929640Y1066800D02*
D03*
X863600Y1079500D02*
D03*
X276860Y972820D02*
D03*
X749807Y1064072D02*
D03*
X759460Y1084580D02*
D03*
X751840Y1079500D02*
D03*
X760330Y1063485D02*
D03*
X802640Y1191260D02*
D03*
X224659Y1502596D02*
D03*
X307340Y1478280D02*
D03*
X826143Y721883D02*
D03*
X807730Y744490D02*
D03*
X863740Y683375D02*
D03*
X921313Y771902D02*
D03*
X952968Y827758D02*
D03*
X878840Y853440D02*
D03*
X858520D02*
D03*
X739140Y716280D02*
D03*
X782320Y739140D02*
D03*
X553720Y523240D02*
D03*
X312420Y525780D02*
D03*
X785997Y1118746D02*
D03*
X813872Y1116942D02*
D03*
X797445Y1096096D02*
D03*
X840518Y1126289D02*
D03*
X840740Y967740D02*
D03*
X863600Y1054100D02*
D03*
X907234Y1096349D02*
D03*
X907109Y1051002D02*
D03*
X411480Y1104900D02*
D03*
X401320D02*
D03*
X678278Y1113313D02*
D03*
X668096Y1128638D02*
D03*
X678180Y1000760D02*
D03*
X679489Y992575D02*
D03*
X695969Y1048526D02*
D03*
X695960Y1056640D02*
D03*
X340187Y962965D02*
D03*
X454331Y1155917D02*
D03*
X447261Y1168482D02*
D03*
X429260Y1158240D02*
D03*
X562359Y1170725D02*
D03*
X571036Y1170105D02*
D03*
X394214Y1037578D02*
D03*
X403626Y1052688D02*
D03*
X399374Y975395D02*
D03*
X360387Y966638D02*
D03*
X378460Y955040D02*
D03*
Y947420D02*
D03*
X360331Y974065D02*
D03*
X408553Y990494D02*
D03*
X457199Y888825D02*
D03*
X449238Y888881D02*
D03*
X518279Y889132D02*
D03*
X526435Y888828D02*
D03*
X609762Y874511D02*
D03*
X574619Y892403D02*
D03*
X565699Y892255D02*
D03*
X635000Y891540D02*
D03*
X626239Y891372D02*
D03*
X475680Y1194033D02*
D03*
X513080Y1168400D02*
D03*
X523240D02*
D03*
X175260Y1363980D02*
D03*
X200660D02*
D03*
X239486Y1470667D02*
D03*
X295931Y1493083D02*
D03*
X271865Y1540374D02*
D03*
X298028Y1540600D02*
D03*
X262121Y1465685D02*
D03*
X255881Y1512335D02*
D03*
X244773Y1503147D02*
D03*
D142*
X817005Y677858D02*
D03*
X23266Y673071D02*
D03*
X25220Y627339D02*
D03*
D143*
X464820Y576580D02*
D03*
X948272Y342211D02*
D03*
X982980Y335280D02*
D03*
X942917Y315537D02*
D03*
X929640Y304420D02*
D03*
X960120Y307340D02*
D03*
X960791Y331597D02*
D03*
D144*
X786317Y1375964D02*
D03*
X533400Y1211580D02*
D03*
X506803Y1211099D02*
D03*
X507026Y1193466D02*
D03*
X497045Y1211693D02*
D03*
X498347Y1193466D02*
D03*
X529936Y1193201D02*
D03*
X516409Y1193567D02*
D03*
X518237Y1212212D02*
D03*
X453650Y480521D02*
D03*
X212842Y485084D02*
D03*
X262232Y1060830D02*
D03*
X249096Y1050097D02*
D03*
X243979Y1077767D02*
D03*
X230926Y1067273D02*
D03*
X103891Y869840D02*
D03*
X251460Y1069340D02*
D03*
X238869Y1060021D02*
D03*
X100188Y774581D02*
D03*
X103171Y680919D02*
D03*
X296226Y995996D02*
D03*
Y981441D02*
D03*
X305249Y996578D02*
D03*
X306123Y981150D02*
D03*
X315861Y996340D02*
D03*
Y982112D02*
D03*
D145*
X43180Y43180D02*
D03*
Y1686560D02*
D03*
X942340Y1689100D02*
D03*
X1277620Y43180D02*
D03*
M02*
